<svg version="1.1" xmlns="http://www.w3.org/2000/svg" xmlns:xlink="http://www.w3.org/1999/xlink" width="431.42643" height="314.30931" viewBox="0,0,431.42643,314.30931"><g transform="translate(-24.28679,-22.84534)"><g data-paper-data="{&quot;isPaintingLayer&quot;:true}" fill-rule="nonzero" stroke-linecap="butt" stroke-linejoin="miter" stroke-miterlimit="10" stroke-dasharray="" stroke-dashoffset="0" style="mix-blend-mode: normal"><path d="M26.78679,334.65465v-309.30931h426.42643v309.30931z" fill="#ff9625" stroke="#b3691b" stroke-width="5"/><path d="M284,99.5v-51h159v51z" fill="#da8021" stroke="#8f5415" stroke-width="5"/><path d="M283,262.5v-151h159v151z" fill="#da8021" stroke="#8f5415" stroke-width="5"/><path d="M283,324.5v-52h159v52z" fill="#da8021" stroke="#8f5415" stroke-width="5"/><path d="M64,283.5v-202h183v202z" fill="#da8021" stroke="#8f5415" stroke-width="5"/><text transform="translate(288.5,81) scale(0.5,0.5)" font-size="40" xml:space="preserve" fill="#ffffff" fill-rule="nonzero" stroke="none" stroke-width="1" stroke-linecap="butt" stroke-linejoin="miter" stroke-miterlimit="10" stroke-dasharray="" stroke-dashoffset="0" font-family="Pixel" font-weight="normal" text-anchor="start" style="mix-blend-mode: normal"><tspan x="0" dy="0">Ice Cream Cone</tspan></text><text transform="translate(336,136.75) scale(0.60834,0.60834)" font-size="40" xml:space="preserve" fill="#ffffff" fill-rule="nonzero" stroke="none" stroke-width="1" stroke-linecap="butt" stroke-linejoin="miter" stroke-miterlimit="10" stroke-dasharray="" stroke-dashoffset="0" font-family="Pixel" font-weight="normal" text-anchor="start" style="mix-blend-mode: normal"><tspan x="0" dy="0">Hint:</tspan></text><text transform="translate(287,160.125) scale(0.40249,0.40249)" font-size="40" xml:space="preserve" fill="#ffffff" fill-rule="nonzero" stroke="none" stroke-width="1" stroke-linecap="butt" stroke-linejoin="miter" stroke-miterlimit="10" stroke-dasharray="" stroke-dashoffset="0" font-family="Pixel" font-weight="normal" text-anchor="start" style="mix-blend-mode: normal"><tspan x="0" dy="0">this cone is hidden</tspan><tspan x="0" dy="48px">Somewhere that</tspan><tspan x="0" dy="48px">has a lot of candy</tspan></text><path d="M310.98077,316.75v-33.5h36.07692v33.5z" fill="#5aff00" stroke="none" stroke-width="0"/><text transform="translate(355.01923,306.25) scale(0.5,0.5)" font-size="40" xml:space="preserve" fill="#ffffff" fill-rule="nonzero" stroke="none" stroke-width="1" stroke-linecap="butt" stroke-linejoin="miter" stroke-miterlimit="10" stroke-dasharray="" stroke-dashoffset="0" font-family="Pixel" font-weight="normal" text-anchor="start" style="mix-blend-mode: normal"><tspan x="0" dy="0">easy</tspan></text><path d="M203.39389,117.38106c-16.71769,35.98013 -34.38852,94.719 -40.2791,109.69833c-1.6294,4.14345 -2.83902,3.75734 -3.62017,1.93438c-0.78116,-1.82296 -29.96573,-73.15629 -43.60073,-112.13269c-1.99842,-5.71261 90.62716,-6.23033 87.5,0.49999z" data-paper-data="{&quot;index&quot;:null}" fill="#ef9540" stroke="#c9712e" stroke-width="5"/><path d="M149.68877,198.75464c4.53006,-6.69661 7.15855,-15.4196 11.66884,-22.12463c0.37026,-1.40679 0.44982,-2.9245 1.11078,-4.22036c0.97377,-1.90913 2.95376,-3.16013 4.01323,-5.02307c1.2663,-2.22662 1.72723,-4.85738 3.03564,-7.05951c0.46578,-0.78393 1.54417,-1.10141 1.95113,-1.91742c0.61337,-1.2299 0.38414,-2.77134 1,-4c0.43637,-0.87058 1.54059,-1.25192 2.04887,-2.08258c1.19902,-1.9595 1.283,-4.43774 2.30713,-6.49406c0.72728,-1.46029 1.85151,-2.70618 2.52784,-4.19075c2.36413,-5.18941 1.94244,-11.49295 3.94695,-16.86823c1.45115,-3.89139 2.87409,-4.78115 2.84471,-9.00763l14.075,1.7c-0.0269,4.74656 -1.60233,3.52677 -3.23029,7.84237c-2.07198,5.49264 -6.96757,19.52677 -8.21808,21.64696c-0.46325,0.78542 -1.73527,5.28876 -2.35113,6.51742c-0.43637,0.87058 -1.94386,6.64994 -2.44887,7.48258c-1.30461,2.15096 -1.31248,5.75841 -2.56435,7.94049c-1.05776,1.84375 -2.05485,5.2665 -2.98678,7.17693c-0.56745,1.16325 -2.59281,5.51976 -2.88922,6.77964c-4.61445,6.98103 -3.59312,18.17086 -8.20616,25.17537l-6.4,17.4z" fill="#e08631" stroke="none" stroke-width="0.5"/><path d="M169.3939,203.62172l0.01931,-2.02325c-0.225,-1.80032 -0.23787,-3.63395 -0.6203,-5.40751c-0.55683,-2.58235 -4.40318,-6.54896 -7.51614,-4.1532c-0.5268,0.40544 -2.7642,4.60915 -2.83828,4.7503c-1.96413,3.74241 -3.26114,7.62115 -4.91339,11.48512c0,0 -0.98479,2.29787 -3.28266,1.31306c-2.29787,-0.9848 -1.31306,-3.28266 -1.31306,-3.28266c1.71101,-3.9826 3.05049,-7.98952 5.08661,-11.84822c0.78122,-1.48051 2.31226,-4.3922 3.74706,-5.9185c-2.21758,-0.72491 -4.35408,-1.68814 -6.30336,-2.6706c-1.94932,-0.98248 -4.03003,-2.06938 -5.30261,-3.84298c-1.02876,-1.43379 -1.74095,-3.27401 -2.30062,-5.13495c-0.47072,0.90335 -0.92442,1.82177 -1.35329,2.76788c0,0 -1.03451,2.27591 -3.31043,1.24141c-2.27591,-1.0345 -1.24141,-3.31042 -1.24141,-3.31042c2.54924,-5.59392 6.00841,-13.74988 11.07771,-17.69163c-2.4865,-1.27527 -4.96794,-2.83488 -7.10746,-4.14191c-2.71292,-1.65732 -7.48115,-3.94666 -9.16241,-6.83086c-0.10527,-0.18058 -0.19343,-0.36819 -0.26865,-0.56114c-0.89074,1.24108 -1.77019,2.4707 -2.69846,3.55369c0,0 -1.62698,1.89814 -3.52512,0.27116c-1.89814,-1.62698 -0.27116,-3.52512 -0.27116,-3.52512c2.01599,-2.35199 3.68068,-4.88969 5.60836,-7.26274c1.02355,-1.26003 2.23968,-2.38224 3.5472,-3.42481c-2.05712,-1.22161 -4.01466,-2.58917 -5.84239,-4.08546c-1.8877,-1.54538 -2.99503,-3.86944 -4.22346,-5.97717c-1.7091,-2.93249 -3.82592,-4.69638 -5.42764,-7.83814c0,0 -1.11803,-2.23607 1.11804,-3.35411c2.23607,-1.11804 3.3541,1.11804 3.3541,1.11804c1.48159,3.0365 3.53709,4.62691 5.23903,7.49519c0.95713,1.61306 1.62794,3.53974 3.10988,4.68949c2.28314,1.77137 4.70765,3.34624 7.24276,4.68393c1.02885,-0.69596 2.04595,-1.38372 3.00986,-2.08711c4.02556,-2.93751 7.41624,-7.08121 12.20569,-8.97317c6.42914,-2.53967 13.79915,-2.86699 20.45982,-1.37955c3.63404,1.8026 7.96739,4.08879 11.51341,6.89451c3.81813,-2.63072 6.07775,-6.98196 8.08074,-10.98996l0.33333,-0.66667c0,0 1.11804,-2.23607 3.35411,-1.11803c2.23607,1.11804 1.11803,3.3541 1.11803,3.3541l-0.33333,0.66666c-2.26489,4.52758 -4.83718,9.06 -8.87835,12.24389c0.22526,0.26659 0.44115,0.53686 0.64681,0.81081c1.56035,2.07854 2.75548,5.53115 3.66963,7.94947l0.15918,1.87781c0,0 0,2.5 -2.5,2.5c-0.39659,0 -0.73027,-0.06292 -1.01101,-0.16878c-0.34154,0.68622 -0.93557,1.08224 -0.93557,1.08224l-0.35241,0.03964c-1.758,2.44634 -3.03651,5.03781 -4.79345,7.49617c-0.25686,0.25831 -4.154,4.19147 -4.39006,4.37083c-1.18266,0.89864 -2.49126,1.66045 -3.89006,2.29429c2.36754,2.49347 4.32551,5.44017 5.96889,8.32312c0.71299,1.89409 -2.68884,8.67362 -2.93181,7.95591c-2.58205,4.22265 -4.03686,8.34253 -8.77179,10.95197c-0.42064,0.23182 -0.84669,0.4363 -1.2773,0.61518c0.68052,0.4929 1.26423,1.06089 1.70864,1.69382c2.13011,3.03367 1.45301,5.44049 1.88997,8.93553zM147.65259,171.68205c0.60503,2.44323 1.25659,5.4013 2.64481,7.5381c1.0854,1.67068 1.63908,1.30243 3.36405,2.15702c4.22687,2.09408 10.67281,5.21424 15.33973,2.39917c4.17706,-2.5196 5.17331,-6.57142 7.81259,-10.54137l0.51072,-1.06462c0,0 0.37067,-0.74134 1.11201,-1.15687c-1.43338,-2.47453 -3.66945,-6.03306 -6.33835,-8.42723c-5.67386,1.28598 -12.00268,1.00867 -17.26053,-0.40539c-0.87778,0.43443 -1.71096,0.92547 -2.48195,1.46896c-2.27239,1.60188 -3.64549,4.54182 -4.9504,6.86581c-0.05412,0.09639 -0.10826,0.19261 -0.16242,0.28868c0.30301,0.45083 0.40974,0.87774 0.40974,0.87774zM171.38555,156.40625c0.50182,0.26188 0.99034,0.54675 1.46599,0.85223c1.93983,-0.60733 3.71564,-1.46897 5.19153,-2.62352c1.34393,-1.05131 2.3995,-2.42658 3.60994,-3.62917c1.66769,-2.33649 2.87213,-4.82325 4.53989,-7.17049l1.64758,-1.2937c0,0 0.95754,-0.63836 2.00639,-0.39919c-0.68844,-1.90637 -1.53712,-4.24204 -2.62418,-5.69341c-0.26894,-0.35906 -0.56241,-0.7118 -0.87703,-1.05806c-4.40008,2.44854 -9.35787,4.29068 -13.85355,6.21741c-2.92897,1.09912 -5.84615,2.4708 -8.99209,2.83178c-7.88432,0.90468 -16.04511,-0.60127 -23.36138,-3.87944c-0.90493,0.64651 -1.79696,1.3063 -2.65977,1.99439c-0.35736,0.285 -0.70279,0.593 -1.03831,0.91943c0.16779,0.33781 0.22714,0.60488 0.22714,0.60488c0.70293,4.36471 6.66558,7.0264 10.39926,9.00129c2.18267,1.15451 5.04883,2.92992 7.40563,3.76319c5.43993,-2.2239 12.10786,-2.9452 16.91296,-0.43763zM173.72412,126.97764c-5.43093,-1.19819 -11.64105,-0.70657 -16.87351,1.28712c-4.35267,1.65847 -7.49541,5.68427 -11.12764,8.36016c-0.21787,0.16051 -0.43697,0.31996 -0.65706,0.47858c5.65856,2.10596 11.71883,3.02355 17.88854,2.36648c2.64811,-0.28203 5.21322,-1.57921 7.67458,-2.50155c3.76693,-1.6144 7.84497,-3.16204 11.62,-5.08265c-2.77636,-1.94941 -5.93503,-3.59873 -8.52489,-4.90814z" fill="#c9712e" stroke="none" stroke-width="0.5"/><path d="M145.89389,164.05542c0,-1.38071 1.11929,-2.5 2.5,-2.5c1.38071,0 2.5,1.11929 2.5,2.5c0,1.38071 -1.11929,2.5 -2.5,2.5c-1.38071,0 -2.5,-1.11929 -2.5,-2.5z" fill="#723a0f" stroke="none" stroke-width="0.5"/><path d="M165.89388,161.55542c0,-1.38071 1.11929,-2.5 2.5,-2.5c1.38071,0 2.5,1.11929 2.5,2.5c0,1.38071 -1.11929,2.5 -2.5,2.5c-1.38071,0 -2.5,-1.11929 -2.5,-2.5z" fill="#723a0f" stroke="none" stroke-width="0.5"/><path d="M149.84388,253.95542c-2.17317,0 -7.57909,0.70177 -9.36803,-0.26393c-5.08484,-2.74486 -3.5529,-8.99301 1.24093,-10.65614c1.15941,-0.40223 2.87017,-0.51639 4.68048,-0.45925c2.61161,0.08244 5.43037,0.52137 7.09974,0.96614c0.53079,0.14142 1.33387,0.36031 2.03426,0.64232c-0.09474,-0.48687 -0.13054,-0.99212 -0.17521,-1.4828c-0.33981,-3.73294 0.48783,-7.70537 0.48783,-11.49635c0,0 0,-2.5 2.5,-2.5c2.5,0 2.5,2.5 2.5,2.5c0,3.08056 0.39582,5.96242 0.05926,8.99635c-0.16666,1.50243 0.0234,2.99863 -0.07143,4.50731c-0.10616,1.68891 0.36902,3.94883 -0.97035,4.98311c-0.1823,0.14077 -5.80367,4.1495 -10.01749,4.26323z" fill="#723a0f" stroke="none" stroke-width="0.5"/><path d="M162.79736,249.39219c-1.33937,-1.03428 -0.86419,-3.2942 -0.97035,-4.98311c-0.09482,-1.50868 0.09524,-3.00488 -0.07143,-4.50731c-0.33656,-3.03393 0.05926,-5.91579 0.05926,-8.99634c0,0 0,-2.5 2.5,-2.5c2.5,0 2.5,2.5 2.5,2.5c0,3.79098 0.82764,7.7634 0.48783,11.49634c-0.04467,0.49068 -0.08046,0.99592 -0.17521,1.4828c0.70039,-0.28202 1.50347,-0.5009 2.03426,-0.64232c2.82653,-0.75308 8.94819,-1.48941 11.78022,-0.50689c4.79383,1.66313 6.32577,7.91128 1.24093,10.65614c-1.78895,0.9657 -7.19486,0.26393 -9.36803,0.26393c-4.21382,-0.11373 -9.83519,-4.12247 -10.01749,-4.26324z" data-paper-data="{&quot;index&quot;:null}" fill="#723a0f" stroke="none" stroke-width="0.5"/><path d="M160.28993,179.16496c4.14485,-0.76248 8.68301,-0.7354 12.1293,0.96948c3.28727,1.6262 5.99898,7.43668 4.01683,10.94703c-1.12902,1.99947 -6.49685,3.68294 -8.2505,4.17541c-5.21442,1.46433 -11.27651,2.21076 -16.70789,1.5768c-1.04169,-0.12159 -6.72619,-1.44118 -7.36201,-2.35319c-1.05235,-1.50948 -0.72618,-3.60783 -1.08927,-5.41175c0.54597,-1.44376 0.83108,-3.01541 1.63793,-4.33129c2.65327,-4.32715 7.9474,-4.788 12.39901,-5.59739l2.69722,-0.04032c0,0 0.21995,0 0.52937,0.06524zM155.28597,184.46441c-2.49463,0.62737 -6.08255,2.1256 -7.29125,5.16631c-0.12722,2.26354 1.50518,1.94571 4.04873,2.23505c4.81762,0.54802 10.1627,-0.15331 14.7921,-1.4232c1.31519,-0.36077 2.5723,-0.90714 3.86048,-1.35488c0.46168,-0.16046 1.1112,-0.06759 1.38902,-0.46971c0.21891,-0.31686 -0.18524,-0.74784 -0.29222,-1.1178c-0.8471,-2.92949 -1.53615,-3.23532 -4.83774,-3.66918c-1.20618,-0.1585 -3.4804,0.12001 -4.6651,0.25306c-1.98809,0.22328 -5.93084,1.60881 -7.00404,0.38035z" fill="#723a0f" stroke="none" stroke-width="0.5"/></g></g></svg>