<svg version="1.1" xmlns="http://www.w3.org/2000/svg" xmlns:xlink="http://www.w3.org/1999/xlink" width="515.92413" height="435.11254" viewBox="0,0,515.92413,435.11254"><g transform="translate(13.96207,37.55626)"><g data-paper-data="{&quot;isPaintingLayer&quot;:true}" fill-rule="nonzero" stroke-linecap="butt" stroke-linejoin="miter" stroke-miterlimit="10" stroke-dasharray="" stroke-dashoffset="0" style="mix-blend-mode: normal"><path d="M-7.70831,282.43906v-291.29129h490.99099v291.29129z" fill="#75ffda" stroke="none" stroke-width="0"/><path d="M-13.66368,-14.43975l514.73494,-6.78009l-23.27164,302.61407l-75.62984,2.27559c0,0 -8.60162,-151.37807 -6.5856,-236.48673c0.52341,-22.0965 5.90506,-31.34578 -7.05113,-32.59997c-12.95619,-1.25419 -401.55405,3.75252 -401.55405,3.75252z" fill="#6be8c7" stroke="none" stroke-width="0"/><path d="M205.35237,366.35892v-85.63364h277.77778v85.63364z" fill="#4a6fff" stroke="#344eb5" stroke-width="5"/><path d="M-11.46207,364.87318v-115.61562c0,0 105.80649,-1.52837 173.26918,19.47023c34.13724,10.62564 60.93983,12.87056 81.8689,27.38987c8.8329,6.12773 22.29706,19.97398 36.75374,22.13878c94.62311,28.81463 64.17537,37.21403 126.62169,55.55667c163.26477,47.9565 -54.14348,0.39168 -138.72942,-4.31212c-76.42687,-4.25009 -279.78409,-4.62781 -279.78409,-4.62781z" fill="#ffdd57" stroke="#b59d3e" stroke-width="5"/><path d="M501.96205,30.0113c0,37.31653 -31.93165,67.56757 -71.32132,67.56757c-39.38968,0 -71.32132,-30.25103 -71.32132,-67.56756c0,-37.31653 31.93164,-67.56757 71.32132,-67.56757c39.38968,0 71.32133,30.25103 71.32133,67.56757z" fill="#fff884" stroke="none" stroke-width="0"/><path d="M11.83632,260.94373c0,0 4.31559,-169.48046 36,-263.55683c7.15501,-21.24444 60.4764,-12.67428 42.1701,37.74574c-24.71594,68.07378 -8.59471,47.02706 -28.99543,103.22382c-14.93252,41.13379 -9.17467,122.58727 -9.17467,122.58727z" fill="#b9704a" stroke="#835034" stroke-width="5"/><path d="M118.83632,19.19373c0,5.78439 -54.50174,3.59416 -54.50174,3.59416c0,0 -50.99826,2.08136 -50.99826,-3.59416c0,-11.45991 21.61698,-31.25 50.75,-31.25c29.13302,0 54.75,19.79009 54.75,31.25z" fill="#9d603f" stroke="#69402a" stroke-width="5"/><path d="M39.8747,23.72936c-2.95139,2.94029 -6.45681,3.78172 -9.431,6.64795c-6.14202,5.91904 -12.8769,8.84642 -19.47897,13.37953c-4.92617,3.38242 -9.69617,6.76392 -14.11944,12.0434c-0.50562,0.6035 -1.15362,1.25871 -1.66052,1.88392c6.13259,-32.56349 20.76103,-56.98049 38.54403,-69.67951c3.50944,-2.50613 6.81216,-6.17425 10.50081,-7.79808c5.16781,-2.275 10.45566,-1.48336 15.61406,-3.32351c22.40438,0.21574 48.02096,3.72257 64.86703,33.93393c3.80649,6.82647 6.02582,14.62397 9.01072,22.52338c0.66824,3.67111 1.63752,7.20738 2.13883,10.95263c-0.12476,-0.22332 -0.36987,-0.47286 -0.48027,-0.64716c-5.58904,-8.8238 -13.33382,-14.42441 -20.16609,-19.29819c-6.87968,-4.9076 -13.03172,-11.44508 -19.71613,-17.00157c-7.1629,-5.95425 -14.85923,-10.73447 -22.37894,-15.17674c-7.85392,-2.36885 -15.19867,-2.47765 -23.15479,-2.47765l-0.64073,-0.00165c0,0 -3.20037,-0.01785 -3.20037,5.70444c0,2.95688 0.85904,4.37847 1.687,5.06905c-1.06292,8.15711 -3.97094,19.31647 -7.9352,23.26583z" data-paper-data="{&quot;noHover&quot;:false,&quot;origItem&quot;:[&quot;Path&quot;,{&quot;applyMatrix&quot;:true,&quot;segments&quot;:[[[108.72673,-1.54631],[-1.65658,7.1275],[-1.29038,-0.60341]],[[106.10128,-5.98198],[0,2.58366],[0,-5]],[111.10128,-10.98198],[[112.10128,-10.98198],[0,0],[12.3997,0]],[[148.30654,-8.83454],[-12.24041,-2.06985],[11.71955,3.88156]],[[183.23521,4.49626],[-11.16346,-5.20269],[10.41772,4.85514]],[[213.96438,19.3781],[-10.72205,-4.28815],[10.64816,4.2586]],[[245.39157,36.25319],[-8.71057,-7.71004],[0.17206,0.1523]],[[245.94447,36.77698],[-0.19445,-0.19513],[-0.78129,-3.27252]],[[242.6097,27.21478],[1.04146,3.20773],[-4.65199,-6.90233]],[[228.56575,7.55355],[5.93245,5.96482],[-26.25476,-26.39801]],[[127.59397,-22.00631],[34.91744,0.18851],[-8.03942,1.60788]],[[103.30654,-19.12942],[8.05409,-1.98785],[-5.7488,1.41887]],[[86.95823,-12.3396],[5.4695,-2.1898],[-27.71497,11.09612]],[[26.89336,48.46826],[9.55769,-28.45325],[0.79,-0.5463]],[[29.29069,46.88273],[-0.78802,0.52732],[6.89371,-4.61309]],[[51.29489,36.35573],[-7.67749,2.95548],[10.28938,-3.96094]],[[81.65165,24.6592],[-9.57239,5.17193],[4.63531,-2.50445]],[[96.34882,18.84381],[-4.59976,2.56916],[6.17834,-3.45087]]],&quot;closed&quot;:true}]}" fill="#66ff87" stroke="#50c96a" stroke-width="5"/></g></g></svg>