<svg version="1.1" xmlns="http://www.w3.org/2000/svg" xmlns:xlink="http://www.w3.org/1999/xlink" width="42" height="42" viewBox="0,0,42,42"><g transform="translate(-219,-159.84455)"><g data-paper-data="{&quot;isPaintingLayer&quot;:true}" fill-rule="nonzero" stroke-linecap="butt" stroke-linejoin="miter" stroke-miterlimit="10" stroke-dasharray="" stroke-dashoffset="0" style="mix-blend-mode: normal"><path d="M221.5,199.34455v-37h37v37z" fill="#1dff00" stroke="#18cb00" stroke-width="5"/><path d="M231.7934,180.49653c1.77319,0.90559 2.68603,5.22619 3.35804,4.5665c1.44159,-1.41517 3.62865,-3.13415 3.66896,-3.16896c3.11725,-2.69209 5.70765,-6.36708 8.28206,-8.57371c2.17361,-1.8631 6.15559,-1.32467 4.82719,2.66052c-0.77435,2.32305 -14.84952,15.206 -16.7563,15.11594c-1.99245,-0.09411 -7.00668,-8.30024 -7.00668,-8.34682c0,-1.38071 1.11929,-2.5 2.5,-2.5c0.00169,0 0.00338,0 0.00507,0.00001c0.31058,-0.0503 0.6721,0.01693 1.12166,0.24653z" fill="#ffffff" stroke="#c7c7c7" stroke-width="1"/></g></g></svg>