<svg version="1.1" xmlns="http://www.w3.org/2000/svg" xmlns:xlink="http://www.w3.org/1999/xlink" width="562.05706" height="399.48308" viewBox="0,0,562.05706,399.48308"><g transform="translate(34.27176,17.65458)"><g data-paper-data="{&quot;isPaintingLayer&quot;:true}" fill-rule="nonzero" stroke-linejoin="miter" stroke-miterlimit="10" stroke-dasharray="" stroke-dashoffset="0" style="mix-blend-mode: normal"><path d="M-3.99399,287.0044v-291.29129h490.99099v291.29129z" fill="#75ffda" stroke="none" stroke-width="0" stroke-linecap="butt"/><path d="M-9.94936,-10.87448l514.73494,-6.78009l-19.93531,395.37983l-83.80401,0.77409c0,0 -3.76378,-242.64233 -1.74776,-327.75099c0.52341,-22.0965 5.90506,-31.34578 -7.05113,-32.59997c-12.95619,-1.25419 -401.55405,3.75252 -401.55405,3.75252z" fill="#6be8c7" stroke="none" stroke-width="0" stroke-linecap="butt"/><path d="M525.28529,320.39045c0,18.73396 -17.08654,41.56414 -56.95113,49.0202c-60.71767,11.3563 -163.71787,1.56539 -256.5774,1.56539c-103.99551,0 -164.67917,21.48677 -212.51891,-4.46514c-22.92338,-12.43538 -31.00961,-30.80833 -31.00961,-46.12045c0,-47.26761 124.70147,-85.58558 278.52853,-85.58558c153.82706,0 278.52853,38.31797 278.52853,85.58558z" fill="#57ff78" stroke="#3eb555" stroke-width="5" stroke-linecap="butt"/><path d="M151.5015,251.9386v-113.11791h167.47448v113.11791z" fill="#ff9359" stroke="#9a5936" stroke-width="5" stroke-linecap="butt"/><path d="M137.75677,138.27079l101,-73l100,74z" fill="#e83f3f" stroke="#a82d2d" stroke-width="5" stroke-linecap="butt"/><path d="M159.49244,131.79516l2.48333,-27.88965l150.40495,13.39222l-2.48333,27.88966z" fill="#ffffff" stroke="#000000" stroke-width="5" stroke-linecap="butt"/><text transform="translate(170.36829,125.77021) rotate(3.93808) scale(0.9518,0.50148) skewX(-2.57725)" font-size="40" xml:space="preserve" fill="#6f6f6f" fill-rule="nonzero" stroke="none" stroke-width="1" stroke-linecap="butt" stroke-linejoin="miter" stroke-miterlimit="10" stroke-dasharray="" stroke-dashoffset="0" font-family="Marker" font-weight="normal" text-anchor="start" style="mix-blend-mode: normal"><tspan x="0" dy="0">School</tspan></text><path d="M246.25677,147.77079c0,7.87006 -6.93958,14.25 -15.5,14.25c-8.56042,0 -15.5,-6.37994 -15.5,-14.25c0,-7.87006 6.93958,-14.25 15.5,-14.25c8.56042,0 15.5,6.37994 15.5,14.25z" fill="#ffffff" stroke="#bbbbbb" stroke-width="5" stroke-linecap="butt"/><path d="M228.59011,147.39579c0,-0.87445 0.70888,-1.58333 1.58333,-1.58333c0.87445,0 1.58333,0.70888 1.58333,1.58333c0,0.87445 -0.70888,1.58333 -1.58333,1.58333c-0.87445,0 -1.58333,-0.70888 -1.58333,-1.58333z" fill="#959595" stroke="none" stroke-width="0.5" stroke-linecap="butt"/><path d="M226.59011,146.35414l-5.61111,-2.83333" fill="#959595" stroke="#959595" stroke-width="2.5" stroke-linecap="round"/><path d="M234.60612,144.06905l2.13464,-2.15208" fill="none" stroke="#959595" stroke-width="2.5" stroke-linecap="round"/><path d="M229.02066,138.44904c0,-0.55228 0.44772,-1 1,-1c0.55228,0 1,0.44772 1,1c0,0.55228 -0.44772,1 -1,1c-0.55228,0 -1,-0.44772 -1,-1z" fill="#6b6b6b" stroke="none" stroke-width="0.5" stroke-linecap="butt"/><path d="M240.13177,147.44904c0,-0.55228 0.44772,-1 1,-1c0.55228,0 1,0.44772 1,1c0,0.55228 -0.44772,1 -1,1c-0.55228,0 -1,-0.44772 -1,-1z" fill="#6b6b6b" stroke="none" stroke-width="0.5" stroke-linecap="butt"/><path d="M219.4651,148.78239c0,-0.55228 0.44772,-1 1,-1c0.55228,0 1,0.44772 1,1c0,0.55228 -0.44772,1 -1,1c-0.55228,0 -1,-0.44772 -1,-1z" fill="#6b6b6b" stroke="none" stroke-width="0.5" stroke-linecap="butt"/><path d="M229.79844,156.44904c0,-0.55228 0.44772,-1 1,-1c0.55228,0 1,0.44772 1,1c0,0.55228 -0.44772,1 -1,1c-0.55228,0 -1,-0.44772 -1,-1z" fill="#6b6b6b" stroke="none" stroke-width="0.5" stroke-linecap="butt"/><path d="M365.61497,335.0596l6.34917,-31.63761l22.99511,-0.47413l17.57358,27.64361l-14.81533,1.04226l-9.08025,-17.6306l-6.43818,0.71027l-4.08947,18.60706z" fill="#f9d18b" stroke="#b29564" stroke-width="5" stroke-linecap="butt"/><path d="M315.29717,316.27813l-4.48015,-10.67903l138.95641,-12.72018l4.48015,10.67903z" fill="#f9d18b" stroke="#b29564" stroke-width="5" stroke-linecap="butt"/><path d="M329.96678,309.65103c-1.21091,-0.56068 -0.16048,-2.82929 -0.16048,-2.82929l0.42017,-0.90744c1.5689,-3.38835 3.9492,-9.91961 6.63665,-11.79944c1.03575,-0.72449 3.32191,1.21396 3.82647,1.80676c0.52304,0.61452 1.45486,0.91949 1.36343,2.15111c-0.30569,4.11795 -1.91119,4.17146 -3.4073,6.75093c-0.91478,1.57719 -1.52639,3.35383 -2.30054,5.02577c0,0 -1.05043,2.26861 -2.26133,1.70793c-1.21091,-0.56068 -0.16048,-2.82929 -0.16048,-2.82929c0.42556,-0.91909 2.57308,-5.5691 2.74152,-5.86356c0.44159,-0.77196 1.01411,-1.38079 1.53479,-2.04434c0.20825,-0.2654 0.64346,-0.43596 0.64852,-0.73808c0.00497,-0.29706 -0.47047,0.20833 -0.63821,0.1223c-0.52099,-0.2672 -0.96896,-0.68758 -1.37902,-1.1569c-0.11932,-0.13656 0.0089,-0.84246 -0.18669,-0.63506c-0.37833,0.40119 -0.53238,1.11318 -0.79205,1.67292c-1.07341,2.31381 -2.13216,4.63552 -3.20397,6.95032l-0.42017,0.90744c0,0 -1.05043,2.26861 -2.26133,1.70793z" fill="#7f6b47" stroke="none" stroke-width="0.5" stroke-linecap="butt"/><path d="M442.84842,297.04168c-0.85603,1.02365 -2.77383,-0.58011 -2.77383,-0.58011l-0.76712,-0.6415c-1.95684,-1.63641 -3.90481,-3.28464 -5.86268,-4.91948c-0.47363,-0.39549 -0.91668,-0.97374 -1.43,-1.17521c-0.26538,-0.10415 0.15172,0.47961 0.10206,0.65402c-0.17068,0.5994 -0.39652,1.1707 -0.75374,1.63462c-0.11501,0.14936 -0.76062,-0.10493 -0.6294,0.16163c0.13345,0.27109 0.59984,0.23971 0.90141,0.39092c0.75398,0.37804 1.53151,0.68447 2.26021,1.19429c0.27795,0.19447 4.20387,3.4841 4.98084,4.13383c0,0 1.9178,1.60376 1.06177,2.62741c-0.85603,1.02365 -2.77383,-0.5801 -2.77383,-0.5801c-1.4134,-1.18195 -2.72444,-2.52794 -4.22461,-3.56421c-2.4535,-1.6948 -3.92842,-1.05833 -5.96153,-4.6524c-0.60807,-1.07493 0.10461,-1.74827 0.31554,-2.52718c0.20347,-0.7514 1.44429,-3.47985 2.69013,-3.26641c3.23256,0.55381 8.17151,5.44563 11.0359,7.84097l0.76712,0.6415c0,0 1.9178,1.60376 1.06177,2.62741z" data-paper-data="{&quot;index&quot;:null}" fill="#7f6b47" stroke="none" stroke-width="0.5" stroke-linecap="butt"/><g stroke-width="5" stroke-linecap="butt"><path d="M41.18769,313.22056c0,0 13.64789,-13.62776 19.61134,-30.7653c0.29822,-0.85701 -2.43856,-4.22377 -2.20708,-5.09832c3.70714,-14.00581 2.27512,-27.51446 3.12808,-37.63365c1.63023,-19.34053 -3.03234,-56.00272 -3.03234,-56.00272h34c0,0 -12.18433,37.52316 -9.06673,56.01126c1.50301,8.91319 0.46144,21.5841 4.58523,34.32087c0.45048,1.39136 -2.98967,5.25367 -2.29996,6.5756c9.29812,17.82137 28.28146,30.59228 28.28146,30.59228z" fill="#b7531b" stroke="#823c14"/><path d="M125.68769,157.22056c0,6.39078 -1.07664,10.51487 -3.04805,16.17934c-1.45947,4.19352 -3.40933,10.13515 -5.7758,13.74662c-4.5255,6.90637 -7.57453,7.6053 -14.63099,11.54941c-6.88289,3.84709 -17.72427,11.02463 -26.04516,11.02463c-4.19972,0 -13.6204,-3.45364 -22.66302,-7.64859c-4.72642,-2.19262 -9.34956,-3.13417 -13.0699,-7.0085c-3.79174,-3.94869 -11.62551,-16.88648 -13.70392,-21.95904c-3.78245,-9.23145 -0.06316,-10.90922 -0.06316,-15.88386c0,-8.45176 0.77254,-14.25104 4.92821,-20.24329c3.47612,-5.01237 9.92001,-10.46007 14.51848,-14.8379c8.76384,-8.34332 17.34972,-17.41881 30.05331,-17.41881c11.07832,0 23.32775,3.8176 30.98763,11.51473c3.28914,3.30514 6.28519,6.95683 9.00709,10.64328c2.0393,2.76195 4.01541,5.36203 5.7717,7.99828c3.91209,5.87217 3.73358,13.92382 3.73358,22.34371z" fill="#60f726" stroke="#51ce1f"/></g><path d="M66.68227,298.40569l-3.84947,-10.45454l28.44142,-5.85684l3.84947,10.45454z" fill="#d58f4c" stroke="#6a4726" stroke-width="2.5" stroke-linecap="butt"/><path d="M62.30848,269.40311l-2.59332,-10.8347l28.93283,-2.4715l2.59332,10.8347z" fill="#d58f4c" stroke="#6a4726" stroke-width="2.5" stroke-linecap="butt"/><path d="M58.29808,236.3279l-0.52532,-11.12833l28.88566,2.97256l0.52532,11.12833z" fill="#d58f4c" stroke="#6a4726" stroke-width="2.5" stroke-linecap="butt"/><path d="M211.72824,251.82851v-56h43v56z" fill="#84582f" stroke="#3f2a17" stroke-width="5" stroke-linecap="butt"/><path d="M231.97824,226.32851c0,4.97056 -3.58172,9 -8,9c-4.41828,0 -8,-4.02944 -8,-9c0,-4.97056 3.58172,-9 8,-9c4.41828,0 8,4.02944 8,9z" fill="#ffea00" stroke="#b3a400" stroke-width="2.5" stroke-linecap="butt"/><path d="M223.94253,223.95351c0,1.58782 -1.19523,2.875 -2.66964,2.875c-1.4744,0 -2.66965,-1.28718 -2.66965,-2.875c0,-1.58782 1.19524,-2.875 2.66965,-2.875c1.4744,0 2.66964,1.28718 2.66964,2.875z" fill="#fff267" stroke="none" stroke-width="0" stroke-linecap="butt"/><path d="M290.60324,129.2131c0,-1.38071 1.11929,-2.5 2.5,-2.5c1.38071,0 2.5,1.11929 2.5,2.5c0,1.38071 -1.11929,2.5 -2.5,2.5c-1.38071,0 -2.5,-1.11929 -2.5,-2.5z" fill="#6f6f6f" stroke="none" stroke-width="0.5" stroke-linecap="butt"/><path d="M297.26991,129.87977c0,-1.38071 1.11929,-2.5 2.5,-2.5c1.38071,0 2.5,1.11929 2.5,2.5c0,1.38071 -1.11929,2.5 -2.5,2.5c-1.38071,0 -2.5,-1.11929 -2.5,-2.5z" fill="#6f6f6f" stroke="none" stroke-width="0.5" stroke-linecap="butt"/><path d="M300.85003,135.15969c1.38675,2.08013 -0.69338,3.46688 -0.69338,3.46688l-3.38675,1.75321c-4.15006,-0.02615 -6.06988,-0.60624 -9.29365,-3.26853c0,0 -1.89814,-1.62698 -0.27116,-3.52512c1.62698,-1.89814 3.52512,-0.27116 3.52512,-0.27116c2.26695,2.05082 3.02263,2.08874 6.03969,2.06481l0.61325,-0.91346c0,0 2.08013,-1.38675 3.46688,0.69338z" fill="#6f6f6f" stroke="none" stroke-width="0.5" stroke-linecap="butt"/></g></g></svg>