<svg version="1.1" xmlns="http://www.w3.org/2000/svg" xmlns:xlink="http://www.w3.org/1999/xlink" width="20.47895" height="24.41778" viewBox="0,0,20.47895,24.41778"><g transform="translate(-229.76055,-168.32077)"><g data-paper-data="{&quot;isPaintingLayer&quot;:true}" fill-rule="nonzero" stroke-linejoin="miter" stroke-miterlimit="10" stroke-dasharray="" stroke-dashoffset="0" style="mix-blend-mode: normal"><path d="M233.30718,184.67587l5.54408,-15.95797l2.41253,-0.01988l5.15439,15.90293z" fill="#ff8221" stroke="#ad5816" stroke-width="0.75" stroke-linecap="butt"/><path d="M230.13556,187.48537v-2.77204h19.72895v2.77204z" fill="#ff8221" stroke="#ad5816" stroke-width="0.75" stroke-linecap="butt"/><path d="M244.76995,181.01727l-9.98935,0.04995l0.64931,-1.99787h8.94046z" fill="#ffffff" stroke="#ad5816" stroke-width="0.75" stroke-linecap="round"/><path d="M243.12171,175.12356l-6.19339,-0.19979l0.34963,-1.54834l5.39424,0.09989z" fill="#ffffff" stroke="#ad5816" stroke-width="0.75" stroke-linecap="round"/><text transform="translate(240.21877,185.81358) scale(0.00093,0.00097)" font-size="40" xml:space="preserve" fill="#522a0b" fill-rule="nonzero" stroke="none" stroke-width="1" stroke-linecap="butt" stroke-linejoin="miter" stroke-miterlimit="10" stroke-dasharray="" stroke-dashoffset="0" font-family="Sans Serif" font-weight="normal" text-anchor="start" style="mix-blend-mode: normal"><tspan x="0" dy="0">World's smallest text and circle</tspan></text><path d="M240.50094,185.85674c0,0.00521 -0.00371,0.00943 -0.00829,0.00943c-0.00458,0 -0.00829,-0.00422 -0.00829,-0.00943c0,-0.00521 0.00371,-0.00943 0.00829,-0.00943c0.00458,0 0.00829,0.00422 0.00829,0.00943z" fill="#522a0b" stroke="none" stroke-width="0" stroke-linecap="butt"/><path d="M238.42981,177.55953c-0.06178,0.24711 -0.03166,0.4982 -0.06798,0.74777c-0.07751,0.53257 -0.75038,0.40939 -0.85143,-0.04532c-0.05866,-0.26396 -0.01466,-1.16428 0.11128,-1.37417c0.30991,-0.51652 0.71923,-0.00109 0.80813,0.35449z" fill="#000000" stroke="none" stroke-width="0.5" stroke-linecap="butt"/><path d="M242.03563,177.53474c-0.06495,0.25981 0.00685,0.59311 -0.20588,0.80547c-0.67439,0.67324 -0.96354,-0.84745 -0.71684,-1.28603c0.10968,-0.19497 0.16353,-0.47129 0.45907,-0.44856c0.13494,0.01038 0.59651,0.27431 0.46364,0.47362z" fill="#000000" stroke="none" stroke-width="0.5" stroke-linecap="butt"/><path d="M240.73506,180.61924c0.00785,-0.0062 0.01569,-0.01243 0.02354,-0.01868zM240.70252,180.64477c0.00798,-0.01386 0.17613,-0.29771 0.47113,-0.13271c0.30233,0.16909 0.13323,0.47142 0.13323,0.47142l-0.12315,0.16412c-0.66464,0.50619 -1.33092,0.8298 -2.20412,0.57376c-0.15054,-0.04414 -0.64263,-0.5669 -0.73195,-0.65664c0,0 -0.24424,-0.24565 0.0014,-0.4899c0.24564,-0.24425 0.48989,0.00141 0.48989,0.00141c0.16663,0.16779 0.27154,0.44338 0.50041,0.50285c0.58633,0.15236 1.0321,-0.09846 1.46316,-0.43432z" fill="#000000" stroke="none" stroke-width="0.5" stroke-linecap="butt"/><path d="M235.41656,192.62069c-0.26517,-0.26517 0,-0.53033 0,-0.53033l-0.00083,0.03968c0.63625,-1.50386 1.12508,-2.99233 1.57209,-4.56008c0,0 0.10302,-0.36057 0.46359,-0.25755c0.36057,0.10302 0.25755,0.46359 0.25755,0.46359c-0.45669,1.59532 -0.95464,3.11495 -1.60251,4.64627l-0.15956,0.19842c0,0 -0.26517,0.26517 -0.53033,0z" fill="#000000" stroke="none" stroke-width="0.5" stroke-linecap="butt"/><path d="M243.04496,191.53495c-0.3699,0.06165 -0.43155,-0.30825 -0.43155,-0.30825l-0.07341,-0.44745c-0.35187,-1.0594 -0.24915,-2.1618 -0.24915,-3.265c0,0 0,-0.375 0.375,-0.375c0.375,0 0.375,0.375 0.375,0.375c0,1.04129 -0.10699,2.08577 0.22704,3.08421l0.08532,0.50494c0,0 0.06165,0.3699 -0.30825,0.43155z" fill="#000000" stroke="none" stroke-width="0.5" stroke-linecap="butt"/></g></g></svg>