<svg version="1.1" xmlns="http://www.w3.org/2000/svg" xmlns:xlink="http://www.w3.org/1999/xlink" width="127.65616" height="191.46738" viewBox="0,0,127.65616,191.46738"><g transform="translate(-176.17192,-82.4795)"><g data-paper-data="{&quot;isPaintingLayer&quot;:true}" fill-rule="nonzero" stroke-linejoin="miter" stroke-miterlimit="10" stroke-dasharray="" stroke-dashoffset="0" style="mix-blend-mode: normal"><path d="M217.46434,266.94266h1.81098c1.9374,0 2.47112,-0.172 4.09353,0.26642c0.43129,0.11654 -0.32062,-0.84805 -0.34963,-1.29386c-0.11762,-1.80715 0,-3.62195 0,-5.43293c0,-5.13109 0,-10.26218 0,-15.39328c0,0 0,-3.5 3.5,-3.5c3.5,0 3.5,3.5 3.5,3.5c0,6.03658 0,12.07316 0,18.10974c0,1.18231 0.05935,6.13571 -0.26642,6.77231c-0.79568,1.55487 -2.15029,2.90948 -3.70516,3.70516c-0.63661,0.32578 -5.59,0.26642 -6.77231,0.26642h-1.81098c0,0 -3.5,0 -3.5,-3.5c0,-3.5 3.5,-3.5 3.5,-3.5z" data-paper-data="{&quot;index&quot;:null}" fill="#000000" stroke="none" stroke-width="0.5" stroke-linecap="butt"/><path d="M256.7155,268.15913c0,3.5 -3.5,3.5 -3.5,3.5h-1.81097c-1.18231,0 -6.13571,0.05936 -6.77232,-0.26642c-1.55487,-0.79568 -2.90948,-2.1503 -3.70516,-3.70517c-0.32577,-0.6366 -0.26642,-5.59001 -0.26642,-6.77231c0,-6.03658 0,-12.07316 0,-18.10974c0,0 0,-3.5 3.5,-3.5c3.5,0 3.5,3.5 3.5,3.5c0,5.13109 0,10.26219 0,15.39328c0,1.81098 0.11762,3.62578 0,5.43292c-0.02901,0.44581 -0.78092,1.4104 -0.34963,1.29386c1.62241,-0.43842 2.15613,-0.26642 4.09353,-0.26642h1.81097c0,0 3.5,0 3.5,3.5z" fill="#000000" stroke="none" stroke-width="0.5" stroke-linecap="butt"/><path d="M236.56139,111.40676l14.4878,-25.35364l11.77133,3.62194" fill="none" stroke="#6d9773" stroke-width="6" stroke-linecap="round"/><path d="M179.42192,239.94176v-17.0232h121.15616v17.0232z" fill="#ffa5a5" stroke="#d99d9d" stroke-width="6.5" stroke-linecap="butt"/><path d="M196.08406,219.69027l37,-106.5l16.10073,-0.13269l34.39927,106.1327z" fill="#ffa5a5" stroke="#d99d9d" stroke-width="6.5" stroke-linecap="butt"/><path d="M237.81597,160.62188c-3.00468,9.01406 -9.28643,15.0394 -14.03067,13.45799c-4.74424,-1.58141 -6.15442,-10.17074 -3.14974,-19.18479c3.00468,-9.01406 9.28643,-15.0394 14.03067,-13.45799c4.74424,1.58141 6.15443,10.17073 3.14974,19.18479z" fill="#ffcdcd" stroke="none" stroke-width="0" stroke-linecap="butt"/><path d="M233.99397,191.73156l1.5015,-24.02402" fill="none" stroke="#000000" stroke-width="7" stroke-linecap="round"/><path d="M252.01199,167.70754l1.5015,21.02102" fill="none" stroke="#000000" stroke-width="7" stroke-linecap="round"/><path d="M224.98496,208.24808l34.53453,-1.5015" fill="none" stroke="#000000" stroke-width="7" stroke-linecap="round"/></g></g></svg>