<svg version="1.1" xmlns="http://www.w3.org/2000/svg" xmlns:xlink="http://www.w3.org/1999/xlink" width="138.12341" height="181.31171" viewBox="0,0,138.12341,181.31171"><g transform="translate(-170.93829,-89.21031)"><g data-paper-data="{&quot;isPaintingLayer&quot;:true}" fill-rule="nonzero" stroke-linejoin="miter" stroke-miterlimit="10" stroke-dasharray="" stroke-dashoffset="0" style="mix-blend-mode: normal"><path d="M261.92569,248.44028c-1.025,-1.06255 -0.42743,-2.60036 -0.42743,-2.60036l0.25286,-0.6507c2.44426,-6.29003 4.88851,-12.58007 7.33277,-18.8701c0,0 0.90551,-2.33025 3.23576,-1.42473c2.33025,0.90551 1.42473,3.23576 1.42473,3.23576c-1.75884,4.52618 -3.6486,9.38929 -5.48087,14.10444c1.38297,0.40108 2.75209,0.98487 3.12702,1.10278c4.50018,1.41533 12.47617,1.80312 11.60157,8.72671c-1.16559,9.22719 -16.95703,2.43524 -19.95871,-0.64397c-1.07212,-1.09983 -1.26671,-2.05301 -1.10771,-2.97982z" data-paper-data="{&quot;index&quot;:null}" fill="#000000" stroke="none" stroke-width="0.5" stroke-linecap="butt"/><path d="M173.63301,221.06602l1.50196,-18.43893l131.23202,10.68963l-1.50196,18.43893z" fill="#4a6fff" stroke="#344eb5" stroke-width="5" stroke-linecap="butt"/><path d="M215.33335,198.35803l37,-106.5l16.10073,-0.13269l34.39927,106.1327z" fill="#4a6fff" stroke="#344eb5" stroke-width="5" stroke-linecap="butt"/><path d="M292.16666,176.2747l-66.66666,0.33333l4.33333,-13.33333h59.66667z" fill="#9bafff" stroke="#344eb5" stroke-width="5" stroke-linecap="round"/><path d="M282.50001,139.2747l-41.33334,-1.33334l2.33334,-10.33333l36,0.66667z" fill="#9bafff" stroke="#344eb5" stroke-width="5" stroke-linecap="round"/><path d="M242.1202,161.45652c0.20127,1.8272 1.03444,3.45101 1.41415,5.2311c0.81027,3.79854 -4.05228,4.65145 -5.87585,1.82733c-1.05857,-1.63938 -3.01734,-7.84277 -2.69112,-9.57891c0.80279,-4.27244 4.86484,-1.81014 6.35769,0.37352z" fill="#000000" stroke="none" stroke-width="0.5" stroke-linecap="butt"/><path d="M267.3737,148.5038c0.64925,1.82042 2.41388,3.53524 1.98569,5.66182c-1.35747,6.74182 -9.17789,-1.23558 -9.45059,-4.85693c-0.12122,-1.60987 -0.9032,-3.48512 0.96296,-4.5309c0.85204,-0.47748 4.68045,-0.73871 4.67968,0.99002z" fill="#000000" stroke="none" stroke-width="0.5" stroke-linecap="butt"/><path d="M241.30019,261.02898c-1.99008,3.81198 -15.16337,14.85577 -18.93162,6.35284c-2.82749,-6.38014 4.70057,-9.04383 8.60412,-11.69279c0.32522,-0.2207 1.46879,-1.17332 2.67816,-1.95493c-3.11008,-3.98964 -6.31775,-8.10448 -9.30319,-11.93423c0,0 -1.53701,-1.9717 0.43468,-3.50871c1.9717,-1.53701 3.50871,0.43468 3.50871,0.43468c4.14887,5.32221 8.29773,10.64441 12.4466,15.96662l0.4292,0.55058c0,0 1.01432,1.30119 0.33794,2.61349c0.41866,0.84201 0.50623,1.8109 -0.20459,3.17246z" fill="#000000" stroke="none" stroke-width="0.5" stroke-linecap="butt"/><path d="M255.67694,185.42592c-0.03123,0.06508 -0.06235,0.13033 -0.09338,0.1957zM255.80693,185.15722c-0.00778,0.11516 -0.19779,2.48856 -2.63349,2.35433c-2.49621,-0.13756 -2.35866,-2.63377 -2.35866,-2.63377l0.27797,-1.45449c2.70369,-5.38922 5.99701,-9.59996 12.46983,-10.709c1.11592,-0.1912 5.96385,1.63744 6.8275,1.93596c0,0 2.36238,0.81802 1.54436,3.1804c-0.81802,2.36238 -3.1804,1.54436 -3.1804,1.54436c-1.61232,-0.55936 -3.16633,-2.01339 -4.83867,-1.67317c-4.28428,0.87156 -6.3789,3.91111 -8.10842,7.45539z" fill="#000000" stroke="none" stroke-width="0.5" stroke-linecap="butt"/></g></g></svg>