<svg version="1.1" xmlns="http://www.w3.org/2000/svg" xmlns:xlink="http://www.w3.org/1999/xlink" width="514.73494" height="396.15392" viewBox="0,0,514.73494,396.15392"><g transform="translate(17.36746,18.07697)"><g data-paper-data="{&quot;isPaintingLayer&quot;:true}" fill-rule="nonzero" stroke-linecap="butt" stroke-linejoin="miter" stroke-miterlimit="10" stroke-dasharray="" stroke-dashoffset="0" style="mix-blend-mode: normal"><path d="M-11.41209,366.16155v-370.87087h490.99099v370.87087z" fill="#75ffda" stroke="none" stroke-width="0"/><path d="M-17.36746,-11.29687l514.73494,-6.78009l-19.93531,395.37983l-83.80401,0.77409c0,0 -3.76378,-242.64233 -1.74776,-327.75099c0.52341,-22.0965 5.90506,-31.34578 -7.05113,-32.59997c-12.95619,-1.25419 -401.55405,3.75252 -401.55405,3.75252z" fill="#6be8c7" stroke="none" stroke-width="0"/><path d="M455.08341,134.43413c0,20.71068 -40.09995,54.5 -94.5,54.5c-54.40005,0 -115.92005,6.20565 -67.54269,-29.4721c47.53294,-35.055 80.79503,-55.5279 104.54269,-55.5279c54.40005,0 57.5,9.78932 57.5,30.5z" fill="#e6fff8" stroke="#9bada8" stroke-width="5"/><path d="M199.0834,150.43413c-5,25.92982 -40.58753,16.22627 -60.45076,3.49925c-12.80166,-8.20244 -57.6254,-19.99925 -75.04924,-19.99925c-44.45892,0 -51.5,-2.23703 -51.5,-23.5c0,-21.26297 34.04108,-32.5 78.5,-32.5c44.45892,0 119.34218,16.27283 108.5,72.5z" fill="#e6fff8" stroke="#9bada8" stroke-width="5"/></g></g></svg>