<svg version="1.1" xmlns="http://www.w3.org/2000/svg" xmlns:xlink="http://www.w3.org/1999/xlink" width="137.72865" height="164.01777" viewBox="0,0,137.72865,164.01777"><g transform="translate(-171.25291,-99.23564)"><g data-paper-data="{&quot;isPaintingLayer&quot;:true}" fill-rule="nonzero" stroke-linecap="butt" stroke-linejoin="miter" stroke-miterlimit="10" stroke-dasharray="" stroke-dashoffset="0" style="mix-blend-mode: normal"><path d="M225.7187,262.17384c-3.91316,1.78291 -21.09244,2.39391 -18.83673,-6.62891c1.69256,-6.77024 9.26743,-4.24274 13.97468,-3.93199c0.39218,0.02589 1.87977,-0.02235 3.31411,0.10473c0,-5.05864 0,-10.27602 0,-15.13193c0,0 0,-2.5 2.5,-2.5c2.5,0 2.5,2.5 2.5,2.5c0,6.74826 0,13.49651 0,20.24477v0.6981c0,0 0,1.64983 -1.34026,2.26897c-0.18749,0.92147 -0.7141,1.73945 -2.1118,2.37627z" fill="#000000" stroke="none" stroke-width="0.5"/><path d="M250.96121,259.06356c-1.34026,-0.61914 -1.34027,-2.26897 -1.34027,-2.26897v-0.6981c0,-6.74825 0,-13.49651 0,-20.24476c0,0 0,-2.5 2.5,-2.5c2.5,0 2.5,2.5 2.5,2.5c0,4.85591 0,10.07329 0,15.13193c1.43434,-0.12707 2.92194,-0.07883 3.31412,-0.10473c4.70725,-0.31076 12.28211,-2.83826 13.97467,3.93199c2.2557,9.02283 -14.92356,8.41182 -18.83673,6.62892c-1.39769,-0.63682 -1.92431,-1.4548 -2.1118,-2.37627z" data-paper-data="{&quot;index&quot;:null}" fill="#000000" stroke="none" stroke-width="0.5"/><path d="M174.24899,234.5656v-18.5h131.66667v18.5z" fill="#ff8221" stroke="#ad5816" stroke-width="5"/><path d="M186.25883,182.63017c2.37171,-0.79057 1.0803,1.24803 1.0803,1.24803l0.53125,2.90991c-1.06932,0.44792 -2.12741,2.4562 -2.87485,3.34244c-0.42721,0.50653 0.5307,1.28234 0.43961,1.93868c-0.17847,1.28587 -0.65552,2.52981 -1.22193,3.69792c-1.01349,2.09014 -3.04206,3.61577 -3.90269,5.77336c-0.9552,2.39466 -0.38769,5.15558 -0.90503,7.68128c-0.6306,3.07864 -1.1904,3.821 -2.18532,6.80576c0,0 -0.83632,3.11724 -3.02067,3.45085c-2.47135,0.37744 -1.88615,-2.75967 -1.88615,-2.75967c0.02273,-0.06818 -0.03401,-2.60835 -0.01077,-2.67675c0.94012,-2.76644 1.65159,-3.07886 2.22677,-5.92622c0.55379,-2.74145 0.07704,-5.71372 1.09498,-8.31872c0.66922,-1.7126 3.19287,-4.49086 4.0973,-6.22664c0.99793,-1.91523 -0.00281,-4.58172 1.21768,-6.36339c0.5403,-0.78873 1.65639,-1.74765 1.65639,-1.74765c0,0 1.54125,-1.03925 2.9136,-3.16228z" fill="#ff8221" stroke="#ad5816" stroke-width="2"/><path d="M288.19486,186.30319c2.19501,-1.19662 3.47458,0.9984 3.47458,0.9984l1.24291,0.91058c0.67235,1.23524 4.26862,5.94308 5.48201,7.06455c1.22753,1.13452 3.05746,1.46275 4.29827,2.58273c0.17857,0.16118 4.36099,6.38182 4.52058,6.71094c1.74397,3.59661 0.76836,7.14543 0.76836,11.00121c0,0 -0.87454,3.37454 -3.37454,3.37454c-2.5,0 -1.13961,-3.27737 -1.13961,-3.27737c0,-2.78881 0.61336,-6.29314 -0.74579,-8.90162c-0.97514,-1.87149 -1.88568,-3.9058 -3.47942,-5.28906c-1.25503,-1.08928 -3.07677,-1.41248 -4.27665,-2.56223c-0.82226,-0.7879 -1.69864,-3.31213 -3.10451,-4.79949c-1.89321,-2.00295 -4.34179,-3.07018 -5.08056,-4.42334l-1.57468,-1.4912c0,0 0.79404,-0.70202 2.98906,-1.89864z" fill="#ff8221" stroke="#ad5816" stroke-width="2"/><path d="M257.17685,130.29706c2.37171,-0.79057 3.16227,1.58114 3.16227,1.58114l0.94113,2.84148c1.67085,3.3905 2.82419,5.45263 4.03463,9.0892c0.21642,0.65019 -0.21286,1.63639 0.35116,2.02559c1.08796,0.75073 2.86509,0.02046 3.8657,0.8842c1.35402,1.1688 1.68194,3.15894 2.59796,4.69529c1.232,2.0663 2.43425,4.18685 3.20943,6.46425c0,0 0.79058,2.3717 -1.58114,3.16227c-2.37171,0.79057 -3.16228,-1.58113 -3.16228,-1.58113c-0.63813,-1.96545 -1.80904,-3.71729 -2.79057,-5.53575c-0.56836,-1.05301 -0.46694,-2.55808 -1.40205,-3.30471c-1.11546,-0.89065 -3.06283,-0.17271 -4.1343,-1.1158c-1.07664,-0.94764 -1.10828,-2.64588 -1.64884,-3.97441c-1.22528,-3.01136 -2.53293,-5.99229 -3.96537,-8.9108l-1.05887,-3.15852c0,0 -0.79057,-2.37171 1.58114,-3.16228z" fill="#ff8221" stroke="#ad5816" stroke-width="2"/><path d="M219.08545,133.4327c2.23607,1.11803 1.11803,3.35411 1.11803,3.35411l-1.99837,3.99674c-1.20985,2.43705 -1.81547,5.27297 -3.60287,7.32435c-2.47419,2.8396 -7.96028,4.07382 -9.2421,8.28534c-0.25982,0.85369 0.2231,1.79603 0.07498,2.676c-0.19712,1.17115 -0.73067,2.26008 -1.09601,3.39012c0,0 -0.79057,2.3717 -3.16228,1.58113c-2.37171,-0.79057 -1.58114,-3.16227 -1.58114,-3.16227c0.65613,-1.89429 0.31209,-4.04336 0.97898,-5.93389c0.90304,-2.55997 4.44991,-6.2232 6.36558,-7.7625c1.18888,-0.9553 2.89393,-1.23952 3.90903,-2.37777c1.52681,-1.71203 1.86065,-4.19523 2.88042,-6.25005l2.00163,-4.00326c0,0 1.11803,-2.23607 3.3541,-1.11804z" fill="#ff8221" stroke="#ad5816" stroke-width="2"/><path d="M250.73519,109.43654c-1.76776,1.76776 -3.53554,0 -3.53554,0l-1,-1c-1.87944,-1.89723 -3.58073,-4.27157 -6.65785,-3.33464c-1.42607,0.43421 -2.55759,1.62363 -4,2c-0.69379,0.18104 -1.50218,-0.7812 -2.11261,-0.40501c-0.50079,0.30863 -0.06005,1.17497 -0.09007,1.76246c0,0 -0.79057,2.3717 -3.16227,1.58113c-2.37171,-0.79057 -1.58114,-3.16227 -1.58114,-3.16227c0.63665,-1.41251 0.70056,-3.26907 1.90993,-4.23754c1.01693,-0.81436 2.64122,-0.02504 3.88739,-0.40502c1.4259,-0.43479 2.54133,-1.6926 4,-2c5.25048,-1.10647 7.94715,1.29711 11.34215,4.66535l1,1c0,0 1.76776,1.76777 0,3.53554z" fill="#ff8221" stroke="#ad5816" stroke-width="2"/><path d="M258.9577,133.12022c-2.45145,0.49029 -3.61431,-1.96116 -3.61431,-1.96116l-0.86661,-1.98494c-1.75718,-2.81689 -2.46024,-4.78003 -3.90779,-7.71209c-1.72339,-3.49078 -2.4301,-8.31584 -2.91559,-12.14984c0,0 -0.31009,-2.48069 2.17061,-2.79078c2.48069,-0.31008 2.79078,2.1706 2.79078,2.1706c0.39885,3.23792 0.92732,7.582 2.41774,10.51683c1.43017,2.8162 3.51721,5.74693 5.22156,8.46826l0.18438,2.98179c0,0 0.9707,1.97104 -1.48075,2.46133z" fill="#d4d4d4" stroke="#b1b1b1" stroke-width="2"/><path d="M217.29886,130.83865c1.73798,-2.65956 2.29442,-5.67815 3.72725,-8.5405c2.47633,-4.94697 6.5033,-8.37704 7.84929,-13.90238c0,0 0.60634,-2.42536 3.03169,-1.81902c2.42535,0.60634 1.81902,3.0317 1.81902,3.0317c-1.51816,5.94761 -5.51589,9.48744 -8.15071,14.76429c-1.86977,3.74464 -2.59593,7.52657 -5.3541,10.8965l-3.71112,0.43792c0,0 -1.12086,-0.00986 -1.07831,-0.84888c0.0728,-1.43545 1.38463,-4.03419 1.86699,-4.01962z" fill="#d4d4d4" stroke="#b1b1b1" stroke-width="2"/><path d="M293.73519,192.43654c-1.76776,1.76776 -3.53553,0 -3.53553,0l-0.90775,-0.99194c-4.61416,-2.94365 -8.87281,-6.11003 -11.83137,-10.874c-1.04515,-1.68293 -1.77348,-5.52713 -2.23705,-7.23929c-1.34797,-4.97858 -3.02326,-10.05759 -5.97821,-14.23951c0,0 -1.42302,-2.05548 0.63246,-3.4785c2.05548,-1.42302 3.4785,0.63245 3.4785,0.63245c3.24252,4.76429 5.15672,10.18259 6.68846,15.76049c0.11925,0.43426 1.11586,5.07693 1.76296,6.09404c2.5499,4.00793 6.25424,6.64174 10.16863,9.126l1.75891,1.67472c0,0 1.76776,1.76777 0,3.53553z" fill="#d4d4d4" stroke="#b1b1b1" stroke-width="2"/><path d="M183.44965,188.30465c-1.76777,-1.76776 0,-3.53553 0,-3.53553l0.73344,-0.68532c0.91538,-1.26466 1.70084,-2.63441 2.74614,-3.79401c0.46593,-0.51688 1.37599,-0.57045 1.72881,-1.17028c0.53156,-0.9037 0.34768,-2.08736 0.75549,-3.05323c1.17511,-2.78314 2.57598,-5.49368 4.27579,-7.99117c1.07144,-1.57424 2.90122,-2.47219 4.26034,-3.80599c0.77644,-0.76199 2.18187,-3.27953 2.62403,-4.01847c0,0 1.28625,-2.14373 3.42997,-0.8575c2.14373,1.28624 0.85749,3.42997 0.85749,3.42997c-0.94212,1.56632 -2.07059,3.65724 -3.37597,4.98152c-1.17729,1.19435 -2.79487,1.73823 -3.73966,3.19401c-1.44026,2.21922 -2.66991,4.58237 -3.72421,7.00883c-0.54972,1.26517 -0.52734,2.7684 -1.24451,3.94676c-0.50543,0.83046 -1.62139,1.10661 -2.27118,1.82972c-0.87313,0.97166 -1.50258,2.13734 -2.25387,3.206l-1.26656,1.31467c0,0 -1.76777,1.76776 -3.53553,0z" fill="#d4d4d4" stroke="#b1b1b1" stroke-width="2"/><path d="M199.20375,170.12349c-0.44584,1.78337 -0.22847,3.59546 -0.49061,5.39662c-0.55938,3.84351 -5.41548,2.95458 -6.14473,-0.32707c-0.42333,-1.90498 -0.10577,-8.40251 0.8031,-9.91729c2.23662,-3.7277 5.19069,-0.00793 5.83224,2.55827z" fill="#000000" stroke="none" stroke-width="0.5"/><path d="M280.82311,168.6612c-0.46875,1.87503 0.04937,4.28046 -1.48584,5.81304c-4.86702,4.8587 -6.9538,-6.11596 -5.17334,-9.28116c0.79151,-1.40709 1.18018,-3.40132 3.31309,-3.23725c0.97383,0.07491 4.30501,1.97969 3.34608,3.41808z" fill="#000000" stroke="none" stroke-width="0.5"/><path d="M247.2018,222.14091c0.05665,-0.04474 0.11327,-0.08968 0.16987,-0.13477zM246.96697,222.32517c0.05759,-0.10003 1.27111,-2.14856 3.40012,-0.95778c2.1819,1.22036 0.96155,3.40227 0.96155,3.40227l-0.88878,1.18443c-4.79666,3.65317 -9.60518,5.98865 -15.907,4.14085c-1.08644,-0.31856 -4.63786,-4.09133 -5.28251,-4.73896c0,0 -1.7627,-1.77282 0.01012,-3.53552c1.77282,-1.7627 3.53552,0.01012 3.53552,0.01012c1.20257,1.2109 1.95966,3.19986 3.61141,3.62904c4.23152,1.09952 7.44864,-0.71056 10.55957,-3.13446z" fill="#000000" stroke="none" stroke-width="0.5"/></g></g></svg>