<svg version="1.1" xmlns="http://www.w3.org/2000/svg" xmlns:xlink="http://www.w3.org/1999/xlink" width="431.42643" height="314.30931" viewBox="0,0,431.42643,314.30931"><g transform="translate(-24.28681,-22.84537)"><g data-paper-data="{&quot;isPaintingLayer&quot;:true}" fill-rule="nonzero" stroke-linejoin="miter" stroke-miterlimit="10" stroke-dasharray="" stroke-dashoffset="0" style="mix-blend-mode: normal"><path d="M26.78682,334.65468v-309.30931h426.42643v309.30931z" fill="#ff9625" stroke="#b3691b" stroke-width="5" stroke-linecap="butt"/><path d="M284.00004,99.50006v-51h159v51z" fill="#da8021" stroke="#8f5415" stroke-width="5" stroke-linecap="butt"/><path d="M283.00004,262.50005v-151h159v151z" fill="#da8021" stroke="#8f5415" stroke-width="5" stroke-linecap="butt"/><path d="M283.00004,324.50005v-52h159v52z" fill="#da8021" stroke="#8f5415" stroke-width="5" stroke-linecap="butt"/><path d="M64.00002,283.50005v-202h183v202z" fill="#da8021" stroke="#8f5415" stroke-width="5" stroke-linecap="butt"/><text transform="translate(299.50004,70.45027) scale(0.41529,0.41529)" font-size="40" xml:space="preserve" fill="#ffffff" fill-rule="nonzero" stroke="none" stroke-width="1" stroke-linecap="butt" stroke-linejoin="miter" stroke-miterlimit="10" stroke-dasharray="" stroke-dashoffset="0" font-family="Pixel" font-weight="normal" text-anchor="start" style="mix-blend-mode: normal"><tspan x="0" dy="0">The World's</tspan><tspan x="0" dy="48px">Smallest Cone</tspan></text><text transform="translate(336.00004,136.75001) scale(0.60834,0.60834)" font-size="40" xml:space="preserve" fill="#ffffff" fill-rule="nonzero" stroke="none" stroke-width="1" stroke-linecap="butt" stroke-linejoin="miter" stroke-miterlimit="10" stroke-dasharray="" stroke-dashoffset="0" font-family="Pixel" font-weight="normal" text-anchor="start" style="mix-blend-mode: normal"><tspan x="0" dy="0">Hint:</tspan></text><path d="M311.33079,317.15003v-33.5h36.07692v33.5z" fill="#ff0000" stroke="none" stroke-width="0" stroke-linecap="butt"/><text transform="translate(355.36927,306.65003) scale(0.5,0.5)" font-size="40" xml:space="preserve" fill="#ffffff" fill-rule="nonzero" stroke="none" stroke-width="1" stroke-linecap="butt" stroke-linejoin="miter" stroke-miterlimit="10" stroke-dasharray="" stroke-dashoffset="0" font-family="Pixel" font-weight="normal" text-anchor="start" style="mix-blend-mode: normal"><tspan x="0" dy="0">Hard</tspan></text><path d="" data-paper-data="{&quot;index&quot;:null}" fill="#fff600" stroke="#ada700" stroke-width="5" stroke-linecap="butt"/><path d="" data-paper-data="{&quot;index&quot;:null}" fill="#fff600" stroke="#ada700" stroke-width="5" stroke-linecap="butt"/><path d="" data-paper-data="{&quot;index&quot;:null}" fill="#ffffff" stroke="#ada700" stroke-width="5" stroke-linecap="round"/><path d="" data-paper-data="{&quot;index&quot;:null}" fill="#ffffff" stroke="#ada700" stroke-width="5" stroke-linecap="round"/><path d="" fill="#68650e" stroke="none" stroke-width="0.5" stroke-linecap="butt"/><path d="" fill="#68650e" stroke="none" stroke-width="0.5" stroke-linecap="butt"/><path d="" fill="#68650e" stroke="none" stroke-width="0.5" stroke-linecap="butt"/><path d="" fill="#68650e" stroke="none" stroke-width="0.5" stroke-linecap="butt"/><path d="" data-paper-data="{&quot;index&quot;:null}" fill="#68650e" stroke="none" stroke-width="0.5" stroke-linecap="butt"/><text transform="translate(298.58333,165.84454) scale(0.3947,0.3947)" font-size="40" xml:space="preserve" fill="#ffffff" fill-rule="nonzero" stroke="none" stroke-width="1" stroke-linecap="butt" stroke-linejoin="miter" stroke-miterlimit="10" stroke-dasharray="" stroke-dashoffset="0" font-family="Pixel" font-weight="normal" text-anchor="start" style="mix-blend-mode: normal"><tspan x="0" dy="0">he is just very</tspan><tspan x="0" dy="48px">tiny.</tspan></text><path d="M152.13554,195.48537v-2.77204h19.72895v2.77204z" fill="#ff8221" stroke="#ad5816" stroke-width="0.75" stroke-linecap="butt"/><path d="M155.30716,192.67587l5.54408,-15.95797l2.41253,-0.01988l5.15439,15.90293z" fill="#ff8221" stroke="#ad5816" stroke-width="0.75" stroke-linecap="butt"/><path d="M166.76993,189.01727l-9.98935,0.04995l0.64931,-1.99787h8.94046z" fill="#ffffff" stroke="#ad5816" stroke-width="0.75" stroke-linecap="round"/><path d="M165.12169,183.12356l-6.19339,-0.19979l0.34963,-1.54834l5.39424,0.09989z" fill="#ffffff" stroke="#ad5816" stroke-width="0.75" stroke-linecap="round"/><path d="M159.27792,185.83941c0,-0.20688 0.16771,-0.3746 0.3746,-0.3746c0.20688,0 0.3746,0.16771 0.3746,0.3746c0,0.20688 -0.16772,0.3746 -0.3746,0.3746c-0.20688,0 -0.3746,-0.16772 -0.3746,-0.3746z" fill="#522a0b" stroke="none" stroke-width="0.5" stroke-linecap="butt"/><path d="M162.42457,185.76449c0,-0.20688 0.16772,-0.3746 0.3746,-0.3746c0.20688,0 0.3746,0.16771 0.3746,0.3746c0,0.20688 -0.16771,0.3746 -0.3746,0.3746c-0.20688,0 -0.3746,-0.16772 -0.3746,-0.3746z" fill="#522a0b" stroke="none" stroke-width="0.5" stroke-linecap="butt"/><path d="M165.1531,189.66825c0.06701,0.36856 -0.30155,0.43556 -0.30155,0.43556l-0.43114,0.07788c-0.73813,0.05197 -1.44194,0.34255 -2.18065,0.4588c-0.39411,0.06202 -1.76381,0.45378 -1.76707,0.01883c-0.00202,-0.26863 -0.07215,-0.50788 -0.04999,-0.26109c0.00787,0.0876 0.04681,0.23849 -0.04942,0.30768c-0.4045,0.29081 -1.70485,0.36783 -2.30281,0.41426c0,0 -0.3735,0.02873 -0.40223,-0.34476c-0.02873,-0.37349 0.34476,-0.40223 0.34476,-0.40223c1.36098,-0.10363 2.76045,-0.261 4.11046,-0.4728c0.75001,-0.11767 1.45061,-0.39969 2.20109,-0.46172l0.39298,-0.07196c0,0 0.36856,-0.06701 0.43557,0.30155z" fill="#522a0b" stroke="none" stroke-width="0.5" stroke-linecap="butt"/><path d="M158.8209,199.23512c-0.32563,0 -1.13565,0.10515 -1.40371,-0.03955c-0.76191,-0.41129 -0.53237,-1.34751 0.18594,-1.59672c0.17372,-0.06027 0.43006,-0.07737 0.70132,-0.06881c0.39132,0.01236 0.81369,0.07812 1.06383,0.14476c0.07953,0.02119 0.19986,0.05399 0.30481,0.09625c-0.0142,-0.07296 -0.01955,-0.14866 -0.02625,-0.22218c-0.05092,-0.55935 0.07309,-1.15457 0.07309,-1.72261c0,0 0,-0.3746 0.3746,-0.3746c0.3746,0 0.3746,0.3746 0.3746,0.3746c0,0.46159 0.05931,0.89341 0.00888,1.34801c-0.02497,0.22512 0.0035,0.44932 -0.01071,0.67538c-0.01591,0.25306 0.0553,0.59169 -0.1454,0.74667c-0.02731,0.0211 -0.86962,0.62176 -1.50102,0.6388z" fill="#522a0b" stroke="none" stroke-width="0.5" stroke-linecap="butt"/><path d="M163.38405,198.62628c-0.20069,-0.15498 -0.12949,-0.4936 -0.1454,-0.74667c-0.01421,-0.22606 0.01427,-0.45025 -0.01071,-0.67538c-0.05043,-0.4546 0.00888,-0.88642 0.00888,-1.34801c0,0 0,-0.3746 0.3746,-0.3746c0.3746,0 0.3746,0.3746 0.3746,0.3746c0,0.56804 0.12402,1.16326 0.0731,1.72261c-0.0067,0.07352 -0.01206,0.14923 -0.02626,0.22218c0.10494,-0.04226 0.22528,-0.07505 0.30482,-0.09624c0.42353,-0.11284 1.3408,-0.22318 1.76515,-0.07596c0.71831,0.2492 0.94785,1.18543 0.18594,1.59672c-0.26806,0.1447 -1.07808,0.03955 -1.40371,0.03955c-0.6314,-0.01704 -1.47371,-0.61771 -1.50102,-0.6388z" data-paper-data="{&quot;index&quot;:null}" fill="#522a0b" stroke="none" stroke-width="0.5" stroke-linecap="butt"/><text transform="translate(162.21875,193.81358) scale(0.00093,0.00097)" font-size="40" xml:space="preserve" fill="#522a0b" fill-rule="nonzero" stroke="none" stroke-width="1" stroke-linecap="butt" stroke-linejoin="miter" stroke-miterlimit="10" stroke-dasharray="" stroke-dashoffset="0" font-family="Sans Serif" font-weight="normal" text-anchor="start" style="mix-blend-mode: normal"><tspan x="0" dy="0">World's smallest text and circle</tspan></text><path d="M162.50092,193.85674c0,0.00521 -0.00371,0.00943 -0.00829,0.00943c-0.00458,0 -0.00829,-0.00422 -0.00829,-0.00943c0,-0.00521 0.00371,-0.00943 0.00829,-0.00943c0.00458,0 0.00829,0.00422 0.00829,0.00943z" fill="#522a0b" stroke="none" stroke-width="0" stroke-linecap="butt"/></g></g></svg>