<svg version="1.1" xmlns="http://www.w3.org/2000/svg" xmlns:xlink="http://www.w3.org/1999/xlink" width="492.49249" height="387.83032" viewBox="0,0,492.49249,387.83032"><defs><linearGradient x1="-9.33467" y1="179.94496" x2="483.15783" y2="179.94496" gradientUnits="userSpaceOnUse" id="color-1"><stop offset="0" stop-color="#ca9cf1"/><stop offset="1" stop-color="#ffe1f3"/></linearGradient></defs><g transform="translate(9.33467,7.74272)"><g data-paper-data="{&quot;isPaintingLayer&quot;:true}" fill-rule="nonzero" stroke-linecap="butt" stroke-linejoin="miter" stroke-miterlimit="10" stroke-dasharray="" stroke-dashoffset="0" style="mix-blend-mode: normal"><path d="M-9.33467,367.63265v-375.37537h492.49249v375.37538z" fill="url(#color-1)" stroke="none" stroke-width="0"/><path d="M103.27795,302.31733c0,29.4386 -23.52858,53.3033 -52.55255,53.3033c-29.02397,0 -52.55255,-23.8647 -52.55255,-53.3033c0,-29.4386 23.52858,-53.30331 52.55256,-53.30331c29.02398,0 52.55255,23.86471 52.55255,53.30331z" fill="#f2f2f2" stroke="#d4d4d4" stroke-width="5"/><path d="M109.77945,220.23025c0,29.4386 -23.52858,53.3033 -52.55255,53.3033c-29.02397,0 -52.55255,-23.8647 -52.55255,-53.3033c0,-29.4386 23.52858,-53.3033 52.55256,-53.3033c29.02397,0 52.55255,23.8647 52.55255,53.3033z" fill="#f2f2f2" stroke="#d4d4d4" stroke-width="5"/><path d="M168.8335,153.15818c0,29.4386 -23.52857,53.3033 -52.55255,53.3033c-29.02397,0 -52.55256,-23.8647 -52.55256,-53.3033c0,-29.4386 23.52858,-53.3033 52.55256,-53.3033c29.02397,0 52.55255,23.8647 52.55255,53.3033z" fill="#f2f2f2" stroke="#d4d4d4" stroke-width="5"/><path d="M217.37704,234.73475c0,29.4386 -23.52857,53.3033 -52.55255,53.3033c-29.02398,0 -52.55256,-23.8647 -52.55256,-53.3033c0,-29.4386 23.52858,-53.3033 52.55256,-53.3033c29.02398,0 52.55255,23.8647 52.55255,53.3033z" fill="#f2f2f2" stroke="#d4d4d4" stroke-width="5"/><path d="M413.06774,181.17619c0,29.4386 -23.52858,53.3033 -52.55255,53.3033c-29.02398,0 -52.55255,-23.8647 -52.55255,-53.3033c0,-29.4386 23.52858,-53.3033 52.55255,-53.3033c29.02398,0 52.55255,23.8647 52.55255,53.3033z" fill="#f2f2f2" stroke="#d4d4d4" stroke-width="5"/><path d="M294.94461,115.60562c0,29.4386 -23.52858,53.3033 -52.55255,53.3033c-29.02398,0 -52.55255,-23.8647 -52.55255,-53.3033c0,-29.4386 23.52858,-53.3033 52.55255,-53.3033c29.02397,0 52.55255,23.86471 52.55255,53.30331z" fill="#f2f2f2" stroke="#d4d4d4" stroke-width="5"/><path d="M463.60827,83.06808c0,29.4386 -23.52857,53.3033 -52.55255,53.3033c-29.02398,0 -52.55255,-23.8647 -52.55255,-53.3033c0,-29.4386 23.52858,-53.3033 52.55255,-53.3033c29.02398,0 52.55255,23.8647 52.55255,53.3033z" fill="#f2f2f2" stroke="#d4d4d4" stroke-width="5"/><path d="M292.9326,232.21223c0,29.4386 -23.52857,53.3033 -52.55255,53.3033c-29.02398,0 -52.55256,-23.8647 -52.55256,-53.3033c0,-29.4386 23.52858,-53.3033 52.55256,-53.3033c29.02397,0 52.55255,23.8647 52.55255,53.3033z" fill="#f2f2f2" stroke="#d4d4d4" stroke-width="5"/><path d="M466.10077,303.27829c0,29.4386 -23.52857,53.3033 -52.55255,53.3033c-29.02398,0 -52.55256,-23.8647 -52.55256,-53.3033c0,-29.4386 23.52858,-53.30331 52.55256,-53.30331c29.02398,0 52.55255,23.86471 52.55255,53.30331z" fill="#f2f2f2" stroke="#d4d4d4" stroke-width="5"/><path d="M106.23591,54.52454c0,29.4386 -23.52858,53.3033 -52.55255,53.3033c-29.02397,0 -52.55255,-23.8647 -52.55255,-53.3033c0,-29.4386 23.52858,-53.3033 52.55256,-53.3033c29.02398,0 52.55255,23.86471 52.55255,53.30331z" fill="#f2f2f2" stroke="#d4d4d4" stroke-width="5"/><path d="M312.4371,179.64466c0,29.4386 -23.52857,53.3033 -52.55255,53.3033c-29.02398,0 -52.55255,-23.8647 -52.55255,-53.3033c0,-29.4386 23.52858,-53.3033 52.55255,-53.3033c29.02398,0 52.55255,23.8647 52.55255,53.3033z" fill="#f2f2f2" stroke="#d4d4d4" stroke-width="5"/><path d="M236.35603,324.2843c0,29.4386 -23.52857,53.3033 -52.55255,53.3033c-29.02398,0 -52.55255,-23.8647 -52.55255,-53.3033c0,-29.4386 23.52858,-53.3033 52.55255,-53.3033c29.02398,0 52.55255,23.8647 52.55255,53.3033z" fill="#f2f2f2" stroke="#d4d4d4" stroke-width="5"/><path d="M233.91158,186.91718c-3.25,0 -3.25,-3.25 -3.25,-3.25v-1c0.08247,-1.74791 -0.27112,-3.57245 0.24739,-5.24372c0.27937,-0.90046 1.60136,-1.14561 2,-2c0.71624,-1.53507 -0.43687,-3.39508 -0.23158,-5.07653c0.31277,-2.56183 0.99942,-5.09894 0.98418,-7.67975c0,0 0,-3.25 3.25,-3.25c3.25,0 3.25,3.25 3.25,3.25c-0.01331,2.79398 -0.66066,5.5489 -1.01581,8.32025c-0.28871,2.25289 0.56414,4.71281 -0.23158,6.92347c-0.31931,0.88709 -1.67402,1.11534 -2,2c-0.31895,0.86556 0.16492,1.83752 0.24739,2.75628v1c0,0 0,3.25 -3.25,3.25z" fill="#a6a6a6" stroke="none" stroke-width="0.5"/><path d="M255.45814,185.57407c-2.90689,-1.45344 -1.45344,-4.36033 -1.45344,-4.36033l0.75392,-1.3348c0.59971,-2.33389 0.29604,-4.86236 1.04242,-7.15356c0.41233,-1.26577 1.59522,-2.15761 2.13838,-3.373c1.11864,-2.50309 0.73622,-5.03017 0.72217,-7.6852c0,0 0,-3.25 3.25,-3.25c3.25,0 3.25,3.25 3.25,3.25c-0.01961,4.34804 0.40837,6.23085 -1.27783,10.3148c-0.40959,0.99202 -1.51282,1.612 -1.86162,2.62699c-0.26628,0.77486 0.22859,1.64387 0.1151,2.4553c-0.20871,1.49223 -0.71513,2.92743 -1.07268,4.39114l-1.24608,2.6652c0,0 -1.45344,2.90688 -4.36033,1.45344z" fill="#a6a6a6" stroke="none" stroke-width="0.5"/><path d="M267.16157,208.66718c0,3.25 -3.25,3.25 -3.25,3.25l-3.45344,-0.34312c-2.93828,-1.48649 -3.76664,-2.2441 -6.94365,-2.68123c-1.17115,-0.16114 -2.4214,0.25335 -3.54471,-0.1151c-1.30412,-0.42775 -2.25724,-1.57976 -3.48609,-2.19102c-3.48886,-1.73546 -7.2798,-2.1668 -10.9692,-2.69387c-2.20251,-0.31465 -4.37814,-0.99647 -6.60291,-0.97565c0,0 -3.25,0 -3.25,-3.25c0,-3.25 3.25,-3.25 3.25,-3.25c6.56055,0.04702 14.44959,1.32551 20.42789,4.33048c0.9224,0.46364 1.53675,1.47589 2.51391,1.80898c0.77552,0.26435 1.64478,-0.23494 2.4553,-0.1151c4.45985,0.65939 5.08805,1.35451 9.05635,3.31876l0.54656,-0.34311c0,0 3.25,0 3.25,3.25z" fill="#a6a6a6" stroke="none" stroke-width="0.5"/><path d="M35.14744,59.89868c-0.07245,0.74288 -0.51635,3.0185 -3.23586,3.0185c-3.25,0 -3.25,-3.25 -3.25,-3.25l0.95191,-3.2981c2.66491,-2.50708 2.90975,-5.7071 4.29548,-8.94562c1.62608,-3.80022 2.84578,-6.51879 3.84965,-10.54452c0,0 0.78824,-3.15297 3.94121,-2.36472c3.15297,0.78824 2.36473,3.9412 2.36473,3.9412c-1.06509,4.2502 -2.43426,7.45782 -4.15036,11.45548c-1.57521,3.66947 -2.34316,6.963 -4.76674,9.98778z" fill="#a6a6a6" stroke="none" stroke-width="0.5"/><path d="M47.88384,74.7504c-3.08322,-1.02774 -2.05548,-4.11096 -2.05548,-4.11096l1.03325,-3.09484c1.90649,-4.72139 3.82533,-9.71339 6.0973,-14.23546c2.09027,-4.16043 5.48322,-7.27979 6.86945,-11.6697c0,0 1.02774,-3.08322 4.11096,-2.05548c3.08322,1.02774 2.05548,4.11096 2.05548,4.11096c-1.63476,4.72416 -4.91432,7.87297 -7.13056,12.3303c-2.18165,4.38779 -4.05588,9.18601 -5.90269,13.76454l-0.96675,2.90516c0,0 -1.02774,3.08322 -4.11096,2.05548z" fill="#a6a6a6" stroke="none" stroke-width="0.5"/><path d="M59.16158,82.66718c0,3.25 -3.25,3.25 -3.25,3.25l-2.78824,-0.09704c-2.26582,-0.56781 -4.41386,-1.66035 -6.73235,-1.94492c-3.95955,-0.486 -8.47635,0.04197 -12.47941,0.04197c0,0 -3.25,0 -3.25,-3.25c0,-3.25 3.25,-3.25 3.25,-3.25c4.35138,0 9.22391,-0.50285 13.52059,0.04197c2.49754,0.31669 4.82492,1.44594 7.26765,2.05507l1.21176,-0.09703c0,0 3.25,0 3.25,3.25z" fill="#a6a6a6" stroke="none" stroke-width="0.5"/><path d="M99.61349,146.96528c-2.2981,-2.29809 0,-4.59619 0,-4.59619l0.0481,1.2981c0.02115,-4.43893 1.02528,-8.49722 2.09704,-12.78824c0,0 0.78824,-3.15296 3.9412,-2.36472c3.15296,0.78824 2.36472,3.9412 2.36472,3.9412c-0.94111,3.76082 -1.92594,7.31802 -1.90296,11.21176l-1.9519,3.29809c0,0 -2.2981,2.29809 -4.59619,0z" fill="#a6a6a6" stroke="none" stroke-width="0.5"/><path d="M110.66158,150.66718c0,-2.16724 1.4452,-2.88927 2.40816,-3.12982c3.18306,-5.04423 5.61453,-10.54424 7.82429,-16.0772c0,0 1.20702,-3.01755 4.22457,-1.81053c3.01755,1.20702 1.81053,4.22457 1.81053,4.22457c-2.58267,6.44715 -5.46464,12.80195 -9.31338,18.59575l-3.70417,1.44723c0,0 -3.25,0 -3.25,-3.25z" fill="#a6a6a6" stroke="none" stroke-width="0.5"/><path d="M130.16158,176.66718c0,3.25 -3.25,3.25 -3.25,3.25l-1.78824,-0.09704c-5.71382,-1.44114 -10.7555,-4.04588 -16.26216,-6.07739c-6.75977,-2.49381 -14.23846,-3.97044 -21.35272,-4.85067c0,0 -3.22491,-0.40311 -2.82179,-3.62802c0.40311,-3.22491 3.62802,-2.82179 3.62802,-2.82179c7.55905,0.95385 15.45547,2.51305 22.64728,5.14933c5.33835,1.95686 10.20277,4.55265 15.73784,5.92261l0.21176,-0.09704c0,0 3.25,0 3.25,3.25z" fill="#a6a6a6" stroke="none" stroke-width="0.5"/><path d="M142.66158,218.0876c0,-1.79493 1.45507,-3.25 3.25,-3.25c1.79493,0 3.25,1.45507 3.25,3.25c0,1.79493 -1.45507,3.25 -3.25,3.25c-1.79493,0 -3.25,-1.45507 -3.25,-3.25z" fill="#a6a6a6" stroke="none" stroke-width="0.5"/><path d="M166.66158,220.0876c0,-1.79493 1.45507,-3.25 3.25,-3.25c1.79493,0 3.25,1.45507 3.25,3.25c0,1.79493 -1.45507,3.25 -3.25,3.25c-1.79493,0 -3.25,-1.45507 -3.25,-3.25z" fill="#a6a6a6" stroke="none" stroke-width="0.5"/><path d="M181.16158,240.0876c0,3.25 -3.25,3.25 -3.25,3.25c-10.5,0 -23.5,0 -34,0c0,0 -3.25,0 -3.25,-3.25c0,-3.25 3.25,-3.25 3.25,-3.25c10.5,0 21,0 31.5,0h2.5c0,0 3.25,0 3.25,3.25z" fill="#a6a6a6" stroke="none" stroke-width="0.5"/><path d="M165.91158,339.3376c-3.25,0 -3.25,-3.25 -3.25,-3.25c0,-7.33333 0,-17.66667 0,-25c0,0 0,-3.25 3.25,-3.25c3.25,0 3.25,3.25 3.25,3.25c0,7.33333 0,14.66667 0,22v3c0,0 0,3.25 -3.25,3.25z" fill="#a6a6a6" stroke="none" stroke-width="0.5"/><path d="M189.91158,336.3376c-3.25,0 -3.25,-3.25 -3.25,-3.25l0.16678,-2.02774c1.99629,-5.68617 0.83322,-12.93041 0.83322,-18.97226c0,0 0,-3.25 3.25,-3.25c3.25,0 3.25,3.25 3.25,3.25c0,6.91825 0.94961,14.42888 -1.16678,21.02774l0.16678,-0.02774c0,0 0,3.25 -3.25,3.25z" fill="#a6a6a6" stroke="none" stroke-width="0.5"/><path d="M191.16158,351.0876c0,3.25 -3.25,3.25 -3.25,3.25h-2c-6.1097,0 -11.91267,-1 -18,-1c0,0 -3.25,0 -3.25,-3.25c0,-3.25 3.25,-3.25 3.25,-3.25c6.09743,0 11.89764,1 18,1h2c0,0 3.25,0 3.25,3.25z" fill="#a6a6a6" stroke="none" stroke-width="0.5"/><path d="M406.66158,321.0876v-4c0.00966,-5.47182 -0.14945,-11.34831 2.33047,-16.4279c3.28496,-6.72853 8.36887,-11.90702 12.13268,-18.24422c0,0 1.67211,-2.78685 4.45896,-1.11474c2.78685,1.67211 1.11474,4.45896 1.11474,4.45896c-3.74921,6.19367 -8.51754,11.25976 -11.86732,17.75578c-2.07736,4.02851 -1.67789,9.24332 -1.66952,13.57211v4c0,0 0,2.26594 -1.89204,3.01373c2.77452,1.72591 5.49318,3.54401 8.28341,5.29573l3.08679,1.9381c0,0 2.75244,1.72817 1.02427,4.48061c-1.72817,2.75244 -4.48061,1.02427 -4.48061,1.02427l-3.08679,-1.9381c-4.8644,-3.05452 -9.50199,-6.33777 -14.63848,-8.90745c-0.78276,-0.3916 -4.57351,-2.50357 -6.06715,-2.69885c-3.13317,-0.40965 -6.31957,0.04197 -9.47941,0.04197c0,0 -3.25,0 -3.25,-3.25c0,-3.25 3.25,-3.25 3.25,-3.25c3.50689,0 7.05317,-0.48271 10.52059,0.04197c2.60897,0.39477 5.68621,2.17839 7.93286,3.30114c0.78353,0.39157 1.55585,0.7987 2.31934,1.21843c-0.02278,-0.1925 -0.02278,-0.31154 -0.02278,-0.31154z" fill="#a6a6a6" stroke="none" stroke-width="0.5"/><path d="M388.91158,310.3376c-3.25,0 -3.25,-3.25 -3.25,-3.25l0.31286,-2.39131c2.40513,-5.07542 4.1533,-10.83621 7.3006,-15.509c0.6565,-0.97469 2.04271,-1.32779 2.63393,-2.34341c0.29743,-0.51094 -0.21668,-1.16586 -0.24739,-1.75628c-0.05194,-0.99865 0,-2 0,-3c0,0 0,-3.25 3.25,-3.25c3.25,0 3.25,3.25 3.25,3.25c0,1.18904 0.0582,6.5756 -0.24739,7.24372c-0.68908,1.50657 -2.44687,2.27832 -3.36608,3.65659c-2.89794,4.34517 -4.46786,9.77831 -6.6994,14.491l0.31286,-0.3913c0,0 0,3.25 -3.25,3.25z" fill="#a6a6a6" stroke="none" stroke-width="0.5"/><path d="M339.66158,196.0876c0,-3.25 3.25,-3.25 3.25,-3.25l-0.6,1.3c2.37404,-3.16371 5.14114,-6.40811 6.55187,-10.17757c0.54178,-1.44762 0.50366,-3.10402 1.21998,-4.4737c0.25277,-0.48332 5.38142,-5.54818 5.53006,-5.69682c0,0 2.29809,-2.29809 4.59619,0c2.29809,2.29809 0,4.59619 0,4.59619c-1.46245,1.46245 -3.59654,2.42843 -4.46994,4.30318c-0.50838,1.09124 -0.3566,2.39938 -0.78003,3.5263c-1.65937,4.41627 -4.65901,8.1017 -7.44813,11.82243l-4.6,1.3c0,0 -3.25,0 -3.25,-3.25z" fill="#a6a6a6" stroke="none" stroke-width="0.5"/><path d="M367.45814,203.99449c-2.90689,-1.45344 -1.45345,-4.36033 -1.45345,-4.36033l1.87663,-3.08438c1.48849,-1.15275 3.28145,-1.99451 4.46546,-3.45825c1.01211,-1.25125 1.26051,-2.96177 1.91639,-4.4314c1.35741,-3.04155 2.69895,-6.12671 3.49545,-9.36077c0,0 0.78824,-3.15296 3.9412,-2.36472c3.15296,0.78824 2.36473,3.94121 2.36473,3.94121c-0.91406,3.60971 -2.32362,7.09305 -3.884,10.474c-0.88551,1.91869 -1.3823,4.08515 -2.70417,5.73383c-1.49286,1.86193 -3.68969,3.02783 -5.53454,4.54175l-0.12337,0.91562c0,0 -1.45344,2.90689 -4.36033,1.45344z" fill="#a6a6a6" stroke="none" stroke-width="0.5"/><path d="M368.16158,218.0876c0,3.25 -3.25,3.25 -3.25,3.25h-3c-8.20351,0 -16.48822,0.40333 -24.60886,-1.05755c-3.8234,-0.68782 -7.49838,-2.03482 -11.24627,-3.05697c0,0 -3.13548,-0.85514 -2.28035,-3.99062c0.85513,-3.13548 3.99061,-2.28035 3.99061,-2.28035c3.58544,0.97785 7.09542,2.28858 10.75373,2.94303c7.70718,1.37876 15.60617,0.94246 23.39114,0.94246h3c0,0 3.25,0 3.25,3.25z" fill="#a6a6a6" stroke="none" stroke-width="0.5"/><path d="M372.61349,84.05537c-2.29809,-2.2981 0,-4.59619 0,-4.59619l2,-2c3.73165,-3.69801 7.0913,-5.2968 11.41855,-8.35328c4.18919,-2.95897 5.0593,-4.11817 8.58145,-7.64671c0,0 2.29809,-2.2981 4.59619,0c2.29809,2.2981 0,4.59619 0,4.59619c-3.89865,3.89201 -4.73369,5.0271 -9.41855,8.35329c-4.15715,2.95152 -7.1205,4.14827 -10.58145,7.64672l-2,2c0,0 -2.29809,2.2981 -4.59619,0z" fill="#a6a6a6" stroke="none" stroke-width="0.5"/><path d="M383.52445,91.96274c-2.20547,-2.38713 0.18166,-4.5926 0.18166,-4.5926l2.78676,-2.56092c10.15231,-6.78284 21.31079,-11.57136 31.7466,-17.8388c0,0 2.78685,-1.67211 4.45896,1.11474c1.67211,2.78685 -1.11474,4.45896 -1.11474,4.45896c-10.20021,6.11455 -21.14323,10.77059 -31.07005,17.3723l-2.39659,2.22798c0,0 -2.38713,2.20547 -4.5926,-0.18166z" fill="#a6a6a6" stroke="none" stroke-width="0.5"/><path d="M429.99479,119.78501c-1.02774,3.08322 -4.11096,2.05548 -4.11096,2.05548l-2.49285,-0.87519c-8.16613,0.17313 -17.71022,1.37582 -25.50715,-1.12481c0,0 -3.08322,-1.02774 -2.05548,-4.11096c1.02774,-3.08322 4.11096,-2.05548 4.11096,-2.05548c2.6775,0.94001 5.63457,0.84277 8.47226,0.83322c5.33968,-0.01796 10.68136,-0.03222 16.02059,0.04196l3.50715,1.12481c0,0 3.08322,1.02774 2.05548,4.11096z" fill="#a6a6a6" stroke="none" stroke-width="0.5"/><path d="M216.91856,121.85185c-3.09458,-0.99301 -2.10157,-4.08759 -2.10157,-4.08759l1.3082,-4.04764c1.01348,-6.22729 2.54642,-12.27187 3.5806,-18.49364c0,0 0.53429,-3.20578 3.74007,-2.67149c3.20578,0.5343 2.67148,3.74008 2.67148,3.74008c-1.06494,6.37325 -2.62264,12.56991 -3.67294,18.94738l-1.43826,4.51134c0,0 -0.99301,3.09458 -4.08759,2.10157z" fill="#a6a6a6" stroke="none" stroke-width="0.5"/><path d="M238.61349,111.05537c-2.29809,-2.2981 0,-4.59619 0,-4.59619l0.21488,0.27035c1.39987,-4.1886 2.87469,-8.53946 2.83322,-12.97226c0,0 0,-3.25 3.25,-3.25c3.25,0 3.25,3.25 3.25,3.25c-0.03717,5.18632 -1.53517,10.12102 -3.16678,15.02774l-1.78512,2.27035c0,0 -2.2981,2.2981 -4.59619,0z" fill="#a6a6a6" stroke="none" stroke-width="0.5"/><path d="M243.16158,138.75727c0,3.25 -3.25,3.25 -3.25,3.25c-5.66666,0 -13.33334,0 -19,0c0,0 -3.25,0 -3.25,-3.25c0,-3.25 3.25,-3.25 3.25,-3.25c5.66666,0 11.33334,0 17,0h2c0,0 3.25,0 3.25,3.25z" fill="#a6a6a6" stroke="none" stroke-width="0.5"/><path d="M46.91158,226.3376c-3.25,0 -3.25,-3.25 -3.25,-3.25c0,-2.66666 0,-8.33334 0,-11c0,0 0,-3.25 3.25,-3.25c3.25,0 3.25,3.25 3.25,3.25c0,2.66666 0,5.33334 0,8v3c0,0 0,3.25 -3.25,3.25z" fill="#a6a6a6" stroke="none" stroke-width="0.5"/><path d="M63.91158,224.3376c-3.25,0 -3.25,-3.25 -3.25,-3.25l0.16678,-2.02774c0.77535,-2.20847 0.85515,-4.63174 0.83322,-6.97226c0,0 0,-3.25 3.25,-3.25c3.25,0 3.25,3.25 3.25,3.25c-0.02307,3.03419 -0.24012,6.13842 -1.16678,9.02774l0.16678,-0.02774c0,0 0,3.25 -3.25,3.25z" fill="#a6a6a6" stroke="none" stroke-width="0.5"/><path d="M73.16158,237.0876c0,3.25 -3.25,3.25 -3.25,3.25c-8,0 -18,0 -26,0c0,0 -3.25,0 -3.25,-3.25c0,-3.25 3.25,-3.25 3.25,-3.25c8,0 16,0 24,0h2c0,0 3.25,0 3.25,3.25z" fill="#a6a6a6" stroke="none" stroke-width="0.5"/><path d="M32.66158,298.0876c0,-1.79492 1.45508,-3.25 3.25,-3.25c1.79492,0 3.25,1.45508 3.25,3.25c0,1.79492 -1.45508,3.25 -3.25,3.25c-1.79492,0 -3.25,-1.45508 -3.25,-3.25z" fill="#a6a6a6" stroke="none" stroke-width="0.5"/><path d="M56.66158,298.0876c0,-1.79492 1.45508,-3.25 3.25,-3.25c1.79492,0 3.25,1.45508 3.25,3.25c0,1.79492 -1.45508,3.25 -3.25,3.25c-1.79492,0 -3.25,-1.45508 -3.25,-3.25z" fill="#a6a6a6" stroke="none" stroke-width="0.5"/><path d="M62.20968,314.7895c2.29809,2.29809 0,4.5962 0,4.5962l-1,1c-1.1326,1.11282 -2.11022,2.4093 -3.39778,3.33844c-1.20883,0.87232 -2.7535,1.18241 -4,2c-0.99157,0.65037 -1.54763,1.94606 -2.65659,2.36607c-0.8397,0.31804 -7.28233,0.25394 -8.24372,0.24739c-1.53829,-0.01047 -3.11067,0.26479 -4.6146,-0.05865c-1.85844,-0.39968 -3.49071,-1.52986 -5.31147,-2.07609c-1.73456,-0.52037 -3.63296,-0.44835 -5.31765,-1.11266c-2.66305,-1.0501 -4.14201,-2.81127 -6.05437,-4.70451c0,0 -2.29809,-2.2981 0,-4.5962c2.2981,-2.29809 4.59619,0 4.59619,0c3.19556,3.23613 4.09629,2.82333 8.62798,4.18283c2.6457,0.7937 5.31182,1.8872 8.07393,1.86527c1.33329,-0.01058 2.6679,-0.05725 4,0c0.59066,0.02539 1.2166,0.48879 1.75628,0.24739c0.64364,-0.28791 0.76037,-1.23741 1.34341,-1.63393c2.22767,-1.51499 4.71886,-2.73525 6.60221,-4.66156l1,-1c0,0 2.2981,-2.29809 4.59619,0z" fill="#a6a6a6" stroke="none" stroke-width="0.5"/><path d="M215.91158,251.3376c-3.25,0 -3.25,-3.25 -3.25,-3.25c0,-2 0,-7 0,-9c0,0 0,-3.25 3.25,-3.25c0.09634,0 0.18982,0.00285 0.28053,0.00839c-0.91909,-0.57414 -1.53053,-1.59486 -1.53053,-2.75839c0,-1.79493 1.45507,-3.25 3.25,-3.25c1.79493,0 3.25,1.45507 3.25,3.25c0,1.79493 -1.45507,3.25 -3.25,3.25c-0.04596,0 -0.0917,-0.00096 -0.1372,-0.00285c1.3872,0.91043 1.3872,2.75285 1.3872,2.75285c0,2 0,4 0,6v3c0,0 0,3.25 -3.25,3.25z" fill="#a6a6a6" stroke="none" stroke-width="0.5"/><path d="M228.91158,251.3376c-3.25,0 -3.25,-3.25 -3.25,-3.25c0,-2 0,-6 0,-8c0,0 0,-3.25 3.25,-3.25c3.25,0 3.25,3.25 3.25,3.25c0,2 0,4 0,6v2c0,0 0,3.25 -3.25,3.25z" fill="#a6a6a6" stroke="none" stroke-width="0.5"/><path d="M245.4513,272.87041c0.47582,-0.57338 1.23834,-1.03281 2.46028,-1.03281c3.25,0 3.25,3.25 3.25,3.25l-3.25,4.25c-4.10641,0 -7.68641,0.13311 -11.60232,-1.03512l-3.6414,-0.21228c-3.27047,-2.89585 -5.56422,-5.56199 -9.78402,-6.91939c0,0 -2.26377,-0.75459 -2.26522,-2.91035c-0.22762,0.0505 -0.46422,0.07713 -0.70704,0.07713c-1.79493,0 -3.25,-1.45508 -3.25,-3.25c0,-1.79492 1.45507,-3.25 3.25,-3.25c1.72995,0 3.14422,1.35164 3.24434,3.05647c0.94685,-0.16855 1.78341,0.1103 1.78341,0.1103c4.25107,1.45492 7.53645,3.40972 10.21598,7.08062l0.55815,-0.07862c0.40925,-0.1374 0.81877,-0.17392 1.17292,-0.16522l0.02521,-0.00355c0,0 0.20805,0 0.51886,0.05264c0.31151,0.04835 0.50888,0.11414 0.50888,0.11414c2.53714,0.89074 4.95865,0.90861 7.51197,0.86604z" fill="#a6a6a6" stroke="none" stroke-width="0.5"/><path d="M436.91158,1.75727c0,4.97056 -78.35017,9 -175,9c-96.64983,0 -175,-4.02944 -175,-9c0,-4.97056 78.35017,-9 175,-9c96.64983,0 175,4.02944 175,9z" fill="#a6a6a6" stroke="none" stroke-width="0"/><text transform="translate(38,44.55104) scale(0.69502,0.69502)" font-size="40" xml:space="preserve" fill="#003cff" fill-rule="nonzero" stroke="none" stroke-width="1" stroke-linecap="butt" stroke-linejoin="miter" stroke-miterlimit="10" stroke-dasharray="" stroke-dashoffset="0" font-family="Pixel" font-weight="normal" text-anchor="start" style="mix-blend-mode: normal"><tspan x="0" dy="0">Click the background to exit.</tspan></text></g></g></svg>