<svg version="1.1" xmlns="http://www.w3.org/2000/svg" xmlns:xlink="http://www.w3.org/1999/xlink" width="655.97663" height="464.43528" viewBox="0,0,655.97663,464.43528"><g transform="translate(87.98831,52.21763)"><g data-paper-data="{&quot;isPaintingLayer&quot;:true}" fill-rule="nonzero" stroke-linejoin="miter" stroke-miterlimit="10" stroke-dasharray="" stroke-dashoffset="0" style="mix-blend-mode: normal"><path d="M4.82016,301.3576v-291.29129h490.99099v291.29129z" fill="#d19cff" stroke="none" stroke-width="0" stroke-linecap="butt"/><path d="M73.43835,1.97724l441.16137,-5.27859l-24.43981,293.27773l-80.80101,-6.73342c0,0 -2.26228,-133.03272 -0.24626,-218.14138c0.52341,-22.0965 5.90506,-31.34578 -7.05113,-32.59997c-12.95619,-1.25419 -321.97447,0.74952 -321.97447,0.74952z" fill="#be8ee8" stroke="none" stroke-width="0" stroke-linecap="butt"/><path d="M535.09945,334.74369c0,18.73396 -17.08654,41.56414 -56.95113,49.0202c-60.71767,11.3563 -163.71787,1.56539 -256.5774,1.56539c-103.99551,0 -164.67917,21.48677 -212.51891,-4.46514c-22.92338,-12.43538 -31.00961,-30.80833 -31.00961,-46.12045c0,-47.26761 124.70147,-85.58558 278.52853,-85.58558c153.82706,0 278.52853,38.31797 278.52853,85.58558z" fill="#ff74f5" stroke="#b351ac" stroke-width="5" stroke-linecap="butt"/><path d="M476.01971,408.76418l-108.4938,-169.44326l88.51513,-56.67587l108.49381,169.44326z" fill="#b16a3e" stroke="#804d2d" stroke-width="5" stroke-linecap="butt"/><path d="M459.11339,363.76418l-88.58749,-123.73267l72.27448,-41.38646l88.5875,123.73267z" fill="#c57645" stroke="#613a22" stroke-width="0" stroke-linecap="butt"/><path d="M454.92396,357.45375l-20.7545,-33.39742l6.89937,-12.15969l14.65361,-8.97684l12.55502,-0.05957l20.75451,33.39742l-7.10546,12.33238l-13.81222,7.88284z" fill="#915733" stroke="#613a22" stroke-width="0" stroke-linecap="butt"/><path d="M408.92396,298.45376l-20.7545,-33.39742l6.89937,-12.15969l14.65361,-8.97683l12.55502,-0.05957l20.7545,33.39742l-7.10546,12.33238l-13.81222,7.88284z" fill="#915733" stroke="#613a22" stroke-width="0" stroke-linecap="butt"/><path d="M458.07587,273.49046l-20.93993,-33.28147l6.83164,-12.19787l14.60346,-9.05819l12.55449,-0.12939l20.93993,33.28148l-7.03676,12.3717l-13.76817,7.95954z" fill="#915733" stroke="#613a22" stroke-width="0" stroke-linecap="butt"/><path d="M496.92396,329.45376l-20.7545,-33.39742l6.89937,-12.15969l14.65361,-8.97683l12.55502,-0.05957l20.7545,33.39742l-7.10546,12.33238l-13.81222,7.88284z" fill="#915733" stroke="#613a22" stroke-width="0" stroke-linecap="butt"/><path d="M114.17796,324.95027l-14.1555,-121.74965l23.81719,-3.57336l14.1555,121.74965z" fill="#f3e6ff" stroke="#d3c8de" stroke-width="5" stroke-linecap="butt"/><path d="M156.85547,163.42836c7.1044,24.27404 -8.60325,50.23486 -35.08401,57.98512c-26.48077,7.75026 -53.70693,-5.64491 -60.81134,-29.91895c-7.1044,-24.27403 8.60324,-50.23485 35.08401,-57.98511c26.48077,-7.75026 53.70693,5.64491 60.81134,29.91894z" fill="#ba70ff" stroke="#8d55c1" stroke-width="5" stroke-linecap="butt"/><path d="M94.40146,161.98661c-5.25157,5.88514 -13.01272,8.70799 -17.33502,6.30501c-4.3223,-2.40298 -3.56896,-9.12182 1.68261,-15.00696c5.25157,-5.88514 13.01272,-8.70799 17.33502,-6.30501c4.3223,2.40298 3.56896,9.12182 -1.68261,15.00696z" fill="#d19fff" stroke="#d3c8de" stroke-width="0" stroke-linecap="butt"/><path d="M153.31692,183.61897c0,0 -4.69423,15.95585 -14.95988,23.78375c-4.93649,3.76424 -11.57255,7.36331 -17.68243,9.20736c-8.1566,2.46177 -12.68835,1.57794 -17.00312,2.32433c-7.30859,1.26428 -20.58737,-4.37143 -26.40041,-10.16739c-5.20525,-5.18996 -8.35415,-10.54805 -8.35415,-10.54805z" fill="#aa67ea" stroke="#9a5dd2" stroke-width="5" stroke-linecap="round"/><path d="M63.91692,177.86371c0,0 1.94423,-19.70585 12.20988,-27.53375c4.93649,-3.76424 14.07254,-11.36331 20.18243,-13.20736c8.1566,-2.46177 18.18835,-0.32794 22.50311,-1.07433c7.05859,1.48572 18.83737,6.62143 24.65041,12.4174c5.20525,5.18996 8.10415,13.79805 8.10415,13.79805z" data-paper-data="{&quot;index&quot;:null}" fill="none" stroke="#c587ff" stroke-width="5" stroke-linecap="round"/><path d="M55.18889,197.80458l-2.47641,-14.28697l111.83246,-19.38429l2.47641,14.28696z" fill="#ba70ff" stroke="#8d55c1" stroke-width="5" stroke-linecap="butt"/><path d="M295.09648,279.8404l21.94779,-106.8917l21.13465,3.61351l-21.94778,106.89171z" fill="#f3e6ff" stroke="#d3c8de" stroke-width="5" stroke-linecap="butt"/><path d="M376.18058,155.151c-0.75502,22.50464 -21.26921,40.08054 -45.81972,39.25688c-24.55052,-0.82366 -43.84057,-19.73498 -43.08555,-42.23962c0.75502,-22.50463 21.26921,-40.08053 45.81972,-39.25687c24.55052,0.82366 43.84056,19.73498 43.08555,42.23961z" fill="#a7ff70" stroke="#7fc255" stroke-width="5" stroke-linecap="butt"/><path d="M323.7728,136.53331c-6.08008,3.51332 -13.4291,3.73813 -16.41449,0.50212c-2.98539,-3.23601 -0.47664,-8.70742 5.60344,-12.22074c6.08008,-3.51332 13.4291,-3.73812 16.41449,-0.50211c2.98539,3.23601 0.47664,8.70741 -5.60344,12.22073z" fill="#cfffb2" stroke="#d3c8de" stroke-width="0" stroke-linecap="butt"/><path d="M367.56374,171.23786c0,0 -8.41434,12.18411 -19.27541,15.94334c-5.22282,1.80772 -11.83673,3.00231 -17.5168,2.85949c-7.58281,-0.19068 -11.16852,-2.20049 -15.0249,-2.77138c-6.53215,-0.967 -16.19032,-9.43163 -19.49102,-15.95195c-2.95559,-5.83858 -4.12554,-11.24646 -4.12554,-11.24646z" fill="#92df62" stroke="#89d15c" stroke-width="5" stroke-linecap="round"/><path d="M293.57279,141.46611c0,0 7.1337,-16.12111 17.99477,-19.88034c5.22282,-1.80772 15.06498,-5.68815 20.74505,-5.54532c7.58281,0.19068 15.47094,4.78965 19.32731,5.36054c5.55466,3.22268 14.08376,10.84667 17.38446,17.36699c2.95559,5.83858 3.00876,13.92493 3.00876,13.92493z" data-paper-data="{&quot;index&quot;:null}" fill="none" stroke="#b5ff87" stroke-width="5" stroke-linecap="round"/><path d="M280.63744,155.8961l1.88611,-12.77056l99.96265,14.7637l-1.8861,12.77056z" fill="#a7ff70" stroke="#7fc255" stroke-width="5" stroke-linecap="butt"/><path d="M-56.75944,-49.13938l193.85038,53.88833l-28.15061,101.26512l-193.85039,-53.88833z" fill="#b16a3e" stroke="#804d2d" stroke-width="5" stroke-linecap="butt"/><path d="M-23.15827,-20.88038l148.531,33.10678l-26.24743,79.0412l-148.53101,-33.10677z" fill="#c57645" stroke="#613a22" stroke-width="0" stroke-linecap="butt"/><path d="M-6.81892,-24.97878l37.73888,11.04145l2.96947,13.66168l-4.93097,16.462l-9.31486,8.41816l-37.73889,-11.04144l-2.9311,-13.92781l5.03372,-15.0857z" fill="#915733" stroke="#613a22" stroke-width="0" stroke-linecap="butt"/><path d="M66.80613,-11.69908l37.73888,11.04145l2.96947,13.66168l-4.93098,16.46199l-9.31486,8.41816l-37.73888,-11.04145l-2.9311,-13.92781l5.03372,-15.0857z" fill="#915733" stroke="#613a22" stroke-width="0" stroke-linecap="butt"/><path d="M46.83334,39.68344l37.79971,10.83138l3.0454,13.64496l-4.83935,16.48917l-9.2679,8.46983l-37.79972,-10.83138l-3.00851,-13.91128l4.94975,-15.11346z" fill="#915733" stroke="#613a22" stroke-width="0" stroke-linecap="butt"/><path d="M-19.43754,23.89626l37.73888,11.04145l2.96947,13.66168l-4.93098,16.46199l-9.31486,8.41816l-37.73888,-11.04145l-2.9311,-13.92781l5.03372,-15.0857z" fill="#915733" stroke="#613a22" stroke-width="0" stroke-linecap="butt"/></g></g></svg>