<svg version="1.1" xmlns="http://www.w3.org/2000/svg" xmlns:xlink="http://www.w3.org/1999/xlink" width="806.00207" height="497.61841" viewBox="0,0,806.00207,497.61841"><g transform="translate(155.12712,69.19896)"><g data-paper-data="{&quot;isPaintingLayer&quot;:true}" fill-rule="nonzero" stroke-linecap="butt" stroke-linejoin="miter" stroke-miterlimit="10" stroke-dasharray="" stroke-dashoffset="0" style="mix-blend-mode: normal"><path d="M645.16181,107.36892c23.01149,43.25967 -80.14827,143.12627 -227.08196,221.28599c-146.93369,78.15972 -290.90961,23.12286 -313.9211,-20.13681c-16.90085,-31.77216 21.54475,-98.94897 121.60275,-139.14813c36.17682,-14.53436 99.67932,7.57863 138.6972,-13.17649c22.68898,-12.06915 113.89314,-80.63339 134.10853,-89.92704c110.69949,-50.89201 127.13644,4.52281 146.59459,41.10249z" fill="#8d9c98" stroke="#58625f" stroke-width="5"/><path d="M436.11613,14.30563c15.86491,46.35982 -101.81796,128.61562 -259.28146,182.5016c-157.46349,53.88598 -290.89767,-23.27257 -306.76258,-69.63238c-11.65202,-34.04907 36.95385,-94.28408 142.11809,-118.11807c38.02302,-8.61739 97.21854,23.27998 139.03259,8.97069c24.31495,-8.32088 125.23252,-61.56464 146.66529,-67.53711c117.36584,-32.70525 124.81295,24.61417 138.22807,63.81528z" fill="#8d9c98" stroke="#58625f" stroke-width="5"/><path d="M489.67469,130.92725c15.86491,46.35982 -101.81796,128.61562 -259.28146,182.5016c-157.46349,53.88598 -290.89767,-23.27257 -306.76258,-69.63238c-11.65202,-34.04907 36.95385,-94.28408 142.11809,-118.11808c38.02302,-8.6174 97.21854,23.27999 139.03259,8.9707c24.31495,-8.32089 125.23252,-61.56464 146.66529,-67.53712c117.36584,-32.70525 124.81295,24.61417 138.22807,63.81528z" fill="#7b8985" stroke="#58625f" stroke-width="5"/><path d="M266.68726,323.98741c0,30.23113 -85.1274,54.7383 -187.80899,54.7383c-102.68159,0 -165.15867,-71.69536 -165.15867,-101.92649c0,-22.20333 40.4057,-47.6551 106.55505,-40.56006c23.91686,2.56527 52.09957,33.00995 79.36642,33.00995c15.85573,0 85.4011,-10.92083 99.10527,-10.12573c75.04402,4.35398 67.94093,39.30108 67.94093,64.86404z" fill="#cfe6e0" stroke="#9bada8" stroke-width="5"/><path d="M562.97855,42.20063c0,30.23113 -85.1274,54.7383 -187.809,54.7383c-102.6816,0 -165.15867,-71.69536 -165.15867,-101.92649c0,-22.20332 40.4057,-47.6551 106.55505,-40.56006c23.91686,2.56526 52.09957,33.00995 79.36642,33.00995c15.85573,0 85.4011,-10.92083 99.10527,-10.12573c75.04402,4.35398 67.94093,39.30108 67.94093,64.86404z" fill="#cfe6e0" stroke="#9bada8" stroke-width="5"/><path d="M197.65038,-21.34412c9.78819,28.60267 -62.81875,79.35213 -159.96918,112.59823c-97.15043,33.24609 -179.47547,-14.3585 -189.26366,-42.96117c-7.18896,-21.00729 22.79946,-58.17056 87.68276,-72.87544c23.45911,-5.31668 59.98104,14.36308 85.7791,5.53466c15.00163,-5.13375 77.26486,-37.9836 90.48826,-41.66845c72.41134,-20.1782 77.006,15.18623 85.28273,39.37219z" fill="#a8bab5" stroke="#6e7a77" stroke-width="5"/><path d="M544.99272,301.9742c9.78819,28.60267 -62.81874,79.35213 -159.96918,112.59823c-97.15044,33.2461 -179.47547,-14.35851 -189.26366,-42.96118c-7.18896,-21.00729 22.79946,-58.17056 87.68276,-72.87544c23.45911,-5.31669 59.98104,14.36308 85.7791,5.53466c15.00162,-5.13374 77.26485,-37.98361 90.48825,-41.66845c72.41134,-20.1782 77.00599,15.18623 85.28273,39.37219z" fill="#a8bab5" stroke="#6e7a77" stroke-width="5"/><text transform="translate(38,44.55104) scale(0.69502,0.69502)" font-size="40" xml:space="preserve" fill="#003cff" fill-rule="nonzero" stroke="none" stroke-width="1" stroke-linecap="butt" stroke-linejoin="miter" stroke-miterlimit="10" stroke-dasharray="" stroke-dashoffset="0" font-family="Pixel" font-weight="normal" text-anchor="start" style="mix-blend-mode: normal"><tspan x="0" dy="0">Click the background to exit.</tspan></text></g></g></svg>