<svg version="1.1" xmlns="http://www.w3.org/2000/svg" xmlns:xlink="http://www.w3.org/1999/xlink" width="431.42643" height="314.30931" viewBox="0,0,431.42643,314.30931"><g transform="translate(-24.28682,-22.84537)"><g data-paper-data="{&quot;isPaintingLayer&quot;:true}" fill-rule="nonzero" stroke-linecap="butt" stroke-linejoin="miter" stroke-miterlimit="10" stroke-dasharray="" stroke-dashoffset="0" style="mix-blend-mode: normal"><path d="M26.78682,334.65468v-309.30931h426.42643v309.30931z" fill="#ff9625" stroke="#b3691b" stroke-width="5"/><path d="M284.00005,99.50005v-51h159v51z" fill="#da8021" stroke="#8f5415" stroke-width="5"/><path d="M283.00005,262.50005v-151h159v151z" fill="#da8021" stroke="#8f5415" stroke-width="5"/><path d="M283.00005,324.50005v-52h159v52z" fill="#da8021" stroke="#8f5415" stroke-width="5"/><path d="M64.00002,283.50005v-202h183v202z" fill="#da8021" stroke="#8f5415" stroke-width="5"/><text transform="translate(291.00005,84.23831) scale(0.65939,0.65939)" font-size="40" xml:space="preserve" fill="#ffffff" fill-rule="nonzero" stroke="none" stroke-width="1" stroke-linecap="butt" stroke-linejoin="miter" stroke-miterlimit="10" stroke-dasharray="" stroke-dashoffset="0" font-family="Pixel" font-weight="normal" text-anchor="start" style="mix-blend-mode: normal"><tspan x="0" dy="0">Block Cone</tspan></text><text transform="translate(336.00006,136.75001) scale(0.60834,0.60834)" font-size="40" xml:space="preserve" fill="#ffffff" fill-rule="nonzero" stroke="none" stroke-width="1" stroke-linecap="butt" stroke-linejoin="miter" stroke-miterlimit="10" stroke-dasharray="" stroke-dashoffset="0" font-family="Pixel" font-weight="normal" text-anchor="start" style="mix-blend-mode: normal"><tspan x="0" dy="0">Hint:</tspan></text><path d="M311.48082,317.00005v-33.5h36.07692v33.5z" fill="#faff00" stroke="none" stroke-width="0"/><text transform="translate(355.51928,306.50005) scale(0.5,0.5)" font-size="40" xml:space="preserve" fill="#ffffff" fill-rule="nonzero" stroke="none" stroke-width="1" stroke-linecap="butt" stroke-linejoin="miter" stroke-miterlimit="10" stroke-dasharray="" stroke-dashoffset="0" font-family="Pixel" font-weight="normal" text-anchor="start" style="mix-blend-mode: normal"><tspan x="0" dy="0">medium</tspan></text><text transform="translate(294.58335,163.84454) scale(0.3947,0.3947)" font-size="40" xml:space="preserve" fill="#ffffff" fill-rule="nonzero" stroke="none" stroke-width="1" stroke-linecap="butt" stroke-linejoin="miter" stroke-miterlimit="10" stroke-dasharray="" stroke-dashoffset="0" font-family="Pixel" font-weight="normal" text-anchor="start" style="mix-blend-mode: normal"><tspan x="0" dy="0">Find a block, then</tspan><tspan x="0" dy="48px">go to the</tspan><tspan x="0" dy="48px">playground</tspan></text><text transform="translate(96,65) scale(0.40732,0.5)" font-size="40" xml:space="preserve" fill="#ffffff" fill-rule="nonzero" stroke="none" stroke-width="1" stroke-linecap="butt" stroke-linejoin="miter" stroke-miterlimit="10" stroke-dasharray="" stroke-dashoffset="0" font-family="Pixel" font-weight="normal" text-anchor="start" style="mix-blend-mode: normal"><tspan x="0" dy="0">@JustANoob12345</tspan></text><path d="M105.32565,223.09974v-75.50543h110.28596v75.50543z" fill="#ff2121" stroke="#ad1717" stroke-width="5"/><path d="M91.66669,237.12358v-18.5h131.66667v18.5z" fill="#ff2121" stroke="#ad1717" stroke-width="5"/><path d="M136.28331,262.14858c-2.17317,0 -7.57909,0.70177 -9.36803,-0.26393c-5.08484,-2.74486 -3.5529,-8.99301 1.24093,-10.65614c1.15941,-0.40223 2.87017,-0.51639 4.68048,-0.45925c2.61161,0.08244 5.43037,0.52137 7.09974,0.96614c0.53079,0.14142 1.33387,0.36031 2.03426,0.64232c-0.09474,-0.48687 -0.13054,-0.99212 -0.17521,-1.4828c-0.33981,-3.73294 0.48783,-7.70537 0.48783,-11.49635c0,0 0,-2.5 2.5,-2.5c2.5,0 2.5,2.5 2.5,2.5c0,3.08056 0.39582,5.96242 0.05926,8.99635c-0.16666,1.50243 0.0234,2.99863 -0.07143,4.50731c-0.10616,1.68891 0.36902,3.94883 -0.97035,4.98311c-0.1823,0.14077 -5.80367,4.1495 -10.01749,4.26323z" fill="#520b0b" stroke="none" stroke-width="0.5"/><path d="M166.7368,258.08534c-1.33937,-1.03428 -0.86419,-3.2942 -0.97035,-4.98311c-0.09482,-1.50868 0.09524,-3.00488 -0.07143,-4.50731c-0.33656,-3.03393 0.05926,-5.91579 0.05926,-8.99634c0,0 0,-2.5 2.5,-2.5c2.5,0 2.5,2.5 2.5,2.5c0,3.79098 0.82764,7.7634 0.48783,11.49634c-0.04467,0.49068 -0.08046,0.99592 -0.17521,1.4828c0.70039,-0.28202 1.50347,-0.5009 2.03426,-0.64232c2.82653,-0.75308 8.94819,-1.48941 11.78022,-0.50689c4.79383,1.66313 6.32577,7.91128 1.24093,10.65614c-1.78895,0.9657 -7.19486,0.26393 -9.36803,0.26393c-4.21382,-0.11373 -9.83519,-4.12247 -10.01749,-4.26324z" data-paper-data="{&quot;index&quot;:null}" fill="#520b0b" stroke="none" stroke-width="0.5"/><path d="M139.33333,172.74858c0,-1.38071 1.11929,-2.5 2.5,-2.5c1.38071,0 2.5,1.11929 2.5,2.5c0,1.38071 -1.11929,2.5 -2.5,2.5c-1.38071,0 -2.5,-1.11929 -2.5,-2.5z" fill="#520b0b" stroke="none" stroke-width="0.5"/><path d="M160.33332,172.24858c0,-1.38071 1.11929,-2.5 2.5,-2.5c1.38071,0 2.5,1.11929 2.5,2.5c0,1.38071 -1.11929,2.5 -2.5,2.5c-1.38071,0 -2.5,-1.11929 -2.5,-2.5z" fill="#520b0b" stroke="none" stroke-width="0.5"/><path d="M178.543,198.30137c0.44722,2.45968 -2.01246,2.90689 -2.01246,2.90689l-2.87732,0.51978c-4.92614,0.34683 -9.62318,2.28605 -14.5532,3.06189c-9.14093,1.43853 -18.60895,2.48565 -27.82496,3.20129c0,0 -2.49264,0.19174 -2.68438,-2.30089c-0.19174,-2.49264 2.30089,-2.68437 2.30089,-2.68437c9.0829,-0.69161 18.42263,-1.74187 27.43228,-3.15541c5.00544,-0.78531 9.68109,-2.66743 14.68956,-3.0814l2.62268,-0.48022c0,0 2.45968,-0.44721 2.90689,2.01246z" fill="#520b0b" stroke="none" stroke-width="0.5"/><path d="M161.77503,162.74753c0.02954,0.16954 0.0456,0.35385 0.0456,0.55422c0,2.5 -2.5,2.5 -2.5,2.5l-1.25228,-1.59558c-0.095,0.21273 -0.22828,0.43244 -0.40819,0.65733c-1.56174,1.95217 -3.51391,0.39043 -3.51391,0.39043l-3.7516,-3.00991c-3.74908,-4.06908 -5.46399,-8.07375 -7.79007,-13.0582c0,0 -1.05721,-2.26546 1.20824,-3.32267c2.26546,-1.05721 3.32267,1.20824 3.32267,1.20824c2.0154,4.31872 3.38584,8.03107 6.66052,11.50784l2.89829,2.31145c5.07801,-5.53966 10.15602,-11.07933 15.23402,-16.61899c0,0 1.68931,-1.84289 3.5322,-0.15358c1.84289,1.68931 0.15358,3.5322 0.15358,3.5322c-4.61303,5.03241 -9.22606,10.06482 -13.83908,15.09723z" fill="#520b0b" stroke="none" stroke-width="0.5"/></g></g></svg>