<svg version="1.1" xmlns="http://www.w3.org/2000/svg" xmlns:xlink="http://www.w3.org/1999/xlink" width="108.66599" height="143.15561" viewBox="0,0,108.66599,143.15561"><g transform="translate(-187.11012,-102.7342)"><g data-paper-data="{&quot;isPaintingLayer&quot;:true}" fill-rule="nonzero" stroke-linecap="butt" stroke-linejoin="miter" stroke-miterlimit="10" stroke-dasharray="" stroke-dashoffset="0" style="mix-blend-mode: normal"><path d="M227.96303,237.95492c0.44985,0.36488 0.81344,0.95469 0.81344,1.90808c0,2.05578 -1.69049,2.42107 -2.29125,2.48597c-0.35791,0.46553 -0.71582,0.93105 -1.07373,1.39658c-1.59476,0.70706 -3.056,2.35828 -4.78429,2.12117c-0.77667,-0.10655 -0.93631,-1.07402 -1.22364,-1.93046c-0.13434,-0.09292 -0.26895,-0.18431 -0.40367,-0.27042c-0.1243,0.08162 -0.2535,0.16209 -0.38765,0.24134c-3.45618,2.04152 -11.08178,-0.89244 -12.96675,-3.88107c-0.6833,-1.08337 -1.24017,-2.50583 -1.21955,-3.8185c-1.45511,-2.98429 -1.62444,-6.60137 1.99732,-8.29011c1.2894,-0.60122 2.68263,0.96686 4.0673,1.29355c2.63649,0.62203 5.24815,1.27223 7.66796,2.42728c0.9376,0.17496 1.8285,0.50655 2.62905,1.04765c0.4491,0.30355 0.74346,0.75079 0.9862,1.24705c0.09243,0.07712 0.18435,0.15561 0.27576,0.2355c0.70502,0.61618 1.14676,1.49561 1.56101,2.33533c0.00129,0.00262 0.00257,0.0053 0.00384,0.00804c0.03341,-2.6019 1.93844,-4.33975 3.41858,-6.55255c2.77068,-4.14215 6.39392,-7.72591 9.80498,-11.423c0,0 1.6957,-1.83701 3.53271,-0.14131c1.83701,1.6957 0.14131,3.53271 0.14131,3.53271c-4.0302,4.36389 -8.18419,8.51328 -11.32436,13.55126c-0.3279,0.52607 -0.7548,1.46311 -1.22457,2.4759z" fill="#000000" stroke="none" stroke-width="0.5"/><path d="M265.10841,225.88156c0.32328,0.25242 0.62442,0.54597 0.89941,0.88389c3.34009,4.10453 -0.19631,10.9468 -2.92465,14.16277c-0.84046,0.99068 -1.51842,2.22657 -2.65789,2.8506c-2.70796,1.48302 -4.13425,1.55766 -5.54281,0.58816c-0.36224,0.20422 -0.7805,0.32074 -1.22599,0.32074c-1.06024,0 -1.96632,-0.66 -2.32982,-1.59155c-2.91885,-0.87705 -3.07775,-4.62046 -3.00228,-7.7635c-0.17397,-0.35971 -0.34775,-0.71858 -0.52375,-1.07461c-1.76518,-3.57077 -4.48042,-6.70344 -6.41267,-10.24585c0,0 -1.19713,-2.19474 0.99761,-3.39187c2.19474,-1.19713 3.39187,0.99761 3.39187,0.99761c1.44773,2.6542 3.27927,5.05834 4.87958,7.59039c1.89051,-1.97389 5.22647,-3.86582 8.45579,-4.4328c0.38472,-0.71557 0.80605,-1.41785 1.27786,-2.10261l4.73174,1.86052c0,0 0.16052,0.64208 -0.01399,1.3481z" fill="#000000" stroke="none" stroke-width="0.5"/><path d="M283.72722,114.04773c-16.71769,35.98013 -34.38852,94.719 -40.2791,109.69833c-1.6294,4.14345 -2.83902,3.75734 -3.62017,1.93438c-0.78116,-1.82296 -29.96573,-73.15629 -43.60073,-112.13269c-1.99842,-5.71261 90.62716,-6.23033 87.5,0.49999z" data-paper-data="{&quot;index&quot;:null}" fill="#ef9540" stroke="#c9712e" stroke-width="5"/><path d="M230.0221,195.42131c4.53006,-6.69661 7.15855,-15.4196 11.66884,-22.12463c0.37026,-1.40679 0.44982,-2.9245 1.11078,-4.22036c0.97377,-1.90913 2.95376,-3.16013 4.01323,-5.02307c1.2663,-2.22662 1.72723,-4.85738 3.03564,-7.05951c0.46578,-0.78393 1.54417,-1.10141 1.95113,-1.91742c0.61337,-1.2299 0.38414,-2.77134 1,-4c0.43637,-0.87058 1.54059,-1.25192 2.04887,-2.08258c1.19902,-1.9595 1.283,-4.43774 2.30713,-6.49406c0.72728,-1.46029 1.85151,-2.70618 2.52784,-4.19075c2.36413,-5.18941 1.94244,-11.49295 3.94695,-16.86823c1.45115,-3.89139 2.87409,-4.78115 2.84471,-9.00763l14.075,1.7c-0.0269,4.74656 -1.60233,3.52677 -3.23029,7.84237c-2.07198,5.49264 -6.96757,19.52677 -8.21808,21.64696c-0.46325,0.78542 -1.73527,5.28876 -2.35113,6.51742c-0.43637,0.87058 -1.94386,6.64994 -2.44887,7.48258c-1.30461,2.15096 -1.31248,5.75841 -2.56435,7.94049c-1.05776,1.84375 -2.05485,5.2665 -2.98678,7.17693c-0.56745,1.16325 -2.59281,5.51976 -2.88922,6.77964c-4.61445,6.98103 -3.59312,18.17086 -8.20616,25.17537l-6.4,17.4z" fill="#e08631" stroke="none" stroke-width="0.5"/><path d="M249.72723,200.28839l0.01931,-2.02325c-0.225,-1.80032 -0.23787,-3.63395 -0.6203,-5.40751c-0.55683,-2.58235 -4.40318,-6.54896 -7.51614,-4.1532c-0.5268,0.40544 -2.7642,4.60915 -2.83828,4.7503c-1.96413,3.74241 -3.26114,7.62115 -4.91339,11.48512c0,0 -0.98479,2.29787 -3.28266,1.31306c-2.29787,-0.9848 -1.31306,-3.28266 -1.31306,-3.28266c1.71101,-3.9826 3.05049,-7.98952 5.08661,-11.84822c0.78122,-1.48051 2.31226,-4.3922 3.74706,-5.9185c-2.21758,-0.72491 -4.35408,-1.68814 -6.30336,-2.6706c-1.94932,-0.98248 -4.03003,-2.06938 -5.30261,-3.84298c-1.02876,-1.43379 -1.74095,-3.27401 -2.30062,-5.13495c-0.47072,0.90335 -0.92442,1.82177 -1.35329,2.76788c0,0 -1.03451,2.27591 -3.31043,1.24141c-2.27591,-1.0345 -1.24141,-3.31042 -1.24141,-3.31042c2.54924,-5.59392 6.00841,-13.74988 11.07771,-17.69163c-2.4865,-1.27527 -4.96794,-2.83488 -7.10746,-4.14191c-2.71292,-1.65732 -7.48115,-3.94666 -9.16241,-6.83086c-0.10527,-0.18058 -0.19343,-0.36819 -0.26865,-0.56114c-0.89074,1.24108 -1.77019,2.4707 -2.69846,3.55369c0,0 -1.62698,1.89814 -3.52512,0.27116c-1.89814,-1.62698 -0.27116,-3.52512 -0.27116,-3.52512c2.01599,-2.35199 3.68068,-4.88969 5.60836,-7.26274c1.02355,-1.26003 2.23968,-2.38224 3.5472,-3.42481c-2.05712,-1.22161 -4.01466,-2.58917 -5.84239,-4.08546c-1.8877,-1.54538 -2.99503,-3.86944 -4.22346,-5.97717c-1.7091,-2.93249 -3.82592,-4.69638 -5.42764,-7.83814c0,0 -1.11803,-2.23607 1.11804,-3.35411c2.23607,-1.11804 3.3541,1.11804 3.3541,1.11804c1.48159,3.0365 3.53709,4.62691 5.23903,7.49519c0.95713,1.61306 1.62794,3.53974 3.10988,4.68949c2.28314,1.77137 4.70765,3.34624 7.24276,4.68393c1.02885,-0.69596 2.04595,-1.38372 3.00986,-2.08711c4.02556,-2.93751 7.41624,-7.08121 12.20569,-8.97317c6.42914,-2.53967 13.79915,-2.86699 20.45982,-1.37955c3.63404,1.8026 7.96739,4.08879 11.51341,6.89451c3.81813,-2.63072 6.07775,-6.98196 8.08074,-10.98996l0.33333,-0.66667c0,0 1.11804,-2.23607 3.35411,-1.11803c2.23607,1.11804 1.11803,3.3541 1.11803,3.3541l-0.33333,0.66666c-2.26489,4.52758 -4.83718,9.06 -8.87835,12.24389c0.22526,0.26659 0.44115,0.53686 0.64681,0.81081c1.56035,2.07854 2.75548,5.53115 3.66963,7.94947l0.15918,1.87781c0,0 0,2.5 -2.5,2.5c-0.39659,0 -0.73027,-0.06292 -1.01101,-0.16878c-0.34154,0.68622 -0.93557,1.08224 -0.93557,1.08224l-0.35241,0.03964c-1.758,2.44634 -3.03651,5.03781 -4.79345,7.49617c-0.25686,0.25831 -4.154,4.19147 -4.39006,4.37083c-1.18266,0.89864 -2.49126,1.66045 -3.89006,2.29429c2.36754,2.49347 4.32551,5.44017 5.96889,8.32312c0.71299,1.89409 -2.68884,8.67362 -2.93181,7.95591c-2.58205,4.22265 -4.03686,8.34253 -8.77179,10.95197c-0.42064,0.23182 -0.84669,0.4363 -1.2773,0.61518c0.68052,0.4929 1.26423,1.06089 1.70864,1.69382c2.13011,3.03367 1.45301,5.44049 1.88997,8.93553zM227.98592,168.34872c0.60503,2.44323 1.25659,5.4013 2.64481,7.5381c1.0854,1.67068 1.63908,1.30243 3.36405,2.15702c4.22687,2.09408 10.67281,5.21424 15.33973,2.39917c4.17706,-2.5196 5.17331,-6.57142 7.81259,-10.54137l0.51072,-1.06462c0,0 0.37067,-0.74134 1.11201,-1.15687c-1.43338,-2.47453 -3.66945,-6.03306 -6.33835,-8.42723c-5.67386,1.28598 -12.00268,1.00867 -17.26053,-0.40539c-0.87778,0.43443 -1.71096,0.92547 -2.48195,1.46896c-2.27239,1.60188 -3.64549,4.54182 -4.9504,6.86581c-0.05412,0.09639 -0.10826,0.19261 -0.16242,0.28868c0.30301,0.45083 0.40974,0.87774 0.40974,0.87774zM251.71888,153.07292c0.50182,0.26188 0.99034,0.54675 1.46599,0.85223c1.93983,-0.60733 3.71564,-1.46897 5.19153,-2.62352c1.34393,-1.05131 2.3995,-2.42658 3.60994,-3.62917c1.66769,-2.33649 2.87213,-4.82325 4.53989,-7.17049l1.64758,-1.2937c0,0 0.95754,-0.63836 2.00639,-0.39919c-0.68844,-1.90637 -1.53712,-4.24204 -2.62418,-5.69341c-0.26894,-0.35906 -0.56241,-0.7118 -0.87703,-1.05806c-4.40008,2.44854 -9.35787,4.29068 -13.85355,6.21741c-2.92897,1.09912 -5.84615,2.4708 -8.99209,2.83178c-7.88432,0.90468 -16.04511,-0.60127 -23.36138,-3.87944c-0.90493,0.64651 -1.79696,1.3063 -2.65977,1.99439c-0.35736,0.285 -0.70279,0.593 -1.03831,0.91943c0.16779,0.33781 0.22714,0.60488 0.22714,0.60488c0.70293,4.36471 6.66558,7.0264 10.39926,9.00129c2.18267,1.15451 5.04883,2.92992 7.40563,3.76319c5.43993,-2.2239 12.10786,-2.9452 16.91296,-0.43763zM254.05745,123.64431c-5.43093,-1.19819 -11.64105,-0.70657 -16.87351,1.28712c-4.35267,1.65847 -7.49541,5.68427 -11.12764,8.36016c-0.21787,0.16051 -0.43697,0.31996 -0.65706,0.47858c5.65856,2.10596 11.71883,3.02355 17.88854,2.36648c2.64811,-0.28203 5.21322,-1.57921 7.67458,-2.50155c3.76693,-1.6144 7.84497,-3.16204 11.62,-5.08265c-2.77636,-1.94941 -5.93503,-3.59873 -8.52489,-4.90814z" fill="#c9712e" stroke="none" stroke-width="0.5"/><path d="" fill="#ae6228" stroke="none" stroke-width="0.5"/><path d="M188.76916,154.78738c0.2915,-0.73051 0.7217,-1.33197 1.2962,-1.69874c5.05023,-3.22419 10.0535,2.68732 8.46886,7.06075c7.18859,2.3072 15.00451,5.66608 20.07014,11.18987c1.23644,1.34827 2.85074,4.73903 3.81281,6.65983c0,0 1.11803,2.23607 -1.11803,3.3541c-2.23607,1.11803 -3.3541,-1.11803 -3.3541,-1.11803c-0.64453,-1.29147 -2.30771,-4.74523 -3.05365,-5.54721c-5.129,-5.51424 -13.46304,-8.50921 -20.47214,-10.57309c-2.9379,1.45119 -5.93479,0.87993 -7.20509,-3.57055c-0.47343,-1.65864 0.79946,-3.35584 1.19919,-5.03376c0,0 0.10162,-0.33873 0.35582,-0.72317z" fill="#000000" stroke="none" stroke-width="0.5"/><path d="M288.63346,149.85281c0.17093,-0.08389 0.35185,-0.14773 0.54531,-0.18637c1.90904,-0.38129 4.36903,-0.29315 5.7373,1.09165c1.78487,1.80643 0.5596,7.70636 -1.55683,9.02319c-2.22033,1.38148 -4.25267,1.28695 -5.87997,0.24528c-6.04587,8.60462 -12.94522,15.9763 -21.57722,22.25519c0,0 -2.02184,1.47043 -3.49227,-0.55141c-1.47043,-2.02184 0.55141,-3.49227 0.55141,-3.49227c8.68339,-6.3141 15.42699,-13.78088 21.4436,-22.5291c-0.24466,-1.25562 0.34619,-2.64548 0.43032,-3.95392c0,0 0.27608,-2.48471 2.76079,-2.20863c0.41977,0.04664 0.76074,0.15632 1.03756,0.3064z" fill="#000000" stroke="none" stroke-width="0.5"/><path d="M226.45491,155.46435c0,-1.38071 1.11929,-2.5 2.5,-2.5c1.38071,0 2.5,1.11929 2.5,2.5c0,1.38071 -1.11929,2.5 -2.5,2.5c-1.38071,0 -2.5,-1.11929 -2.5,-2.5z" fill="#000000" stroke="none" stroke-width="0.5"/><path d="M257.73545,153.93847c0,-1.38071 1.11929,-2.5 2.5,-2.5c1.38071,0 2.5,1.11929 2.5,2.5c0,1.38071 -1.11929,2.5 -2.5,2.5c-1.38071,0 -2.5,-1.11929 -2.5,-2.5z" fill="#000000" stroke="none" stroke-width="0.5"/><path d="M220.58845,171.57874c-2,-1.5 -0.5,-3.5 -0.5,-3.5l3.08869,-2.52526c7.65224,-0.16406 15.02942,-2.24566 22.56245,-2.28944c0.18878,0 10.00921,-0.00122 10.05647,0.00383c1.70695,0.18227 3.74008,-0.04459 5.03492,1.08248c2.30876,2.00962 1.26425,9.56763 0.05409,11.80072c-2.64936,4.88884 -9.74887,6.7613 -14.50928,8.56136c-1.67789,0.63446 -3.28192,1.52407 -5.03718,1.8941c-1.54332,0.32535 -7.97689,0.75202 -9.84887,-0.38438c-4.61609,-2.80225 -5.74349,-10.79599 -6.72329,-15.70813c-0.49551,0.01434 -0.98839,0.02692 -1.47787,0.03823l0.79987,0.5265c0,0 -1.5,2 -3.5,0.5zM229.83376,170.29149c0.74684,3.55474 1.38428,6.47423 3.17026,9.82331c0.32816,0.61537 0.45687,1.4382 1.04546,1.81226c0.52161,0.3315 1.23618,0.05102 1.85387,0.03036c1.46252,-0.04893 2.9545,0.07606 4.38352,-0.23902c4.90642,-1.0818 10.93838,-3.92836 14.93585,-6.82955c2.26019,-1.64035 1.5118,-3.4375 1.75608,-5.89582c0.03679,-0.37026 0.70482,-0.88537 0.3723,-1.05235c-0.55382,-0.27812 -1.21253,0.28964 -1.83154,0.31954c-0.10589,0.00512 -9.71072,0.00383 -9.77997,0.00383c-2.54433,-0.01759 -5.04618,0.66754 -7.55318,1.10216c-2.70089,0.46823 -5.52872,0.74908 -8.35265,0.92529z" fill="#000000" stroke="none" stroke-width="0.5"/></g></g></svg>