<svg version="1.1" xmlns="http://www.w3.org/2000/svg" xmlns:xlink="http://www.w3.org/1999/xlink" width="431.42643" height="314.30931" viewBox="0,0,431.42643,314.30931"><defs><linearGradient x1="162.25" y1="207.95571" x2="162.25" y2="226.45571" gradientUnits="userSpaceOnUse" id="color-1"><stop offset="0" stop-color="#88eeff"/><stop offset="1" stop-color="#88eeff" stop-opacity="0"/></linearGradient><linearGradient x1="162.25" y1="207.95571" x2="162.25" y2="226.45571" gradientUnits="userSpaceOnUse" id="color-2"><stop offset="0" stop-color="#78bfe3"/><stop offset="1" stop-color="#78bfe3" stop-opacity="0"/></linearGradient><linearGradient x1="161.33335" y1="101.07302" x2="161.33335" y2="207.70571" gradientUnits="userSpaceOnUse" id="color-3"><stop offset="0" stop-color="#88eeff"/><stop offset="1" stop-color="#88eeff" stop-opacity="0"/></linearGradient><linearGradient x1="161.33335" y1="101.07302" x2="161.33335" y2="207.70571" gradientUnits="userSpaceOnUse" id="color-4"><stop offset="0" stop-color="#78bfe3"/><stop offset="1" stop-color="#78bfe3" stop-opacity="0"/></linearGradient><linearGradient x1="160.75" y1="170.28905" x2="160.75" y2="183.62238" gradientUnits="userSpaceOnUse" id="color-5"><stop offset="0" stop-color="#ffffff"/><stop offset="1" stop-color="#ffffff" stop-opacity="0"/></linearGradient><linearGradient x1="160.75" y1="170.28905" x2="160.75" y2="183.62238" gradientUnits="userSpaceOnUse" id="color-6"><stop offset="0" stop-color="#78bfe3"/><stop offset="1" stop-color="#78bfe3" stop-opacity="0"/></linearGradient><linearGradient x1="162.41668" y1="132.28904" x2="162.41668" y2="143.95571" gradientUnits="userSpaceOnUse" id="color-7"><stop offset="0" stop-color="#ffffff"/><stop offset="1" stop-color="#ffffff" stop-opacity="0"/></linearGradient><linearGradient x1="162.41668" y1="132.28904" x2="162.41668" y2="143.95571" gradientUnits="userSpaceOnUse" id="color-8"><stop offset="0" stop-color="#78bfe3"/><stop offset="1" stop-color="#78bfe3" stop-opacity="0"/></linearGradient><linearGradient x1="146.58335" y1="159.58071" x2="146.58335" y2="164.58071" gradientUnits="userSpaceOnUse" id="color-9"><stop offset="0" stop-color="#39596a"/><stop offset="1" stop-color="#39596a" stop-opacity="0"/></linearGradient><linearGradient x1="167.58334" y1="159.08071" x2="167.58334" y2="164.08071" gradientUnits="userSpaceOnUse" id="color-10"><stop offset="0" stop-color="#39596a"/><stop offset="1" stop-color="#39596a" stop-opacity="0"/></linearGradient><linearGradient x1="158.33877" y1="185.08926" x2="158.33877" y2="196.82676" gradientUnits="userSpaceOnUse" id="color-11"><stop offset="0" stop-color="#39596a"/><stop offset="1" stop-color="#39596a" stop-opacity="0"/></linearGradient><linearGradient x1="140.36882" y1="226.2307" x2="140.36882" y2="251.72699" gradientUnits="userSpaceOnUse" id="color-12"><stop offset="0" stop-color="#39596a"/><stop offset="1" stop-color="#39596a" stop-opacity="0"/></linearGradient><linearGradient x1="182.16881" y1="226.43072" x2="182.16881" y2="251.927" gradientUnits="userSpaceOnUse" id="color-13"><stop offset="0" stop-color="#39596a"/><stop offset="1" stop-color="#39596a" stop-opacity="0"/></linearGradient></defs><g transform="translate(-24.28679,-22.84534)"><g data-paper-data="{&quot;isPaintingLayer&quot;:true}" fill-rule="nonzero" stroke-linejoin="miter" stroke-miterlimit="10" stroke-dasharray="" stroke-dashoffset="0" style="mix-blend-mode: normal"><path d="M26.7868,334.65466v-309.30931h426.42643v309.30931z" fill="#ff9625" stroke="#b3691b" stroke-width="5" stroke-linecap="butt"/><path d="M284.00001,99.50001v-51h159v51z" fill="#da8021" stroke="#8f5415" stroke-width="5" stroke-linecap="butt"/><path d="M283.00001,262.50001v-151h159v151z" fill="#da8021" stroke="#8f5415" stroke-width="5" stroke-linecap="butt"/><path d="M283.00001,324.50001v-52h159v52z" fill="#da8021" stroke="#8f5415" stroke-width="5" stroke-linecap="butt"/><path d="M64.00001,283.50001v-202h183v202z" fill="#da8021" stroke="#8f5415" stroke-width="5" stroke-linecap="butt"/><text transform="translate(289.50001,82.533) scale(0.58425,0.58425)" font-size="40" xml:space="preserve" fill="#ffffff" fill-rule="nonzero" stroke="none" stroke-width="1" stroke-linecap="butt" stroke-linejoin="miter" stroke-miterlimit="10" stroke-dasharray="" stroke-dashoffset="0" font-family="Pixel" font-weight="normal" text-anchor="start" style="mix-blend-mode: normal"><tspan x="0" dy="0">Bubble Cone</tspan></text><text transform="translate(336.00001,136.75) scale(0.60834,0.60834)" font-size="40" xml:space="preserve" fill="#ffffff" fill-rule="nonzero" stroke="none" stroke-width="1" stroke-linecap="butt" stroke-linejoin="miter" stroke-miterlimit="10" stroke-dasharray="" stroke-dashoffset="0" font-family="Pixel" font-weight="normal" text-anchor="start" style="mix-blend-mode: normal"><tspan x="0" dy="0">Hint:</tspan></text><text transform="translate(306.00001,166.125) scale(0.40249,0.40249)" font-size="40" xml:space="preserve" fill="#ffffff" fill-rule="nonzero" stroke="none" stroke-width="1" stroke-linecap="butt" stroke-linejoin="miter" stroke-miterlimit="10" stroke-dasharray="" stroke-dashoffset="0" font-family="Pixel" font-weight="normal" text-anchor="start" style="mix-blend-mode: normal"><tspan x="0" dy="0">in the ocean</tspan></text><path d="M310.98078,316.75001v-33.5h36.07692v33.5z" fill="#5aff00" stroke="none" stroke-width="0" stroke-linecap="butt"/><text transform="translate(355.01924,306.25001) scale(0.5,0.5)" font-size="40" xml:space="preserve" fill="#ffffff" fill-rule="nonzero" stroke="none" stroke-width="1" stroke-linecap="butt" stroke-linejoin="miter" stroke-miterlimit="10" stroke-dasharray="" stroke-dashoffset="0" font-family="Pixel" font-weight="normal" text-anchor="start" style="mix-blend-mode: normal"><tspan x="0" dy="0">easy</tspan></text><path d="M96.41668,226.45571v-18.5h131.66667v18.5z" fill="url(#color-1)" stroke="url(#color-2)" stroke-width="5" stroke-linecap="butt"/><path d="M117.58335,207.70571l37,-106.5l16.10073,-0.13269l34.39927,106.1327z" fill="url(#color-3)" stroke="url(#color-4)" stroke-width="5" stroke-linecap="butt"/><path d="M194.08334,183.28905l-66.66666,0.33333l4.33333,-13.33333h59.66667z" fill="url(#color-5)" stroke="url(#color-6)" stroke-width="5" stroke-linecap="round"/><path d="M183.08334,143.95571l-41.33334,-1.33334l2.33334,-10.33333l36,0.66667z" fill="url(#color-7)" stroke="url(#color-8)" stroke-width="5" stroke-linecap="round"/><path d="M144.08335,162.08071c0,-1.38071 1.11929,-2.5 2.5,-2.5c1.38071,0 2.5,1.11929 2.5,2.5c0,1.38071 -1.11929,2.5 -2.5,2.5c-1.38071,0 -2.5,-1.11929 -2.5,-2.5z" fill="url(#color-9)" stroke="none" stroke-width="0.5" stroke-linecap="butt"/><path d="M165.08334,161.58071c0,-1.38071 1.11929,-2.5 2.5,-2.5c1.38071,0 2.5,1.11929 2.5,2.5c0,1.38071 -1.11929,2.5 -2.5,2.5c-1.38071,0 -2.5,-1.11929 -2.5,-2.5z" fill="url(#color-10)" stroke="none" stroke-width="0.5" stroke-linecap="butt"/><path d="M183.29302,187.1335c0.44722,2.45968 -2.01246,2.90689 -2.01246,2.90689l-2.87732,0.51978c-4.92614,0.34683 -9.62318,2.28605 -14.5532,3.06189c-9.14093,1.43853 -18.60895,2.48565 -27.82496,3.20129c0,0 -2.49264,0.19174 -2.68438,-2.30089c-0.19174,-2.49264 2.30089,-2.68437 2.30089,-2.68437c9.0829,-0.69161 18.42263,-1.74187 27.43228,-3.15541c5.00544,-0.78531 9.68109,-2.66743 14.68956,-3.0814l2.62268,-0.48022c0,0 2.45968,-0.44721 2.90689,2.01246z" fill="url(#color-11)" stroke="none" stroke-width="0.5" stroke-linecap="butt"/><path d="M141.03334,251.48071c-2.17317,0 -7.57909,0.70177 -9.36803,-0.26393c-5.08484,-2.74486 -3.5529,-8.99301 1.24093,-10.65614c1.15941,-0.40223 2.87017,-0.51639 4.68048,-0.45925c2.61161,0.08244 5.43037,0.52137 7.09974,0.96614c0.53079,0.14142 1.33387,0.36031 2.03426,0.64232c-0.09474,-0.48687 -0.13054,-0.99212 -0.17521,-1.4828c-0.33981,-3.73294 0.48783,-7.70537 0.48783,-11.49635c0,0 0,-2.5 2.5,-2.5c2.5,0 2.5,2.5 2.5,2.5c0,3.08056 0.39582,5.96242 0.05926,8.99635c-0.16666,1.50243 0.0234,2.99863 -0.07143,4.50731c-0.10616,1.68891 0.36902,3.94883 -0.97035,4.98311c-0.1823,0.14077 -5.80367,4.1495 -10.01749,4.26323z" fill="url(#color-12)" stroke="none" stroke-width="0.5" stroke-linecap="butt"/><path d="M171.48682,247.41748c-1.33937,-1.03428 -0.86419,-3.2942 -0.97035,-4.98311c-0.09482,-1.50868 0.09524,-3.00488 -0.07143,-4.50731c-0.33656,-3.03393 0.05926,-5.91579 0.05926,-8.99634c0,0 0,-2.5 2.5,-2.5c2.5,0 2.5,2.5 2.5,2.5c0,3.79098 0.82764,7.7634 0.48783,11.49634c-0.04467,0.49068 -0.08046,0.99592 -0.17521,1.4828c0.70039,-0.28202 1.50347,-0.5009 2.03426,-0.64232c2.82653,-0.75308 8.94819,-1.48941 11.78022,-0.50689c4.79383,1.66313 6.32577,7.91128 1.24093,10.65614c-1.78895,0.9657 -7.19486,0.26393 -9.36803,0.26393c-4.21382,-0.11373 -9.83519,-4.12247 -10.01749,-4.26324z" data-paper-data="{&quot;index&quot;:null}" fill="url(#color-13)" stroke="none" stroke-width="0.5" stroke-linecap="butt"/><path d="M174.125,130.11877c-2.28746,1.00873 -3.29619,-1.27873 -3.29619,-1.27873l-0.94148,-2.13496c-1.68758,-3.8469 -3.01147,-6.35905 -7.42443,-6.74005c0,0 -2.48654,-0.25908 -2.22746,-2.74562c0.25908,-2.48654 2.74562,-2.22746 2.74562,-2.22746c6.29954,0.73721 9.01646,4.13229 11.48119,9.69568l0.94148,2.13496c0,0 1.00873,2.28746 -1.27873,3.29619z" fill="#ffffff" stroke="none" stroke-width="0.5" stroke-linecap="butt"/></g></g></svg>