<svg version="1.1" xmlns="http://www.w3.org/2000/svg" xmlns:xlink="http://www.w3.org/1999/xlink" width="521.99214" height="415.55393" viewBox="0,0,521.99214,415.55393"><g transform="translate(17.20655,17.65456)"><g data-paper-data="{&quot;isPaintingLayer&quot;:true}" fill-rule="nonzero" stroke-linecap="butt" stroke-linejoin="miter" stroke-miterlimit="10" stroke-dasharray="" stroke-dashoffset="0" style="mix-blend-mode: normal"><path d="M-4.74474,363.93394v-369.36937h492.49249v369.36937z" fill="#4a6fff" stroke="#344eb5" stroke-width="0"/><path d="M-9.94936,-10.87447l514.73494,-6.78009l-13.9293,395.37983l-86.80702,0.77409c0,0 -6.76678,-242.64233 -4.75076,-327.75099c0.52341,-22.0965 5.90506,-31.34578 -7.05113,-32.59997c-12.95619,-1.25419 -401.55405,3.75252 -401.55405,3.75252z" fill="#4364e8" stroke="none" stroke-width="0"/><path d="M-1.40433,395.10475l-13.04025,-114.87786c0,0 104.95894,-13.45249 174.35957,-0.19698c35.11787,6.70751 62.00263,5.91505 84.43578,17.98113c9.46768,5.09237 24.40764,17.33165 39.01624,17.85207c97.2693,17.95825 67.96322,29.73825 132.07992,40.92054c167.63196,29.23591 -53.75381,6.496 -138.33053,11.36264c-76.41855,4.39719 -278.52073,26.95847 -278.52073,26.95847z" fill="#d6ba49" stroke="#907d31" stroke-width="5"/></g></g></svg>