<svg version="1.1" xmlns="http://www.w3.org/2000/svg" xmlns:xlink="http://www.w3.org/1999/xlink" width="111.5" height="144.18631" viewBox="0,0,111.5,144.18631"><g transform="translate(-184.25,-124.25)"><g data-paper-data="{&quot;isPaintingLayer&quot;:true}" fill-rule="nonzero" stroke="none" stroke-linecap="butt" stroke-linejoin="miter" stroke-miterlimit="10" stroke-dasharray="" stroke-dashoffset="0" style="mix-blend-mode: normal"><path d="M184.25,235.75v-111.5h111.5v111.5z" fill="#9966ff" stroke-width="0"/><path d="M272.6242,201.27135c-3.99597,10.31244 -14.8581,16.58057 -32.2771,18.63153c-0.79178,0.09218 -1.57117,0.14979 -2.35057,0.17283c-1.01446,1.38268 -2.33821,2.581 -3.89701,3.5143c-4.08258,2.4312 -7.90536,3.618 -11.67865,3.618c-7.75689,0 -16.10762,-5.39243 -16.10762,-17.23734c0,-0.80656 0.03711,-1.85509 0.12371,-3.30689c0.03712,-0.62221 0.07423,-1.10614 0.0866,-1.46333c-0.21032,-0.89874 -0.32165,-1.80899 -0.32165,-2.73078v-5.57679c0,-0.91026 0.09897,-1.82052 0.29692,-2.73078c0.01237,-0.772 0.04949,-1.63616 0.11135,-2.58099c-0.29692,-1.01396 -0.51961,-2.18924 -0.51961,-3.50278c0,-0.59916 0.04949,-1.19832 0.13609,-1.78596c0.47011,-3.08797 1.94232,-6.18746 4.42898,-8.66475c-0.85363,-2.2238 -1.299,-4.57435 -1.299,-6.98251v-5.87636c0,-2.38511 0.50723,-5.35787 2.99389,-12.75517c1.0392,-3.18015 1.37323,-4.17106 1.83097,-5.09285c2.43717,-5.09285 6.11149,-7.63927 8.78373,-8.89521c4.36712,-2.02792 9.0559,-3.06492 13.93025,-3.06492c2.25161,0 4.40424,0.21892 6.4579,0.63372c0.91548,-0.57611 1.89284,-1.06005 2.93204,-1.46333c1.32375,-0.53002 2.73409,-0.89874 4.29289,-1.12918c3.89701,-0.62221 8.0167,0.14979 11.60442,2.17771c3.77329,2.14315 8.1033,6.59075 7.57133,15.73944c-0.0866,1.61312 -0.23506,3.76779 -0.45775,6.57923c-0.01237,0.06913 -0.01237,0.13826 -0.02474,0.2074c-0.19795,2.03945 -0.48249,5.08133 -0.86601,9.1026c0.09897,1.55551 0.06186,3.29538 -0.0866,5.34634c-0.06185,0.78351 -0.19795,1.56703 -0.42063,2.3275c-0.04949,0.17283 -0.09897,0.33415 -0.14846,0.48394c1.67014,1.99336 2.80832,3.98672 3.58772,5.71506c0.72992,1.37115 1.34848,2.9497 1.89283,4.87392c0.21031,0.72591 0.34641,1.46333 0.40826,2.21228c0.55671,6.464 0.27217,10.27787 -1.01446,13.50411z" fill="#ffffff" stroke-width="1"/><path d="M266.37058,198.46105c-3.23,8.95 -12.01,14.39 -26.09,16.17c-0.64,0.08 -1.27,0.13 -1.9,0.15c-0.82,1.2 -1.89,2.24 -3.15,3.05c-3.3,2.11 -6.39,3.14 -9.44,3.14c-6.27,0 -13.02,-4.68 -13.02,-14.96c0,-0.7 0.03,-1.61 0.1,-2.87c0.03,-0.54 0.06,-0.96 0.07,-1.27c-0.17,-0.78 -0.26,-1.57 -0.26,-2.37v-4.84c0,-0.79 0.08,-1.58 0.24,-2.37c0.01,-0.67 0.04,-1.42 0.09,-2.24c-0.24,-0.88 -0.42,-1.9 -0.42,-3.04c0,-0.52 0.04,-1.04 0.11,-1.55c0.38,-2.68 1.57,-5.37 3.58,-7.52c-0.69,-1.93 -1.05,-3.97 -1.05,-6.06v-5.1c0,-2.07 0.41,-4.65 2.42,-11.07c0.84,-2.76 1.11,-3.62 1.48,-4.42c1.97,-4.42 4.94,-6.63 7.1,-7.72c3.53,-1.76 7.32,-2.66 11.26,-2.66c1.82,0 3.56,0.19 5.22,0.55c0.74,-0.5 1.53,-0.92 2.37,-1.27c1.07,-0.46 2.21,-0.78 3.47,-0.98c3.15,-0.54 6.48,0.13 9.38,1.89c3.05,1.86 6.55,5.72 6.12,13.66c-0.07,1.4 -0.19,3.27 -0.37,5.71c-0.01,0.06 -0.01,0.12 -0.02,0.18c-0.16,1.77 -0.39,4.41 -0.7,7.9c0.08,1.35 0.05,2.86 -0.07,4.64c-0.05,0.68 -0.16,1.36 -0.34,2.02c-0.04,0.15 -0.08,0.29 -0.12,0.42c1.35,1.73 2.27,3.46 2.9,4.96c0.59,1.19 1.09,2.56 1.53,4.23c0.17,0.63 0.28,1.27 0.33,1.92c0.45,5.61 0.22,8.92 -0.82,11.72z" fill="#ffa000" stroke-width="1"/><path d="M256.22516,187.62696c0.293,3.637 0.233,5.981 -0.176,7.037c-1.702,4.809 -7.42,7.828 -17.152,9.06c-3.285,0.411 -6.568,-1.143 -9.853,-4.662c0,0.528 0.117,2.111 0.353,4.751c0.176,1.935 0.146,3.518 -0.088,4.749c-1.467,0.938 -2.639,1.408 -3.519,1.408c-1.35,0 -2.023,-1.319 -2.023,-3.959c0,-0.469 0.029,-1.216 0.088,-2.242c0.058,-1.025 0.088,-1.744 0.088,-2.155c0,-0.997 -0.088,-1.7 -0.264,-2.111v-4.838c0,-0.117 0.029,-0.249 0.088,-0.396c0.058,-0.146 0.117,-0.278 0.176,-0.396c-0.059,-0.82 -0.03,-2.081 0.088,-3.782c0.117,-1.056 0.117,-1.729 0,-2.023c-0.294,-0.585 -0.439,-0.937 -0.439,-1.055c0.233,-1.642 1.437,-2.463 3.606,-2.463c1.407,0 2.257,0.499 2.551,1.495c0,0.938 0.117,2.317 0.352,4.134c0.353,2.111 1.466,4.223 3.343,6.333c2.052,2.405 4.016,3.519 5.894,3.343c2.111,-0.233 4.222,-0.732 6.333,-1.495c2.932,-1.056 4.691,-2.287 5.278,-3.694c0.409,-1.056 0.615,-2.169 0.615,-3.343c0,-3.576 -1.319,-6.245 -3.958,-8.004c-1.174,-0.762 -3.343,-1.378 -6.51,-1.848c-1.818,-0.233 -2.933,-0.352 -3.342,-0.352c-2.815,0.059 -5.44,-0.85 -7.873,-2.727c-2.434,-1.876 -3.65,-4.047 -3.65,-6.51v-5.101c0,-1.113 0.645,-3.723 1.936,-7.828c0.585,-1.936 0.908,-2.961 0.968,-3.079c0.527,-1.231 1.201,-2.052 2.022,-2.463c1.993,-0.996 4.104,-1.495 6.333,-1.495c4.339,0 7.535,1.759 9.588,5.277c0.176,0.176 0.469,0.44 0.88,0.792c0.058,-0.82 0.176,-2.081 0.352,-3.782c-0.059,-0.762 -0.118,-1.495 -0.176,-2.199c0,-0.82 0.409,-1.377 1.231,-1.671c0.234,-0.117 0.557,-0.205 0.968,-0.264c0.586,-0.117 1.217,0.03 1.892,0.439c0.673,0.411 0.952,1.643 0.835,3.694c-0.059,1.29 -0.176,3.108 -0.352,5.453c-0.176,1.936 -0.439,4.897 -0.792,8.885c0.117,0.938 0.117,2.229 0,3.87c-0.294,1.114 -1.174,1.671 -2.639,1.671c-0.763,0 -1.495,-0.205 -2.199,-0.615c-0.352,-1.113 -0.527,-1.584 -0.527,-1.408c0.116,-1.583 -0.206,-3.694 -0.968,-6.333c-0.646,-1.348 -1.539,-3.268 -2.683,-5.761c-1.144,-2.492 -2.654,-3.827 -4.53,-4.003c-2.346,-0.176 -3.87,0.616 -4.574,2.375c-0.234,0.763 -0.558,1.878 -0.967,3.343c-0.704,2.17 -1.144,4.252 -1.32,6.245c-0.059,0.646 -0.118,0.91 -0.176,0.792c0.176,1.174 0.381,2.346 0.616,3.519c0.293,1.466 1.012,2.581 2.155,3.342c1.144,0.763 3.327,1.231 6.553,1.407c7.916,0.471 12.812,3.227 14.689,8.269c0.292,0.47 0.585,1.261 0.879,2.374z" fill="#ffffff" stroke-width="1"/><text transform="translate(190.5,262.15375) scale(0.59834,0.59834)" font-size="40" xml:space="preserve" fill="#ffffff" fill-rule="nonzero" stroke="none" stroke-width="1" stroke-linecap="butt" stroke-linejoin="miter" stroke-miterlimit="10" stroke-dasharray="" stroke-dashoffset="0" font-family="Pixel" font-weight="normal" text-anchor="start" style="mix-blend-mode: normal"><tspan x="0" dy="0">scratch</tspan></text></g></g></svg>