<svg version="1.1" xmlns="http://www.w3.org/2000/svg" xmlns:xlink="http://www.w3.org/1999/xlink" width="431.42643" height="314.30931" viewBox="0,0,431.42643,314.30931"><g transform="translate(-24.2868,-22.84535)"><g data-paper-data="{&quot;isPaintingLayer&quot;:true}" fill-rule="nonzero" stroke-linejoin="miter" stroke-miterlimit="10" stroke-dasharray="" stroke-dashoffset="0" style="mix-blend-mode: normal"><path d="M26.7868,334.65466v-309.30931h426.42643v309.30931z" fill="#ff9625" stroke="#b3691b" stroke-width="5" stroke-linecap="butt"/><path d="M284.00001,99.50001v-51h159v51z" fill="#da8021" stroke="#8f5415" stroke-width="5" stroke-linecap="butt"/><path d="M283.00001,262.50001v-151h159v151z" fill="#da8021" stroke="#8f5415" stroke-width="5" stroke-linecap="butt"/><path d="M283.00001,324.50001v-52h159v52z" fill="#da8021" stroke="#8f5415" stroke-width="5" stroke-linecap="butt"/><path d="M64.00001,283.50001v-202h183v202z" fill="#da8021" stroke="#8f5415" stroke-width="5" stroke-linecap="butt"/><text transform="translate(288.16666,83.30001) scale(0.56389,0.56389)" font-size="40" xml:space="preserve" fill="#ffffff" fill-rule="nonzero" stroke="none" stroke-width="1" stroke-linecap="butt" stroke-linejoin="miter" stroke-miterlimit="10" stroke-dasharray="" stroke-dashoffset="0" font-family="Pixel" font-weight="normal" text-anchor="start" style="mix-blend-mode: normal"><tspan x="0" dy="0">Eyeless Cone</tspan></text><text transform="translate(336.00001,136.75) scale(0.60834,0.60834)" font-size="40" xml:space="preserve" fill="#ffffff" fill-rule="nonzero" stroke="none" stroke-width="1" stroke-linecap="butt" stroke-linejoin="miter" stroke-miterlimit="10" stroke-dasharray="" stroke-dashoffset="0" font-family="Pixel" font-weight="normal" text-anchor="start" style="mix-blend-mode: normal"><tspan x="0" dy="0">Hint:</tspan></text><text transform="translate(302.00001,164.12501) scale(0.40249,0.40249)" font-size="40" xml:space="preserve" fill="#ffffff" fill-rule="nonzero" stroke="none" stroke-width="1" stroke-linecap="butt" stroke-linejoin="miter" stroke-miterlimit="10" stroke-dasharray="" stroke-dashoffset="0" font-family="Pixel" font-weight="normal" text-anchor="start" style="mix-blend-mode: normal"><tspan x="0" dy="0">spinning in the</tspan><tspan x="0" dy="48px"> moon</tspan></text><path d="M310.98078,316.75001v-33.5h36.07692v33.5z" fill="#5aff00" stroke="none" stroke-width="0" stroke-linecap="butt"/><text transform="translate(355.01924,306.25001) scale(0.5,0.5)" font-size="40" xml:space="preserve" fill="#ffffff" fill-rule="nonzero" stroke="none" stroke-width="1" stroke-linecap="butt" stroke-linejoin="miter" stroke-miterlimit="10" stroke-dasharray="" stroke-dashoffset="0" font-family="Pixel" font-weight="normal" text-anchor="start" style="mix-blend-mode: normal"><tspan x="0" dy="0">easy</tspan></text><path d="M89.16669,241.05328v-18.5h131.66667v18.5z" fill="#ff8221" stroke="#ad5816" stroke-width="5" stroke-linecap="butt"/><path d="M110.33335,222.30328l37,-106.5l16.10073,-0.13269l34.39927,106.1327z" fill="#ff8221" stroke="#ad5816" stroke-width="5" stroke-linecap="butt"/><path d="M186.83333,197.88662l-66.66666,0.33333l4.33333,-13.33333h59.66667z" fill="#ffffff" stroke="#ad5816" stroke-width="5" stroke-linecap="round"/><path d="M175.83336,158.55328l-41.33334,-1.33334l2.33334,-10.33333l36,0.66667z" fill="#ffffff" stroke="#ad5816" stroke-width="5" stroke-linecap="round"/><path d="M133.78332,266.07827c-2.17317,0 -7.57909,0.70177 -9.36803,-0.26393c-5.08484,-2.74486 -3.5529,-8.99301 1.24093,-10.65614c1.15941,-0.40223 2.87017,-0.51639 4.68048,-0.45925c2.61161,0.08244 5.43037,0.52137 7.09974,0.96614c0.53079,0.14142 1.33387,0.36031 2.03426,0.64232c-0.09474,-0.48687 -0.13054,-0.99212 -0.17521,-1.4828c-0.33981,-3.73294 0.48783,-7.70537 0.48783,-11.49635c0,0 0,-2.5 2.5,-2.5c2.5,0 2.5,2.5 2.5,2.5c0,3.08056 0.39582,5.96242 0.05926,8.99635c-0.16666,1.50243 0.0234,2.99863 -0.07143,4.50731c-0.10616,1.68891 0.36902,3.94883 -0.97035,4.98311c-0.1823,0.14077 -5.80367,4.1495 -10.01749,4.26323z" fill="#522a0b" stroke="none" stroke-width="0.5" stroke-linecap="butt"/><path d="M164.2368,262.01505c-1.33937,-1.03428 -0.86419,-3.2942 -0.97035,-4.98311c-0.09482,-1.50868 0.09524,-3.00488 -0.07143,-4.50731c-0.33656,-3.03393 0.05926,-5.91579 0.05926,-8.99634c0,0 0,-2.5 2.5,-2.5c2.5,0 2.5,2.5 2.5,2.5c0,3.79098 0.82764,7.7634 0.48783,11.49634c-0.04467,0.49068 -0.08046,0.99592 -0.17521,1.4828c0.70039,-0.28202 1.50347,-0.5009 2.03426,-0.64232c2.82653,-0.75308 8.94819,-1.48941 11.78022,-0.50689c4.79383,1.66313 6.32577,7.91128 1.24093,10.65614c-1.78895,0.9657 -7.19486,0.26393 -9.36803,0.26393c-4.21382,-0.11373 -9.83519,-4.12247 -10.01749,-4.26324z" data-paper-data="{&quot;index&quot;:null}" fill="#522a0b" stroke="none" stroke-width="0.5" stroke-linecap="butt"/><path d="M161.44654,97.7885c2.23607,-1.11803 3.3541,1.11803 3.3541,1.11803l1.26393,3.11803c-0.00729,8.95959 -1.3397,18.0044 -2.15574,26.92389c-1.18051,5.0329 -2.26377,9.97955 -3.97255,14.86668c-0.43743,1.25104 -0.57033,2.68152 -1.38494,3.72691c-0.85486,1.09704 -2.32241,1.53882 -3.40179,2.41587c-0.81669,0.66361 -1.36567,1.65626 -2.27064,2.19327c-2.7467,1.62987 -6.80041,2.26099 -9.80457,3.36113c-1.38729,0.50803 -2.85734,0.85503 -4.13353,1.59935c-0.946,0.55174 -1.35644,1.95955 -2.41952,2.2226c-1.98586,0.49139 -4.25979,0.70912 -6.13635,-0.10551c-0.86776,-0.3767 -3.9577,-5.58624 -4.79091,-6.66571c-0.70133,-0.90861 -1.71928,-1.57514 -2.29178,-2.56996c-0.85066,-1.47818 -1.08127,-3.25706 -1.91708,-4.7437c-1.39423,-2.47989 -3.26823,-4.74355 -4.1923,-7.43424c0,0 -0.79057,-2.37171 1.58114,-3.16228c2.37171,-0.79057 3.16228,1.58114 3.16228,1.58114c0.77195,2.40935 2.56858,4.35998 3.8077,6.56576c0.79729,1.41927 0.99391,3.12498 1.79683,4.54107c0.48157,0.84933 1.39634,1.37345 1.99431,2.14527c1.27087,1.64035 1.5099,4.14323 3.20909,5.33429c1.75113,1.22747 2.60215,-1.39613 3.44413,-1.88292c1.60689,-0.92903 3.41767,-1.45128 5.15124,-2.11456c2.63179,-1.00695 6.50651,-1.46059 8.91066,-2.92496c0.71198,-0.43367 1.07314,-1.29255 1.72936,-1.80673c0.79844,-0.62562 1.94896,-0.80478 2.59821,-1.58413c0.50241,-0.60309 0.38054,-1.524 0.61506,-2.27309c1.46656,-4.68436 2.64676,-9.30666 3.78049,-14.08615c0.76988,-8.65404 2.09884,-17.43292 2.09122,-26.12328l-0.73607,-0.88197c0,0 -1.11803,-2.23607 1.11803,-3.3541z" fill="#522a0b" stroke="none" stroke-width="0.5" stroke-linecap="butt"/><path d="M178.33234,202.79234c-1.76777,1.76777 -3.53553,0 -3.53553,0l-1.81721,-1.83441c-3.14192,-2.10957 -6.14111,-3.13505 -10.01457,-2.46564c-1.0387,0.17951 -1.96019,0.82709 -3,1c-1.0177,0.16924 -2.07317,-0.12865 -3.095,0.01355c-4.74227,0.65994 -9.97473,2.6297 -14.18742,4.7548c0,0 -2.23607,1.11803 -3.3541,-1.11803c-1.11803,-2.23607 1.11803,-3.3541 1.11803,-3.3541c4.76733,-2.36495 10.47946,-4.46523 15.81258,-5.2452c0.95815,-0.14013 1.94989,0.1731 2.905,0.01355c1.03969,-0.17368 1.95936,-0.83216 3,-1c5.39844,-0.87067 9.5706,0.60629 13.98543,3.53436l2.18279,2.16559c0,0 1.76777,1.76777 0,3.53553z" fill="#522a0b" stroke="none" stroke-width="0.5" stroke-linecap="butt"/><text transform="translate(60.25,73.25) scale(0.5,0.5)" font-size="40" xml:space="preserve" fill="#ffffff" fill-rule="nonzero" stroke="none" stroke-width="1" stroke-linecap="butt" stroke-linejoin="miter" stroke-miterlimit="10" stroke-dasharray="" stroke-dashoffset="0" font-family="Pixel" font-weight="normal" text-anchor="start" style="mix-blend-mode: normal"><tspan x="0" dy="0">@Konnordiesquick</tspan></text></g></g></svg>