<svg version="1.1" xmlns="http://www.w3.org/2000/svg" xmlns:xlink="http://www.w3.org/1999/xlink" width="431.42643" height="314.30931" viewBox="0,0,431.42643,314.30931"><g transform="translate(-24.2868,-22.84537)"><g data-paper-data="{&quot;isPaintingLayer&quot;:true}" fill-rule="nonzero" stroke-linejoin="miter" stroke-miterlimit="10" stroke-dasharray="" stroke-dashoffset="0" style="mix-blend-mode: normal"><path d="M26.7868,334.65468v-309.30931h426.42643v309.30931z" fill="#ff9625" stroke="#b3691b" stroke-width="5" stroke-linecap="butt"/><path d="M284.00001,99.50003v-51h159v51z" fill="#da8021" stroke="#8f5415" stroke-width="5" stroke-linecap="butt"/><path d="M283.00001,262.50003v-151h159v151z" fill="#da8021" stroke="#8f5415" stroke-width="5" stroke-linecap="butt"/><path d="M283.00001,324.50003v-52h159v52z" fill="#da8021" stroke="#8f5415" stroke-width="5" stroke-linecap="butt"/><path d="M64.00001,283.50003v-202h183v202z" fill="#da8021" stroke="#8f5415" stroke-width="5" stroke-linecap="butt"/><text transform="translate(294.50001,82.89949) scale(0.62221,0.62221)" font-size="40" xml:space="preserve" fill="#ffffff" fill-rule="nonzero" stroke="none" stroke-width="1" stroke-linecap="butt" stroke-linejoin="miter" stroke-miterlimit="10" stroke-dasharray="" stroke-dashoffset="0" font-family="Pixel" font-weight="normal" text-anchor="start" style="mix-blend-mode: normal"><tspan x="0" dy="0">Cloud Cone</tspan></text><text transform="translate(336.00001,136.75002) scale(0.60834,0.60834)" font-size="40" xml:space="preserve" fill="#ffffff" fill-rule="nonzero" stroke="none" stroke-width="1" stroke-linecap="butt" stroke-linejoin="miter" stroke-miterlimit="10" stroke-dasharray="" stroke-dashoffset="0" font-family="Pixel" font-weight="normal" text-anchor="start" style="mix-blend-mode: normal"><tspan x="0" dy="0">Hint:</tspan></text><path d="M311.48078,317.00003v-33.5h36.07692v33.5z" fill="#faff00" stroke="none" stroke-width="0" stroke-linecap="butt"/><text transform="translate(355.51924,306.50003) scale(0.5,0.5)" font-size="40" xml:space="preserve" fill="#ffffff" fill-rule="nonzero" stroke="none" stroke-width="1" stroke-linecap="butt" stroke-linejoin="miter" stroke-miterlimit="10" stroke-dasharray="" stroke-dashoffset="0" font-family="Pixel" font-weight="normal" text-anchor="start" style="mix-blend-mode: normal"><tspan x="0" dy="0">medium</tspan></text><text transform="translate(286.58333,165.84451) scale(0.3947,0.3947)" font-size="40" xml:space="preserve" fill="#ffffff" fill-rule="nonzero" stroke="none" stroke-width="1" stroke-linecap="butt" stroke-linejoin="miter" stroke-miterlimit="10" stroke-dasharray="" stroke-dashoffset="0" font-family="Pixel" font-weight="normal" text-anchor="start" style="mix-blend-mode: normal"><tspan x="0" dy="0">in the clouds biome</tspan></text><path d="M116.47621,208.63429c0,0 -0.16706,-31.72636 5.89561,-49.17702c2.31955,-6.67652 10.18619,-16.26845 15.39556,-25.70121c4.21399,-7.6304 -3.35992,-15.82332 -0.5761,-21.61796c3.06847,-6.38715 16.28493,-10.00381 16.28493,-10.00381c0,0 13.3981,-5.80553 16.10073,-0.13269c0.71211,1.49473 9.43715,8.90346 13.06493,19.98792c4.45355,13.60756 24.68331,28.0304 20.26603,44.09205c-5.78564,21.03714 1.06831,42.05273 1.06831,42.05273z" fill="#e7fff8" stroke="#9bada8" stroke-width="5" stroke-linecap="butt"/><path d="M143.12613,254.49974c-3.91316,1.78291 -21.09244,2.39391 -18.83673,-6.62891c1.69256,-6.77024 9.26743,-4.24274 13.97468,-3.93199c0.39218,0.02589 1.87977,-0.02235 3.31411,0.10473c0,-5.05864 0,-10.27602 0,-15.13193c0,0 0,-2.5 2.5,-2.5c2.5,0 2.5,2.5 2.5,2.5c0,6.74826 0,13.49651 0,20.24477v0.6981c0,0 0,1.64983 -1.34026,2.26897c-0.18749,0.92147 -0.7141,1.73945 -2.1118,2.37627z" fill="#000000" stroke="none" stroke-width="0.5" stroke-linecap="butt"/><path d="M172.93026,252.24475c-1.34026,-0.61914 -1.34027,-2.26897 -1.34027,-2.26897v-0.6981c0,-6.74825 0,-13.49651 0,-20.24476c0,0 0,-2.5 2.5,-2.5c2.5,0 2.5,2.5 2.5,2.5c0,4.85591 0,10.07329 0,15.13193c1.43434,-0.12707 2.92194,-0.07883 3.31412,-0.10473c4.70725,-0.31076 12.28211,-2.83826 13.97467,3.93199c2.2557,9.02283 -14.92356,8.41182 -18.83673,6.62892c-1.39769,-0.63682 -1.92431,-1.4548 -2.1118,-2.37627z" data-paper-data="{&quot;index&quot;:null}" fill="#000000" stroke="none" stroke-width="0.5" stroke-linecap="butt"/><path d="M95.30957,227.38429c-6.67548,-0.93795 -4.4177,-1.66139 -5.24165,-2.97276c-1.34989,-2.14845 -2.55097,-5.0329 -2.46386,-6.7846c0.26502,-5.32927 5.99518,-8.65546 7.70551,-8.74264c2.61565,-0.13332 80.78189,-7.14963 131.66667,0c6.12205,0.86019 4.93935,0.10373 5.55577,0.82004c1.04513,1.21449 0.70067,3.8507 2.22096,5.34439c3.27857,3.22122 0.09903,6.68883 -3.02911,9.22958c-1.67667,1.36183 -0.13137,2.45738 -4.74762,3.10599c-11.85677,1.66595 -39.98111,2.43636 -70.83444,2.3799c-20.09154,-0.03677 -40.76439,0.43976 -60.83223,-2.3799z" fill="#e6fff8" stroke="#9bada8" stroke-width="5" stroke-linecap="butt"/><path d="M198.30954,183.88429h-78.66666l0.99999,-12.66666c0,0 5.4918,-2.70119 15.81955,-2.43025c8.56546,0.22471 25.01379,3.43025 25.01379,3.43025l39.50001,-1.33334z" fill="#ffffff" stroke="#9bada8" stroke-width="5" stroke-linecap="round"/><path d="M197.6429,146.55095l-65,-3.66667l5.66667,-9.33333c0,0 15.80587,-0.76065 24.1487,-0.64636c2.25725,0.03092 8.57718,-0.51402 11.68698,-0.35628c7.70411,0.39079 12.83099,1.66931 12.83099,1.66931z" fill="#ffffff" stroke="#9bada8" stroke-width="5" stroke-linecap="round"/><path d="M150.28228,157.00332c-0.44584,1.78337 -0.22847,3.59546 -0.49061,5.39662c-0.55938,3.84351 -5.41548,2.95458 -6.14473,-0.32707c-0.42333,-1.90498 -0.10577,-8.40251 0.8031,-9.91729c2.23662,-3.7277 5.19069,-0.00793 5.83224,2.55827z" fill="#000000" stroke="none" stroke-width="0.5" stroke-linecap="butt"/><path d="M176.30532,156.82445c-0.46875,1.87503 0.04937,4.28046 -1.48584,5.81304c-4.86702,4.8587 -6.9538,-6.11596 -5.17334,-9.28116c0.79151,-1.40709 1.18018,-3.40132 3.31309,-3.23725c0.97383,0.07491 4.30501,1.97969 3.34608,3.41808z" fill="#000000" stroke="none" stroke-width="0.5" stroke-linecap="butt"/><path d="M166.91917,179.08509c0.05665,-0.04474 0.11327,-0.08968 0.16987,-0.13477zM166.68434,179.26935c0.05759,-0.10003 1.27111,-2.14856 3.40012,-0.95778c2.1819,1.22036 0.96155,3.40227 0.96155,3.40227l-0.88878,1.18443c-4.79666,3.65317 -9.60518,5.98865 -15.907,4.14085c-1.08644,-0.31856 -4.63786,-4.09133 -5.28251,-4.73896c0,0 -1.7627,-1.77282 0.01012,-3.53552c1.77282,-1.7627 3.53552,0.01012 3.53552,0.01012c1.20257,1.2109 1.95966,3.19986 3.61141,3.62904c4.23152,1.09952 7.44864,-0.71056 10.55957,-3.13446z" fill="#000000" stroke="none" stroke-width="0.5" stroke-linecap="butt"/></g></g></svg>