<svg version="1.1" xmlns="http://www.w3.org/2000/svg" xmlns:xlink="http://www.w3.org/1999/xlink" width="431.42643" height="317.35545" viewBox="0,0,431.42643,317.35545"><defs><radialGradient cx="203.69256" cy="214.00001" r="97.75" gradientUnits="userSpaceOnUse" id="color-1"><stop offset="0" stop-color="#000000"/><stop offset="1" stop-color="#000000" stop-opacity="0"/></radialGradient><radialGradient cx="184.69258" cy="172.00002" r="97.75" gradientUnits="userSpaceOnUse" id="color-2"><stop offset="0" stop-color="#000000"/><stop offset="1" stop-color="#000000" stop-opacity="0"/></radialGradient></defs><g transform="translate(-24.28682,-22.84537)"><g data-paper-data="{&quot;isPaintingLayer&quot;:true}" fill-rule="nonzero" stroke-linejoin="miter" stroke-miterlimit="10" stroke-dasharray="" stroke-dashoffset="0" style="mix-blend-mode: normal"><path d="M26.78682,334.65468v-309.30931h426.42643v309.30931z" fill="#ff9625" stroke="#b3691b" stroke-width="5" stroke-linecap="butt"/><path d="M284.00003,99.50006v-51h159v51z" fill="#da8021" stroke="#8f5415" stroke-width="5" stroke-linecap="butt"/><path d="M283.00003,262.50005v-151h159v151z" fill="#da8021" stroke="#8f5415" stroke-width="5" stroke-linecap="butt"/><path d="M283.00003,324.50005v-52h159v52z" fill="#da8021" stroke="#8f5415" stroke-width="5" stroke-linecap="butt"/><path d="M64.00003,283.50005v-202h183v202z" fill="#da8021" stroke="#8f5415" stroke-width="5" stroke-linecap="butt"/><text transform="translate(293.50003,82.43402) scale(0.55372,0.55372)" font-size="40" xml:space="preserve" fill="#ffffff" fill-rule="nonzero" stroke="none" stroke-width="1" stroke-linecap="butt" stroke-linejoin="miter" stroke-miterlimit="10" stroke-dasharray="" stroke-dashoffset="0" font-family="Pixel" font-weight="normal" text-anchor="start" style="mix-blend-mode: normal"><tspan x="0" dy="0">Sleepy Cone</tspan></text><text transform="translate(336.00004,136.75002) scale(0.60834,0.60834)" font-size="40" xml:space="preserve" fill="#ffffff" fill-rule="nonzero" stroke="none" stroke-width="1" stroke-linecap="butt" stroke-linejoin="miter" stroke-miterlimit="10" stroke-dasharray="" stroke-dashoffset="0" font-family="Pixel" font-weight="normal" text-anchor="start" style="mix-blend-mode: normal"><tspan x="0" dy="0">Hint:</tspan></text><text transform="translate(290.58333,161.84454) scale(0.3947,0.3947)" font-size="40" xml:space="preserve" fill="#ffffff" fill-rule="nonzero" stroke="none" stroke-width="1" stroke-linecap="butt" stroke-linejoin="miter" stroke-miterlimit="10" stroke-dasharray="" stroke-dashoffset="0" font-family="Pixel" font-weight="normal" text-anchor="start" style="mix-blend-mode: normal"><tspan x="0" dy="0">1. requires a code</tspan><tspan x="0" dy="48px">2. the hint of the</tspan><tspan x="0" dy="48px">code is: something</tspan><tspan x="0" dy="48px">soft you use to</tspan><tspan x="0" dy="48px">sleep</tspan></text><path d="" data-paper-data="{&quot;index&quot;:null}" fill="#fff600" stroke="#ada700" stroke-width="5" stroke-linecap="butt"/><path d="" data-paper-data="{&quot;index&quot;:null}" fill="#fff600" stroke="#ada700" stroke-width="5" stroke-linecap="butt"/><path d="" data-paper-data="{&quot;index&quot;:null}" fill="#ffffff" stroke="#ada700" stroke-width="5" stroke-linecap="round"/><path d="" data-paper-data="{&quot;index&quot;:null}" fill="#ffffff" stroke="#ada700" stroke-width="5" stroke-linecap="round"/><path d="" fill="#68650e" stroke="none" stroke-width="0.5" stroke-linecap="butt"/><path d="" fill="#68650e" stroke="none" stroke-width="0.5" stroke-linecap="butt"/><path d="" fill="#68650e" stroke="none" stroke-width="0.5" stroke-linecap="butt"/><path d="" fill="#68650e" stroke="none" stroke-width="0.5" stroke-linecap="butt"/><path d="" data-paper-data="{&quot;index&quot;:null}" fill="#68650e" stroke="none" stroke-width="0.5" stroke-linecap="butt"/><path d="M311.38754,317.18334v-33.5h36.07692v33.5z" fill="#313131" stroke="none" stroke-width="0" stroke-linecap="butt"/><text transform="translate(354.61247,306.68334) scale(0.5,0.5)" font-size="40" xml:space="preserve" fill="#ffffff" fill-rule="nonzero" stroke="none" stroke-width="1" stroke-linecap="butt" stroke-linejoin="miter" stroke-miterlimit="10" stroke-dasharray="" stroke-dashoffset="0" font-family="Pixel" font-weight="normal" text-anchor="start" style="mix-blend-mode: normal"><tspan x="0" dy="0">intense</tspan></text><path d="M76.55748,237.82792v-18.5h131.66667v18.5z" fill="#d86d1c" stroke="#743b0f" stroke-width="5" stroke-linecap="butt"/><path d="M97.72413,219.07792l37,-106.5l16.10073,-0.13269l34.39927,106.1327z" fill="#d86d1c" stroke="#743b0f" stroke-width="5" stroke-linecap="butt"/><path d="M174.22412,194.66125l-66.66666,0.33333l4.33333,-13.33333h59.66667z" fill="#a3a3a3" stroke="#743b0f" stroke-width="5" stroke-linecap="round"/><path d="M137.02591,180.6179l-5.5,3.5l-17,4" fill="none" stroke="#ffeee4" stroke-width="1" stroke-linecap="round"/><path d="M163.22414,155.32791l-41.33334,-1.33334l2.33334,-10.33333l36,0.66667z" fill="#a3a3a3" stroke="#743b0f" stroke-width="5" stroke-linecap="round"/><path d="M126.55747,184.11958c0,-1.38071 1.11929,-2.5 2.5,-2.5c1.38071,0 2.5,1.11929 2.5,2.5c0,1.38071 -1.11929,2.5 -2.5,2.5c-1.38071,0 -2.5,-1.11929 -2.5,-2.5z" fill="#522a0b" stroke="none" stroke-width="0.5" stroke-linecap="butt"/><path d="M144.22413,184.95292c0,-1.38071 1.11929,-2.5 2.5,-2.5c1.38071,0 2.5,1.11929 2.5,2.5c0,1.38071 -1.11929,2.5 -2.5,2.5c-1.38071,0 -2.5,-1.11929 -2.5,-2.5z" fill="#522a0b" stroke="none" stroke-width="0.5" stroke-linecap="butt"/><path d="M123.67411,264.3529c-2.17317,0 -7.57909,0.70177 -9.36803,-0.26393c-5.08484,-2.74486 -3.5529,-8.99301 1.24093,-10.65614c1.15941,-0.40223 2.87017,-0.51639 4.68048,-0.45925c2.61161,0.08244 5.43037,0.52137 7.09974,0.96614c0.53079,0.14142 1.33387,0.36031 2.03426,0.64232c-0.09474,-0.48687 -0.13054,-0.99212 -0.17521,-1.4828c-0.33981,-3.73294 0.48783,-7.70537 0.48783,-11.49635c0,0 0,-2.5 2.5,-2.5c2.5,0 2.5,2.5 2.5,2.5c0,3.08056 0.39582,5.96242 0.05926,8.99635c-0.16666,1.50243 0.0234,2.99863 -0.07143,4.50731c-0.10616,1.68891 0.36902,3.94883 -0.97035,4.98311c-0.1823,0.14077 -5.80367,4.1495 -10.01749,4.26323z" fill="#522a0b" stroke="none" stroke-width="0.5" stroke-linecap="butt"/><path d="M151.62759,258.78968c-1.33937,-1.03428 -0.86419,-3.2942 -0.97035,-4.98311c-0.09482,-1.50868 0.09524,-3.00488 -0.07143,-4.50731c-0.33656,-3.03393 0.05926,-5.91579 0.05926,-8.99634c0,0 0,-2.5 2.5,-2.5c2.5,0 2.5,2.5 2.5,2.5c0,3.79098 0.82764,7.7634 0.48783,11.49634c-0.04467,0.49068 -0.08046,0.99592 -0.17521,1.4828c0.70039,-0.28202 1.50347,-0.5009 2.03426,-0.64232c2.82653,-0.75308 8.94819,-1.48941 11.78022,-0.50689c4.79383,1.66313 6.32577,7.91128 1.24093,10.65614c-1.78895,0.9657 -7.19486,0.26393 -9.36803,0.26393c-4.21382,-0.11373 -9.83519,-4.12247 -10.01749,-4.26324z" data-paper-data="{&quot;index&quot;:null}" fill="#522a0b" stroke="none" stroke-width="0.5" stroke-linecap="butt"/><path d="M146.72728,211.36861c-2.23607,1.11804 -3.3541,-1.11804 -3.3541,-1.11804l-0.01782,-0.18424c-0.52483,-0.6345 -2.25059,-2.87799 -3.09083,-3.31417c-2.32134,-1.20505 -6.38582,2.04002 -8.20392,2.94978c0,0 -2.23607,1.11804 -3.3541,-1.11803c-1.11803,-2.23607 1.11803,-3.35411 1.11803,-3.35411c3.7861,-1.89148 7.96205,-5.046 12.46275,-3.05022c1.92465,0.85347 3.58185,3.10308 4.90917,4.68583l0.64885,1.14909c0,0 1.11804,2.23606 -1.11803,3.3541z" fill="#522a0b" stroke="none" stroke-width="0.5" stroke-linecap="butt"/><path d="M130.09709,176.87072c0.92848,2.32119 -1.39271,3.24967 -1.39271,3.24967c-1.66667,0.66667 -5.83333,2.33333 -7.5,3c0,0 -2.3212,0.92848 -3.24967,-1.39271c-0.92847,-2.32119 1.39272,-3.24967 1.39272,-3.24967c1.66667,-0.66667 3.33333,-1.33333 5,-2l2.5,-1c0,0 2.32119,-0.92847 3.24967,1.39272z" fill="#522a0b" stroke="none" stroke-width="0.5" stroke-linecap="butt"/><path d="M129.77591,192.2992c0,2.5 -2.5,2.5 -2.5,2.5h-2.5c0,0 -2.5,0 -2.5,-2.5c0,-2.5 2.5,-2.5 2.5,-2.5h2.5c0,0 2.5,0 2.5,2.5z" fill="#522a0b" stroke="none" stroke-width="0.5" stroke-linecap="butt"/><path d="M125.27591,186.2992c0,-1.38071 1.11929,-2.5 2.5,-2.5c1.38071,0 2.5,1.11929 2.5,2.5c0,1.38071 -1.11929,2.5 -2.5,2.5c-1.38071,0 -2.5,-1.11929 -2.5,-2.5z" fill="#0b2352" stroke="none" stroke-width="0.5" stroke-linecap="butt"/><path d="M145.27591,188.2992c0,-1.38071 1.11929,-2.5 2.5,-2.5c1.38071,0 2.5,1.11929 2.5,2.5c0,1.38071 -1.11929,2.5 -2.5,2.5c-1.38071,0 -2.5,-1.11929 -2.5,-2.5z" fill="#0b2352" stroke="none" stroke-width="0.5" stroke-linecap="butt"/><path d="M301.44257,214.00001c0,69.69879 -43.76417,126.20081 -97.75,126.20081c-53.98583,0 -97.75,-56.50203 -97.75,-126.20081c0,-69.69879 43.76417,-126.20081 97.75,-126.20081c53.98583,0 97.75,56.50203 97.75,126.20081z" fill="url(#color-1)" stroke="none" stroke-width="0" stroke-linecap="butt"/><path d="M282.44257,172.00002c0,69.69878 -43.76416,126.20081 -97.75,126.20081c-53.98584,0 -97.75,-56.50202 -97.75,-126.20081c0,-69.69878 43.76416,-126.20081 97.75,-126.20081c53.98584,0 97.75,56.50203 97.75,126.20082z" fill="url(#color-2)" stroke="none" stroke-width="0" stroke-linecap="butt"/><text transform="translate(60.25,73.25) scale(0.5,0.5)" font-size="40" xml:space="preserve" fill="#ffffff" fill-rule="nonzero" stroke="none" stroke-width="1" stroke-linecap="butt" stroke-linejoin="miter" stroke-miterlimit="10" stroke-dasharray="" stroke-dashoffset="0" font-family="Pixel" font-weight="normal" text-anchor="start" style="mix-blend-mode: normal"><tspan x="0" dy="0">@Konnordiesquick</tspan></text></g></g></svg>