<svg version="1.1" xmlns="http://www.w3.org/2000/svg" xmlns:xlink="http://www.w3.org/1999/xlink" width="431.42643" height="314.30931" viewBox="0,0,431.42643,314.30931"><g transform="translate(-24.2868,-22.84537)"><g data-paper-data="{&quot;isPaintingLayer&quot;:true}" stroke-miterlimit="10" stroke-dasharray="" stroke-dashoffset="0" style="mix-blend-mode: normal"><path d="M26.7868,334.65468v-309.30931h426.42643v309.30931z" fill="#ff9625" fill-rule="nonzero" stroke="#b3691b" stroke-width="5" stroke-linecap="butt" stroke-linejoin="miter"/><path d="M284.00001,99.50003v-51h159v51z" fill="#da8021" fill-rule="nonzero" stroke="#8f5415" stroke-width="5" stroke-linecap="butt" stroke-linejoin="miter"/><path d="M283.00001,262.50003v-151h159v151z" fill="#da8021" fill-rule="nonzero" stroke="#8f5415" stroke-width="5" stroke-linecap="butt" stroke-linejoin="miter"/><path d="M283.00001,324.50003v-52h159v52z" fill="#da8021" fill-rule="nonzero" stroke="#8f5415" stroke-width="5" stroke-linecap="butt" stroke-linejoin="miter"/><path d="M64.00001,283.50003v-202h183v202z" fill="#da8021" fill-rule="nonzero" stroke="#8f5415" stroke-width="5" stroke-linecap="butt" stroke-linejoin="miter"/><text transform="translate(292.50001,84.69949) scale(0.75554,0.75554)" font-size="40" xml:space="preserve" fill="#ffffff" fill-rule="nonzero" stroke="none" stroke-width="1" stroke-linecap="butt" stroke-linejoin="miter" stroke-miterlimit="10" stroke-dasharray="" stroke-dashoffset="0" font-family="Pixel" font-weight="normal" text-anchor="start" style="mix-blend-mode: normal"><tspan x="0" dy="0">Cat Cone</tspan></text><text transform="translate(336.00001,136.75002) scale(0.60834,0.60834)" font-size="40" xml:space="preserve" fill="#ffffff" fill-rule="nonzero" stroke="none" stroke-width="1" stroke-linecap="butt" stroke-linejoin="miter" stroke-miterlimit="10" stroke-dasharray="" stroke-dashoffset="0" font-family="Pixel" font-weight="normal" text-anchor="start" style="mix-blend-mode: normal"><tspan x="0" dy="0">Hint:</tspan></text><path d="M311.48078,317.00003v-33.5h36.07692v33.5z" fill="#faff00" fill-rule="nonzero" stroke="none" stroke-width="0" stroke-linecap="butt" stroke-linejoin="miter"/><text transform="translate(355.51924,306.50003) scale(0.5,0.5)" font-size="40" xml:space="preserve" fill="#ffffff" fill-rule="nonzero" stroke="none" stroke-width="1" stroke-linecap="butt" stroke-linejoin="miter" stroke-miterlimit="10" stroke-dasharray="" stroke-dashoffset="0" font-family="Pixel" font-weight="normal" text-anchor="start" style="mix-blend-mode: normal"><tspan x="0" dy="0">medium</tspan></text><text transform="translate(309.58331,165.84452) scale(0.3947,0.3947)" font-size="40" xml:space="preserve" fill="#ffffff" fill-rule="nonzero" stroke="none" stroke-width="1" stroke-linecap="butt" stroke-linejoin="miter" stroke-miterlimit="10" stroke-dasharray="" stroke-dashoffset="0" font-family="Pixel" font-weight="normal" text-anchor="start" style="mix-blend-mode: normal"><tspan x="0" dy="0">open scratch</tspan></text><path d="M141.23102,207.38103c1.51676,1.56531 4.69953,5.00658 -3.56264,10.88796c-8.26218,5.88138 -24.69301,1.92313 -26.53254,1.27759c-7.20889,-2.27155 -15.94668,-5.3379 -24.47452,-11.9462c-24.82516,-19.04226 -14.48428,-49.24532 -3.82199,-50.92706c10.43235,-1.76243 7.8052,18.23464 16.49802,33.93992c3.74335,6.99536 9.76611,11.175 14.88125,14.26135c7.33386,4.12322 25.34642,0.6305 27.01243,2.50645z" fill="#ffab19" fill-rule="evenodd" stroke="#001026" stroke-width="2.4" stroke-linecap="round" stroke-linejoin="round"/><path d="M90.74162,168.7438c1.50035,7.49952 5.5622,18.7388 5.5622,18.7388c0,0 -7.78161,-5.05513 -13.98217,-2.84068c-4.95802,1.61746 -5.81351,6.99895 -5.91848,8.76993c-1.94023,-4.03826 -4.16682,-9.4683 -3.64197,-18.3232c0.52485,-8.8549 6.21339,-17.70552 11.29638,-17.4713c4.92161,0.6941 4.86092,4.54669 6.68404,11.12645z" fill="#ffffff" fill-rule="evenodd" stroke="none" stroke-width="1" stroke-linecap="butt" stroke-linejoin="miter"/><path d="M89.66657,229.9557v-18.5h131.66667v18.5z" fill="#ffab19" fill-rule="nonzero" stroke="#001026" stroke-width="2.4" stroke-linecap="butt" stroke-linejoin="miter"/><path d="M110.83324,211.2057l37,-106.5l16.10073,-0.13269l34.39927,106.1327z" fill="#ffab19" fill-rule="nonzero" stroke="#001026" stroke-width="2.4" stroke-linecap="butt" stroke-linejoin="miter"/><path d="M188.5832,185.53904l-67.91666,1.58333l4.33333,-13.33333h59.66667z" fill="#ffffff" fill-rule="nonzero" stroke="#001026" stroke-width="2.4" stroke-linecap="round" stroke-linejoin="miter"/><path d="M176.33324,147.4557l-41.33334,-1.33334l2.33334,-10.33333l36,0.66667z" fill="#ffffff" fill-rule="nonzero" stroke="#001026" stroke-width="2.4" stroke-linecap="round" stroke-linejoin="miter"/><path d="M134.28323,254.9807c-2.17317,0 -7.57909,0.70177 -9.36803,-0.26393c-5.08484,-2.74486 -3.5529,-8.99301 1.24093,-10.65614c1.15941,-0.40223 2.87017,-0.51639 4.68048,-0.45925c2.61161,0.08244 5.43037,0.52137 7.09974,0.96614c0.53079,0.14142 1.33387,0.36031 2.03426,0.64232c-0.09474,-0.48687 -0.13054,-0.99212 -0.17521,-1.4828c-0.33981,-3.73294 0.48783,-7.70537 0.48783,-11.49635c0,0 0,-2.5 2.5,-2.5c2.5,0 2.5,2.5 2.5,2.5c0,3.08056 0.39582,5.96242 0.05926,8.99635c-0.16666,1.50243 0.0234,2.99863 -0.07143,4.50731c-0.10616,1.68891 0.36902,3.94883 -0.97035,4.98311c-0.1823,0.14077 -5.80367,4.1495 -10.01749,4.26323z" fill="#001026" fill-rule="nonzero" stroke="none" stroke-width="0.5" stroke-linecap="butt" stroke-linejoin="miter"/><path d="M164.73671,250.91747c-1.33937,-1.03428 -0.86419,-3.2942 -0.97035,-4.98311c-0.09482,-1.50868 0.09524,-3.00488 -0.07143,-4.50731c-0.33656,-3.03393 0.05926,-5.91579 0.05926,-8.99634c0,0 0,-2.5 2.5,-2.5c2.5,0 2.5,2.5 2.5,2.5c0,3.79098 0.82764,7.7634 0.48783,11.49634c-0.04467,0.49068 -0.08046,0.99592 -0.17521,1.4828c0.70039,-0.28202 1.50347,-0.5009 2.03426,-0.64232c2.82653,-0.75308 8.94819,-1.48941 11.78022,-0.50689c4.79383,1.66313 6.32577,7.91128 1.24093,10.65614c-1.78895,0.9657 -7.19486,0.26393 -9.36803,0.26393c-4.21382,-0.11373 -9.83519,-4.12247 -10.01749,-4.26324z" data-paper-data="{&quot;index&quot;:null}" fill="#001026" fill-rule="nonzero" stroke="none" stroke-width="0.5" stroke-linecap="butt" stroke-linejoin="miter"/><path d="M140.36546,189.6753c-0.07223,-0.50311 0.3767,-0.95267 0.89785,-0.89912c2.51615,0.53732 9.59697,1.57457 17.21575,0.99416c6.84607,-0.59783 10.81671,-1.55303 12.64917,-2.20124c0.61082,-0.21607 1.20422,0.34058 1.04296,1.00557c-0.6444,3.55847 -4.06949,13.67788 -17.38429,14.81937c-11.62618,0.38557 -13.9139,-7.50155 -14.42144,-13.71874z" fill="#ffffff" fill-rule="evenodd" stroke="#001026" stroke-width="2.4" stroke-linecap="round" stroke-linejoin="round"/><path d="M149.09986,160.13332c3,4.4 2.8,9.8 0.1,11.7c-3.3,1.9 -7.7,0.5 -10.7,-3.9c-3.1,-4.4 -3.3,-10.1 -0.2,-12.3c3.1,-2.3 7.8,0.1 10.8,4.5z" fill="#ffffff" fill-rule="evenodd" stroke="#001026" stroke-width="2.4" stroke-linecap="round" stroke-linejoin="round"/><path d="M148.49986,165.93332c0,1.1 -0.8,2 -1.8,2c-1,0 -1.8,-0.9 -1.8,-2c0,-1.1 0.8,-2 1.8,-2c1,0.1 1.8,0.9 1.8,2" fill="#001026" fill-rule="evenodd" stroke="none" stroke-width="1" stroke-linecap="butt" stroke-linejoin="miter"/><g fill-rule="evenodd" stroke-width="2.4"><path d="M171.89987,159.99999c2.9,4.5 3,9.6 0.2,11.4c-2.8,1.8 -7.4,-0.3 -10.4,-4.8c-2.9,-4.5 -3,-9.6 -0.2,-11.4c2.8,-1.9 7.5,0.3 10.4,4.8z" fill="#ffffff" stroke="#001026" stroke-linecap="round" stroke-linejoin="round"/><path d="M171.49987,165.69999c0,1.1 -0.8,2 -1.8,2c-1,0 -1.8,-0.9 -1.8,-2c0,-1.1 0.8,-2 1.8,-2c1,0 1.8,0.9 1.8,2" fill="#001026" stroke="none" stroke-linecap="butt" stroke-linejoin="miter"/></g><path d="M155.59884,177.39434c2.1,0 4.3,0.2 4.4,0.9c0.1,1.4 -1.4,4.2 -3,4.3c-1.8,0.2 -6,-2.3 -6,-3.9c-0.1,-1.2 2.6,-1.3 4.6,-1.3z" fill="#001026" fill-rule="evenodd" stroke="#001026" stroke-width="2.4" stroke-linecap="round" stroke-linejoin="round"/><path d="M110.4332,168.19999c0,0 9.70789,3.16071 13.65877,6.66006" fill="none" fill-rule="evenodd" stroke="#001026" stroke-width="2.4" stroke-linecap="round" stroke-linejoin="round"/><path d="M121.43062,179.81094c-4.85394,1.919 -13.20724,0.67729 -13.20724,0.67729" fill="none" fill-rule="evenodd" stroke="#001026" stroke-width="2.4" stroke-linecap="round" stroke-linejoin="round"/><path d="M187.22338,177.19338c3.95088,-3.49936 13.65877,-6.66006 13.65877,-6.66006" data-paper-data="{&quot;index&quot;:null}" fill="none" fill-rule="evenodd" stroke="#001026" stroke-width="2.4" stroke-linecap="round" stroke-linejoin="round"/><path d="M203.09197,182.82156c0,0 -8.3533,1.24171 -13.20724,-0.67729" data-paper-data="{&quot;index&quot;:null}" fill="none" fill-rule="evenodd" stroke="#001026" stroke-width="2.4" stroke-linecap="round" stroke-linejoin="round"/><path d="M181.31528,228.73018c0,0 -10.66612,0.17002 -22.89117,0.19243c-14.99227,0.0822 -28.82837,0.38114 -32.72037,-3.24136c-1.99977,-2.97847 -7.48544,-6.46582 21.81515,-7.48165c27.72429,-1.02206 29.70669,2.0978 29.70669,2.0978c8.48199,4.77229 4.0897,8.43278 4.0897,8.43278z" fill="#ffffff" fill-rule="evenodd" stroke="none" stroke-width="1" stroke-linecap="butt" stroke-linejoin="miter"/></g></g></svg>