<svg version="1.1" xmlns="http://www.w3.org/2000/svg" xmlns:xlink="http://www.w3.org/1999/xlink" width="136.66667" height="156.21401" viewBox="0,0,136.66667,156.21401"><g transform="translate(-171.66668,-102.05799)"><g data-paper-data="{&quot;isPaintingLayer&quot;:true}" fill-rule="nonzero" stroke-linejoin="miter" stroke-miterlimit="10" stroke-dasharray="" stroke-dashoffset="0" style="mix-blend-mode: normal"><path d="M221.98327,257.07115c-3.91316,1.78291 -21.09244,2.39391 -18.83673,-6.62891c1.69256,-6.77024 9.26743,-4.24274 13.97468,-3.93199c0.39218,0.02589 1.87977,-0.02235 3.31411,0.10473c0,-5.05864 0,-10.27602 0,-15.13193c0,0 0,-2.5 2.5,-2.5c2.5,0 2.5,2.5 2.5,2.5c0,6.74826 0,13.49651 0,20.24477v0.6981c0,0 0,1.64983 -1.34026,2.26897c-0.18749,0.92147 -0.7141,1.73945 -2.1118,2.37627z" fill="#000000" stroke="none" stroke-width="0.5" stroke-linecap="butt"/><path d="M251.7874,254.81616c-1.34026,-0.61914 -1.34027,-2.26897 -1.34027,-2.26897v-0.6981c0,-6.74825 0,-13.49651 0,-20.24476c0,0 0,-2.5 2.5,-2.5c2.5,0 2.5,2.5 2.5,2.5c0,4.85591 0,10.07329 0,15.13193c1.43434,-0.12707 2.92194,-0.07883 3.31412,-0.10473c4.70725,-0.31076 12.28211,-2.83826 13.97467,3.93199c2.2557,9.02283 -14.92356,8.41182 -18.83673,6.62892c-1.39769,-0.63682 -1.92431,-1.4548 -2.1118,-2.37627z" data-paper-data="{&quot;index&quot;:null}" fill="#000000" stroke="none" stroke-width="0.5" stroke-linecap="butt"/><path d="M174.16669,229.95571v-18.5h131.66667v18.5z" fill="#ffea00" stroke="#ad9e00" stroke-width="5" stroke-linecap="butt"/><path d="M195.33335,211.20571l37,-106.5l16.10073,-0.13269l34.39927,106.1327z" fill="#ffea00" stroke="#ad9e00" stroke-width="5" stroke-linecap="butt"/><path d="M271.83333,186.78905l-66.66666,0.33333l4.33333,-13.33333h59.66667z" fill="#ffffff" stroke="#ad9e00" stroke-width="5" stroke-linecap="round"/><path d="M260.83333,147.45571l-41.33334,-1.33334l2.33334,-10.33333l36,0.66667z" fill="#ffffff" stroke="#ad9e00" stroke-width="5" stroke-linecap="round"/><path d="M229.13942,159.57473c-0.44584,1.78337 -0.22847,3.59546 -0.49061,5.39662c-0.55938,3.84351 -5.41548,2.95458 -6.14473,-0.32707c-0.42333,-1.90498 -0.10577,-8.40251 0.8031,-9.91729c2.23662,-3.7277 5.19069,-0.00793 5.83224,2.55827z" fill="#000000" stroke="none" stroke-width="0.5" stroke-linecap="butt"/><path d="M255.16246,159.39586c-0.46875,1.87503 0.04937,4.28046 -1.48584,5.81304c-4.86702,4.8587 -6.9538,-6.11596 -5.17334,-9.28116c0.79151,-1.40709 1.18018,-3.40132 3.31309,-3.23725c0.97383,0.07491 4.30501,1.97969 3.34608,3.41808z" fill="#000000" stroke="none" stroke-width="0.5" stroke-linecap="butt"/><path d="M231.94077,189.83915c-0.05166,0.05042 -0.10327,0.10104 -0.15484,0.15181zM232.15503,189.63133c-0.04681,0.1055 -1.0393,2.26977 -3.28123,1.30831c-2.29762,-0.98534 -1.31229,-3.28297 -1.31229,-3.28297l0.75996,-1.27093c4.38806,-4.13504 8.92579,-6.96088 15.38637,-5.78266c1.11381,0.20313 5.04052,3.58356 5.7494,4.16018c0,0 1.93854,1.57863 0.3599,3.51717c-1.57863,1.93854 -3.51717,0.35989 -3.51717,0.35989c-1.32268,-1.07842 -2.28375,-2.97723 -3.97134,-3.23121c-4.32334,-0.65069 -7.33339,1.4861 -10.1736,4.22222z" fill="#000000" stroke="none" stroke-width="0.5" stroke-linecap="butt"/><path d="M230.80407,144.91325c1.29188,0 4.06642,3.43358 2.15454,4.52608c-0.39145,0.66326 -1.08044,1.13001 -1.88334,1.21662c-0.08717,0.10866 -0.18151,0.21966 -0.28328,0.33308c-0.87569,0.97591 -4.85024,-0.41427 -4.99902,-0.45968c-4.42907,-1.35193 -7.04475,-3.52893 -10.39752,-6.53826c-0.15965,-0.14329 -2.18114,-1.56519 -2.08283,-2.14985c-0.09931,-0.26943 -0.15355,-0.56069 -0.15355,-0.86461c0,-1.38071 1.11929,-2.5 2.5,-2.5c0.4877,0 0.94277,0.13965 1.32743,0.38114c1.92092,0.33361 3.02617,3.58527 6.70876,5.58609c0.89081,0.48399 2.79092,0.85048 4.54299,1.39399c0.32512,-0.55471 1.10276,-0.92459 2.56581,-0.92459z" fill="#000000" stroke="none" stroke-width="0.5" stroke-linecap="butt"/><path d="M249.5783,146.42775c0.84536,-0.34681 3.98875,-3.27164 4.77722,-3.82816c2.14666,-1.51514 4.16251,-3.29888 5.74753,-5.39448c0.89488,-1.18314 1.01321,-3.12204 2.34005,-3.78546c2.10818,-1.05409 3.09639,-0.72469 4.15049,1.38349c0.74054,1.48107 -1.93039,4.63761 -2.49804,5.39486c-0.84911,1.13271 -1.77775,2.34933 -2.66881,3.44935c-1.08543,1.33997 -2.7801,2.04145 -4.19172,3.03192c-2.62025,1.83851 -10.04337,8.83358 -12.25091,2.21095l-0.10232,-0.58983c-0.26717,-0.39786 -0.42305,-0.87671 -0.42305,-1.39197c0,-1.38071 1.11929,-2.5 2.5,-2.5c1.23151,0 2.25504,0.89046 2.46187,2.06264c0.05634,-0.00916 0.10905,-0.02335 0.1577,-0.04331z" fill="#000000" stroke="none" stroke-width="0.5" stroke-linecap="butt"/></g></g></svg>