<svg version="1.1" xmlns="http://www.w3.org/2000/svg" xmlns:xlink="http://www.w3.org/1999/xlink" width="431.42643" height="314.30931" viewBox="0,0,431.42643,314.30931"><g transform="translate(-24.28681,-22.84537)"><g data-paper-data="{&quot;isPaintingLayer&quot;:true}" fill-rule="nonzero" stroke-linejoin="miter" stroke-miterlimit="10" stroke-dasharray="" stroke-dashoffset="0" style="mix-blend-mode: normal"><path d="M26.78682,334.65468v-309.30931h426.42643v309.30931z" fill="#ff9625" stroke="#b3691b" stroke-width="5" stroke-linecap="butt"/><path d="M284.00004,99.50006v-51h159v51z" fill="#da8021" stroke="#8f5415" stroke-width="5" stroke-linecap="butt"/><path d="M283.00004,262.50005v-151h159v151z" fill="#da8021" stroke="#8f5415" stroke-width="5" stroke-linecap="butt"/><path d="M283.00004,324.50005v-52h159v52z" fill="#da8021" stroke="#8f5415" stroke-width="5" stroke-linecap="butt"/><path d="M64.00002,283.50005v-202h183v202z" fill="#da8021" stroke="#8f5415" stroke-width="5" stroke-linecap="butt"/><text transform="translate(288.50004,84.65027) scale(0.53196,0.53196)" font-size="40" xml:space="preserve" fill="#ffffff" fill-rule="nonzero" stroke="none" stroke-width="1" stroke-linecap="butt" stroke-linejoin="miter" stroke-miterlimit="10" stroke-dasharray="" stroke-dashoffset="0" font-family="Pixel" font-weight="normal" text-anchor="start" style="mix-blend-mode: normal"><tspan x="0" dy="0">Outlined Cone</tspan></text><text transform="translate(336.00004,136.75001) scale(0.60834,0.60834)" font-size="40" xml:space="preserve" fill="#ffffff" fill-rule="nonzero" stroke="none" stroke-width="1" stroke-linecap="butt" stroke-linejoin="miter" stroke-miterlimit="10" stroke-dasharray="" stroke-dashoffset="0" font-family="Pixel" font-weight="normal" text-anchor="start" style="mix-blend-mode: normal"><tspan x="0" dy="0">Hint:</tspan></text><path d="M311.33079,317.15003v-33.5h36.07692v33.5z" fill="#ff0000" stroke="none" stroke-width="0" stroke-linecap="butt"/><text transform="translate(355.36927,306.65003) scale(0.5,0.5)" font-size="40" xml:space="preserve" fill="#ffffff" fill-rule="nonzero" stroke="none" stroke-width="1" stroke-linecap="butt" stroke-linejoin="miter" stroke-miterlimit="10" stroke-dasharray="" stroke-dashoffset="0" font-family="Pixel" font-weight="normal" text-anchor="start" style="mix-blend-mode: normal"><tspan x="0" dy="0">Hard</tspan></text><path d="" data-paper-data="{&quot;index&quot;:null}" fill="#fff600" stroke="#ada700" stroke-width="5" stroke-linecap="butt"/><path d="" data-paper-data="{&quot;index&quot;:null}" fill="#fff600" stroke="#ada700" stroke-width="5" stroke-linecap="butt"/><path d="" data-paper-data="{&quot;index&quot;:null}" fill="#ffffff" stroke="#ada700" stroke-width="5" stroke-linecap="round"/><path d="" data-paper-data="{&quot;index&quot;:null}" fill="#ffffff" stroke="#ada700" stroke-width="5" stroke-linecap="round"/><path d="" fill="#68650e" stroke="none" stroke-width="0.5" stroke-linecap="butt"/><path d="" fill="#68650e" stroke="none" stroke-width="0.5" stroke-linecap="butt"/><path d="" fill="#68650e" stroke="none" stroke-width="0.5" stroke-linecap="butt"/><path d="" fill="#68650e" stroke="none" stroke-width="0.5" stroke-linecap="butt"/><path d="" data-paper-data="{&quot;index&quot;:null}" fill="#68650e" stroke="none" stroke-width="0.5" stroke-linecap="butt"/><path d="M94.499,230.56561v-18.5h131.66667v18.5z" fill="#ff8221" stroke="#ad5816" stroke-width="5" stroke-linecap="butt"/><path d="M184.37532,218.7434c0.44722,2.45968 -2.01246,2.90689 -2.01246,2.90689l-2.87732,0.51978c-4.92614,0.34683 -9.62318,2.28605 -14.5532,3.06189c-9.14093,1.43853 -18.60895,2.48565 -27.82496,3.20129c0,0 -2.49264,0.19174 -2.68438,-2.30089c-0.19174,-2.49264 2.30089,-2.68437 2.30089,-2.68437c9.0829,-0.69161 18.42263,-1.74187 27.43228,-3.15541c5.00544,-0.78531 9.68109,-2.66743 14.68956,-3.0814l2.62268,-0.48022c0,0 2.45968,-0.44721 2.90689,2.01246z" fill="#522a0b" stroke="none" stroke-width="0.5" stroke-linecap="butt"/><path d="M139.11564,255.59061c-2.17317,0 -7.57909,0.70177 -9.36803,-0.26393c-5.08484,-2.74486 -3.5529,-8.99301 1.24093,-10.65614c1.15941,-0.40223 2.87017,-0.51639 4.68048,-0.45925c2.61161,0.08244 5.43037,0.52137 7.09974,0.96614c0.53079,0.14142 1.33387,0.36031 2.03426,0.64232c-0.09474,-0.48687 -0.13054,-0.99212 -0.17521,-1.4828c-0.33981,-3.73294 0.48783,-7.70537 0.48783,-11.49635c0,0 0,-2.5 2.5,-2.5c2.5,0 2.5,2.5 2.5,2.5c0,3.08056 0.39582,5.96242 0.05926,8.99635c-0.16666,1.50243 0.0234,2.99863 -0.07143,4.50731c-0.10616,1.68891 0.36902,3.94883 -0.97035,4.98311c-0.1823,0.14077 -5.80367,4.1495 -10.01749,4.26323z" fill="#522a0b" stroke="none" stroke-width="0.5" stroke-linecap="butt"/><path d="M169.56912,251.52738c-1.33937,-1.03428 -0.86419,-3.2942 -0.97035,-4.98311c-0.09482,-1.50868 0.09524,-3.00488 -0.07143,-4.50731c-0.33656,-3.03393 0.05926,-5.91579 0.05926,-8.99634c0,0 0,-2.5 2.5,-2.5c2.5,0 2.5,2.5 2.5,2.5c0,3.79098 0.82764,7.7634 0.48783,11.49634c-0.04467,0.49068 -0.08046,0.99592 -0.17521,1.4828c0.70039,-0.28202 1.50347,-0.5009 2.03426,-0.64232c2.82653,-0.75308 8.94819,-1.48941 11.78022,-0.50689c4.79383,1.66313 6.32577,7.91128 1.24093,10.65614c-1.78895,0.9657 -7.19486,0.26393 -9.36803,0.26393c-4.21382,-0.11373 -9.83519,-4.12247 -10.01749,-4.26324z" data-paper-data="{&quot;index&quot;:null}" fill="#522a0b" stroke="none" stroke-width="0.5" stroke-linecap="butt"/><path d="M104.42686,178.29707c2.37171,-0.79057 3.16228,1.58114 3.16228,1.58114l0.86436,4.90861c-1.06932,0.44792 -2.46052,0.4575 -3.20796,1.34374c-0.42721,0.50653 0.5307,1.28234 0.43961,1.93868c-0.17847,1.28587 -0.65552,2.52981 -1.22193,3.69792c-1.01349,2.09014 -3.04206,3.61577 -3.90269,5.77336c-0.9552,2.39466 -0.38769,5.15558 -0.90503,7.68128c-0.6306,3.07864 -2.07144,6.25279 -3.06636,9.23755c0,0 -0.79056,2.37171 -3.16227,1.58114c-2.37171,-0.79057 -1.58114,-3.16228 -1.58114,-3.16228c0.94189,-2.82569 2.34424,-5.84468 2.93364,-8.76245c0.55379,-2.74145 0.07704,-5.71372 1.09498,-8.31872c0.66922,-1.7126 3.19287,-4.49086 4.0973,-6.22664c0.99793,-1.91523 -0.00281,-4.58172 1.21768,-6.36339c0.5403,-0.78873 1.86135,-0.43751 2.79203,-0.65626l-1.13564,-1.09139c0,0 -0.79057,-2.37171 1.58114,-3.16228z" fill="#ff8221" stroke="#ad5816" stroke-width="2" stroke-linecap="butt"/><path d="M210.02081,181.47376c2.19501,-1.19662 3.39164,0.9984 3.39164,0.9984l0.49641,0.91058c0.67235,1.23524 3.52212,6.77252 4.73551,7.89399c1.22753,1.13452 3.05746,1.46275 4.29827,2.58273c0.17857,0.16118 4.36099,6.38182 4.52058,6.71094c1.74397,3.59661 1.25421,7.2426 1.25421,11.09838c0,0 0,2.5 -2.5,2.5c-2.5,0 -2.5,-2.5 -2.5,-2.5c0,-2.78881 0.61336,-6.29314 -0.74579,-8.90162c-0.97514,-1.87149 -1.88568,-3.9058 -3.47942,-5.28906c-1.25503,-1.08928 -3.07677,-1.41248 -4.27665,-2.56223c-1.92955,-1.84893 -4.40938,-6.78188 -5.69675,-9.13988l-0.49641,-0.91059c0,0 -1.19662,-2.19502 0.9984,-3.39164z" fill="#ff8221" stroke="#ad5816" stroke-width="2" stroke-linecap="butt"/><path d="M177.42686,126.29707c2.37171,-0.79057 3.16227,1.58114 3.16227,1.58114l0.94113,2.84148c1.67085,3.3905 2.82419,5.45263 4.03463,9.0892c0.21642,0.65019 -0.21286,1.63639 0.35116,2.02559c1.08796,0.75073 2.86509,0.02046 3.8657,0.8842c1.35402,1.1688 1.68194,3.15894 2.59796,4.69529c1.232,2.0663 2.43425,4.18685 3.20943,6.46425c0,0 0.79058,2.3717 -1.58114,3.16227c-2.37171,0.79057 -3.16228,-1.58113 -3.16228,-1.58113c-0.63813,-1.96545 -1.80904,-3.71729 -2.79057,-5.53575c-0.56836,-1.05301 -0.46694,-2.55808 -1.40205,-3.30471c-1.11546,-0.89065 -3.06283,-0.17271 -4.1343,-1.1158c-1.07664,-0.94764 -1.10828,-2.64588 -1.64884,-3.97441c-1.22528,-3.01136 -2.53293,-5.99229 -3.96537,-8.9108l-1.05887,-3.15852c0,0 -0.79057,-2.37171 1.58114,-3.16228z" fill="#ff8221" stroke="#ad5816" stroke-width="2" stroke-linecap="butt"/><path d="M139.33546,129.43271c2.23607,1.11803 1.11803,3.35411 1.11803,3.35411l-1.99837,3.99674c-1.20985,2.43705 -1.81547,5.27297 -3.60287,7.32435c-2.47419,2.8396 -7.96028,4.07382 -9.2421,8.28534c-0.25982,0.85369 0.2231,1.79603 0.07498,2.676c-0.19712,1.17115 -0.73067,2.26008 -1.09601,3.39012c0,0 -0.79057,2.3717 -3.16228,1.58113c-2.37171,-0.79057 -1.58114,-3.16227 -1.58114,-3.16227c0.65613,-1.89429 0.31209,-4.04336 0.97898,-5.93389c0.90304,-2.55997 4.44991,-6.2232 6.36558,-7.7625c1.18888,-0.9553 2.89393,-1.23952 3.90903,-2.37777c1.52681,-1.71203 1.86065,-4.19523 2.88042,-6.25005l2.00163,-4.00326c0,0 1.11803,-2.23607 3.3541,-1.11804z" fill="#ff8221" stroke="#ad5816" stroke-width="2" stroke-linecap="butt"/><path d="M170.9852,105.43655c-1.76776,1.76776 -3.53554,0 -3.53554,0l-1,-1c-1.87944,-1.89723 -3.58073,-4.27157 -6.65785,-3.33464c-1.42607,0.43421 -2.55759,1.62363 -4,2c-0.69379,0.18104 -1.50218,-0.7812 -2.11261,-0.40501c-0.50079,0.30863 -0.06005,1.17497 -0.09007,1.76246c0,0 -0.79057,2.3717 -3.16227,1.58113c-2.37171,-0.79057 -1.58114,-3.16227 -1.58114,-3.16227c0.63665,-1.41251 0.70056,-3.26907 1.90993,-4.23754c1.01693,-0.81436 2.64122,-0.02504 3.88739,-0.40502c1.4259,-0.43479 2.54133,-1.6926 4,-2c5.25048,-1.10647 7.94715,1.29711 11.34215,4.66535l1,1c0,0 1.76776,1.76777 0,3.53554z" fill="#ff8221" stroke="#ad5816" stroke-width="2" stroke-linecap="butt"/><path d="M179.20772,129.12023c-2.45145,0.49029 -2.94174,-1.96116 -2.94174,-1.96116l-0.00187,-0.83196c-1.75718,-2.81689 -3.99755,-5.93301 -5.4451,-8.86507c-1.72339,-3.49078 -2.4301,-8.31584 -2.91559,-12.14984c0,0 -0.31009,-2.48069 2.17061,-2.79078c2.48069,-0.31008 2.79078,2.1706 2.79078,2.1706c0.39885,3.23792 0.92732,7.582 2.41774,10.51683c1.43017,2.8162 3.51721,5.74693 5.22156,8.46826l0.66479,2.50138c0,0 0.49029,2.45145 -1.96116,2.94174z" fill="#d4d4d4" stroke="#b1b1b1" stroke-width="2" stroke-linecap="butt"/><path d="M135.17906,128.54486c0.49403,-1.48209 1.6055,-1.7293 2.36981,-1.70622c1.73798,-2.65956 2.29442,-5.67815 3.72725,-8.5405c2.47633,-4.94697 6.5033,-8.37704 7.84929,-13.90238c0,0 0.60634,-2.42536 3.03169,-1.81902c2.42535,0.60634 1.81902,3.0317 1.81902,3.0317c-1.51816,5.94761 -5.51589,9.48744 -8.15071,14.76429c-1.86977,3.74464 -2.59593,7.52657 -5.3541,10.8965l-3.71112,0.43792c0,0 -2.37171,-0.79057 -1.58114,-3.16228z" fill="#d4d4d4" stroke="#b1b1b1" stroke-width="2" stroke-linecap="butt"/><path d="M213.9852,188.43655c-1.76776,1.76776 -3.53553,0 -3.53553,0l-0.90775,-0.99194c-4.61416,-2.94365 -8.87281,-6.11003 -11.83137,-10.874c-1.04515,-1.68293 -1.77348,-5.52713 -2.23705,-7.23929c-1.34797,-4.97858 -3.02326,-10.05759 -5.97821,-14.23951c0,0 -1.42302,-2.05548 0.63246,-3.4785c2.05548,-1.42302 3.4785,0.63245 3.4785,0.63245c3.24252,4.76429 5.15672,10.18259 6.68846,15.76049c0.11925,0.43426 1.11586,5.07693 1.76296,6.09404c2.5499,4.00793 6.25424,6.64174 10.16863,9.126l1.75891,1.67472c0,0 1.76776,1.76777 0,3.53553z" fill="#d4d4d4" stroke="#b1b1b1" stroke-width="2" stroke-linecap="butt"/><path d="M103.69966,184.30465c-1.76777,-1.76776 0,-3.53553 0,-3.53553l0.73344,-0.68532c0.91538,-1.26466 1.70084,-2.63441 2.74614,-3.79401c0.46593,-0.51688 1.37599,-0.57045 1.72881,-1.17028c0.53156,-0.9037 0.34768,-2.08736 0.75549,-3.05323c1.17511,-2.78314 2.57598,-5.49368 4.27579,-7.99117c1.07144,-1.57424 2.90122,-2.47219 4.26034,-3.80599c0.77644,-0.76199 2.18187,-3.27953 2.62403,-4.01847c0,0 1.28625,-2.14373 3.42997,-0.8575c2.14373,1.28624 0.85749,3.42997 0.85749,3.42997c-0.94212,1.56632 -2.07059,3.65724 -3.37597,4.98152c-1.17729,1.19435 -2.79487,1.73823 -3.73966,3.19401c-1.44026,2.21922 -2.66991,4.58237 -3.72421,7.00883c-0.54972,1.26517 -0.52734,2.7684 -1.24451,3.94676c-0.50543,0.83046 -1.62139,1.10661 -2.27118,1.82972c-0.87313,0.97166 -1.50258,2.13734 -2.25387,3.206l-1.26656,1.31467c0,0 -1.76777,1.76776 -3.53553,0z" fill="#d4d4d4" stroke="#b1b1b1" stroke-width="2" stroke-linecap="butt"/><path d="M112.16566,166.19061c0,-1.38071 1.11929,-2.5 2.5,-2.5c1.38071,0 2.5,1.11929 2.5,2.5c0,1.38071 -1.11929,2.5 -2.5,2.5c-1.38071,0 -2.5,-1.11929 -2.5,-2.5z" fill="#522a0b" stroke="none" stroke-width="0.5" stroke-linecap="butt"/><path d="M194.16565,165.69061c0,-1.38071 1.11929,-2.5 2.5,-2.5c1.38071,0 2.5,1.11929 2.5,2.5c0,1.38071 -1.11929,2.5 -2.5,2.5c-1.38071,0 -2.5,-1.11929 -2.5,-2.5z" fill="#522a0b" stroke="none" stroke-width="0.5" stroke-linecap="butt"/><text transform="translate(102.25001,73.25001) scale(0.5,0.5)" font-size="40" xml:space="preserve" fill="#ffffff" fill-rule="nonzero" stroke="none" stroke-width="1" stroke-linecap="butt" stroke-linejoin="miter" stroke-miterlimit="10" stroke-dasharray="" stroke-dashoffset="0" font-family="Pixel" font-weight="normal" text-anchor="start" style="mix-blend-mode: normal"><tspan x="0" dy="0">@kth11211</tspan></text><text transform="translate(302.58333,165.84453) scale(0.3947,0.3947)" font-size="40" xml:space="preserve" fill="#ffffff" fill-rule="nonzero" stroke="none" stroke-width="1" stroke-linecap="butt" stroke-linejoin="miter" stroke-miterlimit="10" stroke-dasharray="" stroke-dashoffset="0" font-family="Pixel" font-weight="normal" text-anchor="start" style="mix-blend-mode: normal"><tspan x="0" dy="0">Tiny Miscolored</tspan><tspan x="0" dy="48px">square in the </tspan><tspan x="0" dy="48px">index.</tspan></text></g></g></svg>