<svg version="1.1" xmlns="http://www.w3.org/2000/svg" xmlns:xlink="http://www.w3.org/1999/xlink" width="431.42643" height="314.30931" viewBox="0,0,431.42643,314.30931"><g transform="translate(-24.28681,-22.84535)"><g data-paper-data="{&quot;isPaintingLayer&quot;:true}" fill-rule="nonzero" stroke-linejoin="miter" stroke-miterlimit="10" stroke-dasharray="" stroke-dashoffset="0" style="mix-blend-mode: normal"><path d="M26.78681,334.65466v-309.30931h426.42643v309.30931z" fill="#ff9625" stroke="#b3691b" stroke-width="5" stroke-linecap="butt"/><path d="M284.00001,99.50002v-51h159v51z" fill="#da8021" stroke="#8f5415" stroke-width="5" stroke-linecap="butt"/><path d="M283.00001,265.50001v-151h159v151z" fill="#da8021" stroke="#8f5415" stroke-width="5" stroke-linecap="butt"/><path d="M283.00001,324.50001v-52h159v52z" fill="#da8021" stroke="#8f5415" stroke-width="5" stroke-linecap="butt"/><path d="M64.00002,283.50001v-202h183v202z" fill="#da8021" stroke="#8f5415" stroke-width="5" stroke-linecap="butt"/><text transform="translate(300.50001,84.21158) scale(0.72786,0.76977)" font-size="40" xml:space="preserve" fill="#ffffff" fill-rule="nonzero" stroke="none" stroke-width="1" stroke-linecap="butt" stroke-linejoin="miter" stroke-miterlimit="10" stroke-dasharray="" stroke-dashoffset="0" font-family="Pixel" font-weight="normal" text-anchor="start" style="mix-blend-mode: normal"><tspan x="0" dy="0">Cone 64</tspan></text><text transform="translate(336.00001,136.75001) scale(0.60834,0.60834)" font-size="40" xml:space="preserve" fill="#ffffff" fill-rule="nonzero" stroke="none" stroke-width="1" stroke-linecap="butt" stroke-linejoin="miter" stroke-miterlimit="10" stroke-dasharray="" stroke-dashoffset="0" font-family="Pixel" font-weight="normal" text-anchor="start" style="mix-blend-mode: normal"><tspan x="0" dy="0">Hint:</tspan></text><text transform="translate(306.00001,166.12501) scale(0.40249,0.40249)" font-size="40" xml:space="preserve" fill="#ffffff" fill-rule="nonzero" stroke="none" stroke-width="1" stroke-linecap="butt" stroke-linejoin="miter" stroke-miterlimit="10" stroke-dasharray="" stroke-dashoffset="0" font-family="Pixel" font-weight="normal" text-anchor="start" style="mix-blend-mode: normal"><tspan x="0" dy="0">in wincone xp</tspan><tspan x="0" dy="48px"> </tspan><tspan x="0" dy="48px"> </tspan></text><path d="M310.98078,316.75001v-33.5h36.07692v33.5z" fill="#5aff00" stroke="none" stroke-width="0" stroke-linecap="butt"/><text transform="translate(355.01925,306.25001) scale(0.5,0.5)" font-size="40" xml:space="preserve" fill="#ffffff" fill-rule="nonzero" stroke="none" stroke-width="1" stroke-linecap="butt" stroke-linejoin="miter" stroke-miterlimit="10" stroke-dasharray="" stroke-dashoffset="0" font-family="Pixel" font-weight="normal" text-anchor="start" style="mix-blend-mode: normal"><tspan x="0" dy="0">easy</tspan></text><path d="M84.16682,231.95574v-18.5h131.66667v18.5z" fill="#ffffff" stroke="#9992a2" stroke-width="5" stroke-linecap="butt"/><path d="M105.33346,213.20574l37,-106.5l16.10073,-0.13269l34.39927,106.1327z" fill="#25b8b2" stroke="#1c7875" stroke-width="5" stroke-linecap="butt"/><path d="M130.54524,158.6949c-0.37578,-1.86063 -0.31823,-3.71178 0.2807,-4.93105c0.09019,-0.18361 0.18788,-0.36235 0.29204,-0.53689l-0.06907,-0.03719l1.72565,-3.20478c0.41446,-0.80748 1.25547,-1.35997 2.22553,-1.35997c1.05134,0 1.9511,0.64897 2.32056,1.56816l1.0787,2.51698c1.06593,0.28587 1.85074,1.25872 1.85074,2.41486v2.78056c0.92592,-0.0075 1.9616,-0.05986 2.96359,0.03116c0.73961,-1.1243 1.47122,-2.2634 2.69582,-2.49096c5.45147,-1.01298 8.05472,4.04302 6.26272,8.41693c-0.5897,1.43934 -2.63936,1.64684 -3.9691,2.45383c-2.35429,1.42875 -5.2425,3.43952 -8.27104,2.67087c-1.55198,-0.3939 -2.51786,-2.16023 -3.17179,-3.88166c-0.32958,0.08194 -0.65009,0.11609 -0.96067,0.10747c-1.3549,0.5669 -2.88466,0.4601 -4.31729,-1.07043c-1.15303,-1.23183 -1.25076,-3.28783 -0.93708,-5.44789z" fill="#f60300" stroke="none" stroke-width="0.5" stroke-linecap="butt"/><path d="M131.83346,167.58074c0,-1.38071 1.11929,-2.5 2.5,-2.5c1.38071,0 2.5,1.11929 2.5,2.5c0,1.38071 -1.11929,2.5 -2.5,2.5c-1.38071,0 -2.5,-1.11929 -2.5,-2.5z" fill="#000002" stroke="none" stroke-width="0.5" stroke-linecap="butt"/><path d="M152.83345,167.08074c0,-1.38071 1.11929,-2.5 2.5,-2.5c1.38071,0 2.5,1.11929 2.5,2.5c0,1.38071 -1.11929,2.5 -2.5,2.5c-1.38071,0 -2.5,-1.11929 -2.5,-2.5z" fill="#000002" stroke="none" stroke-width="0.5" stroke-linecap="butt"/><path d="M129.08023,187.01178c-0.59222,0.86486 -0.90422,2.0136 -1.77667,2.59459c-0.12265,0.08168 -0.24716,0.15993 -0.37331,0.23511l0.04028,0.05539l-2.7276,1.98371c-0.41659,0.3106 -0.93324,0.49445 -1.49283,0.49445c-1.38071,0 -2.5,-1.11929 -2.5,-2.5c0,-0.08694 0.00444,-0.17284 0.0131,-0.25749l0.24717,-2.71884l0.12209,0.0111l-0.06331,-0.36829c0.22118,-0.52551 0.48003,-1.10127 0.77912,-1.68401c0.00703,-2.0374 0.4595,-4.26174 0.72647,-5.33881c0,0 0.50028,-2.00113 2.4097,-1.91354c0.45224,-0.45117 1.07637,-0.73012 1.76566,-0.73012c1.24305,0 2.27422,0.90723 2.46747,2.09567l0.35971,1.97838c0.08548,0.04624 0.16963,0.09436 0.25254,0.14421l0.02464,-0.06775l2.69522,0.98008c0.98859,0.33349 1.70042,1.26832 1.70042,2.3694c0,1.38071 -1.11929,2.5 -2.5,2.5c-0.27016,0 -0.53031,-0.04285 -0.77403,-0.12213l-1.09254,-0.32776z" fill="#09ff42" stroke="none" stroke-width="0.5" stroke-linecap="butt"/><path d="M181.86807,191.86109c-2.23607,1.11803 -3.3541,-1.11803 -3.3541,-1.11803l-0.50152,-1.36927c0.18669,-0.29838 0.88927,-0.77057 0.56008,-0.89513c-0.44082,-0.16679 -0.81772,0.48529 -1.26703,0.62764c-1.57436,0.49876 -4.61594,1.67647 -7.10045,1.64278c-1.55286,1.1375 -3.28881,0.78322 -5.35747,-3.18254c-0.6398,-1.22654 0.3645,-2.7609 0.81188,-4.06995c0.43877,-1.28386 0.72356,-2.84406 1.82282,-3.63932c0.53326,-0.38578 1.12421,-0.73536 1.73616,-1.02201c0.42023,-0.46815 1.08437,-0.85509 2.10541,-0.69278c0.01784,-0.0032 0.03567,-0.00633 0.05348,-0.00937c0.27471,-0.08496 0.55686,-0.11593 0.84548,-0.08237c1.65141,-0.02858 2.99005,0.79861 3.18003,3.08987c0.06632,0.12479 0.13277,0.25389 0.19934,0.38736c0.44921,0.90071 0.06431,1.86351 -0.5444,2.80876c2.48786,-0.63924 5.31154,-0.73717 6.86979,0.43467c1.12945,0.84937 0.70672,2.73658 1.06008,4.10487l-0.00152,-0.36927c0,0 1.11803,2.23607 -1.11803,3.3541z" fill="#ff047f" stroke="none" stroke-width="0.5" stroke-linecap="butt"/><text transform="translate(125.66682,197.50002) scale(0.81781,0.81781)" font-size="40" xml:space="preserve" fill="#ffffff" fill-rule="nonzero" stroke="none" stroke-width="1" stroke-linecap="butt" stroke-linejoin="miter" stroke-miterlimit="10" stroke-dasharray="" stroke-dashoffset="0" font-family="Marker" font-weight="normal" text-anchor="start" style="mix-blend-mode: normal"><tspan x="0" dy="0">64</tspan></text><path d="M171.04305,193.13353c0.44722,2.45968 -2.01246,2.90689 -2.01246,2.90689l-2.87732,0.51978c-4.92614,0.34683 -9.62318,2.28605 -14.5532,3.06189c-9.14093,1.43853 -18.60895,2.48565 -27.82496,3.20129c0,0 -2.49264,0.19174 -2.68438,-2.30089c-0.19174,-2.49264 2.30089,-2.68437 2.30089,-2.68437c9.0829,-0.69161 18.42263,-1.74187 27.43228,-3.15541c5.00544,-0.78531 9.68109,-2.66743 14.68956,-3.0814l2.62268,-0.48022c0,0 2.45968,-0.44721 2.90689,2.01246z" fill="#000002" stroke="none" stroke-width="0.5" stroke-linecap="butt"/><path d="M128.7835,256.98074c-2.17317,0 -7.57909,0.70177 -9.36803,-0.26393c-5.08484,-2.74486 -3.5529,-8.99301 1.24093,-10.65614c1.15941,-0.40223 2.87017,-0.51639 4.68048,-0.45925c2.61161,0.08244 5.43037,0.52137 7.09974,0.96614c0.53079,0.14142 1.33387,0.36031 2.03426,0.64232c-0.09474,-0.48687 -0.13054,-0.99212 -0.17521,-1.4828c-0.33981,-3.73294 0.48783,-7.70537 0.48783,-11.49635c0,0 0,-2.5 2.5,-2.5c2.5,0 2.5,2.5 2.5,2.5c0,3.08056 0.39582,5.96242 0.05926,8.99635c-0.16666,1.50243 0.0234,2.99863 -0.07143,4.50731c-0.10616,1.68891 0.36902,3.94883 -0.97035,4.98311c-0.1823,0.14077 -5.80367,4.1495 -10.01749,4.26323z" fill="#000002" stroke="none" stroke-width="0.5" stroke-linecap="butt"/><path d="M159.23693,252.9175c-1.33937,-1.03428 -0.86419,-3.2942 -0.97035,-4.98311c-0.09482,-1.50868 0.09524,-3.00488 -0.07143,-4.50731c-0.33656,-3.03393 0.05926,-5.91579 0.05926,-8.99634c0,0 0,-2.5 2.5,-2.5c2.5,0 2.5,2.5 2.5,2.5c0,3.79098 0.82764,7.7634 0.48783,11.49634c-0.04467,0.49068 -0.08046,0.99592 -0.17521,1.4828c0.70039,-0.28202 1.50347,-0.5009 2.03426,-0.64232c2.82653,-0.75308 8.94819,-1.48941 11.78022,-0.50689c4.79383,1.66313 6.32577,7.91128 1.24093,10.65614c-1.78895,0.9657 -7.19486,0.26393 -9.36803,0.26393c-4.21382,-0.11373 -9.83519,-4.12247 -10.01749,-4.26324z" data-paper-data="{&quot;index&quot;:null}" fill="#000002" stroke="none" stroke-width="0.5" stroke-linecap="butt"/><path d="M160.69565,145.5032c0.09858,-0.06565 0.1623,-0.1006 0.1845,-0.09912c0.53323,0.03544 1.00824,0.08394 1.43006,0.14385c0.4584,-0.56317 1.15714,-0.92291 1.93989,-0.92291c1.16178,0 2.13847,0.79247 2.41899,1.86634l0.98482,3.44686l-0.15561,0.04446l0.2408,0.40814c-0.26089,3.0215 -0.67378,4.66941 -1.667,6.31301l0.24919,0.09968l-0.97837,2.44593c-0.35452,0.94948 -1.26971,1.62559 -2.34282,1.62559c-1.22888,0 -2.25067,-0.88665 -2.46053,-2.05512l-0.45939,-2.29694c-0.36829,-0.96458 -0.77129,-1.93581 -1.24936,-2.86211c-0.97065,0.82469 -2.02643,1.41983 -2.06747,1.45417l-0.11462,0.03025l0.02439,0.03524l-3.22414,2.2321c-0.40873,0.29117 -0.90881,0.46242 -1.44888,0.46242c-1.38071,0 -2.5,-1.11929 -2.5,-2.5c0,-0.77141 0.34939,-1.46122 0.89855,-1.91981l2.19929,-1.86094c-0.80087,-0.41664 -1.34784,-1.25407 -1.34784,-2.21926c0,-1.10109 0.71184,-2.03592 1.70042,-2.3694l2.69522,-0.98008l0.06855,0.18852l0.35205,-0.30112c0.14459,0.03784 0.28917,0.07568 0.43376,0.11352v-0.15144h1.68248l0.55217,-0.28453c0,0 0.99319,-0.44142 1.96089,-0.08729z" fill="#03f8f9" stroke="none" stroke-width="0.5" stroke-linecap="butt"/><path d="M162.5001,212.21669v-12.33333h26.66667v12.33333z" fill="#ffca05" stroke="#c73409" stroke-width="2.5" stroke-linecap="butt"/><path d="M188.77785,207.43891v-8.77778h3.30556v8.77778z" fill="#b7e7d7" stroke="none" stroke-width="0" stroke-linecap="butt"/><path d="M188.87505,212.99447v-6h3.11111v6z" fill="#74b0a8" stroke="none" stroke-width="0" stroke-linecap="butt"/><path d="M191.98618,212.93891v-13.93333c0,0 4.79804,-2.62903 4.77778,0c-0.01541,1.99962 -0.37698,8.80077 0,13.93333c0.15067,2.05139 -4.77778,0 -4.77778,0z" fill="#f66ba2" stroke="none" stroke-width="0" stroke-linecap="butt"/><path d="M163.75009,211.01552v-5.125h24.375v5.125z" fill="#c15526" stroke="none" stroke-width="0" stroke-linecap="butt"/><path d="M161.54146,213.5131l-14.35919,-9.79051l14.85793,-5.10198z" fill="#fac462" stroke="#000000" stroke-width="0" stroke-linecap="butt"/><path d="M161.76928,205.22043l-0.07901,8.36142l-14.45945,-9.84616z" fill="#c18e35" stroke="#000000" stroke-width="0" stroke-linecap="round"/><path d="M145.49687,204.63035l3.68941,-1.74285l0.09872,2.63839z" fill="#2d0000" stroke="none" stroke-width="0" stroke-linecap="butt"/><path d="M86.31259,229.50038v-5.41667h126.75v5.41667z" fill="#e2dcdb" stroke="#1c7875" stroke-width="0" stroke-linecap="butt"/><path d="M170.72961,229.50756c0,0 -1.43897,-1.33267 -2.15846,-1.85614c-0.71949,-0.52347 -5.11817,-4.10867 -8.12783,-5.34171c-7.86149,-3.22082 -19.96546,-3.97389 -27.66998,0.09787c-4.2591,2.25089 -4.92864,4.06142 -8.5202,7.328l-5.93479,0.01459c3.96202,-3.60008 7.3922,-9.22523 12.10837,-11.75772c3.97367,-2.13378 8.97692,-1.68518 14.10503,-1.85105c6.31562,-0.20427 12.82061,-0.5654 17.82498,1.54892c0.26197,0.11068 0.53195,0.22894 0.80865,0.35454c3.27063,1.48458 7.48093,3.99462 10.50507,7.13332c1.33158,1.38202 1.50128,4.45984 1.50128,4.45984z" fill="#089584" stroke="none" stroke-width="0.5" stroke-linecap="butt"/><path d="M153.49906,229.6011c-2.60711,-2.43582 -5.56696,-2.98726 -8.39294,-2.98958c-3.32247,-0.00273 -6.5145,0.91738 -9.53532,2.8405l-6.82724,0.21026c2.82669,-1.7981 3.17893,-3.71359 6.85775,-4.92084c6.49175,-2.13034 16.69847,-2.35725 21.67114,2.00033l1.95616,2.67252z" fill="#089584" stroke="none" stroke-width="0.5" stroke-linecap="butt"/><text transform="translate(69,100.19595) scale(0.31519,0.41899)" font-size="40" xml:space="preserve" fill="#ffffff" fill-rule="nonzero" stroke="none" stroke-width="1" stroke-linecap="butt" stroke-linejoin="miter" stroke-miterlimit="10" stroke-dasharray="" stroke-dashoffset="0" font-family="Pixel" font-weight="normal" text-anchor="start" style="mix-blend-mode: normal"><tspan x="0" dy="0">credits to chipz64</tspan></text></g></g></svg>