<svg version="1.1" xmlns="http://www.w3.org/2000/svg" xmlns:xlink="http://www.w3.org/1999/xlink" width="431.42643" height="314.30931" viewBox="0,0,431.42643,314.30931"><g transform="translate(-24.28679,-22.84535)"><g data-paper-data="{&quot;isPaintingLayer&quot;:true}" fill-rule="nonzero" stroke-linejoin="miter" stroke-miterlimit="10" stroke-dasharray="" stroke-dashoffset="0" style="mix-blend-mode: normal"><path d="M26.78679,334.65466v-309.30931h426.42643v309.30931z" fill="#ff9625" stroke="#b3691b" stroke-width="5" stroke-linecap="butt"/><path d="M284,99.50001v-51h159v51z" fill="#da8021" stroke="#8f5415" stroke-width="5" stroke-linecap="butt"/><path d="M283,262.50001v-151h159v151z" fill="#da8021" stroke="#8f5415" stroke-width="5" stroke-linecap="butt"/><path d="M283,324.50001v-52h159v52z" fill="#da8021" stroke="#8f5415" stroke-width="5" stroke-linecap="butt"/><path d="M64,283.50001v-202h183v202z" fill="#da8021" stroke="#8f5415" stroke-width="5" stroke-linecap="butt"/><text transform="translate(299.5,83.00716) scale(0.65298,0.65298)" font-size="40" xml:space="preserve" fill="#ffffff" fill-rule="nonzero" stroke="none" stroke-width="1" stroke-linecap="butt" stroke-linejoin="miter" stroke-miterlimit="10" stroke-dasharray="" stroke-dashoffset="0" font-family="Pixel" font-weight="normal" text-anchor="start" style="mix-blend-mode: normal"><tspan x="0" dy="0">Fish Cone</tspan></text><text transform="translate(336,136.75001) scale(0.60834,0.60834)" font-size="40" xml:space="preserve" fill="#ffffff" fill-rule="nonzero" stroke="none" stroke-width="1" stroke-linecap="butt" stroke-linejoin="miter" stroke-miterlimit="10" stroke-dasharray="" stroke-dashoffset="0" font-family="Pixel" font-weight="normal" text-anchor="start" style="mix-blend-mode: normal"><tspan x="0" dy="0">Hint:</tspan></text><path d="M311.48077,317v-33.5h36.07692v33.5z" fill="#faff00" stroke="none" stroke-width="0" stroke-linecap="butt"/><text transform="translate(355.51923,306.5) scale(0.5,0.5)" font-size="40" xml:space="preserve" fill="#ffffff" fill-rule="nonzero" stroke="none" stroke-width="1" stroke-linecap="butt" stroke-linejoin="miter" stroke-miterlimit="10" stroke-dasharray="" stroke-dashoffset="0" font-family="Pixel" font-weight="normal" text-anchor="start" style="mix-blend-mode: normal"><tspan x="0" dy="0">medium</tspan></text><text transform="translate(298.00001,166.125) scale(0.40249,0.40249)" font-size="40" xml:space="preserve" fill="#ffffff" fill-rule="nonzero" stroke="none" stroke-width="1" stroke-linecap="butt" stroke-linejoin="miter" stroke-miterlimit="10" stroke-dasharray="" stroke-dashoffset="0" font-family="Pixel" font-weight="normal" text-anchor="start" style="mix-blend-mode: normal"><tspan x="0" dy="0">okay ¿where do</tspan><tspan x="0" dy="48px">you think a</tspan><tspan x="0" dy="48px">fish would be?</tspan></text><path d="M151.28904,246.5c0.1791,5.0517 -19.1621,2.8163 -18.5,0c0.2796,-7.21445 -1.8163,-80.11522 0,-131.66667c-0.1907,-5.68608 19.31314,-2.74384 18.5,0c-0.539,22.55422 -1.76758,81.81234 0,131.66667z" fill="#ffac21" stroke="#ad5816" stroke-width="5" stroke-linecap="butt"/><path d="M196.95571,225.53222c0.17911,3.31807 -19.1621,1.84981 -18.5,0c0.2796,-4.73861 -1.8163,-52.62151 0,-86.48167c-0.1907,-3.73475 19.31314,-1.80221 18.5,0c-0.539,14.81413 -1.76758,53.73621 0,86.48167z" fill="#ffffff" stroke="#ad5816" stroke-width="5" stroke-linecap="butt"/><path d="M178.20571,225.66667l-106.5,-37l-0.13269,-16.10073l106.1327,-34.39927z" fill="#ff8221" stroke="#ad5816" stroke-width="5" stroke-linecap="butt"/><path d="M153.78905,149.16668l0.33333,66.66666l-13.33333,-4.33333v-59.66667z" fill="#ffffff" stroke="#ad5816" stroke-width="5" stroke-linecap="round"/><path d="M114.4557,160.16667l-1.33334,41.33334l-10.33333,-2.33334l0.66667,-36z" fill="#ffffff" stroke="#ad5816" stroke-width="5" stroke-linecap="round"/><path d="M88.74738,181.00001c-1.38071,0 -2.5,-1.11929 -2.5,-2.5c0,-1.38071 1.11929,-2.5 2.5,-2.5c1.38071,0 2.5,1.11929 2.5,2.5c0,1.38071 -1.11929,2.5 -2.5,2.5z" fill="#522a0b" stroke="none" stroke-width="0.5" stroke-linecap="butt"/><path d="M196.23968,162.66667c0,0 38.74604,-20.78844 39.59996,-19c1.44727,3.03112 -20.3146,20.36869 -20.70278,36.86439c-0.38818,16.4957 19.01035,28.6062 19.06884,32.56968c0.04653,3.15354 -38.17604,-11.60073 -38.17604,-11.60073z" fill="#ffa121" stroke="#ad5816" stroke-width="5" stroke-linecap="butt"/><path d="M132.98331,194.32637c-2.02079,2.23607 -6.06236,1.11803 -6.06236,1.11803l0.51987,-0.008c-12.38376,-0.91497 -23.91956,-1.28607 -35.97686,-3.33862c0,0 -4.3188,-0.73521 -2.98994,-3.12466c1.32886,-2.38945 5.64766,-1.65423 5.64766,-1.65423c11.58932,1.97295 22.58727,2.28292 34.51354,3.16138l2.32731,0.492c0,0 4.04157,1.11803 2.02079,3.3541z" fill="#522a0b" stroke="none" stroke-width="0.5" stroke-linecap="butt"/><path d="M100.99738,181.50001c-1.38071,0 -2.5,-1.11929 -2.5,-2.5c0,-1.38071 1.11929,-2.5 2.5,-2.5c1.38071,0 2.5,1.11929 2.5,2.5c0,1.38071 -1.11929,2.5 -2.5,2.5z" fill="#522a0b" stroke="none" stroke-width="0.5" stroke-linecap="butt"/></g></g></svg>