<svg version="1.1" xmlns="http://www.w3.org/2000/svg" xmlns:xlink="http://www.w3.org/1999/xlink" width="431.42643" height="314.30931" viewBox="0,0,431.42643,314.30931"><g transform="translate(-24.28683,-22.84537)"><g data-paper-data="{&quot;isPaintingLayer&quot;:true}" fill-rule="nonzero" stroke-linejoin="miter" stroke-miterlimit="10" stroke-dasharray="" stroke-dashoffset="0" style="mix-blend-mode: normal"><path d="M26.78683,334.65468v-309.30931h426.42643v309.30931z" fill="#ff9625" stroke="#b3691b" stroke-width="5" stroke-linecap="butt"/><path d="M284.00005,99.50008v-51h159v51z" fill="#da8021" stroke="#8f5415" stroke-width="5" stroke-linecap="butt"/><path d="M283.00005,262.50005v-151h159v151z" fill="#da8021" stroke="#8f5415" stroke-width="5" stroke-linecap="butt"/><path d="M283.00005,324.50005v-52h159v52z" fill="#da8021" stroke="#8f5415" stroke-width="5" stroke-linecap="butt"/><path d="M64.00003,283.50005v-202h183v202z" fill="#da8021" stroke="#8f5415" stroke-width="5" stroke-linecap="butt"/><text transform="translate(292.50005,84.43405) scale(0.63706,0.63706)" font-size="40" xml:space="preserve" fill="#ffffff" fill-rule="nonzero" stroke="none" stroke-width="1" stroke-linecap="butt" stroke-linejoin="miter" stroke-miterlimit="10" stroke-dasharray="" stroke-dashoffset="0" font-family="Pixel" font-weight="normal" text-anchor="start" style="mix-blend-mode: normal"><tspan x="0" dy="0">Dora Cone</tspan></text><text transform="translate(336.00009,136.75001) scale(0.60834,0.60834)" font-size="40" xml:space="preserve" fill="#ffffff" fill-rule="nonzero" stroke="none" stroke-width="1" stroke-linecap="butt" stroke-linejoin="miter" stroke-miterlimit="10" stroke-dasharray="" stroke-dashoffset="0" font-family="Pixel" font-weight="normal" text-anchor="start" style="mix-blend-mode: normal"><tspan x="0" dy="0">Hint:</tspan></text><text transform="translate(299.58337,161.84455) scale(0.3947,0.3947)" font-size="40" xml:space="preserve" fill="#ffffff" fill-rule="nonzero" stroke="none" stroke-width="1" stroke-linecap="butt" stroke-linejoin="miter" stroke-miterlimit="10" stroke-dasharray="" stroke-dashoffset="0" font-family="Pixel" font-weight="normal" text-anchor="start" style="mix-blend-mode: normal"><tspan x="0" dy="0">1 in 15 chance of</tspan><tspan x="0" dy="48px">appearing in</tspan><tspan x="0" dy="48px">davidland</tspan></text><path d="" data-paper-data="{&quot;index&quot;:null}" fill="#fff600" stroke="#ada700" stroke-width="5" stroke-linecap="butt"/><path d="" data-paper-data="{&quot;index&quot;:null}" fill="#fff600" stroke="#ada700" stroke-width="5" stroke-linecap="butt"/><path d="" data-paper-data="{&quot;index&quot;:null}" fill="#ffffff" stroke="#ada700" stroke-width="5" stroke-linecap="round"/><path d="" data-paper-data="{&quot;index&quot;:null}" fill="#ffffff" stroke="#ada700" stroke-width="5" stroke-linecap="round"/><path d="" fill="#68650e" stroke="none" stroke-width="0.5" stroke-linecap="butt"/><path d="" fill="#68650e" stroke="none" stroke-width="0.5" stroke-linecap="butt"/><path d="" fill="#68650e" stroke="none" stroke-width="0.5" stroke-linecap="butt"/><path d="" fill="#68650e" stroke="none" stroke-width="0.5" stroke-linecap="butt"/><path d="" data-paper-data="{&quot;index&quot;:null}" fill="#68650e" stroke="none" stroke-width="0.5" stroke-linecap="butt"/><text transform="translate(306.75001,229.69253) scale(0.25999,0.25999)" font-size="40" xml:space="preserve" fill="#ffffff" fill-rule="nonzero" stroke="none" stroke-width="1" stroke-linecap="butt" stroke-linejoin="miter" stroke-miterlimit="10" stroke-dasharray="" stroke-dashoffset="0" font-family="Pixel" font-weight="normal" text-anchor="start" style="mix-blend-mode: normal"><tspan x="0" dy="0">(read the hint for</tspan><tspan x="0" dy="48px">david cone)</tspan></text><path d="M311.07088,317.35002v-33.5h36.07692v33.5z" fill="#0021ff" stroke="none" stroke-width="0" stroke-linecap="butt"/><text transform="translate(354.29582,306.85002) scale(0.5,0.5)" font-size="40" xml:space="preserve" fill="#ffffff" fill-rule="nonzero" stroke="none" stroke-width="1" stroke-linecap="butt" stroke-linejoin="miter" stroke-miterlimit="10" stroke-dasharray="" stroke-dashoffset="0" font-family="Pixel" font-weight="normal" text-anchor="start" style="mix-blend-mode: normal"><tspan x="0" dy="0">insane</tspan></text><path d="M94.02384,229.95571v-18.5h131.66667v18.5z" fill="#ffffff" stroke="#eaeaea" stroke-width="5" stroke-linecap="butt"/><path d="M115.1905,211.20571l37,-106.5l16.10073,-0.13269l34.39927,106.1327z" fill="#ffffff" stroke="#eaeaea" stroke-width="5" stroke-linecap="butt"/><path d="M191.69048,186.78905l-66.66666,0.33333l4.33333,-13.33333h59.66667z" fill="#ffffff" stroke="#eaeaea" stroke-width="5" stroke-linecap="round"/><path d="M180.6905,147.45571l-41.33334,-1.33334l2.33334,-10.33333l36,0.66667z" fill="#ffffff" stroke="#eaeaea" stroke-width="5" stroke-linecap="round"/><path d="M180.68016,200.01357c-0.43242,2.46233 -2.89474,2.0299 -2.89474,2.0299l-2.87925,-0.50901c-4.74134,-1.3809 -9.81931,-1.18862 -14.71288,-2.1684c-9.07336,-1.81664 -18.31798,-4.11375 -27.21138,-6.63453c0,0 -2.40476,-0.6835 -1.72126,-3.08825c0.6835,-2.40476 3.08824,-1.72125 3.08824,-1.72125c8.76021,2.49722 17.88557,4.74696 26.82712,6.54157c4.96761,0.99703 10.00574,0.8509 14.84756,2.19732l2.62667,0.45792c0,0 2.46232,0.43242 2.0299,2.89473z" fill="#b6b6b6" stroke="none" stroke-width="0.5" stroke-linecap="butt"/><path d="M138.64047,254.98071c-2.17317,0 -7.57909,0.70177 -9.36803,-0.26393c-5.08484,-2.74486 -3.5529,-8.99301 1.24093,-10.65614c1.15941,-0.40223 2.87017,-0.51639 4.68048,-0.45925c2.61161,0.08244 5.43037,0.52137 7.09974,0.96614c0.53079,0.14142 1.33387,0.36031 2.03426,0.64232c-0.09474,-0.48687 -0.13054,-0.99212 -0.17521,-1.4828c-0.33981,-3.73294 0.48783,-7.70537 0.48783,-11.49635c0,0 0,-2.5 2.5,-2.5c2.5,0 2.5,2.5 2.5,2.5c0,3.08056 0.39582,5.96242 0.05926,8.99635c-0.16666,1.50243 0.0234,2.99863 -0.07143,4.50731c-0.10616,1.68891 0.36902,3.94883 -0.97035,4.98311c-0.1823,0.14077 -5.80367,4.1495 -10.01749,4.26323z" fill="#b6b6b6" stroke="none" stroke-width="0.5" stroke-linecap="butt"/><path d="M169.09396,250.91748c-1.33937,-1.03428 -0.86419,-3.2942 -0.97035,-4.98311c-0.09482,-1.50868 0.09524,-3.00488 -0.07143,-4.50731c-0.33656,-3.03393 0.05926,-5.91579 0.05926,-8.99634c0,0 0,-2.5 2.5,-2.5c2.5,0 2.5,2.5 2.5,2.5c0,3.79098 0.82764,7.7634 0.48783,11.49634c-0.04467,0.49068 -0.08046,0.99592 -0.17521,1.4828c0.70039,-0.28202 1.50347,-0.5009 2.03426,-0.64232c2.82653,-0.75308 8.94819,-1.48941 11.78022,-0.50689c4.79383,1.66313 6.32577,7.91128 1.24093,10.65614c-1.78895,0.9657 -7.19486,0.26393 -9.36803,0.26393c-4.21382,-0.11373 -9.83519,-4.12247 -10.01749,-4.26324z" data-paper-data="{&quot;index&quot;:null}" fill="#b6b6b6" stroke="none" stroke-width="0.5" stroke-linecap="butt"/><path d="M144.64524,171.72457c0.22304,-1.6683 0.51893,-3.33022 0.69527,-5.00377c0.13818,-1.3114 -0.23603,-5.49634 0.09875,-6.51826c0.44947,-1.37203 1.54174,-2.44153 2.3126,-3.66229c0,0 1.38675,-2.08013 3.46688,-0.69338c2.08013,1.38675 0.69338,3.46688 0.69338,3.46688c-2.32979,3.22767 -1.19672,3.97749 -1.58864,7.81945c-0.2818,2.76243 -0.86019,5.49441 -1.0364,8.26558l-0.22501,0.27157l0.14164,0.04721l-0.98177,2.94531c-0.31417,1.02156 -1.26534,1.76412 -2.38994,1.76412c-1.38071,0 -2.5,-1.11929 -2.5,-2.5c0,-0.18573 0.02025,-0.36673 0.05867,-0.54091l0.98988,-4.94938c0,0 0.06472,-0.3236 0.2647,-0.71214z" fill="#b6b6b6" stroke="none" stroke-width="0.5" stroke-linecap="butt"/><path d="M163.71396,182.16307c-2.23607,-1.11803 -1.11803,-3.3541 -1.11803,-3.3541l0.81071,-1.48831c0.69369,-2.76962 2.96015,-7.41364 2.9272,-10.29772c-0.01091,-0.95479 -0.8523,-1.74786 -0.96956,-2.69549c-0.22108,-1.78656 -0.02152,-3.6003 -0.03228,-5.40046c0,0 0,-2.5 2.5,-2.5c2.5,0 2.5,2.5 2.5,2.5c-0.01076,1.53318 -0.22438,3.07841 -0.03228,4.59954c0.14456,1.14472 1.04004,2.15074 1.03044,3.30451c-0.02957,3.55255 -2.20692,8.23199 -3.0728,11.70228l-1.18929,2.51169c0,0 -1.11803,2.23607 -3.3541,1.11803z" fill="#b6b6b6" stroke="none" stroke-width="0.5" stroke-linecap="butt"/><path d="M146.00532,141.00836c-6.78095,8.38169 -14.9516,14.59392 -23.63599,20.80553c-0.43617,0.31197 -3.77367,0.9041 -5.04396,-3.39388c-1.69657,-5.7403 -1.29776,-17.0094 -0.70767,-18.55714c0.07743,-1.57992 5.97193,-23.61294 8.90987,-26.54254c4.8959,-4.88201 17.02026,-10.3736 23.20775,-10.85729c2.23184,-0.17447 18.34148,-1.78227 21.40067,-0.34355c3.42058,1.60867 8.95048,6.0908 10.27189,7.47423c3.40371,3.56347 13.67817,16.34823 14.77923,17.48962c2.25236,2.33488 12.51253,15.42293 12.28296,15.89467c-0.4494,0.92344 -3.40024,8.79118 -3.53188,9.49328c-1.92269,-2.40553 -4.69007,-3.07393 -7.54163,-3.59302c-1.9595,-1.03686 -4.13216,-1.53616 -6.1886,-2.33278c-9.55515,-3.70147 -18.3164,-8.17569 -28.74753,-8.45844c-1.79843,-0.04875 -4.81794,-4.97406 -6.55613,-4.68851c-2.31258,0.37991 -8.89898,7.60983 -8.89898,7.60983z" data-paper-data="{&quot;noHover&quot;:false,&quot;origItem&quot;:[&quot;Path&quot;,{&quot;applyMatrix&quot;:true,&quot;segments&quot;:[[[458.73312,240.12375],[-5.06778,0.40804],[3.80906,-0.30669]],[[472.02029,250.70175],[-3.88287,-0.38798],[22.52109,2.25031]],[[532.70811,272.68935],[-20.04759,-9.11538],[4.3146,1.96179]],[[545.70246,278.46229],[-4.06423,-2.43854],[6.08186,1.52047]],[[561.41189,287.03295],[-3.75309,-5.23723],[0.40357,-1.41759]],[[563.26193,282.99732],[-0.63516,1.33467],[0.92032,-1.93389]],[[566.13533,277.2505],[-1.12852,1.82027],[0.5765,-0.92987]],[[568.33508,274.81446],[-0.02656,1.09376],[0.02146,-0.88376]],[[566.23379,273.19644],[0.42523,0.77503],[-3.58209,-6.52874]],[[556.2486,253.2115],[3.68084,6.47358],[-3.3716,-5.92971]],[[543.93511,236.86707],[4.47833,5.14526],[-2.18922,-2.51524]],[[538.42388,228.51851],[2.38043,2.3351],[-2.14657,-2.1057]],[[531.36408,222.90294],[2.12044,2.13201],[-7.27961,-7.31933]],[[510.99121,198.19544],[6.76161,7.84723],[-4.97273,-5.77112]],[[497.85873,185.68432],[6.76924,1.03924],[-3.60739,-1.77923]],[[487.12685,180.16737],[3.94051,0.80699],[-2.25962,-0.46276]],[[480.20753,180.22397],[2.26184,0.45177],[-2.52901,-0.50513]],[[473.024,177.35056],[2.53405,0.4792],[-4.77373,-0.90274]],[[458.44945,177.46784],[4.85834,0],[-21.55173,0]],[[401.50598,198.29959],[15.83422,-15.44111],[-1.56253,1.52373]],[[396.45357,207.4293],[0.58777,-0.93989],[-1.22217,1.95433]],[[392.28069,212.94338],[1.13014,-2.00895],[-2.12398,3.77559]],[[386.70645,228.4184],[1.67362,-3.35134],[-1.45734,2.91824]],[[381.19251,236.50271],[1.16911,-3.04518],[-1.16636,3.03802]],[[379.88822,246.17786],[0.43476,-3.22505],[-2.69043,5.38086]],[[374.42071,263.37771],[0.37693,-6.00416],[-0.5552,8.84382]],[[374.38836,290.85683],[-0.7555,-8.83294],[0.11421,1.33526]],[[375.31811,294.76824],[-0.48963,-1.24748],[0.45176,1.15099]],[[376.96119,298.09393],[-1.1205,0.52284],[2.42907,-1.13344]],[[383.3517,293.21263],[-2.32733,1.3299],[19.84025,-11.33728]],[[435.1761,251.13722],[-16.08896,16.08896],[0,0]]],&quot;closed&quot;:true}]}" fill="#261400" stroke="none" stroke-width="0.5" stroke-linecap="butt"/><path d="M146.66983,144.36912c-5.18874,5.97668 -10.59328,11.77314 -17.08278,16.40073c-1.7489,1.24712 -6.25935,4.80359 -8.24312,4.8449c-3.94596,0.08218 -6.44151,-4.54783 -7.0965,-7.69222c-1.48087,-7.10928 -1.81072,-15.56724 0.91281,-22.27611c0.11049,-1.54947 -0.1123,-3.15975 0.33147,-4.64842c0.45973,-1.54224 1.71077,-2.74486 2.31684,-4.23567c1.9943,-4.90561 2.69401,-10.89595 6.25905,-15.14507c7.3016,-8.70269 17.43999,-12.49716 28.45365,-13.35812c0.94334,-0.07374 7.13034,-0.57001 7.50082,-0.53442c1.13333,0.1089 2.13016,0.88165 3.26058,1.01752c1.0882,0.13081 2.19679,-0.39882 3.27994,-0.23134c0.52045,0.08048 4.74121,1.85359 5.59965,2.20888c1.08706,0.24268 2.29688,0.17061 3.26118,0.72802c0.91604,0.52952 1.38175,1.60363 2.10633,2.37468c2.4018,2.55582 5.01147,4.90842 7.47814,7.40169c7.58446,7.66625 15.66888,14.48113 21.32105,23.86884c0.81359,1.3513 1.41547,2.82065 2.1908,4.19426c0.57105,1.01169 1.74781,1.79886 1.84544,2.95648c0.12031,1.42641 -0.78408,2.75492 -1.24955,4.1086c-1.01976,2.96566 -2.37297,8.21354 -6.44677,8.45603c-1.56725,0.09329 -2.82643,-1.36804 -4.23259,-2.0664c-1.69504,-0.84183 -3.5,-1.54016 -5.36626,-1.85468c-1.85451,-0.92438 -3.91219,-1.36759 -5.85974,-2.07519c-8.61046,-3.12845 -16.45287,-7.12264 -25.86777,-7.32744c-1.71839,-0.03738 -3.43034,-3.95268 -5.066,-3.65c-1.93626,0.35829 -8.18968,7.06289 -9.60669,6.53443zM155.24914,131.54813c1.66595,-0.26604 4.48976,4.16141 6.21209,4.19858c9.98973,0.21557 18.33004,4.26723 27.4673,7.58946c1.9665,0.715 4.04518,1.16033 5.91788,2.09378c2.72915,0.45996 5.37709,1.05578 7.20914,3.23174c0.12885,-0.63782 0.44178,-1.23058 0.67542,-1.83987c0.33853,-0.88284 0.63288,-1.78824 1.06696,-2.62824c0.22174,-0.4291 0.91031,-0.66555 0.88437,-1.14787c-0.02096,-0.38971 -0.7667,-0.31336 -0.98052,-0.63985c-1.80123,-2.75028 -3.23964,-5.7299 -5.08243,-8.4525c-1.68798,-2.49386 -3.83384,-4.65956 -5.98194,-6.77008c-1.05009,-1.03172 -1.58487,-2.53901 -2.71292,-3.48487c-1.01723,-0.85294 -2.29384,-1.36329 -3.30047,-2.2287c-3.45584,-2.97102 -6.57088,-6.95247 -9.81689,-10.17366c-2.38723,-2.36897 -3.19538,-4.83023 -6.21052,-5.05473c-1.64895,-0.65898 -3.15117,-1.83935 -4.91329,-2.05896c-1.01046,-0.12593 -2.03243,0.384 -3.04348,0.26298c-1.13048,-0.13531 -2.12877,-0.8938 -3.26058,-1.01753c-2.13214,-0.23308 -4.2724,0.38592 -6.41072,0.55307c-9.48566,0.74151 -17.90812,3.78702 -24.34603,11.12798c-0.6353,0.72441 -1.68326,3.75823 -1.90962,4.19213c-0.47068,0.90222 -1.21862,1.64742 -1.64691,2.57051c-0.80493,1.73484 -1.29967,5.47025 -1.92098,7.00288c-0.54102,1.33456 -1.73893,2.36738 -2.14872,3.7479c-0.40883,1.37727 -0.16079,2.86883 -0.24118,4.30324c-0.99902,2.46087 -1.85534,5.10276 -1.81466,7.75836c0.05992,3.91157 0.29479,8.23393 0.93122,12.09562c0.09621,0.58376 0.28537,1.15734 0.54379,1.68956c0.23844,0.49105 0.36242,1.67589 0.8376,1.40722c1.03012,-0.58244 1.66615,-1.70289 2.64474,-2.3683c8.3423,-5.67255 14.8343,-12.66705 21.36204,-20.30192c0,0 7.77286,-5.30396 9.98932,-5.65792z" fill="#472300" stroke="none" stroke-width="0.5" stroke-linecap="butt"/></g></g></svg>