<svg version="1.1" xmlns="http://www.w3.org/2000/svg" xmlns:xlink="http://www.w3.org/1999/xlink" width="727.1549" height="481.52585" viewBox="0,0,727.1549,481.52585"><g transform="translate(182.38519,84.54409)"><g data-paper-data="{&quot;isPaintingLayer&quot;:true}" fill-rule="nonzero" stroke-linecap="butt" stroke-linejoin="miter" stroke-miterlimit="10" stroke-dasharray="" stroke-dashoffset="0" style="mix-blend-mode: normal"><path d="M-18.41209,369.16157v-370.87087h490.99099v370.87087z" fill="#706d6d" stroke="none" stroke-width="0"/><path d="M-13.66367,-14.43973l514.73494,-6.78009l-23.27164,302.61407l-75.62984,2.27559c0,0 -8.60162,-151.37807 -6.5856,-236.48673c0.52341,-22.0965 5.90506,-31.34578 -7.05113,-32.59997c-12.95619,-1.25419 -401.55405,3.75252 -401.55405,3.75252z" fill="#5e5e5e" stroke="none" stroke-width="0"/><path d="M533.96099,335.54372c0,18.73396 -17.08654,41.56414 -56.95113,49.0202c-60.71767,11.3563 -163.71787,1.56539 -256.5774,1.56539c-103.99551,0 -164.67917,21.48677 -212.51891,-4.46514c-22.92338,-12.43538 -31.00961,-30.80833 -31.00961,-46.12045c0,-47.26761 124.70147,-85.58558 278.52853,-85.58558c153.82706,0 278.52853,38.31797 278.52853,85.58558z" fill="#b7b4ab" stroke="#786a58" stroke-width="5"/><path d="M-179.39322,49.90967c-3.76634,-18.51212 13.76647,-43.69367 63.88184,-57.17818c76.33061,-20.53822 211.65768,-26.66738 331.8868,-40.91556c134.64735,-15.95686 208.89726,-46.50036 276.05483,-28.1962c32.17991,8.77081 46.34325,25.68546 49.42165,40.81625c9.50283,46.70788 -144.24982,103.70604 -343.41616,127.30894c-199.16634,23.60291 -368.32613,4.87262 -377.82896,-41.83526z" fill="#b7b4ab" stroke="#786a58" stroke-width="5"/><path d="M85.20591,333.57567l-0.88236,-20.60759l8.82353,0.95858l15.38652,-8.12074l20.03485,-8.10612l19.63745,10.97226l13.23529,11.62061l-13.23529,13.283l-33.78996,1.75153z" fill="#b7b4ab" stroke="#786a58" stroke-width="5"/><path d="M217.47067,88.71615l-4.57109,20.11359l-8.26038,-3.24648l-16.98109,3.78602l-21.46178,2.54882l-16.0584,-15.7527l-9.71124,-14.69365l16.26398,-9.3324l33.06014,7.20113z" fill="#b7b4ab" stroke="#786a58" stroke-width="5"/><path d="M321.15289,377.8171l3.92857,-50.98901l22.0202,6.42857l8.59403,-98.9617l12.75923,99.62554l20.19798,-13.52099l-7.5,57.41758z" fill="#49d6d5" stroke="#3d81d4" stroke-width="5"/></g></g></svg>