<svg version="1.1" xmlns="http://www.w3.org/2000/svg" xmlns:xlink="http://www.w3.org/1999/xlink" width="431.42643" height="314.30931" viewBox="0,0,431.42643,314.30931"><g transform="translate(-24.28679,-22.84534)"><g data-paper-data="{&quot;isPaintingLayer&quot;:true}" fill-rule="nonzero" stroke-linejoin="miter" stroke-miterlimit="10" stroke-dasharray="" stroke-dashoffset="0" style="mix-blend-mode: normal"><path d="M26.78679,334.65465v-309.30931h426.42643v309.30931z" fill="#ff9625" stroke="#b3691b" stroke-width="5" stroke-linecap="butt"/><path d="M284,99.5v-51h159v51z" fill="#da8021" stroke="#8f5415" stroke-width="5" stroke-linecap="butt"/><path d="M283,262.5v-151h159v151z" fill="#da8021" stroke="#8f5415" stroke-width="5" stroke-linecap="butt"/><path d="M283,324.5v-52h159v52z" fill="#da8021" stroke="#8f5415" stroke-width="5" stroke-linecap="butt"/><path d="M64,283.5v-202h183v202z" fill="#da8021" stroke="#8f5415" stroke-width="5" stroke-linecap="butt"/><text transform="translate(299.5,85.125) scale(0.65625,0.65625)" font-size="40" xml:space="preserve" fill="#ffffff" fill-rule="nonzero" stroke="none" stroke-width="1" stroke-linecap="butt" stroke-linejoin="miter" stroke-miterlimit="10" stroke-dasharray="" stroke-dashoffset="0" font-family="Pixel" font-weight="normal" text-anchor="start" style="mix-blend-mode: normal"><tspan x="0" dy="0">Cool Cone</tspan></text><text transform="translate(336,136.75) scale(0.60834,0.60834)" font-size="40" xml:space="preserve" fill="#ffffff" fill-rule="nonzero" stroke="none" stroke-width="1" stroke-linecap="butt" stroke-linejoin="miter" stroke-miterlimit="10" stroke-dasharray="" stroke-dashoffset="0" font-family="Pixel" font-weight="normal" text-anchor="start" style="mix-blend-mode: normal"><tspan x="0" dy="0">Hint:</tspan></text><text transform="translate(306,166.125) scale(0.40249,0.40249)" font-size="40" xml:space="preserve" fill="#ffffff" fill-rule="nonzero" stroke="none" stroke-width="1" stroke-linecap="butt" stroke-linejoin="miter" stroke-miterlimit="10" stroke-dasharray="" stroke-dashoffset="0" font-family="Pixel" font-weight="normal" text-anchor="start" style="mix-blend-mode: normal"><tspan x="0" dy="0">being cool at</tspan><tspan x="0" dy="48px">  the beach</tspan></text><path d="M310.98077,316.75v-33.5h36.07692v33.5z" fill="#5aff00" stroke="none" stroke-width="0" stroke-linecap="butt"/><text transform="translate(355.01923,306.25) scale(0.5,0.5)" font-size="40" xml:space="preserve" fill="#ffffff" fill-rule="nonzero" stroke="none" stroke-width="1" stroke-linecap="butt" stroke-linejoin="miter" stroke-miterlimit="10" stroke-dasharray="" stroke-dashoffset="0" font-family="Pixel" font-weight="normal" text-anchor="start" style="mix-blend-mode: normal"><tspan x="0" dy="0">easy</tspan></text><path d="M94.66669,229.9557v-18.5h131.66667v18.5z" fill="#ff8221" stroke="#ad5816" stroke-width="5" stroke-linecap="butt"/><path d="M115.83336,211.2057l37,-106.5l16.10073,-0.13269l34.39927,106.1327z" fill="#ff8221" stroke="#ad5816" stroke-width="5" stroke-linecap="butt"/><path d="M192.33333,186.78904l-66.66666,0.33333l4.33333,-13.33333h59.66667z" fill="#ffffff" stroke="#ad5816" stroke-width="5" stroke-linecap="round"/><path d="M181.33335,147.4557l-41.33334,-1.33334l2.33334,-10.33333l36,0.66667z" fill="#ffffff" stroke="#ad5816" stroke-width="5" stroke-linecap="round"/><path d="M142.33335,165.5807c0,-1.38071 1.11929,-2.5 2.5,-2.5c1.38071,0 2.5,1.11929 2.5,2.5c0,1.38071 -1.11929,2.5 -2.5,2.5c-1.38071,0 -2.5,-1.11929 -2.5,-2.5z" fill="#522a0b" stroke="none" stroke-width="0.5" stroke-linecap="butt"/><path d="M163.33334,165.0807c0,-1.38071 1.11929,-2.5 2.5,-2.5c1.38071,0 2.5,1.11929 2.5,2.5c0,1.38071 -1.11929,2.5 -2.5,2.5c-1.38071,0 -2.5,-1.11929 -2.5,-2.5z" fill="#522a0b" stroke="none" stroke-width="0.5" stroke-linecap="butt"/><path d="M139.14048,254.9807c0,0 -18.69547,1.9959 -18.7931,-5.39897c-0.08922,-6.75758 13.53618,-6.03749 15.34649,-5.98035c2.61161,0.08244 9.00346,0.61634 8.95879,0.12566c-0.33981,-3.73294 0.48783,-7.70537 0.48783,-11.49635c0,0 0,-2.5 2.5,-2.5c2.5,0 2.5,2.5 2.5,2.5c0,3.08056 0.39582,5.96242 0.05926,8.99635c-0.16666,1.50243 0.0234,2.99863 -0.07143,4.50731c-0.09483,1.50868 0.36902,3.94883 -0.97035,4.98311c-1.33937,1.03428 -5.80367,4.1495 -10.01749,4.26323z" fill="#522a0b" stroke="none" stroke-width="0.5" stroke-linecap="butt"/><path d="M150.16667,163.83333c0,5.15466 -4.99948,9.33333 -11.16666,9.33333c-6.16718,0 -11.16666,-4.17867 -11.16666,-9.33333c0,-5.15466 4.99948,-9.33333 11.16666,-9.33333c6.16718,0 11.16666,4.17867 11.16666,9.33333z" fill="#000000" stroke="none" stroke-width="NaN" stroke-linecap="butt"/><path d="M164.33334,164.5c0,2.5 -2.5,2.5 -2.5,2.5l-0.39366,-0.07465c-4.25256,1.05606 -7.57124,0.87162 -11.88242,0.39269c0,0 -2.48471,-0.27607 -2.20863,-2.76078c0.27608,-2.48471 2.76078,-2.20863 2.76078,-2.20863c3.77058,0.41903 6.41897,0.65755 10.11758,-0.27398l1.60634,-0.07464c0,0 2.5,0 2.5,2.5z" fill="#000000" stroke="none" stroke-width="0.5" stroke-linecap="butt"/><path d="M182.83333,163.83333c0,5.15466 -4.99949,9.33333 -11.16667,9.33333c-6.16718,0 -11.16666,-4.17867 -11.16666,-9.33333c0,-5.15466 4.99948,-9.33333 11.16666,-9.33333c6.16718,0 11.16667,4.17867 11.16667,9.33333z" fill="#000000" stroke="none" stroke-width="NaN" stroke-linecap="butt"/><path d="M141.75,159.16666c0,1.25 -1.25,1.25 -1.25,1.25h-1c-2.79565,-0.02218 -4.23264,1.41707 -6.11612,3.30055c0,0 -0.88388,0.88388 -1.76777,0c-0.88388,-0.88388 0,-1.76776 0,-1.76776c2.37855,-2.37855 4.38983,-4.01076 7.88388,-4.03278h1c0,0 1.25,0 1.25,1.25z" fill="#f5f5f5" stroke="none" stroke-width="0.5" stroke-linecap="butt"/><path d="M175.75,160.16666c0,1.25 -1.25,1.25 -1.25,1.25l-1.24515,-0.02428c-2.43154,-0.49607 -3.68592,-0.40398 -5.67152,1.10761c0,0 -1,0.75 -1.75,-0.25c-0.75,-1 0.25,-1.75 0.25,-1.75c2.57769,-1.90963 4.53376,-2.17382 7.66181,-1.55906l0.75485,-0.02427c0,0 1.25,0 1.25,1.25z" fill="#f5f5f5" stroke="none" stroke-width="0.5" stroke-linecap="butt"/><path d="M177.14186,185.05784c2.42536,0.60634 1.81902,3.0317 1.81902,3.0317l-0.38929,1.31169c-3.16432,6.294 -8.20004,11.11586 -15.41479,12.34622c-3.57475,0.60961 -7.60781,0.23737 -11.22127,0.23575c-4.37104,-0.00196 -7.84613,-0.16548 -11.99057,-1.52829c0,0 -2.37171,-0.79057 -1.58114,-3.16228c0.79057,-2.37171 3.16227,-1.58114 3.16227,-1.58114c3.63413,1.23079 6.54534,1.2735 10.40944,1.27171c6.91153,-0.0032 14.5817,0.67747 19.48062,-5.30187c1.45428,-1.77501 1.69295,-2.52296 2.68331,-4.51617l0.01071,-0.2883c0,0 0.60634,-2.42535 3.03169,-1.81902z" fill="#522a0b" stroke="none" stroke-width="0.5" stroke-linecap="butt"/><path d="M176.68469,254.92354c0,0 -2.57495,-0.46015 -4.47605,-1.26113c-2.84965,-1.20062 -5.43209,-2.91767 -5.54144,-3.0021c-0.1823,-0.14077 -0.86419,-3.2942 -0.97035,-4.98311c-0.09483,-1.50868 0.09523,-3.00488 -0.07143,-4.50731c-0.33656,-3.03393 0.05926,-5.91579 0.05926,-8.99635c0,0 0,-2.5 2.5,-2.5c2.5,0 2.5,2.5 2.5,2.5c0,3.79098 0.82764,7.76341 0.48783,11.49635c-0.04467,0.49068 6.34718,-0.04322 8.95879,-0.12566c1.81031,-0.05714 15.4357,-0.77723 15.34648,5.98035c-0.09764,7.39487 -16.61993,5.39897 -18.7931,5.39897z" data-paper-data="{&quot;index&quot;:null}" fill="#522a0b" stroke="none" stroke-width="0.5" stroke-linecap="butt"/></g></g></svg>