<svg version="1.1" xmlns="http://www.w3.org/2000/svg" xmlns:xlink="http://www.w3.org/1999/xlink" width="431.42643" height="314.30931" viewBox="0,0,431.42643,314.30931"><g transform="translate(-24.2868,-22.84537)"><g data-paper-data="{&quot;isPaintingLayer&quot;:true}" fill-rule="nonzero" stroke-linejoin="miter" stroke-miterlimit="10" stroke-dasharray="" stroke-dashoffset="0" style="mix-blend-mode: normal"><path d="M26.7868,334.65468v-309.30931h426.42643v309.30931z" fill="#ff9625" stroke="#b3691b" stroke-width="5" stroke-linecap="butt"/><path d="M284.00001,99.50003v-51h159v51z" fill="#da8021" stroke="#8f5415" stroke-width="5" stroke-linecap="butt"/><path d="M283.00001,262.50003v-151h159v151z" fill="#da8021" stroke="#8f5415" stroke-width="5" stroke-linecap="butt"/><path d="M283.00001,324.50003v-52h159v52z" fill="#da8021" stroke="#8f5415" stroke-width="5" stroke-linecap="butt"/><path d="M64.00001,283.50003v-202h183v202z" fill="#da8021" stroke="#8f5415" stroke-width="5" stroke-linecap="butt"/><text transform="translate(289.00001,80.19949) scale(0.42221,0.42221)" font-size="40" xml:space="preserve" fill="#ffffff" fill-rule="nonzero" stroke="none" stroke-width="1" stroke-linecap="butt" stroke-linejoin="miter" stroke-miterlimit="10" stroke-dasharray="" stroke-dashoffset="0" font-family="Pixel" font-weight="normal" text-anchor="start" style="mix-blend-mode: normal"><tspan x="0" dy="0">Wooden Log Cone</tspan></text><text transform="translate(336.00001,136.75002) scale(0.60834,0.60834)" font-size="40" xml:space="preserve" fill="#ffffff" fill-rule="nonzero" stroke="none" stroke-width="1" stroke-linecap="butt" stroke-linejoin="miter" stroke-miterlimit="10" stroke-dasharray="" stroke-dashoffset="0" font-family="Pixel" font-weight="normal" text-anchor="start" style="mix-blend-mode: normal"><tspan x="0" dy="0">Hint:</tspan></text><path d="M311.48078,317.00003v-33.5h36.07692v33.5z" fill="#faff00" stroke="none" stroke-width="0" stroke-linecap="butt"/><text transform="translate(355.51924,306.50003) scale(0.5,0.5)" font-size="40" xml:space="preserve" fill="#ffffff" fill-rule="nonzero" stroke="none" stroke-width="1" stroke-linecap="butt" stroke-linejoin="miter" stroke-miterlimit="10" stroke-dasharray="" stroke-dashoffset="0" font-family="Pixel" font-weight="normal" text-anchor="start" style="mix-blend-mode: normal"><tspan x="0" dy="0">medium</tspan></text><text transform="translate(297.58332,165.84452) scale(0.3947,0.3947)" font-size="40" xml:space="preserve" fill="#ffffff" fill-rule="nonzero" stroke="none" stroke-width="1" stroke-linecap="butt" stroke-linejoin="miter" stroke-miterlimit="10" stroke-dasharray="" stroke-dashoffset="0" font-family="Pixel" font-weight="normal" text-anchor="start" style="mix-blend-mode: normal"><tspan x="0" dy="0">In a wooden log.</tspan></text><text transform="translate(286.50001,95.01374) scale(0.07995,0.07995)" font-size="40" xml:space="preserve" fill="#ffffff" fill-rule="nonzero" stroke="none" stroke-width="1" stroke-linecap="butt" stroke-linejoin="miter" stroke-miterlimit="10" stroke-dasharray="" stroke-dashoffset="0" font-family="Pixel" font-weight="normal" text-anchor="start" style="mix-blend-mode: normal"><tspan x="0" dy="0">are you serious?</tspan></text><path d="M92.50003,230.28903v-18.5h131.66667v18.5z" fill="#b7531b" stroke="#823c14" stroke-width="5" stroke-linecap="butt"/><path d="M113.66668,211.53903l37,-106.5l16.10073,-0.13269l34.39927,106.1327z" fill="#b7531b" stroke="#823c14" stroke-width="5" stroke-linecap="butt"/><path d="M190.16667,187.12237l-66.66666,0.33333l4.33333,-13.33333h59.66667z" fill="#c66026" stroke="#823c14" stroke-width="5" stroke-linecap="round"/><path d="M179.16671,147.78903l-41.33334,-1.33334l2.33334,-10.33333l36,0.66667z" fill="#c66026" stroke="#823c14" stroke-width="5" stroke-linecap="round"/><path d="M140.1667,165.91403c0,-1.38071 1.11929,-2.5 2.5,-2.5c1.38071,0 2.5,1.11929 2.5,2.5c0,1.38071 -1.11929,2.5 -2.5,2.5c-1.38071,0 -2.5,-1.11929 -2.5,-2.5z" fill="#4f240c" stroke="none" stroke-width="0.5" stroke-linecap="butt"/><path d="M161.16668,165.41403c0,-1.38071 1.11929,-2.5 2.5,-2.5c1.38071,0 2.5,1.11929 2.5,2.5c0,1.38071 -1.11929,2.5 -2.5,2.5c-1.38071,0 -2.5,-1.11929 -2.5,-2.5z" fill="#4f240c" stroke="none" stroke-width="0.5" stroke-linecap="butt"/><path d="M179.37637,191.46682c0.44722,2.45968 -2.01246,2.90689 -2.01246,2.90689l-2.87732,0.51978c-4.92614,0.34683 -9.62318,2.28605 -14.5532,3.06189c-9.14093,1.43853 -18.60895,2.48565 -27.82496,3.20129c0,0 -2.49264,0.19174 -2.68438,-2.30089c-0.19174,-2.49264 2.30089,-2.68437 2.30089,-2.68437c9.0829,-0.69161 18.42263,-1.74187 27.43228,-3.15541c5.00544,-0.78531 9.68109,-2.66743 14.68956,-3.0814l2.62268,-0.48022c0,0 2.45968,-0.44721 2.90689,2.01246z" fill="#4f240c" stroke="none" stroke-width="0.5" stroke-linecap="butt"/><path d="M137.1167,255.31403l-9.36803,-0.26393l-2.3289,-5.42956l3.56983,-5.22658l4.68048,-0.45925l7.09974,0.96614l1.85905,-0.84048l0.48783,-11.49635l2.5,-2.5l2.5,2.5l0.05926,8.99635l-0.07143,4.50731l-0.97035,4.98311c0,0 -5.80367,4.1495 -10.01749,4.26323z" fill="#4f240c" stroke="none" stroke-width="0.5" stroke-linecap="butt"/><path d="M172.1457,254.31403c-4.21382,-0.11373 -10.01749,-4.26323 -10.01749,-4.26323l-0.97035,-4.98311l-0.07143,-4.50731l0.05926,-8.99635l2.5,-2.5l2.5,2.5l0.48783,11.49635l1.85905,0.84048l7.09974,-0.96614l4.68048,0.45925l3.56983,5.22658l-2.3289,5.42956l-9.36803,0.26393z" data-paper-data="{&quot;index&quot;:null}" fill="#4f240c" stroke="none" stroke-width="0.5" stroke-linecap="butt"/></g></g></svg>