<svg version="1.1" xmlns="http://www.w3.org/2000/svg" xmlns:xlink="http://www.w3.org/1999/xlink" width="562.05706" height="389.27697" viewBox="0,0,562.05706,389.27697"><g transform="translate(34.27176,7.44851)"><g data-paper-data="{&quot;isPaintingLayer&quot;:true}" fill-rule="nonzero" stroke-linejoin="miter" stroke-miterlimit="10" stroke-dasharray="" stroke-dashoffset="0" style="mix-blend-mode: normal"><path d="M-3.99399,286.00434v-291.29129h490.99099v291.29129z" fill="#75ffda" stroke="none" stroke-width="0" stroke-linecap="butt"/><path d="M525.28529,320.39042c0,18.73396 -17.08654,41.56414 -56.95113,49.0202c-60.71767,11.3563 -163.71787,1.56539 -256.5774,1.56539c-103.99551,0 -164.67917,21.48677 -212.51891,-4.46514c-22.92338,-12.43538 -31.00961,-30.80833 -31.00961,-46.12045c0,-47.26761 124.70147,-85.58558 278.52853,-85.58558c153.82706,0 278.52853,38.31797 278.52853,85.58558z" fill="#57ff78" stroke="#3eb555" stroke-width="5" stroke-linecap="butt"/><path d="M110.25676,256.66499c0,0 13.64789,-13.62776 19.61134,-30.7653c0.29822,-0.85701 -2.43856,-4.22377 -2.20708,-5.09832c3.70714,-14.00581 2.27512,-27.51446 3.12808,-37.63365c1.63023,-19.34053 -3.03234,-56.00272 -3.03234,-56.00272h34c0,0 -12.18433,37.52316 -9.06673,56.01126c1.50301,8.91319 0.46144,21.5841 4.58523,34.32087c0.45048,1.39136 -2.98967,5.25367 -2.29996,6.5756c9.29812,17.82137 28.28146,30.59228 28.28146,30.59228z" fill="#b7531b" stroke="#823c14" stroke-width="5" stroke-linecap="butt"/><path d="M194.75676,101.665c0,6.39078 -1.07664,10.51487 -3.04805,16.17934c-1.45947,4.19352 -3.40933,10.13515 -5.7758,13.74662c-4.5255,6.90637 -7.57453,7.6053 -14.63099,11.54941c-6.88289,3.84709 -17.72427,11.02463 -26.04516,11.02463c-4.19972,0 -13.6204,-3.45364 -22.66302,-7.64859c-4.72642,-2.19262 -9.34956,-3.13417 -13.0699,-7.0085c-3.79174,-3.94869 -11.62551,-16.88648 -13.70392,-21.95904c-3.78245,-9.23145 -0.06316,-10.90922 -0.06316,-15.88386c0,-8.45176 0.77254,-14.25104 4.92821,-20.24329c3.47612,-5.01237 9.92001,-10.46007 14.51848,-14.8379c8.76384,-8.34332 17.34972,-17.41881 30.05331,-17.41881c11.07832,0 23.32775,3.8176 30.98763,11.51473c3.28914,3.30514 6.28519,6.95683 9.00709,10.64328c2.0393,2.76195 4.01541,5.36203 5.7717,7.99828c3.91209,5.87217 3.73358,13.92382 3.73358,22.34371z" fill="#60f726" stroke="#51ce1f" stroke-width="5" stroke-linecap="butt"/><text transform="translate(75.36233,46.36532) rotate(5.35174) scale(1.04171,1.04171)" font-size="40" xml:space="preserve" fill="#cc671a" fill-rule="nonzero" stroke="#824211" stroke-width="2" stroke-linecap="butt" stroke-linejoin="miter" stroke-miterlimit="10" stroke-dasharray="" stroke-dashoffset="0" font-family="Pixel" font-weight="normal" text-anchor="start" style="mix-blend-mode: normal"><tspan x="0" dy="0">Find The Cones!</tspan></text><path d="M197.00479,245.5379l42.05823,-118.84025l18.30184,-0.14807l39.10196,118.43039z" fill="#ff8221" stroke="#ad5816" stroke-width="5.5" stroke-linecap="butt"/><text transform="translate(81.36233,48.36532) rotate(5.35174) scale(1.04171,1.04171)" font-size="40" xml:space="preserve" fill="#ff8221" fill-rule="nonzero" stroke="#ad5816" stroke-width="2" stroke-linecap="butt" stroke-linejoin="miter" stroke-miterlimit="10" stroke-dasharray="" stroke-dashoffset="0" font-family="Pixel" font-weight="normal" text-anchor="start" style="mix-blend-mode: normal"><tspan x="0" dy="0">Find The Cones!</tspan></text><text transform="translate(207.72674,344.27025) scale(0.7845,0.7845)" font-size="40" xml:space="preserve" fill="#ffffff" fill-rule="nonzero" stroke="none" stroke-width="1" stroke-linecap="butt" stroke-linejoin="miter" stroke-miterlimit="10" stroke-dasharray="" stroke-dashoffset="0" font-family="Pixel" font-weight="normal" text-anchor="start" style="mix-blend-mode: normal"><tspan x="0" dy="0">V 1.0</tspan></text><path d="M227.97924,298.55487c-4.44813,1.98949 -23.97596,2.6713 -21.41187,-7.397c1.92395,-7.55471 10.53436,-4.73435 15.88514,-4.38759c0.4458,0.02889 2.13676,-0.02494 3.76718,0.11686c0,-5.64479 0,-11.46671 0,-16.88528c0,0 0,-2.78968 2.84177,-2.78968c2.84177,0 2.84177,2.78968 2.84177,2.78968c0,7.53019 0,15.06036 0,22.59055v0.77899c0,0 0,1.841 -1.52348,2.53188c-0.21312,1.02824 -0.81172,1.941 -2.40051,2.65161z" fill="#000000" stroke="none" stroke-width="5.5" stroke-linecap="butt"/><path d="M261.85785,296.03861c-1.52348,-0.69088 -1.5235,-2.53188 -1.5235,-2.53188v-0.77899c0,-7.53017 0,-15.06037 0,-22.59054c0,0 0,-2.78967 2.84177,-2.78967c2.84177,0 2.84177,2.78967 2.84177,2.78967c0,5.41857 0,11.24049 0,16.88528c1.63043,-0.1418 3.32139,-0.08796 3.76719,-0.11687c5.35077,-0.34677 13.96119,-3.16713 15.88513,4.3876c2.56408,10.06831 -16.96375,9.38651 -21.41188,7.39702c-1.58877,-0.71061 -2.18738,-1.62337 -2.4005,-2.65161z" data-paper-data="{&quot;index&quot;:null}" fill="#000000" stroke="none" stroke-width="5.5" stroke-linecap="butt"/><path d="M172.94446,266.46047v-20.64361h149.66667v20.64361z" fill="#ff8221" stroke="#ad5816" stroke-width="5.5" stroke-linecap="butt"/><path d="M283.96299,218.29206l-75.78058,0.37195l4.92574,-14.87827h67.82364z" fill="#ffffff" stroke="#ad5816" stroke-width="5.5" stroke-linecap="round"/><path d="M272.05438,174.98536l-46.98397,-1.48784l2.65233,-11.53066l40.92152,0.74391z" fill="#ffffff" stroke="#ad5816" stroke-width="5.5" stroke-linecap="round"/><path d="M235.43242,190.43025c-0.50679,1.99001 -0.2597,4.01207 -0.55768,6.02193c-0.63585,4.28886 -6.15582,3.29693 -6.98477,-0.36497c-0.4812,-2.12571 -0.12023,-9.37611 0.91289,-11.06642c2.54238,-4.15963 5.9003,-0.00885 6.62956,2.8547z" fill="#000000" stroke="none" stroke-width="5.5" stroke-linecap="butt"/><path d="M265.01306,190.23065c-0.53283,2.09229 0.05612,4.77644 -1.68897,6.4866c-5.53238,5.42168 -7.90445,-6.82462 -5.88058,-10.35657c0.89972,-1.57013 1.34152,-3.79543 3.76602,-3.61236c1.10696,0.08359 4.89354,2.20907 3.80352,3.81413z" fill="#000000" stroke="none" stroke-width="5.5" stroke-linecap="butt"/><path d="M254.34374,215.07065c0.06439,-0.04993 0.12875,-0.10007 0.19309,-0.15038zM254.0768,215.27626c0.06546,-0.11162 1.44488,-2.39751 3.86495,-1.06876c2.48019,1.36176 1.093,3.79649 1.093,3.79649l-1.01028,1.32167c-5.4524,4.07647 -10.9183,6.68256 -18.08163,4.62065c-1.23496,-0.35547 -5.2719,-4.5654 -6.00467,-5.28807c0,0 -2.00367,-1.97824 0.0115,-3.94519c2.01518,-1.96695 4.01886,0.01129 4.01886,0.01129c1.36697,1.35121 2.22756,3.57063 4.10512,4.04954c4.81,1.22692 8.46693,-0.79289 12.00315,-3.49765z" fill="#000000" stroke="none" stroke-width="5.5" stroke-linecap="butt"/><path d="M76.38717,327.36242c-3.06318,3.01804 -18.98845,9.49003 -19.96764,0.24121c-0.73474,-6.93982 7.24746,-7.16662 11.77527,-8.49089c0.37723,-0.11033 1.75784,-0.66637 3.14862,-1.03946c-1.73677,-4.75115 -3.52805,-9.6514 -5.19522,-14.21214c0,0 -0.85832,-2.34804 1.48972,-3.20636c2.34804,-0.85832 3.20636,1.48972 3.20636,1.48972c2.31687,6.33807 4.63373,12.67613 6.9506,19.0142l0.23968,0.65567c0,0 0.56643,1.54955 -0.47979,2.5912c0.14027,0.92983 -0.07349,1.87889 -1.16759,2.95687z" fill="#000000" stroke="none" stroke-width="0.5" stroke-linecap="butt"/><path d="M103.60547,315.01189c-1.47136,-0.12136 -2.0378,-1.6709 -2.0378,-1.6709l-0.23968,-0.65567c-2.31687,-6.33806 -4.63373,-12.67613 -6.9506,-19.01419c0,0 -0.85832,-2.34804 1.48972,-3.20636c2.34804,-0.85832 3.20636,1.48972 3.20636,1.48972c1.66717,4.56075 3.45845,9.46099 5.19522,14.21214c1.30353,-0.6118 2.71727,-1.07722 3.07672,-1.2362c4.31443,-1.908 10.56109,-6.88253 14.47519,-1.10491c5.21638,7.69994 -11.12842,13.02419 -15.41585,12.69317c-1.53137,-0.11824 -2.30682,-0.7057 -2.79928,-1.50679z" data-paper-data="{&quot;index&quot;:null}" fill="#000000" stroke="none" stroke-width="0.5" stroke-linecap="butt"/><path d="M21.8105,319.08063l-6.35157,-17.37549l123.66337,-45.2049l6.35157,17.37549z" fill="#60f726" stroke="#41ad1b" stroke-width="5" stroke-linecap="butt"/><path d="M35.25315,294.20322l-1.8135,-112.72959l15.0765,-5.65246l68.74669,87.87123z" fill="#60f726" stroke="#41ad19" stroke-width="5" stroke-linecap="butt"/><path d="M98.72016,245.00611l-62.49991,23.20162l-0.50778,-14.01062l56.03986,-20.48526z" fill="#82ff58" stroke="#41ad19" stroke-width="5" stroke-linecap="round"/><path d="M74.88454,211.84024l-39.27868,12.93861l-1.35622,-10.50632l34.04064,-11.73367z" fill="#82ff58" stroke="#41ad19" stroke-width="5" stroke-linecap="round"/><path d="M66.65671,174.19864c9.50159,11.57985 7.51823,28.91475 7.51823,28.91475c0,0 -17.38848,-1.43976 -26.89007,-13.01961c-9.50159,-11.57985 -7.51823,-28.91475 -7.51823,-28.91475c0,0 17.38848,1.43976 26.89007,13.01961z" fill="#60f726" stroke="#41ad19" stroke-width="5" stroke-linecap="butt"/><path d="M64.23668,192.32858c-2.34804,0.85832 -3.20636,-1.48972 -3.20636,-1.48972l-0.19944,-0.66303c-2.9491,-5.06047 -7.28531,-11.14561 -12.71304,-13.58261c0,0 -2.26723,-1.05339 -1.21385,-3.32063c1.05339,-2.26723 3.32063,-1.21385 3.32063,-1.21385c6.42655,3.06269 11.34596,9.5255 14.91952,15.58809l0.58226,1.4754c0,0 0.85832,2.34804 -1.48972,3.20636z" fill="#96f72b" stroke="none" stroke-width="0.5" stroke-linecap="butt"/><path d="M46.9481,181.4368c-0.34763,-0.95097 0.14148,-2.00371 1.09245,-2.35134c0.95097,-0.34763 2.00371,0.14149 2.35134,1.09246c0.34763,0.95097 -0.14149,2.0037 -1.09247,2.35133c-0.95097,0.34763 -2.0037,-0.14148 -2.35133,-1.09246z" fill="#1e520c" stroke="none" stroke-width="0.5" stroke-linecap="butt"/><path d="M65.46355,184.85431c0.42916,1.17402 -0.74486,1.60318 -0.74486,1.60318l0.11817,-0.09441c-2.80563,2.02317 -5.5021,4.13493 -8.79643,5.39411c0.22454,1.12989 0.43175,2.33452 0.86285,3.46638l0.27466,0.75137c0,0 0.42916,1.17402 -0.74486,1.60318c-1.17402,0.42916 -1.60318,-0.74486 -1.60318,-0.74486l-0.27466,-0.75137c-0.91735,-2.59026 -0.08924,-6.76866 -3.43332,-6.63894c0,0 -1.24949,0.03589 -1.28537,-1.21361c-0.03588,-1.24949 1.21361,-1.28537 1.21361,-1.28537c2.57381,-0.054 3.70235,0.93472 4.32549,2.39138c2.98543,-1.17363 5.44793,-3.13164 7.99084,-4.99419l0.49386,-0.23173c0,0 1.17402,-0.42916 1.60318,0.74486z" fill="#1e520c" stroke="none" stroke-width="0.5" stroke-linecap="butt"/><path d="M55.68714,179.12952c-0.34763,-0.95097 0.14148,-2.0037 1.09246,-2.35133c0.95097,-0.34763 2.0037,0.14148 2.35133,1.09246c0.34763,0.95097 -0.14148,2.0037 -1.09246,2.35133c-0.95097,0.34763 -2.0037,-0.14148 -2.35133,-1.09246z" fill="#1e520c" stroke="none" stroke-width="0.5" stroke-linecap="butt"/><path d="M49.27792,234.10404c0.19354,1.82804 1.01984,3.45535 1.39202,5.23703c0.79421,3.80193 -4.07191,4.63428 -5.88352,1.80247c-1.05163,-1.64385 -2.98416,-7.85545 -2.6506,-9.5902c0.82084,-4.26901 4.87245,-1.78956 6.35606,0.40039z" fill="#000000" stroke="none" stroke-width="0.5" stroke-linecap="butt"/><path d="M73.65775,225.00159c0.20349,1.92199 1.51597,4.00332 0.60026,5.96983c-2.90305,6.23435 -8.6309,-3.35677 -8.04537,-6.94085c0.2603,-1.59331 -0.05933,-3.59976 2.00027,-4.17795c0.94035,-0.26399 4.72302,0.38132 4.31621,2.06151z" fill="#000000" stroke="none" stroke-width="0.5" stroke-linecap="butt"/><path d="M72.48484,249.13166c0.03785,-0.06147 0.0756,-0.12312 0.11327,-0.1849zM72.32755,249.38534c0.01975,-0.11372 0.45618,-2.45437 2.86461,-2.06692c2.46826,0.39707 2.0712,2.86534 2.0712,2.86534l-0.42811,1.41758c-3.25086,5.07794 -6.96526,8.92236 -13.51843,9.35047c-1.12977,0.07381 -5.76062,-2.25033 -6.58843,-2.63727c0,0 -2.26421,-1.05988 -1.20434,-3.32409c1.05988,-2.26421 3.32409,-1.20434 3.32409,-1.20434c1.54521,0.72442 2.93915,2.33255 4.63784,2.16855c4.35181,-0.42011 6.75192,-3.2247 8.84156,-6.56933z" fill="#000000" stroke="none" stroke-width="0.5" stroke-linecap="butt"/><path d="M373.55376,310.76117l-15.88628,-6.13089l-0.18156,-5.72618l4.88719,-2.96338c0,0 6.83393,2.23696 9.62625,3.29847c0.36739,0.13966 1.80383,0.52939 3.13799,1.07115c1.48216,-4.83664 3.01083,-9.82504 4.43358,-14.46785c0,0 0.73249,-2.39028 3.12277,-1.65779c2.39029,0.73249 1.65779,3.12277 1.65779,3.12277c-1.97721,6.45211 -3.95441,12.90419 -5.93162,19.3563l-0.20454,0.66747c0,0 -0.48339,1.57743 -1.94624,1.7767c-0.44925,0.8261 -1.19241,1.45388 -2.71536,1.65323z" fill="#000000" stroke="none" stroke-width="0.5" stroke-linecap="butt"/><path d="M402.7106,317.33762c-1.10003,-0.98466 -0.61665,-2.56209 -0.61665,-2.56209l0.20454,-0.66746c1.97721,-6.45209 3.95442,-12.9042 5.93162,-19.35629c0,0 0.73249,-2.39029 3.12277,-1.6578c2.39029,0.73249 1.65779,3.12277 1.65779,3.12277c-1.42276,4.64281 -2.95143,9.63121 -4.43359,14.46785c1.40862,0.29876 2.81681,0.78075 3.19937,0.87089c2.74918,0.64787 9.37492,2.3805 9.37492,2.3805l2.8344,5.47344l-4.57845,4.95721l-15.37385,-4.13828c0,0 -1.41361,-1.95477 -1.32289,-2.89074z" data-paper-data="{&quot;index&quot;:null}" fill="#000000" stroke="none" stroke-width="0.5" stroke-linecap="butt"/><path d="M337.05638,264.64483l8.99044,-13.97934l49.87599,11.59849l72.44232,23.27049l-5.42041,17.68811l-13.78462,10.71533l-16.00025,-15.42328l-78.83677,-16.55067z" fill="#8c8794" stroke="#59576e" stroke-width="5" stroke-linecap="butt"/><path d="M362.30973,252.77294c0,0 3.993,-5.45662 7.80774,-10.66967c10.46625,-14.30265 58.77249,-80.31561 58.77249,-80.31561l15.43301,4.59057l1.79321,111.55378z" fill="#8c8794" stroke="#59576e" stroke-width="5" stroke-linecap="butt"/><path d="M446.09455,247.00098c0.17413,-0.03804 0.36104,-0.05156 0.55852,-0.04292c0.24093,0.00051 0.48587,0.03612 0.72818,0.11038c0.03472,0.01064 0.06904,0.02197 0.10294,0.03396c2.85813,0.81255 6.99656,4.79767 7.71729,6.91475c1.084,3.18418 -0.84727,7.43127 -1.09417,10.66634c-0.10829,1.41904 1.68705,2.39265 0.60209,4.10938c-0.12986,0.20549 -0.96391,0.4173 -1.22249,0.59995c-1.37091,0.96835 -2.15155,3.86178 -4.36486,5.07841c-1.39018,0.76417 -3.8813,0.89296 -5.97372,0.06231c-1.29451,-0.51389 -1.3303,-1.18191 -1.65753,-2.54387c-0.25642,-1.06728 0.86342,-2.58506 0.69167,-3.64259c-0.32494,-2.00081 -0.08918,-4.52592 -0.05305,-6.54699c0.04289,-2.39941 -1.78487,-1.68086 -0.61038,-3.75057c0.12853,-0.22648 0.48098,-2.03194 0.20619,-2.13696c-0.16971,-0.01535 1.42789,-2.12125 1.25847,-2.17317c-0.16084,-0.04929 0.56076,-2.11165 0.4181,-2.1885c-1.02821,-0.5539 0.50142,-1.66539 0.85668,-2.82467c0.23837,-0.77786 0.82171,-1.35509 1.53081,-1.61527c0.09542,-0.04869 0.19669,-0.08627 0.30526,-0.10998z" fill="#8c8794" stroke="none" stroke-width="0.5" stroke-linecap="butt"/><path d="M441.69691,223.4063c-0.78165,-1.47239 -2.70657,-2.04004 -2.13909,-2.55084c-0.56163,-2.53277 0.98496,-3.79878 0.95587,-6.61848c-0.04008,-3.88641 2.70328,-8.00884 2.43394,-11.84806c-0.24399,-3.47796 -2.89714,-7.38193 -2.98782,-10.84335c-0.1181,-4.50811 -1.22339,-10.34549 0.8106,-14.67161c2.23491,-4.75345 8.88504,-4.44969 13.4287,-4.25181c4.19196,0.60999 8.98132,0.49534 8.19081,6.69618c-0.14495,1.13697 -1.72261,1.5569 -2.32946,2.52924c-0.73675,1.18049 -1.1368,2.59443 -1.25742,3.98072c-0.08515,0.97864 0.94687,1.76197 1.65195,2.11764c2.22404,1.12193 7.14645,2.33637 8.06143,5.08436c0.78492,2.35732 -1.00074,5.51844 -2.25011,7.36148c-0.2319,0.34209 -2.37165,2.54998 -2.42746,3.39342c-0.19248,2.90883 1.98667,6.71616 2.5945,9.55821c0.25977,1.21462 1.0106,2.45013 0.71606,3.6568c-0.32511,1.33193 1.62176,2.58094 0.81498,3.68946c-5.23645,3.56046 -14.21583,2.60413 -19.90178,4.70108l0.07424,-0.01096c0,0 -5.2677,0.23465 -6.43993,-1.97348z" fill="#8c8794" stroke="none" stroke-width="0.5" stroke-linecap="butt"/><path d="M395.55033,201.23106c0.60601,-0.46514 1.6437,-0.90671 2.90654,-0.00686c2.03599,1.45077 3.8329,1.76266 3.8329,1.76266l-1.64106,4.23843c-3.30983,5.93847 -9.6707,10.33989 -12.9358,16.29494c-3.19858,5.83371 -3.6368,15.51251 -10.73676,17.10587c-4.3494,0.74648 -11.64458,-3.97812 -9.43527,-10.39785c1.1518,-3.34688 2.90374,-1.51018 4.31751,-3.61009c1.78315,-2.64855 2.97772,-6.39675 4.48926,-9.41173c2.48618,-4.95905 5.82369,-9.81907 9.90758,-13.53795c1.86243,-1.69598 3.23621,-3.43241 6.10747,-3.49114c1.11948,-0.0229 2.13522,0.63599 3.18764,1.05373z" fill="#8c8794" stroke="none" stroke-width="0.5" stroke-linecap="butt"/><path d="M449.97515,250.33301l-80.38602,-20.51811l8.64638,-11.29571l65.26306,19.99949z" fill="#ffffff" stroke="#59576e" stroke-width="5" stroke-linecap="round"/><path d="M464.2657,217.34059l-59.78077,-19.71401l6.4244,-8.83891l52.21204,16.69734z" fill="#ffffff" stroke="#59576e" stroke-width="5" stroke-linecap="round"/><path d="M402.27192,202.57288c-0.73249,2.39029 -3.12277,1.65779 -3.12277,1.65779l-0.31871,-0.09767c-0.92536,-0.28422 -1.85071,-0.56842 -2.77607,-0.85263c-0.63175,-0.14765 -4.42897,-1.41673 -5.73782,-0.73756c-1.4295,0.74176 -1.92033,2.61322 -3.11499,3.69325c-1.36236,1.23163 -3.06252,2.19314 -4.03632,3.75028c-2.47323,3.95483 -3.37608,8.58383 -5.55429,12.6498c-0.83582,1.56018 -1.53939,3.31801 -2.90366,4.44565c-0.99525,0.82263 -2.45767,0.82928 -3.73177,1.03891c-0.83755,0.1378 -2.54612,-0.33746 -2.49489,0.50982c0.19052,3.15049 3.46854,6.2643 4.87976,8.90468c0,0 2.87781,2.10326 0.66968,3.2755c-2.20812,1.17224 -5.08595,-0.93102 -5.08595,-0.93102c-1.84768,-3.5079 -6.46696,-7.90954 -5.33947,-12.35588c1.15107,-4.53935 3.31665,-3.97437 6.66523,-4.35305c0.50286,-0.05687 1.14706,0.20781 1.51141,-0.14341c2.17581,-2.09735 3.1429,-7.2484 4.27089,-9.9339c1.94117,-4.62144 4.10724,-7.25813 7.74393,-10.51839c1.59066,-1.42602 2.15108,-3.5159 4.27683,-4.50058c3.26161,-1.51085 6.06741,-0.3199 9.26184,0.37266c0.98687,0.30177 1.97374,0.60356 2.96061,0.90533l0.31871,0.09767c0,0 2.39029,0.73249 1.6578,3.12277z" fill="#59576e" stroke="none" stroke-width="0.5" stroke-linecap="butt"/><path d="M442.768,224.46551c0.73249,-2.39029 6.59253,-2.05877 6.59253,-2.05877l0.07019,0.188c4.28359,-0.25796 7.49218,-1.5954 11.58257,-2.55985c1.79411,-0.42303 3.74877,0.52675 5.52969,0.05123c0.29845,-0.07969 -0.4055,-0.48399 -0.50699,-0.77575c-0.4292,-1.23389 -0.70886,-2.51484 -1.07394,-3.7692c-0.91989,-3.16064 -2.08869,-5.9025 -3.43095,-8.90763c-0.37795,-1.61766 -1.48737,-3.22981 -1.13383,-4.85297c0.35129,-1.61284 1.82644,-2.79071 3.04194,-3.90752c0.03775,-0.03468 5.16264,-1.96998 4.75169,-2.83852c-0.42543,-0.89914 -1.90649,-0.56839 -2.85938,-0.85374c-1.24951,-0.37418 -2.53872,-0.64461 -3.73772,-1.15812c-2.71888,-1.16446 -5.91518,-3.02775 -6.76269,-6.22969c-0.79167,-2.99096 2.675,-8.0247 3.31316,-10.87556c0.16143,-0.72116 -1.44739,-0.35073 -2.18619,-0.36862c-4.25556,-0.10303 -7.76033,-0.62536 -11.98465,0.26275c0,0 -2.44917,0.50154 -2.95072,-1.94763c-0.50155,-2.44917 1.94763,-2.95072 1.94763,-2.95072c4.59537,-0.91956 8.65026,-0.79666 13.30604,-0.35426c1.25288,0.11906 2.70044,-0.26532 3.75133,0.42715c5.26221,3.46752 2.1692,8.70371 0.52575,13.18898c-0.2115,0.57722 -0.93766,1.05117 -0.81618,1.65379c0.18949,0.94007 3.40229,2.42958 3.78544,2.58085c2.59743,1.02548 8.55064,1.35994 9.38954,4.97895c0.43602,1.88099 -0.10271,4.02714 -1.08345,5.69039c-0.59328,1.00614 -6.36589,2.09629 -6.54396,3.75588c-0.08028,0.74816 0.62176,1.37047 0.93265,2.0557c1.85404,4.11865 4.57171,9.31779 4.78911,13.87833c0.07588,1.59176 0.36437,3.62068 -0.79481,4.71419c-2.66314,2.51227 -5.35188,0.76302 -8.14373,1.43923c-4.28345,1.03748 -7.82606,2.38075 -12.33047,2.66294l-1.84204,-0.39799c0,0 -5.86005,-0.33151 -5.12756,-2.7218z" fill="#59576e" stroke="none" stroke-width="0.5" stroke-linecap="butt"/><path d="M447.04226,277.40911c-1.17224,-2.20812 1.03589,-3.38037 1.03589,-3.38037l0.51287,-0.06983c1.31255,-1.55122 4.20485,-3.8789 5.02387,-5.67524c0.9484,-2.08013 -0.58633,-5.04839 -0.78547,-6.96816c-0.25973,-2.50377 0.43098,-4.08218 0.7852,-6.4331c0.05921,-0.39302 0.31093,-0.8904 0.05121,-1.19126c-1.72596,-1.99936 -5.98247,-4.23545 -8.08193,-5.73112c0,0 -2.03599,-1.45077 -0.58522,-3.48676c1.45078,-2.03599 3.48676,-0.58522 3.48676,-0.58522c2.37231,1.69078 7.99411,4.89088 9.52913,7.33563c1.95638,3.11585 -0.63251,6.33971 -0.22239,9.48283c0.38639,2.96124 1.7985,6.34206 0.4586,9.45022c-0.96848,2.24658 -4.1927,5.08169 -5.84283,7.03186l-1.98535,1.25641c0,0 -2.20814,1.17223 -3.38037,-1.03589z" fill="#59576e" stroke="none" stroke-width="0.5" stroke-linecap="butt"/><path d="M408.21324,220.03764c-0.9488,1.57448 -1.2719,3.37073 -2.05027,5.01604c-1.66096,3.51093 -6.0435,1.2382 -5.77923,-2.1131c0.1534,-1.94541 2.36077,-8.06475 3.67358,-9.24676c3.23066,-2.90878 4.96521,1.51327 4.82672,4.15482z" fill="#000000" stroke="none" stroke-width="0.5" stroke-linecap="butt"/><path d="M433.14664,227.49126c-0.99755,1.6554 -1.20695,4.10708 -3.12383,5.12259c-6.077,3.21946 -4.85667,-7.88498 -2.22696,-10.38961c1.16904,-1.11343 2.12496,-2.90626 4.11619,-2.12446c0.90915,0.35695 3.53604,3.15416 2.19775,4.24846z" fill="#000000" stroke="none" stroke-width="0.5" stroke-linecap="butt"/><path d="M417.65014,246.02486c0.06727,-0.02618 0.13458,-0.05255 0.20191,-0.07908zM417.37163,246.13223c0.08437,-0.07877 1.84485,-1.68184 3.53153,0.08048c1.72859,1.80609 -0.0775,3.53468 -0.0775,3.53468l-1.19681,0.87205c-5.65652,2.08745 -10.93829,2.91155 -16.42215,-0.70156c-0.94543,-0.6229 -3.23559,-5.27065 -3.66219,-6.07874c0,0 -1.16591,-2.21148 1.04557,-3.37739c2.21148,-1.16592 3.37739,1.04557 3.37739,1.04557c0.79501,1.51011 0.93611,3.6336 2.38963,4.5279c3.72366,2.29109 7.32994,1.50304 11.01453,0.097z" fill="#000000" stroke="none" stroke-width="0.5" stroke-linecap="butt"/></g></g></svg>