<svg version="1.1" xmlns="http://www.w3.org/2000/svg" xmlns:xlink="http://www.w3.org/1999/xlink" width="431.42643" height="314.30931" viewBox="0,0,431.42643,314.30931"><g transform="translate(-24.28682,-22.84537)"><g data-paper-data="{&quot;isPaintingLayer&quot;:true}" fill-rule="nonzero" stroke-linecap="butt" stroke-linejoin="miter" stroke-miterlimit="10" stroke-dasharray="" stroke-dashoffset="0" style="mix-blend-mode: normal"><path d="M26.78682,334.65468v-309.30931h426.42643v309.30931z" fill="#ff9625" stroke="#b3691b" stroke-width="5"/><path d="M284.00003,99.50004v-51h159v51z" fill="#da8021" stroke="#8f5415" stroke-width="5"/><path d="M283.00003,262.50005v-151h159v151z" fill="#da8021" stroke="#8f5415" stroke-width="5"/><path d="M283.00003,324.50005v-52h159v52z" fill="#da8021" stroke="#8f5415" stroke-width="5"/><path d="M64.00003,283.50005v-202h183v202z" fill="#da8021" stroke="#8f5415" stroke-width="5"/><text transform="translate(289.00003,81.48829) scale(0.55522,0.55522)" font-size="40" xml:space="preserve" fill="#ffffff" fill-rule="nonzero" stroke="none" stroke-width="1" stroke-linecap="butt" stroke-linejoin="miter" stroke-miterlimit="10" stroke-dasharray="" stroke-dashoffset="0" font-family="Pixel" font-weight="normal" text-anchor="start" style="mix-blend-mode: normal"><tspan x="0" dy="0">Lollipop Cone</tspan></text><text transform="translate(336.00003,136.75001) scale(0.60834,0.60834)" font-size="40" xml:space="preserve" fill="#ffffff" fill-rule="nonzero" stroke="none" stroke-width="1" stroke-linecap="butt" stroke-linejoin="miter" stroke-miterlimit="10" stroke-dasharray="" stroke-dashoffset="0" font-family="Pixel" font-weight="normal" text-anchor="start" style="mix-blend-mode: normal"><tspan x="0" dy="0">Hint:</tspan></text><path d="M311.4808,317.00005v-33.5h36.07692v33.5z" fill="#faff00" stroke="none" stroke-width="0"/><text transform="translate(355.51926,306.50005) scale(0.5,0.5)" font-size="40" xml:space="preserve" fill="#ffffff" fill-rule="nonzero" stroke="none" stroke-width="1" stroke-linecap="butt" stroke-linejoin="miter" stroke-miterlimit="10" stroke-dasharray="" stroke-dashoffset="0" font-family="Pixel" font-weight="normal" text-anchor="start" style="mix-blend-mode: normal"><tspan x="0" dy="0">medium</tspan></text><text transform="translate(294.58333,163.84453) scale(0.3947,0.3947)" font-size="40" xml:space="preserve" fill="#ffffff" fill-rule="nonzero" stroke="none" stroke-width="1" stroke-linecap="butt" stroke-linejoin="miter" stroke-miterlimit="10" stroke-dasharray="" stroke-dashoffset="0" font-family="Pixel" font-weight="normal" text-anchor="start" style="mix-blend-mode: normal"><tspan x="0" dy="0">In The Sugarland</tspan></text><path d="M113.33335,217.70571l37,-106.5l16.10073,-0.13269l34.39927,106.1327z" fill="#ba70ff" stroke="#8d55c1" stroke-width="5"/><path d="M113.50001,218.125l11.41667,-36.25l65.08333,-0.91667l10.5,36.41667z" fill="#a166d9" stroke="#8752ba" stroke-width="5"/><path d="M92.16669,236.45571v-18.5h131.66667v18.5z" fill="#d8d8d8" stroke="#adadad" stroke-width="5"/><path d="M108.00003,181.91667v-17.16667h97.83333v17.16667z" fill="#ba70ff" stroke="#8d55c1" stroke-width="5"/><path d="M157.125,170.875c0,2.5 -2.5,2.5 -2.5,2.5h-0.25c-3.52724,-0.0035 -7.03172,-0.33245 -10.54619,-0.61298c0.00301,0.10541 0.00453,0.21168 0.00453,0.31868c0,1.28009 0.11517,3.57889 -0.24734,4.81653c-0.4586,1.5657 -1.48152,1.93347 -2.25266,1.93347c-0.96246,0 -2.79788,0.79567 -3.21571,-1.31998c-0.18158,-0.91941 0.71571,-4.55168 0.71571,-5.43002c0,-2.6173 0.91203,-4.78728 2.1051,-5.18487c0.67828,-0.31351 1.36468,-0.26448 1.36468,-0.26448c4.02559,0.28755 8.03731,0.748 12.07188,0.74364h0.25c0,0 2.5,0 2.5,2.5z" fill="#6f4398" stroke="none" stroke-width="0.5"/><path d="M136.78337,261.48071c-2.17317,0 -7.57909,0.70177 -9.36803,-0.26393c-5.08484,-2.74486 -3.5529,-8.99301 1.24093,-10.65614c1.15941,-0.40223 2.87017,-0.51639 4.68048,-0.45925c2.61161,0.08244 5.43037,0.52137 7.09974,0.96614c0.53079,0.14142 1.33387,0.36031 2.03426,0.64232c-0.09474,-0.48687 -0.13054,-0.99212 -0.17521,-1.4828c-0.33981,-3.73294 0.48783,-7.70537 0.48783,-11.49635c0,0 0,-2.5 2.5,-2.5c2.5,0 2.5,2.5 2.5,2.5c0,3.08056 0.39582,5.96242 0.05926,8.99635c-0.16666,1.50243 0.0234,2.99863 -0.07143,4.50731c-0.10616,1.68891 0.36902,3.94883 -0.97035,4.98311c-0.1823,0.14077 -5.80367,4.1495 -10.01749,4.26323z" fill="#8b8b8b" stroke="none" stroke-width="0.5"/><path d="M167.23682,257.41748c-1.33937,-1.03428 -0.86419,-3.2942 -0.97035,-4.98311c-0.09482,-1.50868 0.09524,-3.00488 -0.07143,-4.50731c-0.33656,-3.03393 0.05926,-5.91579 0.05926,-8.99634c0,0 0,-2.5 2.5,-2.5c2.5,0 2.5,2.5 2.5,2.5c0,3.79098 0.82764,7.7634 0.48783,11.49634c-0.04467,0.49068 -0.08046,0.99592 -0.17521,1.4828c0.70039,-0.28202 1.50347,-0.5009 2.03426,-0.64232c2.82653,-0.75308 8.94819,-1.48941 11.78022,-0.50689c4.79383,1.66313 6.32577,7.91128 1.24093,10.65614c-1.78895,0.9657 -7.19486,0.26393 -9.36803,0.26393c-4.21382,-0.11373 -9.83519,-4.12247 -10.01749,-4.26324z" data-paper-data="{&quot;index&quot;:null}" fill="#8b8b8b" stroke="none" stroke-width="0.5"/><path d="M156.26068,127.78662c3.65363,0.50552 4.89448,6.42074 2.7715,13.21203c-2.12298,6.79128 -6.80585,11.88691 -10.45948,11.38139c-3.65363,-0.50552 -4.89448,-6.42074 -2.7715,-13.21203c2.12298,-6.79128 6.80585,-11.88691 10.45948,-11.38139z" fill="#d19fff" stroke="#adadad" stroke-width="0"/><path d="M180.86107,204.99303c-1.11804,2.23607 -3.35411,1.11804 -3.35411,1.11804l-1.05094,-0.57724c-10.87957,-3.02312 -21.74753,-5.40883 -33.08103,-5.40883c0,0 -2.5,0 -2.5,-2.5c0,-2.5 2.5,-2.5 2.5,-2.5c11.79028,0 23.10023,2.44946 34.41898,5.59117l1.94906,0.92276c0,0 2.23607,1.11803 1.11803,3.35411z" fill="#6f4398" stroke="none" stroke-width="0.5"/><path d="M181.95834,171.54167c0,2.5 -2.5,2.5 -2.5,2.5h-0.25c-3.52724,-0.0035 -7.03172,-0.33245 -10.54619,-0.61298c0.00301,0.10541 0.00453,0.21168 0.00453,0.31868c0,1.28009 0.11517,3.57889 -0.24734,4.81653c-0.4586,1.5657 -1.48152,1.93347 -2.25266,1.93347c-0.96246,0 -2.79788,0.79567 -3.21571,-1.31998c-0.18158,-0.91941 0.71571,-4.55168 0.71571,-5.43002c0,-2.6173 0.91203,-4.78728 2.10509,-5.18487c0.67828,-0.31351 1.36468,-0.26448 1.36468,-0.26448c4.02559,0.28755 8.03731,0.748 12.07188,0.74364h0.25c0,0 2.5,0 2.5,2.5z" fill="#6f4398" stroke="none" stroke-width="0.5"/></g></g></svg>