<svg version="1.1" xmlns="http://www.w3.org/2000/svg" xmlns:xlink="http://www.w3.org/1999/xlink" width="152.39981" height="154.84309" viewBox="0,0,152.39981,154.84309"><g transform="translate(-163.8001,-103.3658)"><g data-paper-data="{&quot;isPaintingLayer&quot;:true}" stroke-miterlimit="10" stroke-dasharray="" stroke-dashoffset="0" style="mix-blend-mode: normal"><path d="M234.89769,207.38103c1.51676,1.56531 4.69953,5.00658 -3.56264,10.88796c-8.26218,5.88138 -24.69301,1.92313 -26.53254,1.27759c-7.20889,-2.27155 -15.94668,-5.3379 -24.47452,-11.9462c-24.82516,-19.04226 -14.48428,-49.24532 -3.82199,-50.92706c10.43235,-1.76243 7.8052,18.23464 16.49802,33.93992c3.74335,6.99536 9.76611,11.175 14.88125,14.26135c7.33386,4.12322 25.34642,0.6305 27.01243,2.50645z" fill="#ffab19" fill-rule="evenodd" stroke="#001026" stroke-width="2.4" stroke-linecap="round" stroke-linejoin="round"/><path d="M184.40829,168.7438c1.50035,7.49952 5.5622,18.7388 5.5622,18.7388c0,0 -7.78161,-5.05513 -13.98217,-2.84068c-4.95802,1.61746 -5.81351,6.99895 -5.91848,8.76993c-1.94023,-4.03826 -4.16682,-9.4683 -3.64197,-18.3232c0.52485,-8.8549 6.21339,-17.70552 11.29638,-17.4713c4.92161,0.6941 4.86092,4.54669 6.68404,11.12645z" fill="#ffffff" fill-rule="evenodd" stroke="none" stroke-width="1" stroke-linecap="butt" stroke-linejoin="miter"/><path d="M183.33324,229.9557v-18.5h131.66667v18.5z" fill="#ffab19" fill-rule="nonzero" stroke="#001026" stroke-width="2.4" stroke-linecap="butt" stroke-linejoin="miter"/><path d="M204.49991,211.2057l37,-106.5l16.10073,-0.13269l34.39927,106.1327z" fill="#ffab19" fill-rule="nonzero" stroke="#001026" stroke-width="2.4" stroke-linecap="butt" stroke-linejoin="miter"/><path d="M282.24987,185.53904l-67.91666,1.58333l4.33333,-13.33333h59.66667z" fill="#ffffff" fill-rule="nonzero" stroke="#001026" stroke-width="2.4" stroke-linecap="round" stroke-linejoin="miter"/><path d="M269.99991,147.4557l-41.33334,-1.33334l2.33334,-10.33333l36,0.66667z" fill="#ffffff" fill-rule="nonzero" stroke="#001026" stroke-width="2.4" stroke-linecap="round" stroke-linejoin="miter"/><path d="M234.03213,189.6753c-0.07223,-0.50311 0.3767,-0.95267 0.89785,-0.89912c2.51615,0.53732 9.59697,1.57457 17.21575,0.99416c6.84607,-0.59783 10.81671,-1.55303 12.64917,-2.20124c0.61082,-0.21607 1.20422,0.34058 1.04296,1.00557c-0.6444,3.55847 -4.06949,13.67788 -17.38429,14.81937c-11.62618,0.38557 -13.9139,-7.50155 -14.42144,-13.71874z" fill="#ffffff" fill-rule="evenodd" stroke="#001026" stroke-width="2.4" stroke-linecap="round" stroke-linejoin="round"/><g fill-rule="evenodd" stroke-width="2.4"><path d="M242.76653,160.13332c3,4.4 2.8,9.8 0.1,11.7c-3.3,1.9 -7.7,0.5 -10.7,-3.9c-3.1,-4.4 -3.3,-10.1 -0.2,-12.3c3.1,-2.3 7.8,0.1 10.8,4.5z" fill="#ffffff" stroke="#001026" stroke-linecap="round" stroke-linejoin="round"/><path d="M242.16653,165.93332c0,1.1 -0.8,2 -1.8,2c-1,0 -1.8,-0.9 -1.8,-2c0,-1.1 0.8,-2 1.8,-2c1,0.1 1.8,0.9 1.8,2" fill="#001026" stroke="none" stroke-linecap="butt" stroke-linejoin="miter"/></g><g fill-rule="evenodd" stroke-width="2.4"><path d="M265.56654,159.99999c2.9,4.5 3,9.6 0.2,11.4c-2.8,1.8 -7.4,-0.3 -10.4,-4.8c-2.9,-4.5 -3,-9.6 -0.2,-11.4c2.8,-1.9 7.5,0.3 10.4,4.8z" fill="#ffffff" stroke="#001026" stroke-linecap="round" stroke-linejoin="round"/><path d="M265.16654,165.69999c0,1.1 -0.8,2 -1.8,2c-1,0 -1.8,-0.9 -1.8,-2c0,-1.1 0.8,-2 1.8,-2c1,0 1.8,0.9 1.8,2" fill="#001026" stroke="none" stroke-linecap="butt" stroke-linejoin="miter"/></g><path d="M249.26551,177.39434c2.1,0 4.3,0.2 4.4,0.9c0.1,1.4 -1.4,4.2 -3,4.3c-1.8,0.2 -6,-2.3 -6,-3.9c-0.1,-1.2 2.6,-1.3 4.6,-1.3z" fill="#001026" fill-rule="evenodd" stroke="#001026" stroke-width="2.4" stroke-linecap="round" stroke-linejoin="round"/><path d="M204.09987,168.19999c0,0 9.70789,3.16071 13.65877,6.66006" fill="none" fill-rule="evenodd" stroke="#001026" stroke-width="2.4" stroke-linecap="round" stroke-linejoin="round"/><path d="M215.09729,179.81094c-4.85394,1.919 -13.20724,0.67729 -13.20724,0.67729" fill="none" fill-rule="evenodd" stroke="#001026" stroke-width="2.4" stroke-linecap="round" stroke-linejoin="round"/><path d="M280.89005,177.19338c3.95088,-3.49936 13.65877,-6.66006 13.65877,-6.66006" data-paper-data="{&quot;index&quot;:null}" fill="none" fill-rule="evenodd" stroke="#001026" stroke-width="2.4" stroke-linecap="round" stroke-linejoin="round"/><path d="M296.75864,182.82156c0,0 -8.3533,1.24171 -13.20724,-0.67729" data-paper-data="{&quot;index&quot;:null}" fill="none" fill-rule="evenodd" stroke="#001026" stroke-width="2.4" stroke-linecap="round" stroke-linejoin="round"/><path d="M274.98195,228.73018c0,0 -10.66612,0.17002 -22.89117,0.19243c-14.99227,0.0822 -28.82837,0.38114 -32.72037,-3.24136c-1.99977,-2.97847 -7.48544,-6.46582 21.81515,-7.48165c27.72429,-1.02206 29.70669,2.0978 29.70669,2.0978c8.48199,4.77229 4.0897,8.43278 4.0897,8.43278z" fill="#ffffff" fill-rule="evenodd" stroke="none" stroke-width="1" stroke-linecap="butt" stroke-linejoin="miter"/><path d="M232.23438,257.00802c-3.91316,1.78291 -21.09244,2.39391 -18.83673,-6.62891c1.69256,-6.77024 9.26743,-4.24274 13.97468,-3.93199c0.39218,0.02589 1.87977,-0.02235 3.31411,0.10473c0,-5.05864 0,-10.27602 0,-15.13193c0,0 0,-2.5 2.5,-2.5c2.5,0 2.5,2.5 2.5,2.5c0,6.74826 0,13.49651 0,20.24477v0.6981c0,0 0,1.64983 -1.34026,2.26897c-0.18749,0.92147 -0.7141,1.73945 -2.1118,2.37627z" fill="#001026" fill-rule="nonzero" stroke="none" stroke-width="0.5" stroke-linecap="butt" stroke-linejoin="miter"/><path d="M262.03851,254.75304c-1.34026,-0.61914 -1.34027,-2.26897 -1.34027,-2.26897v-0.6981c0,-6.74825 0,-13.49651 0,-20.24476c0,0 0,-2.5 2.5,-2.5c2.5,0 2.5,2.5 2.5,2.5c0,4.85591 0,10.07329 0,15.13193c1.43434,-0.12707 2.92194,-0.07883 3.31412,-0.10473c4.70725,-0.31076 12.28211,-2.83826 13.97467,3.93199c2.2557,9.02283 -14.92356,8.41182 -18.83673,6.62892c-1.39769,-0.63682 -1.92431,-1.4548 -2.1118,-2.37627z" data-paper-data="{&quot;index&quot;:null}" fill="#001026" fill-rule="nonzero" stroke="none" stroke-width="0.5" stroke-linecap="butt" stroke-linejoin="miter"/></g></g></svg>