<svg version="1.1" xmlns="http://www.w3.org/2000/svg" xmlns:xlink="http://www.w3.org/1999/xlink" width="136.66667" height="155.61468" viewBox="0,0,136.66667,155.61468"><g transform="translate(-171.6667,-102.05799)"><g data-paper-data="{&quot;isPaintingLayer&quot;:true}" fill-rule="nonzero" stroke-linejoin="miter" stroke-miterlimit="10" stroke-dasharray="" stroke-dashoffset="0" style="mix-blend-mode: normal"><path d="M222.5826,256.47182c-3.91316,1.78291 -21.09244,2.39391 -18.83673,-6.62891c1.69256,-6.77024 9.26743,-4.24274 13.97468,-3.93199c0.39218,0.02589 1.87977,-0.02235 3.31411,0.10473c0,-5.05864 0,-10.27602 0,-15.13193c0,0 0,-2.5 2.5,-2.5c2.5,0 2.5,2.5 2.5,2.5c0,6.74826 0,13.49651 0,20.24477v0.6981c0,0 0,1.64983 -1.34026,2.26897c-0.18749,0.92147 -0.7141,1.73945 -2.1118,2.37627z" fill="#000000" stroke="none" stroke-width="0.5" stroke-linecap="butt"/><path d="M252.38673,254.21683c-1.34026,-0.61914 -1.34027,-2.26897 -1.34027,-2.26897v-0.6981c0,-6.74825 0,-13.49651 0,-20.24476c0,0 0,-2.5 2.5,-2.5c2.5,0 2.5,2.5 2.5,2.5c0,4.85591 0,10.07329 0,15.13193c1.43434,-0.12707 2.92194,-0.07883 3.31412,-0.10473c4.70725,-0.31076 12.28211,-2.83826 13.97467,3.93199c2.2557,9.02283 -14.92356,8.41182 -18.83673,6.62892c-1.39769,-0.63682 -1.92431,-1.4548 -2.1118,-2.37627z" data-paper-data="{&quot;index&quot;:null}" fill="#000000" stroke="none" stroke-width="0.5" stroke-linecap="butt"/><path d="M174.16671,229.95571v-18.5h131.66667v18.5z" fill="#ff8221" stroke="#ad5816" stroke-width="5" stroke-linecap="butt"/><path d="M195.33338,211.20571l37,-106.5l16.10073,-0.13269l34.39927,106.1327z" fill="#ff8221" stroke="#ad5816" stroke-width="5" stroke-linecap="butt"/><path d="M271.83333,186.78905l-66.66666,0.33333l4.33333,-13.33333h59.66667z" fill="#ffffff" stroke="#ad5816" stroke-width="5" stroke-linecap="round"/><path d="M260.83338,147.45571l-41.33334,-1.33334l2.33334,-10.33333l36,0.66667z" fill="#ffffff" stroke="#ad5816" stroke-width="5" stroke-linecap="round"/><path d="M221.83338,165.58071c0,-1.38071 1.11929,-2.5 2.5,-2.5c1.38071,0 2.5,1.11929 2.5,2.5c0,1.38071 -1.11929,2.5 -2.5,2.5c-1.38071,0 -2.5,-1.11929 -2.5,-2.5z" fill="#522a0b" stroke="none" stroke-width="0.5" stroke-linecap="butt"/><path d="M242.83336,165.08071c0,-1.38071 1.11929,-2.5 2.5,-2.5c1.38071,0 2.5,1.11929 2.5,2.5c0,1.38071 -1.11929,2.5 -2.5,2.5c-1.38071,0 -2.5,-1.11929 -2.5,-2.5z" fill="#522a0b" stroke="none" stroke-width="0.5" stroke-linecap="butt"/><path d="M243.83336,164.5c0,2.5 -2.5,2.5 -2.5,2.5l-0.39366,-0.07465c-4.25256,1.05606 -7.57124,0.87162 -11.88242,0.39269c0,0 -2.48471,-0.27607 -2.20863,-2.76078c0.27608,-2.48471 2.76078,-2.20863 2.76078,-2.20863c3.77058,0.41903 6.41897,0.65755 10.11758,-0.27398l1.60634,-0.07464c0,0 2.5,0 2.5,2.5z" fill="#0d0d2a" stroke="#01041e" stroke-width="2.5" stroke-linecap="butt"/><path d="M229.6667,163.83334c0,5.15466 -4.99948,9.33333 -11.16666,9.33333c-6.16718,0 -11.16666,-4.17867 -11.16666,-9.33333c0,-5.15466 4.99948,-9.33333 11.16666,-9.33333c6.16718,0 11.16666,4.17867 11.16666,9.33333z" fill="#0d0d2a" stroke="#01041e" stroke-width="2.5" stroke-linecap="butt"/><path d="M262.33333,163.83334c0,5.15466 -4.99949,9.33333 -11.16667,9.33333c-6.16718,0 -11.16666,-4.17867 -11.16666,-9.33333c0,-5.15466 4.99948,-9.33333 11.16666,-9.33333c6.16718,0 11.16667,4.17867 11.16667,9.33333z" fill="#0d0d2a" stroke="#01041e" stroke-width="2.5" stroke-linecap="butt"/><path d="M221.14193,159.16667c0,1.25 -1.25,1.25 -1.25,1.25h-1c-2.79565,-0.02218 -4.23264,1.41707 -6.11612,3.30055c0,0 -0.88388,0.88388 -1.76777,0c-0.88388,-0.88388 0,-1.76776 0,-1.76776c2.37855,-2.37855 4.38983,-4.01076 7.88388,-4.03278h1c0,0 1.25,0 1.25,1.25z" fill="#8cb1de" stroke="none" stroke-width="0.5" stroke-linecap="butt"/><path d="M255.14193,160.16667c0,1.25 -1.25,1.25 -1.25,1.25l-1.24515,-0.02428c-2.43154,-0.49607 -3.68592,-0.40398 -5.67152,1.10761c0,0 -1,0.75 -1.75,-0.25c-0.75,-1 0.25,-1.75 0.25,-1.75c2.57769,-1.90963 4.53376,-2.17382 7.66181,-1.55906l0.75485,-0.02427c0,0 1.25,0 1.25,1.25z" fill="#8cb1de" stroke="none" stroke-width="0.5" stroke-linecap="butt"/><path d="M245.77631,181.6565c0.05665,-0.04474 0.11327,-0.08968 0.16987,-0.13477zM245.54148,181.84076c0.05759,-0.10003 1.27111,-2.14856 3.40012,-0.95778c2.1819,1.22036 0.96155,3.40227 0.96155,3.40227l-0.88878,1.18443c-4.79666,3.65317 -9.60518,5.98865 -15.907,4.14085c-1.08644,-0.31856 -4.63786,-4.09133 -5.28251,-4.73896c0,0 -1.7627,-1.77282 0.01012,-3.53552c1.77282,-1.7627 3.53552,0.01012 3.53552,0.01012c1.20257,1.2109 1.95966,3.19986 3.61141,3.62904c4.23152,1.09952 7.44864,-0.71056 10.55957,-3.13446z" fill="#000000" stroke="none" stroke-width="0.5" stroke-linecap="butt"/></g></g></svg>