<svg version="1.1" xmlns="http://www.w3.org/2000/svg" xmlns:xlink="http://www.w3.org/1999/xlink" width="431.42643" height="314.30931" viewBox="0,0,431.42643,314.30931"><defs><linearGradient x1="155.93281" y1="205.59862" x2="155.93281" y2="242.09862" gradientUnits="userSpaceOnUse" id="color-1"><stop offset="0" stop-color="#0e7900"/><stop offset="1" stop-color="#0e7900" stop-opacity="0"/></linearGradient><linearGradient x1="155.93281" y1="205.59862" x2="155.93281" y2="242.09862" gradientUnits="userSpaceOnUse" id="color-2"><stop offset="0" stop-color="#000000"/><stop offset="1" stop-color="#ffffff"/></linearGradient><linearGradient x1="155.04767" y1="101.71593" x2="155.04767" y2="224.19119" gradientUnits="userSpaceOnUse" id="color-3"><stop offset="0" stop-color="#0e7900"/><stop offset="1" stop-color="#0e7900" stop-opacity="0"/></linearGradient><linearGradient x1="156.631" y1="214.59862" x2="156.631" y2="233.09862" gradientUnits="userSpaceOnUse" id="color-4"><stop offset="0" stop-color="#000000"/><stop offset="1" stop-color="#0b5a00"/></linearGradient><linearGradient x1="156.04767" y1="106.71593" x2="156.04767" y2="213.34862" gradientUnits="userSpaceOnUse" id="color-5"><stop offset="0" stop-color="#063300"/><stop offset="1" stop-color="#000000"/></linearGradient><linearGradient x1="156.04767" y1="106.71593" x2="156.04767" y2="213.34862" gradientUnits="userSpaceOnUse" id="color-6"><stop offset="0" stop-color="#0b5a00"/><stop offset="1" stop-color="#000000"/></linearGradient><linearGradient x1="177.95063" y1="180.009" x2="171.34629" y2="193.75808" gradientTransform="translate(-653.23761,-275.86248) rotate(-26.49269) scale(3.07726,3.00413) skewX(-0.35696)" gradientUnits="userSpaceOnUse" id="color-7"><stop offset="0" stop-color="#1eff00"/><stop offset="1" stop-color="#005d08"/></linearGradient><linearGradient x1="130.75285" y1="128.57896" x2="136.84244" y2="150.83593" gradientTransform="translate(-109.3715,-351.66592) rotate(15.3016) scale(2,2)" gradientUnits="userSpaceOnUse" id="color-8"><stop offset="0" stop-color="#1eff00"/><stop offset="1" stop-color="#005d08"/></linearGradient><linearGradient x1="128.92881" y1="199.81256" x2="118.54441" y2="215.58285" gradientTransform="translate(-456.7545,-269.18751) rotate(-33.36401) scale(2.44409,2.44409)" gradientUnits="userSpaceOnUse" id="color-9"><stop offset="0" stop-color="#1eff00"/><stop offset="1" stop-color="#005d08"/></linearGradient><linearGradient x1="196.69507" y1="229.09586" x2="202.75792" y2="246.97825" gradientTransform="translate(-200.49408,-719.25383) rotate(18.72899) scale(2.44409,2.44409)" gradientUnits="userSpaceOnUse" id="color-10"><stop offset="0" stop-color="#1eff00"/><stop offset="1" stop-color="#005d08"/></linearGradient><linearGradient x1="179.88472" y1="211.88355" x2="176.83597" y2="220.87585" gradientTransform="translate(1233.71863,-729.21157) rotate(-161.27135) scale(4.86053,-4.86053)" gradientUnits="userSpaceOnUse" id="color-11"><stop offset="0" stop-color="#1eff00"/><stop offset="1" stop-color="#005d08"/></linearGradient><linearGradient x1="108.50126" y1="229.55976" x2="111.55304" y2="238.5512" gradientTransform="translate(215.79223,-1260.61946) rotate(161.25331) scale(4.86026,-4.86026)" gradientUnits="userSpaceOnUse" id="color-12"><stop offset="0" stop-color="#1eff00"/><stop offset="1" stop-color="#005d08"/></linearGradient></defs><g transform="translate(-24.28678,-22.84534)"><g data-paper-data="{&quot;isPaintingLayer&quot;:true}" fill-rule="nonzero" stroke-linejoin="miter" stroke-miterlimit="10" stroke-dasharray="" stroke-dashoffset="0" style="mix-blend-mode: normal"><path d="M26.78679,334.65466v-309.30931h426.42643v309.30931z" fill="#ff9625" stroke="#b3691b" stroke-width="5" stroke-linecap="butt"/><path d="M284.00005,99.50009v-51h159v51z" fill="#da8021" stroke="#8f5415" stroke-width="5" stroke-linecap="butt"/><path d="M283.00005,262.50005v-151h159v151z" fill="#da8021" stroke="#8f5415" stroke-width="5" stroke-linecap="butt"/><path d="M283.00005,324.50005v-52h159v52z" fill="#da8021" stroke="#8f5415" stroke-width="5" stroke-linecap="butt"/><path d="M64.00008,283.50005v-202h183v202z" fill="#da8021" stroke="#8f5415" stroke-width="5" stroke-linecap="butt"/><text transform="translate(293.50005,70.67335) scale(0.44926,0.44926)" font-size="40" xml:space="preserve" fill="#ffffff" fill-rule="nonzero" stroke="none" stroke-width="1" stroke-linecap="butt" stroke-linejoin="miter" stroke-miterlimit="10" stroke-dasharray="" stroke-dashoffset="0" font-family="Pixel" font-weight="normal" text-anchor="start" style="mix-blend-mode: normal"><tspan x="0" dy="0">Binary System</tspan><tspan x="0" dy="48px">           Cone</tspan></text><text transform="translate(336.00011,136.75) scale(0.60834,0.60834)" font-size="40" xml:space="preserve" fill="#ffffff" fill-rule="nonzero" stroke="none" stroke-width="1" stroke-linecap="butt" stroke-linejoin="miter" stroke-miterlimit="10" stroke-dasharray="" stroke-dashoffset="0" font-family="Pixel" font-weight="normal" text-anchor="start" style="mix-blend-mode: normal"><tspan x="0" dy="0">Hint:</tspan></text><text transform="translate(286.58339,156.35349) scale(0.35071,0.3255)" font-size="40" xml:space="preserve" fill="#ffffff" fill-rule="nonzero" stroke="none" stroke-width="1" stroke-linecap="butt" stroke-linejoin="miter" stroke-miterlimit="10" stroke-dasharray="" stroke-dashoffset="0" font-family="Pixel" font-weight="normal" text-anchor="start" style="mix-blend-mode: normal"><tspan x="0" dy="0">00110110 00110001</tspan><tspan x="0" dy="48px"> 00110001 00110101</tspan><tspan x="0" dy="48px"> 00110000 00110000</tspan><tspan x="0" dy="48px"> 00110111</tspan></text><path d="" data-paper-data="{&quot;index&quot;:null}" fill="#fff600" stroke="#ada700" stroke-width="5" stroke-linecap="butt"/><path d="" data-paper-data="{&quot;index&quot;:null}" fill="#fff600" stroke="#ada700" stroke-width="5" stroke-linecap="butt"/><path d="" data-paper-data="{&quot;index&quot;:null}" fill="#ffffff" stroke="#ada700" stroke-width="5" stroke-linecap="round"/><path d="" data-paper-data="{&quot;index&quot;:null}" fill="#ffffff" stroke="#ada700" stroke-width="5" stroke-linecap="round"/><path d="" fill="#68650e" stroke="none" stroke-width="0.5" stroke-linecap="butt"/><path d="" fill="#68650e" stroke="none" stroke-width="0.5" stroke-linecap="butt"/><path d="" fill="#68650e" stroke="none" stroke-width="0.5" stroke-linecap="butt"/><path d="" fill="#68650e" stroke="none" stroke-width="0.5" stroke-linecap="butt"/><path d="" data-paper-data="{&quot;index&quot;:null}" fill="#68650e" stroke="none" stroke-width="0.5" stroke-linecap="butt"/><text transform="translate(298.75002,233.44257) scale(0.44749,0.44749)" font-size="40" xml:space="preserve" fill="#ffffff" fill-rule="nonzero" stroke="none" stroke-width="1" stroke-linecap="butt" stroke-linejoin="miter" stroke-miterlimit="10" stroke-dasharray="" stroke-dashoffset="0" font-family="Pixel" font-weight="normal" text-anchor="start" style="mix-blend-mode: normal"><tspan x="0" dy="0">translate it</tspan></text><path d="M311.07088,317.35003v-33.5h36.07692v33.5z" fill="#0021ff" stroke="none" stroke-width="0" stroke-linecap="butt"/><text transform="translate(354.29586,306.85003) scale(0.5,0.5)" font-size="40" xml:space="preserve" fill="#ffffff" fill-rule="nonzero" stroke="none" stroke-width="1" stroke-linecap="butt" stroke-linejoin="miter" stroke-miterlimit="10" stroke-dasharray="" stroke-dashoffset="0" font-family="Pixel" font-weight="normal" text-anchor="start" style="mix-blend-mode: normal"><tspan x="0" dy="0">insane</tspan></text><text transform="translate(333.41668,247.72599) scale(0.1971,0.1971)" font-size="40" xml:space="preserve" fill="#ffffff" fill-rule="nonzero" stroke="none" stroke-width="1" stroke-linecap="butt" stroke-linejoin="miter" stroke-miterlimit="10" stroke-dasharray="" stroke-dashoffset="0" font-family="Pixel" font-weight="normal" text-anchor="start" style="mix-blend-mode: normal"><tspan x="0" dy="0">(its a code)</tspan></text><path d="M82.131,242.09862v-36.5h147.60361v36.5z" fill="url(#color-1)" stroke="url(#color-2)" stroke-width="0" stroke-linecap="butt"/><path d="M98.29767,224.19119l47.99428,-122.32285l20.88495,-0.15241l44.62076,121.90099z" fill="url(#color-3)" stroke="none" stroke-width="5" stroke-linecap="butt"/><path d="M90.79767,233.09862v-18.5h131.66667v18.5z" fill="#000000" stroke="url(#color-4)" stroke-width="5" stroke-linecap="butt"/><path d="M112.29767,213.34862l37,-106.5l16.10073,-0.13269l34.39927,106.1327z" fill="url(#color-5)" stroke="url(#color-6)" stroke-width="5" stroke-linecap="butt"/><text transform="translate(151.11457,179.1842) rotate(26.97323) scale(0.32738,0.33042) skewX(1.32829)" font-size="40" xml:space="preserve" fill="url(#color-7)" fill-rule="nonzero" stroke="none" stroke-width="1" stroke-linecap="butt" stroke-linejoin="miter" stroke-miterlimit="10" stroke-dasharray="" stroke-dashoffset="0" font-family="Pixel" font-weight="normal" text-anchor="start" style="mix-blend-mode: normal"><tspan x="0" dy="0">1010011</tspan></text><path d="M135.74766,257.12361c-2.17317,0 -7.57909,0.70177 -9.36803,-0.26393c-5.08484,-2.74486 -3.5529,-8.99301 1.24093,-10.65614c1.15941,-0.40223 2.87017,-0.51639 4.68048,-0.45925c2.61161,0.08244 5.43037,0.52137 7.09974,0.96614c0.53079,0.14142 1.90372,-0.3498 1.85905,-0.84048c-0.33981,-3.73294 0.48783,-7.70537 0.48783,-11.49635l2.3,-0.5l2.7,0.5c0,3.08056 0.39582,5.96242 0.05926,8.99635c-0.16666,1.50243 0.0234,2.99863 -0.07143,4.50731c-0.10616,1.68891 0.36902,3.94883 -0.97035,4.98311c-0.1823,0.14077 -5.80367,4.1495 -10.01749,4.26323z" fill="#ffffff" stroke="#0b5a00" stroke-width="3.5" stroke-linecap="butt"/><path d="M166.20114,253.06039c-1.33937,-1.03428 -0.86419,-3.2942 -0.97035,-4.98311c-0.09482,-1.50868 0.09524,-3.00488 -0.07143,-4.50731c-0.33656,-3.03393 0.05926,-5.91579 0.05926,-8.99634l2.3,-0.9l2.7,0.9c0,3.79098 0.82764,7.7634 0.48783,11.49634c-0.04467,0.49068 1.32826,0.9819 1.85905,0.84048c2.82653,-0.75308 8.94819,-1.48941 11.78022,-0.50689c4.79383,1.66313 6.32577,7.91128 1.24093,10.65614c-1.78895,0.9657 -7.19486,0.26393 -9.36803,0.26393c-4.21382,-0.11373 -9.83519,-4.12247 -10.01749,-4.26324z" data-paper-data="{&quot;index&quot;:null}" fill="#ffffff" stroke="#0b5a00" stroke-width="3.5" stroke-linecap="butt"/><path d="M150.45407,161.50174c-0.22634,2.48973 -2.71607,2.2634 -2.71607,2.2634c0,0 -8.05151,-2.51618 -10.44339,-3.78027c0,0 -2.20947,-1.16971 -1.03975,-3.37918c1.16972,-2.20947 3.37919,-1.03975 3.37919,-1.03975c2.02237,1.07262 11.04635,3.44607 10.82001,5.93581z" fill="#ffffff" stroke="none" stroke-width="0.5" stroke-linecap="butt"/><path d="M172.4442,153.62827c1.87286,1.65602 0.21684,3.52888 0.21684,3.52888l-1.80285,1.71145c-3.45588,1.57268 -6.79985,2.92297 -10.42602,4.0727c0,0 -2.3836,0.75395 -3.13755,-1.62965c-0.75395,-2.3836 1.62965,-3.13755 1.62965,-3.13755c3.43816,-1.08476 11.64707,-6.20183 13.51993,-4.54582z" fill="#ffffff" stroke="none" stroke-width="0.5" stroke-linecap="butt"/><path d="M166.50491,179.15372c2.37171,0.79057 1.58114,3.16228 1.58114,3.16228l-0.88564,2.57746c-1.59126,3.14923 -2.2353,5.15734 -5.12527,7.54386c-6.33406,5.23063 -14.31041,5.79393 -21.70164,3.19246c0,0 -2.35435,-0.84084 -1.51351,-3.1952c0.84084,-2.35435 3.1952,-1.51351 3.1952,-1.51351c5.71068,2.07447 11.8331,1.74173 16.79836,-2.30754c2.09428,-1.70793 2.72452,-3.62717 3.87473,-5.95614l0.61436,-1.92254c0,0 0.79057,-2.37171 3.16228,-1.58114z" fill="#ffffff" stroke="none" stroke-width="0.5" stroke-linecap="butt"/><text transform="translate(99.14946,155.16811) rotate(-15.3016) scale(0.5,0.5)" font-size="40" xml:space="preserve" fill="url(#color-8)" fill-rule="nonzero" stroke="none" stroke-width="1" stroke-linecap="butt" stroke-linejoin="miter" stroke-miterlimit="10" stroke-dasharray="" stroke-dashoffset="0" font-family="Pixel" font-weight="normal" text-anchor="start" style="mix-blend-mode: normal"><tspan x="0" dy="0">1010011</tspan></text><text transform="translate(95.51092,194.76337) rotate(33.36401) scale(0.40915,0.40915)" font-size="40" xml:space="preserve" fill="url(#color-9)" fill-rule="nonzero" stroke="none" stroke-width="1" stroke-linecap="butt" stroke-linejoin="miter" stroke-miterlimit="10" stroke-dasharray="" stroke-dashoffset="0" font-family="Pixel" font-weight="normal" text-anchor="start" style="mix-blend-mode: normal"><tspan x="0" dy="0">01101011</tspan></text><text transform="translate(172.18042,252.36016) rotate(-18.72899) scale(0.40915,0.40915)" font-size="40" xml:space="preserve" fill="url(#color-10)" fill-rule="nonzero" stroke="none" stroke-width="1" stroke-linecap="butt" stroke-linejoin="miter" stroke-miterlimit="10" stroke-dasharray="" stroke-dashoffset="0" font-family="Pixel" font-weight="normal" text-anchor="start" style="mix-blend-mode: normal"><tspan x="0" dy="0">01101011</tspan></text><text transform="translate(192.21219,223.58268) rotate(-161.27135) scale(0.20574,-0.20574)" font-size="40" xml:space="preserve" data-paper-data="{&quot;index&quot;:null}" fill="url(#color-11)" fill-rule="nonzero" stroke="none" stroke-width="1" stroke-linecap="butt" stroke-linejoin="miter" stroke-miterlimit="10" stroke-dasharray="" stroke-dashoffset="0" font-family="Pixel" font-weight="normal" text-anchor="start" style="mix-blend-mode: normal"><tspan x="0" dy="0">01101011</tspan></text><text transform="translate(125.40234,231.34353) rotate(161.25331) scale(0.20575,-0.20575)" font-size="40" xml:space="preserve" data-paper-data="{&quot;index&quot;:null}" fill="url(#color-12)" fill-rule="nonzero" stroke="none" stroke-width="1" stroke-linecap="butt" stroke-linejoin="miter" stroke-miterlimit="10" stroke-dasharray="" stroke-dashoffset="0" font-family="Pixel" font-weight="normal" text-anchor="start" style="mix-blend-mode: normal"><tspan x="0" dy="0">01101011</tspan></text><path d="M151.73068,173.5804c-0.53421,2.13684 -3.69027,7.59205 -5.72898,3.07259c-0.96096,-2.13028 -0.83723,-5.17012 -0.70306,-7.49888c0.29861,-5.18278 5.62836,-2.43359 6.43204,0.78111z" fill="#ffffff" stroke="none" stroke-width="0.5" stroke-linecap="butt"/><path d="M165.40011,174.62188c-0.57882,2.31527 -4.87254,6.0399 -5.90773,1.89914c-0.67687,-2.70747 0.54554,-5.49543 0.90773,-8.14803c0.45895,-3.36125 4.26287,-2.94851 5,0z" fill="#ffffff" stroke="none" stroke-width="0.5" stroke-linecap="butt"/></g></g></svg>