<svg version="1.1" xmlns="http://www.w3.org/2000/svg" xmlns:xlink="http://www.w3.org/1999/xlink" width="506.00601" height="385.88589" viewBox="0,0,506.00601,385.88589"><g transform="translate(12.5045,10.94293)"><g data-paper-data="{&quot;isPaintingLayer&quot;:true}" fill-rule="nonzero" stroke-linecap="butt" stroke-linejoin="miter" stroke-miterlimit="10" stroke-dasharray="" stroke-dashoffset="0" style="mix-blend-mode: normal"><path d="M-12.5045,374.94297v-385.88589h506.00601v385.88589z" fill="#ffffff" stroke="none" stroke-width="NaN"/><path d="M129.4754,38.80487c0.48631,16.49605 -10.00681,32.65431 -16.10552,48.36059c-6.62128,17.05203 -10.70756,34.35257 -16.38522,51.54372c-5.13291,15.53445 -11.6402,30.73537 -17.06181,46.19265c-5.19728,14.81774 -8.87016,29.85786 -14.60967,44.59714c-3.78865,9.72934 -9.09904,19.12451 -12.36584,28.93246c-6.21603,18.56045 -16.56265,36.01634 -21.32709,54.86457c-1.42962,5.65557 -1.32661,6.47233 -3.90704,11.85693c-0.36585,0.76344 -2.25637,1.63529 -1.43861,2.19169c1.0317,0.70195 2.83572,-0.35303 4.25593,-0.27483c5.1551,0.28388 10.17665,1.31151 15.26497,1.96726c13.92099,1.79406 27.86355,3.42518 41.83214,5.0182c18.11022,2.06534 36.34806,4.54241 54.58629,5.91719c38.91708,2.93352 78.17031,2.71017 117.24487,2.89118c8.39157,-0.40197 17.41742,-1.46435 25.81257,-1.20944c3.0613,0.09296 10.87829,2.25341 14.01761,-0.1162c1.72742,-1.30389 2.4547,-3.14563 3.9568,-4.58504c1.66456,-1.59508 3.90572,-2.86012 5.50988,-4.48651c1.42155,-1.44125 20.60009,-6.37259 28.45749,-11.42651c7.13574,-4.58975 2.77296,-8.93009 8.27413,-17.49478c8.34085,-12.98572 27.6786,-86.6211 37.36544,-109.50244c6.56844,-15.51537 15.42151,-30.38485 21.2284,-46.04957c5.38644,-14.52051 13.90458,-28.40426 19.44159,-42.83316c1.93545,-5.04355 2.05723,-10.45679 4.08552,-15.48356c2.76968,-6.86413 5.68559,-13.79016 8.72647,-20.59457c2.57932,-5.77163 4.52327,-11.55848 7.10271,-17.32963c0.82538,-1.84664 1.30364,-3.77366 2.27271,-5.58429c0.33268,-0.62159 2.25884,-1.17403 1.59367,-1.63976c-1.40148,-0.98125 -3.76199,-0.79692 -5.64299,-1.19537c-3.7068,-1.32814 -7.99245,-1.60635 -12.06331,-2.16974c-2.69404,-0.37284 -5.24271,-1.23555 -7.96329,-1.49156c-4.59271,-0.43218 -10.88233,0.34117 -15.48344,0.23754c-7.3975,-0.16662 -14.68104,-0.06257 -22.08022,-0.16036c-12.99782,-0.17178 -25.93947,-0.85038 -38.94168,-0.46872c-14.15612,0.41553 -28.60562,2.16752 -42.75327,1.92435c-5.56558,-0.09566 -11.13385,-0.51245 -16.69518,-0.33008c-6.29296,0.20016 -12.70602,0.91259 -18.99366,0.81585c-7.43099,-0.11434 -14.90352,-1.40573 -22.31678,-1.37413c-5.10469,0.02175 -10.17716,0.81527 -15.28047,0.72755c-5.55849,-0.09553 -11.1216,-0.50111 -16.67486,-0.30412c-5.85738,0.20779 -11.71213,0.92939 -17.56724,0.6909c-1.94253,-0.07912 -3.7466,-0.77741 -5.6678,-0.99735c-7.04321,-0.80636 -14.70318,-0.94425 -21.78382,-1.33306c-12.37557,-0.67957 -24.96103,0.36764 -37.36386,-0.29289zM120.96672,38.32159c-0.99341,-0.40471 -1.92862,-1.16533 -1.91742,-2.59484c0.02382,-3.03793 4.27426,-3.02091 4.27426,-3.02091l7.05222,0.0301c12.44552,0.67989 25.0657,-0.36145 37.49501,0.29742c7.38815,0.39164 15.43216,0.59015 22.776,1.41475c1.69291,0.19009 3.26226,0.8618 4.97318,0.93131c5.46087,0.22185 10.91576,-0.52022 16.37909,-0.70878c5.73711,-0.19801 11.48455,0.1893 17.22636,0.29762c5.09467,0.09611 10.15899,-0.71254 15.25538,-0.7278c7.40135,-0.02215 14.83001,1.25289 22.24304,1.37368c6.14528,0.10013 12.42436,-0.61373 18.57816,-0.80991c5.73314,-0.1775 11.47301,0.21662 17.20951,0.32484c13.97445,0.26364 28.28447,-1.51975 42.27294,-1.92015c13.13874,-0.37609 26.20988,0.28302 39.34238,0.46388c20.11068,0.27696 42.52029,-2.16006 61.25124,4.19565c3.21582,1.37277 7.68599,1.83752 9.64743,4.11832c1.42915,1.66185 -0.54738,3.88978 -1.12047,5.79696c-2.31313,7.69803 -6.11937,15.64395 -9.47239,23.14681c-3.00329,6.72029 -5.86167,13.54667 -8.61437,20.32192c-2.04291,5.02827 -2.15848,10.46218 -4.09734,15.51462c-5.53159,14.41474 -14.04886,28.27624 -19.42235,42.78216c-5.82835,15.72262 -14.69479,30.64269 -21.29186,46.21167c-9.77302,23.06414 -12.03129,48.33554 -24.55478,70.74847c-2.23946,4.00788 -3.70398,32.04455 -13.48773,46.46326c-4.23165,6.23636 -4.68093,10.8202 -10.23275,14.71972c-11.72018,8.23209 -30.56398,10.92896 -32.70723,12.92735c-1.92019,1.79039 -2.96083,4.0989 -5.31682,5.60007c-6.07749,3.87242 -13.14619,1.72249 -19.91108,1.50089c-8.12684,-0.26621 -16.95898,0.83097 -25.08051,1.21615c-39.47289,-0.16159 -79.13502,0.04466 -118.44694,-2.92605c-18.37088,-1.38825 -36.73861,-3.87505 -54.98073,-5.95544c-16.8251,-1.91879 -33.59975,-3.956 -50.36728,-6.11689c-2.76326,-0.35611 -15.18671,-1.76411 -16.44068,-2.94209c-1.98055,-1.86055 -0.52271,-4.694 -0.10903,-7.01306c0.71303,-3.99709 2.88452,-7.79969 3.88294,-11.76543c4.77653,-18.97249 15.19828,-36.521 21.42475,-55.19787c3.31067,-9.8769 8.62076,-19.33254 12.43712,-29.13091c5.72572,-14.70054 9.38089,-29.70282 14.567,-44.48168c5.41294,-15.42522 11.90592,-30.5923 17.02823,-46.09471c5.70938,-17.2708 9.81916,-34.65431 16.47296,-51.78672c5.88756,-15.15946 16.73518,-31.24784 15.78254,-47.20435z" fill="#9a8a55" stroke="none" stroke-width="0.5"/><path d="M130.0032,38.76605c12.40283,0.66053 24.99623,-0.39124 37.3718,0.28833c7.08063,0.38882 14.74631,0.52451 21.78952,1.33087c1.9212,0.21994 3.72684,0.91776 5.66937,0.99688c5.85511,0.2385 11.71536,-0.48433 17.57274,-0.69211c5.55326,-0.197 11.12182,0.20801 16.68031,0.30354c5.10331,0.08772 10.18086,-0.7058 15.28555,-0.72755c7.41326,-0.0316 14.8931,1.2607 22.32409,1.37504c6.28764,0.09674 12.70637,-0.6142 18.99933,-0.81437c5.56133,-0.18238 11.13417,0.23616 16.69975,0.33182c14.14765,0.24316 28.60615,-1.5037 42.76227,-1.91924c13.00221,-0.38166 25.94969,0.30182 38.9475,0.4736c7.39918,0.09779 14.68514,-0.00372 22.08264,0.16289c4.60111,0.10363 10.89211,-0.66812 15.48482,-0.23593c2.72058,0.25601 5.27004,1.11971 7.96408,1.49256c4.07087,0.56339 8.3576,0.84305 12.0644,2.17119c1.881,0.39845 4.242,0.21481 5.64347,1.19605c0.66517,0.46573 -1.26094,1.01823 -1.59362,1.63983c-0.96907,1.81062 -1.44696,3.73819 -2.27234,5.58484c-2.57945,5.77115 -4.52219,11.55987 -7.10151,17.33151c-3.04088,6.80442 -5.95529,13.73307 -8.72497,20.5972c-2.02829,5.02677 -2.14881,10.44258 -4.08425,15.48613c-5.53701,14.42891 -14.05216,28.3211 -19.4386,42.84161c-5.80689,15.66473 -14.6584,30.5477 -21.22684,46.06307c-9.68684,22.88134 -29.03987,96.55161 -37.38072,109.53732c-5.50117,8.56468 -1.14256,12.90863 -8.2783,17.49838c-7.8574,5.05392 -27.04382,9.99025 -28.46537,11.4315c-1.60416,1.62639 -3.84726,2.89237 -5.51183,4.48745c-1.50209,1.43941 -2.23092,3.28183 -3.95835,4.58572c-3.13932,2.3696 -10.96016,0.21057 -14.02146,0.11761c-8.39515,-0.25491 -17.42892,0.80931 -25.82049,1.21129c-39.07456,-0.18101 -78.36194,0.03513 -117.27902,-2.8984c-18.23823,-1.37478 -36.48536,-3.85944 -54.59558,-5.92479c-13.9686,-1.59302 -27.9156,-3.22946 -41.83659,-5.02352c-5.08832,-0.65575 -10.11108,-1.68513 -15.26618,-1.96901c-1.42021,-0.0782 -3.22447,0.97643 -4.25617,0.27447c-0.81777,-0.55639 1.07264,-1.42843 1.43849,-2.19186c2.58043,-5.38459 2.47655,-6.20275 3.90617,-11.85832c4.76444,-18.84823 15.10707,-36.3125 21.32309,-54.87295c3.2668,-9.80795 8.57535,-19.20938 12.364,-28.93871c5.73951,-14.73927 9.41121,-29.79228 14.60849,-44.61002c5.42161,-15.45728 11.93201,-30.67378 17.06492,-46.20823c5.67766,-17.19115 9.7725,-34.50638 16.39378,-51.55841c6.09871,-15.70628 16.60129,-31.87323 16.11498,-48.36928z" data-paper-data="{&quot;noHover&quot;:false,&quot;origItem&quot;:[&quot;Path&quot;,{&quot;applyMatrix&quot;:true,&quot;segments&quot;:[[[129.4754,38.80486],[0,0],[0.48631,16.49605]],[[113.36987,87.16545],[6.09871,-15.70628],[-6.62128,17.05203]],[[96.98466,138.70917],[5.67766,-17.19115],[-5.13291,15.53445]],[[79.92285,184.90182],[5.42161,-15.45728],[-5.19728,14.81774]],[[65.31318,229.49896],[5.73951,-14.73927],[-3.78865,9.72934]],[[52.94733,258.43141],[3.2668,-9.80795],[-6.21603,18.56045]],[[31.62024,313.29599],[4.76444,-18.84823],[-1.42962,5.65557]],[[27.71321,325.15291],[2.58043,-5.38459],[-0.36585,0.76344]],[[26.2746,327.3446],[-0.81777,-0.55639],[1.0317,0.70195]],[[30.53053,327.06977],[-1.42021,-0.0782],[5.1551,0.28388]],[[45.7955,329.03703],[-5.08832,-0.65575],[13.92099,1.79406]],[[87.62764,334.05524],[-13.9686,-1.59302],[18.11022,2.06534]],[[142.21393,339.97243],[-18.23823,-1.37478],[38.91708,2.93352]],[[259.4588,342.8636],[-39.07456,-0.18101],[8.39157,-0.40197]],[[285.27136,341.65417],[-8.39515,-0.25491],[3.0613,0.09296]],[[299.28897,341.53797],[-3.13932,2.3696],[1.72742,-1.30389]],[[303.24577,336.95293],[-1.50209,1.43941],[1.66456,-1.59508]],[[308.75565,332.46642],[-1.60416,1.62639],[1.42155,-1.44125]],[[337.21314,321.0399],[-7.8574,5.05392],[7.13574,-4.58975]],[[345.48727,303.54512],[-5.50117,8.56468],[8.34085,-12.98572]],[[382.85272,194.04269],[-9.68684,22.88134],[6.56844,-15.51537]],[[404.08111,147.99311],[-5.80689,15.66473],[5.38644,-14.52051]],[[423.52271,105.15995],[-5.53701,14.42891],[1.93545,-5.04355]],[[427.60823,89.67639],[-2.02829,5.02677],[2.76968,-6.86413]],[[436.33469,69.08182],[-3.04088,6.80442],[2.57932,-5.77163]],[[443.43741,51.75219],[-2.57945,5.77115],[0.82538,-1.84664]],[[445.71012,46.1679],[-0.96907,1.81062],[0.33268,-0.62159]],[[447.30379,44.52814],[0.66517,0.46573],[-1.40148,-0.98125]],[[441.6608,43.33277],[1.881,0.39845],[-3.7068,-1.32814]],[[429.59748,41.16303],[4.07087,0.56339],[-2.69404,-0.37284]],[[421.63419,39.67146],[2.72058,0.25601],[-4.59271,-0.43218]],[[406.15075,39.90901],[4.60111,0.10363],[-7.3975,-0.16662]],[[384.07054,39.74865],[7.39918,0.09779],[-12.99782,-0.17178]],[[345.12886,39.27993],[13.00221,-0.38166],[-14.15612,0.41553]],[[302.37559,41.20428],[14.14765,0.24316],[-5.56558,-0.09566]],[[285.68041,40.8742],[5.56133,-0.18238],[-6.29296,0.20016]],[[266.68675,41.69006],[6.28764,0.09674],[-7.43099,-0.11434]],[[244.36997,40.31593],[7.41326,-0.0316],[-5.10469,0.02175]],[[229.0895,41.04348],[5.10331,0.08772],[-5.55849,-0.09553]],[[212.41464,40.73936],[5.55326,-0.197],[-5.85738,0.20779]],[[194.8474,41.43026],[5.85511,0.2385],[-1.94253,-0.07912]],[[189.1796,40.43291],[1.9212,0.21994],[-7.04321,-0.80636]],[[167.39578,39.09985],[7.08063,0.38882],[-12.37557,-0.67957]],[[130.03193,38.80696],[12.40283,0.66053],[0,0]]],&quot;closed&quot;:true,&quot;fillColor&quot;:[0,0,0,1]}]}" fill="#ffe48c" stroke="none" stroke-width="0.5"/><text transform="translate(190.62831,74.92691) rotate(3.22032) scale(1.20693,0.70724) skewX(-3.64128)" font-size="40" xml:space="preserve" fill="#3e3722" fill-rule="nonzero" stroke="none" stroke-width="1" stroke-linecap="butt" stroke-linejoin="miter" stroke-miterlimit="10" stroke-dasharray="" stroke-dashoffset="0" font-family="Pixel" font-weight="normal" text-anchor="start" style="mix-blend-mode: normal"><tspan x="0" dy="0">note:</tspan></text><text transform="translate(83.50122,326.51099) rotate(2.50632) scale(0.43929,0.51808) skewX(0.64561)" font-size="40" xml:space="preserve" fill="#3e3722" fill-rule="nonzero" stroke="none" stroke-width="1" stroke-linecap="butt" stroke-linejoin="miter" stroke-miterlimit="10" stroke-dasharray="" stroke-dashoffset="0" font-family="Pixel" font-weight="normal" text-anchor="start" style="mix-blend-mode: normal"><tspan x="0" dy="0">Click to continue</tspan></text><path d="M207.68173,45.0242v-17h111v17z" fill="#a6a6a6" stroke="#6a6a6a" stroke-width="5"/><text transform="translate(121.17567,155.68325) rotate(1.88711) scale(1.3299,1.6158)" font-size="40" xml:space="preserve" fill="#3e3722" fill-rule="nonzero" stroke="none" stroke-width="1" stroke-linecap="butt" stroke-linejoin="miter" stroke-miterlimit="10" stroke-dasharray="" stroke-dashoffset="0" font-family="Pixel" font-weight="normal" text-anchor="start" style="mix-blend-mode: normal"><tspan x="0" dy="0">bugfix</tspan><tspan x="0" dy="48px">update</tspan></text><text transform="translate(92.9985,272.50003) scale(0.5,0.5)" font-size="40" xml:space="preserve" fill="#000000" fill-rule="nonzero" stroke="none" stroke-width="1" stroke-linecap="butt" stroke-linejoin="miter" stroke-miterlimit="10" stroke-dasharray="" stroke-dashoffset="0" font-family="Pixel" font-weight="normal" text-anchor="start" style="mix-blend-mode: normal"><tspan x="0" dy="0">yay</tspan></text></g></g></svg>