<svg version="1.1" xmlns="http://www.w3.org/2000/svg" xmlns:xlink="http://www.w3.org/1999/xlink" width="431.42643" height="314.30931" viewBox="0,0,431.42643,314.30931"><g transform="translate(-24.28679,-22.84535)"><g data-paper-data="{&quot;isPaintingLayer&quot;:true}" fill-rule="nonzero" stroke-linejoin="miter" stroke-miterlimit="10" stroke-dasharray="" stroke-dashoffset="0" style="mix-blend-mode: normal"><path d="M26.78679,334.65466v-309.30931h426.42643v309.30931z" fill="#ff9625" stroke="#b3691b" stroke-width="5" stroke-linecap="butt"/><path d="M284,99.50001v-51h159v51z" fill="#da8021" stroke="#8f5415" stroke-width="5" stroke-linecap="butt"/><path d="M283,262.50001v-151h159v151z" fill="#da8021" stroke="#8f5415" stroke-width="5" stroke-linecap="butt"/><path d="M283,324.50001v-52h159v52z" fill="#da8021" stroke="#8f5415" stroke-width="5" stroke-linecap="butt"/><path d="M64,283.50001v-202h183v202z" fill="#da8021" stroke="#8f5415" stroke-width="5" stroke-linecap="butt"/><text transform="translate(290.5,82.89947) scale(0.62221,0.62221)" font-size="40" xml:space="preserve" fill="#ffffff" fill-rule="nonzero" stroke="none" stroke-width="1" stroke-linecap="butt" stroke-linejoin="miter" stroke-miterlimit="10" stroke-dasharray="" stroke-dashoffset="0" font-family="Pixel" font-weight="normal" text-anchor="start" style="mix-blend-mode: normal"><tspan x="0" dy="0">Water cone</tspan></text><text transform="translate(336,136.75001) scale(0.60834,0.60834)" font-size="40" xml:space="preserve" fill="#ffffff" fill-rule="nonzero" stroke="none" stroke-width="1" stroke-linecap="butt" stroke-linejoin="miter" stroke-miterlimit="10" stroke-dasharray="" stroke-dashoffset="0" font-family="Pixel" font-weight="normal" text-anchor="start" style="mix-blend-mode: normal"><tspan x="0" dy="0">Hint:</tspan></text><text transform="translate(297,162.84376) scale(0.22801,0.22801)" font-size="40" xml:space="preserve" fill="#ffffff" fill-rule="nonzero" stroke="none" stroke-width="1" stroke-linecap="butt" stroke-linejoin="miter" stroke-miterlimit="10" stroke-dasharray="" stroke-dashoffset="0" font-family="Pixel" font-weight="normal" text-anchor="start" style="mix-blend-mode: normal"><tspan x="0" dy="0">where do you</tspan><tspan x="0" dy="48px">think it would be?</tspan><tspan x="0" dy="48px">maybe somewhere</tspan><tspan x="0" dy="48px">that has a lot of water</tspan><tspan x="0" dy="48px">it may be an ocean,</tspan><tspan x="0" dy="48px">a beach, or somewhere</tspan><tspan x="0" dy="48px">else. but i dont know where</tspan><tspan x="0" dy="48px">he is. and i cant tell you.</tspan></text><path d="M74.63301,232.56603l1.50196,-18.43893l131.23202,10.68963l-1.50196,18.43893z" fill="#4a6fff" stroke="#344eb5" stroke-width="5" stroke-linecap="butt"/><path d="M116.33335,209.85804l37,-106.5l16.10073,-0.13269l34.39927,106.1327z" fill="#4a6fff" stroke="#344eb5" stroke-width="5" stroke-linecap="butt"/><path d="M193.16666,187.77471l-66.66666,0.33333l4.33333,-13.33333h59.66667z" fill="#9bafff" stroke="#344eb5" stroke-width="5" stroke-linecap="round"/><path d="M183.50001,150.77471l-41.33334,-1.33334l2.33334,-10.33333l36,0.66667z" fill="#9bafff" stroke="#344eb5" stroke-width="5" stroke-linecap="round"/><path d="M137.50001,175.73304c0,-1.38071 1.11929,-2.5 2.5,-2.5c1.38071,0 2.5,1.11929 2.5,2.5c0,1.38071 -1.11929,2.5 -2.5,2.5c-1.38071,0 -2.5,-1.11929 -2.5,-2.5z" fill="#0b1b52" stroke="none" stroke-width="0.5" stroke-linecap="butt"/><path d="M160.33333,159.39971c0,-1.38071 1.11929,-2.5 2.5,-2.5c1.38071,0 2.5,1.11929 2.5,2.5c0,1.38071 -1.11929,2.5 -2.5,2.5c-1.38071,0 -2.5,-1.11929 -2.5,-2.5z" fill="#0b1b52" stroke="none" stroke-width="0.5" stroke-linecap="butt"/><path d="M182.24079,175.7372c1.5607,1.95301 -0.39231,3.5137 -0.39231,3.5137l-2.28622,1.82273c-4.17181,2.64257 -7.38641,6.57819 -11.35808,9.60025c-7.36401,5.60333 -15.20166,11.0173 -22.97475,16.01991c0,0 -2.10324,1.35145 -3.45468,-0.75178c-1.35145,-2.10324 0.75179,-3.45467 0.75179,-3.45467c7.66732,-4.9183 15.39055,-10.27416 22.65086,-15.79321c4.03357,-3.06618 7.25643,-6.94139 11.46885,-9.68213l2.08083,-1.66708c0,0 1.95301,-1.56069 3.51371,0.39231z" fill="#0b1b52" stroke="none" stroke-width="0.5" stroke-linecap="butt"/><path d="M137.90642,272.6307c-1.46377,1.60625 -4.58631,6.0746 -6.50506,6.7464c-5.45377,1.90951 -9.04009,-3.43133 -7.0404,-8.09481c0.48364,-1.12788 1.55157,-2.46925 2.81316,-3.76881c1.82002,-1.87479 4.04307,-3.66256 5.49624,-4.59686c0.46205,-0.29707 1.16476,-0.74321 1.84496,-1.07093c-0.42367,-0.25791 -0.82123,-0.57177 -1.21399,-0.86926c-2.988,-2.26321 -5.36667,-5.55064 -8.16869,-8.10411c0,0 -1.84782,-1.68391 -0.16391,-3.53173c1.68391,-1.84782 3.53173,-0.16391 3.53173,-0.16391c2.27693,2.07496 4.6736,3.72352 6.68937,6.01583c0.99823,1.13517 2.23213,2.00248 3.28337,3.08876c1.17681,1.21606 3.16725,2.38704 3.02956,4.07366c-0.01874,0.22956 -0.84214,7.08461 -3.59636,10.27577z" fill="#0b1b52" stroke="none" stroke-width="0.5" stroke-linecap="butt"/><path d="M161.47231,259.86688c-1.02703,-1.34494 0.01535,-3.40563 0.34871,-5.06472c0.2978,-1.48203 0.8676,-2.87848 1.09436,-4.37302c0.45793,-3.018 1.58416,-5.70004 2.37928,-8.67621c0,0 0.64527,-2.41529 3.06056,-1.77002c2.41529,0.64527 1.77002,3.06056 1.77002,3.06056c-0.97848,3.66253 -1.2042,7.71397 -2.496,11.23271c-0.1698,0.46252 -0.33479,0.94141 -0.552,1.38733c0.74945,-0.09169 1.58181,-0.09587 2.13112,-0.0955c2.92513,0.00199 9.02942,0.87066 11.51189,2.55085c4.20213,2.8441 4.06946,9.27595 -1.55155,10.61536c-1.97759,0.47124 -7.01919,-1.60206 -9.11873,-2.16298c-4.04168,-1.1975 -8.43789,-6.52133 -8.57768,-6.70438z" data-paper-data="{&quot;index&quot;:null}" fill="#0b1b52" stroke="none" stroke-width="0.5" stroke-linecap="butt"/><path d="M311.48077,317v-33.5h36.07692v33.5z" fill="#faff00" stroke="none" stroke-width="0" stroke-linecap="butt"/><text transform="translate(355.51923,306.5) scale(0.5,0.5)" font-size="40" xml:space="preserve" fill="#ffffff" fill-rule="nonzero" stroke="none" stroke-width="1" stroke-linecap="butt" stroke-linejoin="miter" stroke-miterlimit="10" stroke-dasharray="" stroke-dashoffset="0" font-family="Pixel" font-weight="normal" text-anchor="start" style="mix-blend-mode: normal"><tspan x="0" dy="0">medium</tspan></text></g></g></svg>