<svg version="1.1" xmlns="http://www.w3.org/2000/svg" xmlns:xlink="http://www.w3.org/1999/xlink" width="562.05706" height="425.33042" viewBox="0,0,562.05706,425.33042"><defs><radialGradient cx="419.62859" cy="69.05612" r="88.27945" gradientUnits="userSpaceOnUse" id="color-1"><stop offset="0" stop-color="#ffffff"/><stop offset="1" stop-color="#ffffff" stop-opacity="0"/></radialGradient><radialGradient cx="410.26991" cy="67.74744" r="480.48048" gradientUnits="userSpaceOnUse" id="color-2"><stop offset="0" stop-color="#ffffff"/><stop offset="1" stop-color="#ffffff" stop-opacity="0"/></radialGradient><radialGradient cx="410.26991" cy="67.74744" r="480.48048" gradientUnits="userSpaceOnUse" id="color-3"><stop offset="0" stop-color="#ffffff"/><stop offset="1" stop-color="#ffffff" stop-opacity="0"/></radialGradient></defs><g transform="translate(25.59606,28.34866)"><g data-paper-data="{&quot;isPaintingLayer&quot;:true}" fill-rule="nonzero" stroke-linecap="butt" stroke-linejoin="miter" stroke-miterlimit="10" stroke-dasharray="" stroke-dashoffset="0" style="mix-blend-mode: normal"><path d="M-11.41209,366.16157v-370.87087h490.99099v370.87087z" fill="#f7ff75" stroke="none" stroke-width="0"/><path d="M-13.66367,-14.43973l514.73494,-6.78009l-23.27164,302.61407l-75.62984,2.27559c0,0 -8.60162,-151.37807 -6.5856,-236.48673c0.52341,-22.0965 5.90506,-31.34578 -7.05113,-32.59997c-12.95619,-1.25419 -401.55405,3.75252 -401.55405,3.75252z" fill="#ffe775" stroke="none" stroke-width="0"/><path d="M501.86151,69.05612c0,48.7554 -36.81693,88.27945 -82.23292,88.27945c-23.4816,0 -44.66447,-10.56573 -59.64846,-27.51026c-13.99667,-15.82805 -22.58446,-37.22198 -22.58446,-60.76918c0,-48.7554 36.81694,-88.27945 82.23292,-88.27945c45.41598,0 82.23292,39.52406 82.23292,88.27946z" fill="url(#color-1)" stroke="none" stroke-width="0"/><path d="M417.77741,67.74744c0,53.07241 -3.36123,96.0961 -7.5075,96.0961c-4.14628,0 -7.5075,-43.02369 -7.5075,-96.0961c0,-53.07241 3.36122,-96.09609 7.5075,-96.09609c4.14627,0 7.5075,43.02369 7.5075,96.0961z" fill="url(#color-2)" stroke="none" stroke-width="0"/><path d="M410.3296,75.25468c-53.07073,0.42199 -96.11978,-2.59704 -96.15275,-6.74318c-0.03297,-4.14614 42.96263,-7.84935 96.03336,-8.27134c53.07073,-0.42199 96.11978,2.59704 96.15275,6.74318c0.03297,4.14614 -42.96263,7.84935 -96.03336,8.27134z" fill="url(#color-3)" stroke="none" stroke-width="0"/><path d="M533.96099,335.54372c0,18.73396 -17.08654,41.56414 -56.95113,49.0202c-60.71767,11.3563 -163.71787,1.56539 -256.5774,1.56539c-103.99551,0 -164.67917,21.48677 -212.51891,-4.46514c-22.92338,-12.43538 -31.00961,-30.80833 -31.00961,-46.12045c0,-47.26761 124.70147,-85.58558 278.52853,-85.58558c153.82706,0 278.52853,38.31797 278.52853,85.58558z" fill="#ffca3d" stroke="#d37100" stroke-width="5"/><path d="M322.28616,296.13813c0,0 -6.37797,-1.86878 -5.71762,-7.57468c-1.03956,-6.62673 11.95502,-8.36115 11.95502,-8.36115c0,0 15.01187,-1.0962 25.66749,-1.0962c10.3589,0 31.16379,3.56268 31.16379,3.56268v13.46936c0,0 -22.02111,3.83673 -32.72314,3.83673c-10.30591,0 -30.34553,-3.83673 -30.34553,-3.83673z" fill="#3cc245" stroke="#008e31" stroke-width="5"/><path d="M341.21245,381.33658v-125.77189c0,0 -5.5881,-18.09794 24.10791,-18.29098c23.96791,-0.1558 24.80338,18.29098 24.80338,18.29098v125.77189c0,0 -17.04368,7.01216 -25.09932,7.01216c-8.24378,0 -23.81197,-7.01216 -23.81197,-7.01216z" fill="#3cc245" stroke="#008e31" stroke-width="5"/><path d="M396.24948,355.17644c-6.55671,0 -20.04814,-2.73363 -20.04814,-2.73363v-9.59678c0,0 12.74631,-2.53836 19.09279,-2.53836c6.52826,0 15.72543,0.78104 15.72543,0.78104c0,0 7.96125,1.23575 7.32436,5.95722c0.40457,4.06539 -3.50295,5.39688 -3.50295,5.39688c0,0 -12.27746,2.73363 -18.59147,2.73363z" data-paper-data="{&quot;index&quot;:null}" fill="#3cc245" stroke="#008e31" stroke-width="5"/><path d="M91.74977,221.36046c0,0 -4.28138,-1.25446 -3.8381,-5.0847c-0.69783,-4.44837 8.02513,-5.61265 8.02513,-5.61265c0,0 10.07712,-0.73585 17.22999,-0.73585c6.95369,0 20.91954,2.39154 20.91954,2.39154v9.04167c0,0 -14.78226,2.57551 -21.96629,2.57551c-6.91812,0 -20.37025,-2.57551 -20.37025,-2.57551z" fill="#3dc545" stroke="#008e31" stroke-width="3.5"/><path d="M104.45455,278.55217v-84.42776c0,0 -3.75117,-12.14873 16.18308,-12.27831c16.08911,-0.10458 16.64994,12.27831 16.64994,12.27831v84.42777c0,0 -11.44103,4.70711 -16.8486,4.70711c-5.53386,0 -15.98443,-4.70711 -15.98443,-4.70711z" fill="#3dc545" stroke="#008e31" stroke-width="3.5"/><path d="M137.81928,260.99147c-5.46212,0 -16.70128,-2.5755 -16.70128,-2.5755v-9.04167c0,0 10.61843,-2.39154 15.90542,-2.39154c5.43843,0 13.10021,0.73586 13.10021,0.73586c0,0 6.63219,1.16427 6.10162,5.61264c0.33703,3.83024 -2.91817,5.08471 -2.91817,5.08471c0,0 -10.22785,2.5755 -15.4878,2.5755z" data-paper-data="{&quot;index&quot;:null}" fill="#3dc545" stroke="#008e31" stroke-width="3.5"/><path d="M100.3124,229.26418c0,-1.38071 1.11929,-2.5 2.5,-2.5c1.38071,0 2.5,1.11929 2.5,2.5c0,1.38071 -1.11929,2.5 -2.5,2.5c-1.38071,0 -2.5,-1.11929 -2.5,-2.5z" fill="#82eb90" stroke="none" stroke-width="0.5"/><path d="M108.3124,203.26418c0,-1.38071 1.11929,-2.5 2.5,-2.5c1.38071,0 2.5,1.11929 2.5,2.5c0,1.38071 -1.11929,2.5 -2.5,2.5c-1.38071,0 -2.5,-1.11929 -2.5,-2.5z" fill="#82eb90" stroke="none" stroke-width="0.5"/><path d="M130.3124,219.26418c0,-1.38071 1.11929,-2.5 2.5,-2.5c1.38071,0 2.5,1.11929 2.5,2.5c0,1.38071 -1.11929,2.5 -2.5,2.5c-1.38071,0 -2.5,-1.11929 -2.5,-2.5z" fill="#82eb90" stroke="none" stroke-width="0.5"/><path d="M109.3124,225.26418c0,-1.38071 1.11929,-2.5 2.5,-2.5c1.38071,0 2.5,1.11929 2.5,2.5c0,1.38071 -1.11929,2.5 -2.5,2.5c-1.38071,0 -2.5,-1.11929 -2.5,-2.5z" fill="#82eb90" stroke="none" stroke-width="0.5"/><path d="M120.3124,204.26418c0,-1.38071 1.11929,-2.5 2.5,-2.5c1.38071,0 2.5,1.11929 2.5,2.5c0,1.38071 -1.11929,2.5 -2.5,2.5c-1.38071,0 -2.5,-1.11929 -2.5,-2.5z" fill="#82eb90" stroke="none" stroke-width="0.5"/><path d="M129.3124,237.26418c0,-1.38071 1.11929,-2.5 2.5,-2.5c1.38071,0 2.5,1.11929 2.5,2.5c0,1.38071 -1.11929,2.5 -2.5,2.5c-1.38071,0 -2.5,-1.11929 -2.5,-2.5z" fill="#82eb90" stroke="none" stroke-width="0.5"/><path d="M113.3124,259.26418c0,-1.38071 1.11929,-2.5 2.5,-2.5c1.38071,0 2.5,1.11929 2.5,2.5c0,1.38071 -1.11929,2.5 -2.5,2.5c-1.38071,0 -2.5,-1.11929 -2.5,-2.5z" fill="#82eb90" stroke="none" stroke-width="0.5"/><path d="M121.3124,265.26418c0,-1.38071 1.11929,-2.5 2.5,-2.5c1.38071,0 2.5,1.11929 2.5,2.5c0,1.38071 -1.11929,2.5 -2.5,2.5c-1.38071,0 -2.5,-1.11929 -2.5,-2.5z" fill="#82eb90" stroke="none" stroke-width="0.5"/><path d="M130.3124,247.26418c0,-1.38071 1.11929,-2.5 2.5,-2.5c1.38071,0 2.5,1.11929 2.5,2.5c0,1.38071 -1.11929,2.5 -2.5,2.5c-1.38071,0 -2.5,-1.11929 -2.5,-2.5z" fill="#82eb90" stroke="none" stroke-width="0.5"/><path d="M324.3124,276.26418c0,-1.38071 1.11929,-2.5 2.5,-2.5c1.38071,0 2.5,1.11929 2.5,2.5c0,1.38071 -1.11929,2.5 -2.5,2.5c-1.38071,0 -2.5,-1.11929 -2.5,-2.5z" fill="#82eb90" stroke="none" stroke-width="0.5"/><path d="M354.3124,260.26418c0,-1.38071 1.11929,-2.5 2.5,-2.5c1.38071,0 2.5,1.11929 2.5,2.5c0,1.38071 -1.11929,2.5 -2.5,2.5c-1.38071,0 -2.5,-1.11929 -2.5,-2.5z" fill="#82eb90" stroke="none" stroke-width="0.5"/><path d="M340.70606,240.97296c0,-1.08901 0.88282,-1.97183 1.97183,-1.97183c1.08901,0 1.97183,0.88282 1.97183,1.97183c0,1.08901 -0.88282,1.97183 -1.97183,1.97183c-1.08901,0 -1.97183,-0.88282 -1.97183,-1.97183z" fill="#82eb90" stroke="none" stroke-width="0.5"/><path d="M374.3124,243.26418c0,-1.38071 1.11929,-2.5 2.5,-2.5c1.38071,0 2.5,1.11929 2.5,2.5c0,1.38071 -1.11929,2.5 -2.5,2.5c-1.38071,0 -2.5,-1.11929 -2.5,-2.5z" fill="#82eb90" stroke="none" stroke-width="0.5"/><path d="M372.3124,279.26418c0,-1.38071 1.11929,-2.5 2.5,-2.5c1.38071,0 2.5,1.11929 2.5,2.5c0,1.38071 -1.11929,2.5 -2.5,2.5c-1.38071,0 -2.5,-1.11929 -2.5,-2.5z" fill="#82eb90" stroke="none" stroke-width="0.5"/><path d="M345.3124,340.26418c0,-1.38071 1.11929,-2.5 2.5,-2.5c1.38071,0 2.5,1.11929 2.5,2.5c0,1.38071 -1.11929,2.5 -2.5,2.5c-1.38071,0 -2.5,-1.11929 -2.5,-2.5z" fill="#82eb90" stroke="none" stroke-width="0.5"/><path d="M369.3124,380.26418c0,-1.38071 1.11929,-2.5 2.5,-2.5c1.38071,0 2.5,1.11929 2.5,2.5c0,1.38071 -1.11929,2.5 -2.5,2.5c-1.38071,0 -2.5,-1.11929 -2.5,-2.5z" fill="#82eb90" stroke="none" stroke-width="0.5"/><path d="M352.3124,320.26418c0,-1.38071 1.11929,-2.5 2.5,-2.5c1.38071,0 2.5,1.11929 2.5,2.5c0,1.38071 -1.11929,2.5 -2.5,2.5c-1.38071,0 -2.5,-1.11929 -2.5,-2.5z" fill="#82eb90" stroke="none" stroke-width="0.5"/><path d="M354.3124,289.26418c0,2.32142 -2.1556,2.48724 -2.46355,2.49909c-0.42289,0.42289 -0.84579,0.84579 -1.26868,1.26868c0,0 -1.76777,1.76777 -3.53553,0c-1.76777,-1.76777 0,-3.53553 0,-3.53553c0.66667,-0.66667 1.33333,-1.33333 2,-2l2.76777,-0.73223c0,0 2.5,0 2.5,2.5z" fill="#82eb90" stroke="none" stroke-width="0.5"/><path d="M389.3124,317.26418c0,-1.38071 1.11929,-2.5 2.5,-2.5c1.38071,0 2.5,1.11929 2.5,2.5c0,1.38071 -1.11929,2.5 -2.5,2.5c-1.38071,0 -2.5,-1.11929 -2.5,-2.5z" fill="#82eb90" stroke="none" stroke-width="0.5"/><path d="M385.3124,333.26418c0,-1.38071 1.11929,-2.5 2.5,-2.5c1.38071,0 2.5,1.11929 2.5,2.5c0,1.38071 -1.11929,2.5 -2.5,2.5c-1.38071,0 -2.5,-1.11929 -2.5,-2.5z" fill="#82eb90" stroke="none" stroke-width="0.5"/><path d="M402.3124,344.26418c0,-1.38071 1.11929,-2.5 2.5,-2.5c1.38071,0 2.5,1.11929 2.5,2.5c0,1.38071 -1.11929,2.5 -2.5,2.5c-1.38071,0 -2.5,-1.11929 -2.5,-2.5z" fill="#82eb90" stroke="none" stroke-width="0.5"/></g></g></svg>