<svg version="1.1" xmlns="http://www.w3.org/2000/svg" xmlns:xlink="http://www.w3.org/1999/xlink" width="426.42643" height="309.30931" viewBox="0,0,426.42643,309.30931"><g transform="translate(-26.78681,-25.34537)"><g data-paper-data="{&quot;isPaintingLayer&quot;:true}" fill-rule="nonzero" stroke-linejoin="miter" stroke-miterlimit="10" stroke-dasharray="" stroke-dashoffset="0" style="mix-blend-mode: normal"><path d="M26.78682,334.65468v-309.30931h426.42643v309.30931z" fill="#ff9625" stroke="#b3691b" stroke-width="0" stroke-linecap="butt"/><path d="M284.00004,99.50006v-51h159v51z" fill="#da8021" stroke="#8f5415" stroke-width="0" stroke-linecap="butt"/><path d="M283.00004,262.50005v-151h159v151z" fill="#da8021" stroke="#8f5415" stroke-width="0" stroke-linecap="butt"/><path d="M283.00004,324.50005v-52h159v52z" fill="#da8021" stroke="#8f5415" stroke-width="0" stroke-linecap="butt"/><path d="M64.00002,283.50005v-202h183v202z" fill="#da8021" stroke="#8f5415" stroke-width="0" stroke-linecap="butt"/><text transform="translate(290.50004,69.86834) scale(0.48246,0.48246)" font-size="40" xml:space="preserve" fill="#ffffff" fill-rule="nonzero" stroke="none" stroke-width="1" stroke-linecap="butt" stroke-linejoin="miter" stroke-miterlimit="10" stroke-dasharray="" stroke-dashoffset="0" font-family="Sans Serif" font-weight="normal" text-anchor="start" style="mix-blend-mode: normal"><tspan x="0" dy="0">Oversimplified</tspan><tspan x="0" dy="48px">           Cone</tspan></text><text transform="translate(336.00004,136.75001) scale(0.60834,0.60834)" font-size="40" xml:space="preserve" fill="#ffffff" fill-rule="nonzero" stroke="none" stroke-width="1" stroke-linecap="butt" stroke-linejoin="miter" stroke-miterlimit="10" stroke-dasharray="" stroke-dashoffset="0" font-family="Sans Serif" font-weight="normal" text-anchor="start" style="mix-blend-mode: normal"><tspan x="0" dy="0">Hint:</tspan></text><path d="M311.33079,317.15003v-33.5h36.07692v33.5z" fill="#ff0000" stroke="none" stroke-width="0" stroke-linecap="butt"/><text transform="translate(355.36927,306.65003) scale(0.5,0.5)" font-size="40" xml:space="preserve" fill="#ffffff" fill-rule="nonzero" stroke="none" stroke-width="1" stroke-linecap="butt" stroke-linejoin="miter" stroke-miterlimit="10" stroke-dasharray="" stroke-dashoffset="0" font-family="Sans Serif" font-weight="normal" text-anchor="start" style="mix-blend-mode: normal"><tspan x="0" dy="0">Hard</tspan></text><path d="" data-paper-data="{&quot;index&quot;:null}" fill="#fff600" stroke="#ada700" stroke-width="5" stroke-linecap="butt"/><path d="" data-paper-data="{&quot;index&quot;:null}" fill="#fff600" stroke="#ada700" stroke-width="5" stroke-linecap="butt"/><path d="" data-paper-data="{&quot;index&quot;:null}" fill="#ffffff" stroke="#ada700" stroke-width="5" stroke-linecap="round"/><path d="" data-paper-data="{&quot;index&quot;:null}" fill="#ffffff" stroke="#ada700" stroke-width="5" stroke-linecap="round"/><path d="" fill="#68650e" stroke="none" stroke-width="0.5" stroke-linecap="butt"/><path d="" fill="#68650e" stroke="none" stroke-width="0.5" stroke-linecap="butt"/><path d="" fill="#68650e" stroke="none" stroke-width="0.5" stroke-linecap="butt"/><path d="" fill="#68650e" stroke="none" stroke-width="0.5" stroke-linecap="butt"/><path d="" data-paper-data="{&quot;index&quot;:null}" fill="#68650e" stroke="none" stroke-width="0.5" stroke-linecap="butt"/><text transform="translate(302.58333,165.84454) scale(0.3947,0.3947)" font-size="40" xml:space="preserve" fill="#ffffff" fill-rule="nonzero" stroke="none" stroke-width="1" stroke-linecap="butt" stroke-linejoin="miter" stroke-miterlimit="10" stroke-dasharray="" stroke-dashoffset="0" font-family="Sans Serif" font-weight="normal" text-anchor="start" style="mix-blend-mode: normal"><tspan x="0" dy="0">Tiny Miscolored</tspan><tspan x="0" dy="48px">square in the </tspan><tspan x="0" dy="48px">index.</tspan></text><path d="M179.14327,257.24625c-4.63929,-1.35102 -8.48256,-4.40823 -8.57443,-4.49463c-1.33937,-1.25956 -0.86419,-4.01174 -0.97035,-6.06852c-0.09483,-1.8373 0.09523,-3.6594 -0.07143,-5.48908c-0.23503,-2.58022 -0.73002,-11.64653 0.32682,-15.67494c0.45651,-1.74011 1.8533,-0.91339 2.60744,-0.91339c0.52175,0 1.95432,-0.54289 2.30913,0.53839c1.34528,4.09973 0.57259,15.4972 0.3037,19.09449c-0.04467,0.59756 7.55438,1.38082 12.00676,4.76498c2.49063,1.89307 4.6975,7.41939 2.87344,8.61852c-0.88739,0.58337 -6.24459,0.95401 -10.81108,-0.37581z" data-paper-data="{&quot;index&quot;:null}" fill="#000000" stroke="none" stroke-width="0.5" stroke-linecap="butt"/><path d="M127.41531,257.7589c-1.82406,-1.17231 0.38281,-6.57508 2.87344,-8.42583c4.45238,-3.3085 12.05143,-4.07424 12.00676,-4.65844c-0.25224,-3.29913 -0.66783,-14.07665 0.46655,-18.48439c0.39379,-1.53012 1.50206,-0.70955 2.14628,-0.70955c0.49253,0 1.31795,-1.11074 1.681,-0.29738c1.47974,3.31512 1.52351,13.6143 1.25326,16.51483c-0.16666,1.78878 0.0234,3.57014 -0.07143,5.36636c-0.10616,2.0108 0.36902,4.70144 -0.97035,5.93285c-0.09187,0.08446 -3.93514,3.07332 -8.57443,4.39414c-4.56649,1.30009 -9.92369,0.93773 -10.81108,0.3674z" fill="#000000" stroke="none" stroke-width="0.5" stroke-linecap="butt"/><path d="M92.16669,227.95571v-18.5h131.66667v18.5z" fill="#ff8221" stroke="#ad5816" stroke-width="0" stroke-linecap="butt"/><path d="M112.58335,211.20571l37.75,-108.5l16.10073,-0.13269l34.64927,108.1327z" fill="#ff8221" stroke="#ad5816" stroke-width="0" stroke-linecap="butt"/><path d="M192.70834,184.16405l-71.29166,1.20833l4.83333,-14.08333l62.54167,0.375z" fill="#ffffff" stroke="#ad5816" stroke-width="0" stroke-linecap="round"/><path d="M180.06865,145.16159l-44.27452,-0.7451l3.7451,-10.62745l36.94118,0.43138z" fill="#ffffff" stroke="#ad5816" stroke-width="0" stroke-linecap="round"/><path d="M168.15626,192.54736l-28.16667,8.83334" fill="none" stroke="#000000" stroke-width="5" stroke-linecap="round"/><path d="M137.48959,172.54736c0,-2.30119 1.86548,-4.16667 4.16667,-4.16667c2.30119,0 4.16667,1.86548 4.16667,4.16667c0,2.30119 -1.86548,4.16667 -4.16667,4.16667c-2.30119,0 -4.16667,-1.86548 -4.16667,-4.16667z" fill="#000000" stroke="none" stroke-width="0" stroke-linecap="butt"/><path d="M156.98959,170.88069c0,-2.30119 1.86548,-4.16666 4.16667,-4.16666c2.30119,0 4.16666,1.86548 4.16666,4.16666c0,2.30119 -1.86548,4.16667 -4.16666,4.16667c-2.30119,0 -4.16667,-1.86549 -4.16667,-4.16667z" fill="#000000" stroke="none" stroke-width="0" stroke-linecap="butt"/></g></g></svg>