<svg version="1.1" xmlns="http://www.w3.org/2000/svg" xmlns:xlink="http://www.w3.org/1999/xlink" width="156.0327" height="157.3577" viewBox="0,0,156.0327,157.3577"><defs><linearGradient x1="238.96853" y1="203.45576" x2="238.96853" y2="239.95576" gradientUnits="userSpaceOnUse" id="color-1"><stop offset="0" stop-color="#0e7900"/><stop offset="1" stop-color="#0e7900" stop-opacity="0"/></linearGradient><linearGradient x1="238.96853" y1="203.45576" x2="238.96853" y2="239.95576" gradientUnits="userSpaceOnUse" id="color-2"><stop offset="0" stop-color="#000000"/><stop offset="1" stop-color="#ffffff"/></linearGradient><linearGradient x1="238.08339" y1="99.57307" x2="238.08339" y2="222.04833" gradientUnits="userSpaceOnUse" id="color-3"><stop offset="0" stop-color="#0e7900"/><stop offset="1" stop-color="#0e7900" stop-opacity="0"/></linearGradient><linearGradient x1="239.66672" y1="212.45576" x2="239.66672" y2="230.95576" gradientUnits="userSpaceOnUse" id="color-4"><stop offset="0" stop-color="#000000"/><stop offset="1" stop-color="#0b5a00"/></linearGradient><linearGradient x1="239.08339" y1="104.57307" x2="239.08339" y2="211.20576" gradientUnits="userSpaceOnUse" id="color-5"><stop offset="0" stop-color="#063300"/><stop offset="1" stop-color="#000000"/></linearGradient><linearGradient x1="239.08339" y1="104.57307" x2="239.08339" y2="211.20576" gradientUnits="userSpaceOnUse" id="color-6"><stop offset="0" stop-color="#0b5a00"/><stop offset="1" stop-color="#000000"/></linearGradient><linearGradient x1="260.98659" y1="177.86618" x2="254.38223" y2="191.6153" gradientTransform="translate(-879.09346,-156.0981) rotate(-26.49269) scale(3.07726,3.00413) skewX(-0.35696)" gradientUnits="userSpaceOnUse" id="color-7"><stop offset="0" stop-color="#1eff00"/><stop offset="1" stop-color="#005d08"/></linearGradient><linearGradient x1="213.78857" y1="126.43611" x2="219.87816" y2="148.69308" gradientTransform="translate(-270.68672,-391.35839) rotate(15.3016) scale(2,2)" gradientUnits="userSpaceOnUse" id="color-8"><stop offset="0" stop-color="#1eff00"/><stop offset="1" stop-color="#005d08"/></linearGradient><linearGradient x1="211.96434" y1="197.66946" x2="201.57993" y2="213.43976" gradientTransform="translate(-623.37379,-153.2016) rotate(-33.36401) scale(2.44409,2.44409)" gradientUnits="userSpaceOnUse" id="color-9"><stop offset="0" stop-color="#1eff00"/><stop offset="1" stop-color="#005d08"/></linearGradient><linearGradient x1="279.73071" y1="226.95291" x2="285.79357" y2="244.83531" gradientTransform="translate(-394.376,-779.45841) rotate(18.72899) scale(2.44409,2.44409)" gradientUnits="userSpaceOnUse" id="color-10"><stop offset="0" stop-color="#1eff00"/><stop offset="1" stop-color="#005d08"/></linearGradient><linearGradient x1="262.92046" y1="209.74072" x2="259.87173" y2="218.73298" gradientTransform="translate(1612.60135,-589.75786) rotate(-161.27135) scale(4.86053,-4.86053)" gradientUnits="userSpaceOnUse" id="color-11"><stop offset="0" stop-color="#1eff00"/><stop offset="1" stop-color="#005d08"/></linearGradient><linearGradient x1="191.53696" y1="227.41687" x2="194.58874" y2="236.40832" gradientTransform="translate(601.30438,-1380.45997) rotate(161.25331) scale(4.86026,-4.86026)" gradientUnits="userSpaceOnUse" id="color-12"><stop offset="0" stop-color="#1eff00"/><stop offset="1" stop-color="#005d08"/></linearGradient></defs><g transform="translate(-165.16672,-99.57306)"><g data-paper-data="{&quot;isPaintingLayer&quot;:true}" fill-rule="nonzero" stroke-linecap="butt" stroke-linejoin="miter" stroke-miterlimit="10" stroke-dasharray="" stroke-dashoffset="0" style="mix-blend-mode: normal"><path d="M165.16672,239.95576v-36.5h147.60361v36.5z" fill="url(#color-1)" stroke="url(#color-2)" stroke-width="0"/><path d="M181.33339,222.04833l47.99428,-122.32285l20.88495,-0.15241l44.62076,121.90099z" fill="url(#color-3)" stroke="none" stroke-width="5"/><path d="M173.83339,230.95576v-18.5h131.66667v18.5z" fill="#000000" stroke="url(#color-4)" stroke-width="5"/><path d="M195.33339,211.20576l37,-106.5l16.10073,-0.13269l34.39927,106.1327z" fill="url(#color-5)" stroke="url(#color-6)" stroke-width="5"/><text transform="translate(234.15029,177.04134) rotate(26.97323) scale(0.32738,0.33042) skewX(1.32829)" font-size="40" xml:space="preserve" fill="url(#color-7)" fill-rule="nonzero" stroke="none" stroke-width="1" stroke-linecap="butt" stroke-linejoin="miter" stroke-miterlimit="10" stroke-dasharray="" stroke-dashoffset="0" font-family="Pixel" font-weight="normal" text-anchor="start" style="mix-blend-mode: normal"><tspan x="0" dy="0">1010011</tspan></text><path d="M218.78338,254.98075c-2.17317,0 -7.57909,0.70177 -9.36803,-0.26393c-5.08484,-2.74486 -3.5529,-8.99301 1.24093,-10.65614c1.15941,-0.40223 2.87017,-0.51639 4.68048,-0.45925c2.61161,0.08244 5.43037,0.52137 7.09974,0.96614c0.53079,0.14142 1.90372,-0.3498 1.85905,-0.84048c-0.33981,-3.73294 0.48783,-7.70537 0.48783,-11.49635l2.3,-0.5l2.7,0.5c0,3.08056 0.39582,5.96242 0.05926,8.99635c-0.16666,1.50243 0.0234,2.99863 -0.07143,4.50731c-0.10616,1.68891 0.36902,3.94883 -0.97035,4.98311c-0.1823,0.14077 -5.80367,4.1495 -10.01749,4.26323z" fill="#ffffff" stroke="#0b5a00" stroke-width="3.5"/><path d="M249.23686,250.91753c-1.33937,-1.03428 -0.86419,-3.2942 -0.97035,-4.98311c-0.09482,-1.50868 0.09524,-3.00488 -0.07143,-4.50731c-0.33656,-3.03393 0.05926,-5.91579 0.05926,-8.99634l2.3,-0.9l2.7,0.9c0,3.79098 0.82764,7.7634 0.48783,11.49634c-0.04467,0.49068 1.32826,0.9819 1.85905,0.84048c2.82653,-0.75308 8.94819,-1.48941 11.78022,-0.50689c4.79383,1.66313 6.32577,7.91128 1.24093,10.65614c-1.78895,0.9657 -7.19486,0.26393 -9.36803,0.26393c-4.21382,-0.11373 -9.83519,-4.12247 -10.01749,-4.26324z" data-paper-data="{&quot;index&quot;:null}" fill="#ffffff" stroke="#0b5a00" stroke-width="3.5"/><path d="M233.48979,159.35888c-0.22634,2.48973 -2.71607,2.2634 -2.71607,2.2634c0,0 -8.05151,-2.51618 -10.44339,-3.78027c0,0 -2.20947,-1.16971 -1.03975,-3.37918c1.16972,-2.20947 3.37919,-1.03975 3.37919,-1.03975c2.02237,1.07262 11.04635,3.44607 10.82001,5.93581z" fill="#ffffff" stroke="none" stroke-width="0.5"/><path d="M255.47992,151.48541c1.87286,1.65602 0.21684,3.52888 0.21684,3.52888l-1.80285,1.71145c-3.45588,1.57268 -6.79985,2.92297 -10.42602,4.0727c0,0 -2.3836,0.75395 -3.13755,-1.62965c-0.75395,-2.3836 1.62965,-3.13755 1.62965,-3.13755c3.43816,-1.08476 11.64707,-6.20183 13.51993,-4.54582z" fill="#ffffff" stroke="none" stroke-width="0.5"/><path d="M249.54063,177.01086c2.37171,0.79057 1.58114,3.16228 1.58114,3.16228l-0.88564,2.57746c-1.59126,3.14923 -2.2353,5.15734 -5.12527,7.54386c-6.33406,5.23063 -14.31041,5.79393 -21.70164,3.19246c0,0 -2.35435,-0.84084 -1.51351,-3.1952c0.84084,-2.35435 3.1952,-1.51351 3.1952,-1.51351c5.71068,2.07447 11.8331,1.74173 16.79836,-2.30754c2.09428,-1.70793 2.72452,-3.62717 3.87473,-5.95614l0.61436,-1.92254c0,0 0.79057,-2.37171 3.16228,-1.58114z" fill="#ffffff" stroke="none" stroke-width="0.5"/><text transform="translate(182.18518,153.02525) rotate(-15.3016) scale(0.5,0.5)" font-size="40" xml:space="preserve" fill="url(#color-8)" fill-rule="nonzero" stroke="none" stroke-width="1" stroke-linecap="butt" stroke-linejoin="miter" stroke-miterlimit="10" stroke-dasharray="" stroke-dashoffset="0" font-family="Pixel" font-weight="normal" text-anchor="start" style="mix-blend-mode: normal"><tspan x="0" dy="0">1010011</tspan></text><text transform="translate(178.54664,192.62051) rotate(33.36401) scale(0.40915,0.40915)" font-size="40" xml:space="preserve" fill="url(#color-9)" fill-rule="nonzero" stroke="none" stroke-width="1" stroke-linecap="butt" stroke-linejoin="miter" stroke-miterlimit="10" stroke-dasharray="" stroke-dashoffset="0" font-family="Pixel" font-weight="normal" text-anchor="start" style="mix-blend-mode: normal"><tspan x="0" dy="0">01101011</tspan></text><text transform="translate(255.21614,250.2173) rotate(-18.72899) scale(0.40915,0.40915)" font-size="40" xml:space="preserve" fill="url(#color-10)" fill-rule="nonzero" stroke="none" stroke-width="1" stroke-linecap="butt" stroke-linejoin="miter" stroke-miterlimit="10" stroke-dasharray="" stroke-dashoffset="0" font-family="Pixel" font-weight="normal" text-anchor="start" style="mix-blend-mode: normal"><tspan x="0" dy="0">01101011</tspan></text><text transform="translate(275.24791,221.43982) rotate(-161.27135) scale(0.20574,-0.20574)" font-size="40" xml:space="preserve" data-paper-data="{&quot;index&quot;:null}" fill="url(#color-11)" fill-rule="nonzero" stroke="none" stroke-width="1" stroke-linecap="butt" stroke-linejoin="miter" stroke-miterlimit="10" stroke-dasharray="" stroke-dashoffset="0" font-family="Pixel" font-weight="normal" text-anchor="start" style="mix-blend-mode: normal"><tspan x="0" dy="0">01101011</tspan></text><text transform="translate(208.43806,229.20067) rotate(161.25331) scale(0.20575,-0.20575)" font-size="40" xml:space="preserve" data-paper-data="{&quot;index&quot;:null}" fill="url(#color-12)" fill-rule="nonzero" stroke="none" stroke-width="1" stroke-linecap="butt" stroke-linejoin="miter" stroke-miterlimit="10" stroke-dasharray="" stroke-dashoffset="0" font-family="Pixel" font-weight="normal" text-anchor="start" style="mix-blend-mode: normal"><tspan x="0" dy="0">01101011</tspan></text><path d="M234.7664,171.43754c-0.53421,2.13684 -3.69027,7.59205 -5.72898,3.07259c-0.96096,-2.13028 -0.83723,-5.17012 -0.70306,-7.49888c0.29861,-5.18278 5.62836,-2.43359 6.43204,0.78111z" fill="#ffffff" stroke="none" stroke-width="0.5"/><path d="M248.43583,172.47902c-0.57882,2.31527 -4.87254,6.0399 -5.90773,1.89914c-0.67687,-2.70747 0.54554,-5.49543 0.90773,-8.14803c0.45895,-3.36125 4.26287,-2.94851 5,0z" fill="#ffffff" stroke="none" stroke-width="0.5"/></g></g></svg>