<svg version="1.1" xmlns="http://www.w3.org/2000/svg" xmlns:xlink="http://www.w3.org/1999/xlink" width="431.42643" height="314.30931" viewBox="0,0,431.42643,314.30931"><g transform="translate(-24.28679,-22.84534)"><g data-paper-data="{&quot;isPaintingLayer&quot;:true}" fill-rule="nonzero" stroke-linejoin="miter" stroke-miterlimit="10" stroke-dasharray="" stroke-dashoffset="0" style="mix-blend-mode: normal"><path d="M26.7868,334.65466v-309.30931h426.42643v309.30931z" fill="#ff9625" stroke="#b3691b" stroke-width="5" stroke-linecap="butt"/><path d="M284.00001,99.50001v-51h159v51z" fill="#da8021" stroke="#8f5415" stroke-width="5" stroke-linecap="butt"/><path d="M283.00001,262.50001v-151h159v151z" fill="#da8021" stroke="#8f5415" stroke-width="5" stroke-linecap="butt"/><path d="M283.00001,324.50001v-52h159v52z" fill="#da8021" stroke="#8f5415" stroke-width="5" stroke-linecap="butt"/><path d="M64.00001,283.50001v-202h183v202z" fill="#da8021" stroke="#8f5415" stroke-width="5" stroke-linecap="butt"/><text transform="translate(288.16666,83.30001) scale(0.56389,0.56389)" font-size="40" xml:space="preserve" fill="#ffffff" fill-rule="nonzero" stroke="none" stroke-width="1" stroke-linecap="butt" stroke-linejoin="miter" stroke-miterlimit="10" stroke-dasharray="" stroke-dashoffset="0" font-family="Pixel" font-weight="normal" text-anchor="start" style="mix-blend-mode: normal"><tspan x="0" dy="0">Eyeless Cone</tspan></text><text transform="translate(336.00001,136.75) scale(0.60834,0.60834)" font-size="40" xml:space="preserve" fill="#ffffff" fill-rule="nonzero" stroke="none" stroke-width="1" stroke-linecap="butt" stroke-linejoin="miter" stroke-miterlimit="10" stroke-dasharray="" stroke-dashoffset="0" font-family="Pixel" font-weight="normal" text-anchor="start" style="mix-blend-mode: normal"><tspan x="0" dy="0">Hint:</tspan></text><text transform="translate(302.00001,164.125) scale(0.40249,0.40249)" font-size="40" xml:space="preserve" fill="#ffffff" fill-rule="nonzero" stroke="none" stroke-width="1" stroke-linecap="butt" stroke-linejoin="miter" stroke-miterlimit="10" stroke-dasharray="" stroke-dashoffset="0" font-family="Pixel" font-weight="normal" text-anchor="start" style="mix-blend-mode: normal"><tspan x="0" dy="0">spinning in the</tspan><tspan x="0" dy="48px"> moon</tspan></text><path d="M310.98078,316.75001v-33.5h36.07692v33.5z" fill="#5aff00" stroke="none" stroke-width="0" stroke-linecap="butt"/><text transform="translate(355.01924,306.25001) scale(0.5,0.5)" font-size="40" xml:space="preserve" fill="#ffffff" fill-rule="nonzero" stroke="none" stroke-width="1" stroke-linecap="butt" stroke-linejoin="miter" stroke-miterlimit="10" stroke-dasharray="" stroke-dashoffset="0" font-family="Pixel" font-weight="normal" text-anchor="start" style="mix-blend-mode: normal"><tspan x="0" dy="0">easy</tspan></text><text transform="translate(60.25,73.25) scale(0.5,0.5)" font-size="40" xml:space="preserve" fill="#ffffff" fill-rule="nonzero" stroke="none" stroke-width="1" stroke-linecap="butt" stroke-linejoin="miter" stroke-miterlimit="10" stroke-dasharray="" stroke-dashoffset="0" font-family="Pixel" font-weight="normal" text-anchor="start" style="mix-blend-mode: normal"><tspan x="0" dy="0">@Konnordiesquick</tspan></text><path d="M137.80794,263.658c-3.91316,1.78291 -21.09244,2.39391 -18.83673,-6.62891c1.69256,-6.77024 9.26743,-4.24274 13.97468,-3.93199c0.39218,0.02589 1.87977,-0.02235 3.31411,0.10473c0,-5.05864 0,-10.27602 0,-15.13193c0,0 0,-2.5 2.5,-2.5c2.5,0 2.5,2.5 2.5,2.5c0,6.74826 0,13.49651 0,20.24477v0.6981c0,0 0,1.64983 -1.34026,2.26897c-0.18749,0.92147 -0.7141,1.73945 -2.1118,2.37627z" fill="#000000" stroke="none" stroke-width="0.5" stroke-linecap="butt"/><path d="M167.61207,260.76845c-1.34026,-0.61914 -1.34027,-2.26897 -1.34027,-2.26897v-0.6981c0,-6.74825 0,-13.49651 0,-20.24476c0,0 0,-2.5 2.5,-2.5c2.5,0 2.5,2.5 2.5,2.5c0,4.85591 0,10.07329 0,15.13193c1.43434,-0.12707 2.92194,-0.07883 3.31412,-0.10473c4.70725,-0.31076 12.28211,-2.83826 13.97467,3.93199c2.2557,9.02283 -14.92356,8.41182 -18.83673,6.62892c-1.39769,-0.63682 -1.92431,-1.4548 -2.1118,-2.37627z" data-paper-data="{&quot;index&quot;:null}" fill="#000000" stroke="none" stroke-width="0.5" stroke-linecap="butt"/><path d="M89.6741,241.19823v-18.5h131.66667v18.5z" fill="#ff8221" stroke="#ad5816" stroke-width="5" stroke-linecap="butt"/><path d="M110.84076,222.44823l37,-106.5l16.10073,-0.13269l34.39927,106.1327z" fill="#ff8221" stroke="#ad5816" stroke-width="5" stroke-linecap="butt"/><path d="M187.34074,198.03157l-66.66666,0.33333l4.33333,-13.33333h59.66667z" fill="#ffffff" stroke="#ad5816" stroke-width="5" stroke-linecap="round"/><path d="M176.34077,158.69823l-41.33334,-1.33334l2.33334,-10.33333l36,0.66667z" fill="#ffffff" stroke="#ad5816" stroke-width="5" stroke-linecap="round"/><path d="M161.95396,97.93345c2.23607,-1.11803 3.3541,1.11803 3.3541,1.11803l1.26393,3.11803c-0.00729,8.95959 -1.3397,18.0044 -2.15574,26.92389c-1.18051,5.0329 -2.26377,9.97955 -3.97255,14.86668c-0.43743,1.25104 -0.57033,2.68152 -1.38494,3.72691c-0.85486,1.09704 -2.32241,1.53882 -3.40179,2.41587c-0.81669,0.66361 -1.36567,1.65626 -2.27064,2.19327c-2.7467,1.62987 -6.80041,2.26099 -9.80457,3.36113c-1.38729,0.50803 -2.85734,0.85503 -4.13353,1.59935c-0.946,0.55174 -1.35644,1.95955 -2.41952,2.2226c-1.98586,0.49139 -4.25979,0.70912 -6.13635,-0.10551c-0.86776,-0.3767 -3.9577,-5.58624 -4.79091,-6.66571c-0.70133,-0.90861 -1.71928,-1.57514 -2.29178,-2.56996c-0.85066,-1.47818 -1.08127,-3.25706 -1.91708,-4.7437c-1.39423,-2.47989 -3.26823,-4.74355 -4.1923,-7.43424c0,0 -0.79057,-2.37171 1.58114,-3.16228c2.37171,-0.79057 3.16228,1.58114 3.16228,1.58114c0.77195,2.40935 2.56858,4.35998 3.8077,6.56576c0.79729,1.41927 0.99391,3.12498 1.79683,4.54107c0.48157,0.84933 1.39634,1.37345 1.99431,2.14527c1.27087,1.64035 1.5099,4.14323 3.20909,5.33429c1.75113,1.22747 2.60215,-1.39613 3.44413,-1.88292c1.60689,-0.92903 3.41767,-1.45128 5.15124,-2.11456c2.63179,-1.00695 6.50651,-1.46059 8.91066,-2.92496c0.71198,-0.43367 1.07314,-1.29255 1.72936,-1.80673c0.79844,-0.62562 1.94896,-0.80478 2.59821,-1.58413c0.50241,-0.60309 0.38054,-1.524 0.61506,-2.27309c1.46656,-4.68436 2.64676,-9.30666 3.78049,-14.08615c0.76988,-8.65404 2.09884,-17.43292 2.09122,-26.12328l-0.73607,-0.88197c0,0 -1.11803,-2.23607 1.11803,-3.3541z" fill="#000000" stroke="none" stroke-width="0.5" stroke-linecap="butt"/><path d="M147.42063,194.48061c-0.05197,0.0501 -0.10389,0.1004 -0.15577,0.15084zM147.63618,194.27412c-0.04746,0.10521 -1.05338,2.26328 -3.28929,1.28791c-2.29146,-0.9996 -1.29187,-3.29106 -1.29187,-3.29106l0.76784,-1.26619c4.41365,-4.10771 8.96885,-6.90529 15.42199,-5.68696c1.11253,0.21004 5.01816,3.6148 5.72345,4.19581c0,0 1.92869,1.59065 0.33804,3.51934c-1.59065,1.92869 -3.51934,0.33804 -3.51934,0.33804c-1.31595,-1.08661 -2.2652,-2.99136 -3.95118,-3.25582c-4.31922,-0.67753 -7.34248,1.44051 -10.19963,4.15894z" fill="#000000" stroke="none" stroke-width="0.5" stroke-linecap="butt"/></g></g></svg>