<svg version="1.1" xmlns="http://www.w3.org/2000/svg" xmlns:xlink="http://www.w3.org/1999/xlink" width="562.05706" height="386.11542" viewBox="0,0,562.05706,386.11542"><g transform="translate(34.27176,4.28694)"><g data-paper-data="{&quot;isPaintingLayer&quot;:true}" fill-rule="nonzero" stroke-linecap="butt" stroke-linejoin="miter" stroke-miterlimit="10" stroke-dasharray="" stroke-dashoffset="0" style="mix-blend-mode: normal"><path d="M-5.49549,287.00435v-291.29129h490.99099v291.29129z" fill="#75ffda" stroke="none" stroke-width="0"/><path d="M525.28529,320.39043c0,18.73396 -17.08654,41.56414 -56.95113,49.0202c-60.71767,11.3563 -163.71787,1.56539 -256.5774,1.56539c-103.99551,0 -164.67917,21.48677 -212.51891,-4.46514c-22.92338,-12.43538 -31.00961,-30.80833 -31.00961,-46.12045c0,-47.26761 124.70147,-85.58558 278.52853,-85.58558c153.82706,0 278.52853,38.31797 278.52853,85.58558z" fill="#57ff78" stroke="#3eb555" stroke-width="5"/><path d="M110.25676,257.66499c0,0 13.64789,-13.62776 19.61134,-30.7653c0.29822,-0.85701 -2.43856,-4.22377 -2.20708,-5.09832c3.70714,-14.00581 2.27512,-27.51446 3.12808,-37.63365c1.63023,-19.34053 -3.03234,-56.00272 -3.03234,-56.00272h34c0,0 -12.18433,37.52316 -9.06673,56.01126c1.50301,8.91319 0.46144,21.5841 4.58523,34.32087c0.45048,1.39136 -2.98967,5.25367 -2.29996,6.5756c9.29812,17.82137 28.28146,30.59228 28.28146,30.59228z" fill="#b7531b" stroke="#823c14" stroke-width="5"/><path d="M194.75676,101.66499c0,6.39078 -1.07664,10.51487 -3.04805,16.17934c-1.45947,4.19352 -3.40933,10.13515 -5.7758,13.74662c-4.5255,6.90637 -7.57453,7.6053 -14.63099,11.54941c-6.88289,3.84709 -17.72427,11.02463 -26.04516,11.02463c-4.19972,0 -13.6204,-3.45364 -22.66302,-7.64859c-4.72642,-2.19262 -9.34956,-3.13417 -13.0699,-7.0085c-3.79174,-3.94869 -11.62551,-16.88648 -13.70392,-21.95904c-3.78245,-9.23145 -0.06316,-10.90922 -0.06316,-15.88386c0,-8.45176 0.77254,-14.25104 4.92821,-20.24329c3.47612,-5.01237 9.92001,-10.46007 14.51848,-14.8379c8.76384,-8.34332 17.34972,-17.41881 30.05331,-17.41881c11.07832,0 23.32775,3.8176 30.98763,11.51473c3.28914,3.30514 6.28519,6.95683 9.00709,10.64328c2.0393,2.76195 4.01541,5.36203 5.7717,7.99828c3.91209,5.87217 3.73358,13.92382 3.73358,22.34371z" fill="#60f726" stroke="#51ce1f" stroke-width="5"/></g></g></svg>