<svg version="1.1" xmlns="http://www.w3.org/2000/svg" xmlns:xlink="http://www.w3.org/1999/xlink" width="140.80654" height="157.85856" viewBox="0,0,140.80654,157.85856"><defs><linearGradient x1="292.93111" y1="143.58722" x2="228.38421" y2="176.07668" gradientUnits="userSpaceOnUse" id="color-1"><stop offset="0" stop-color="#ff3ef1"/><stop offset="1" stop-color="#ff79ed"/></linearGradient><linearGradient x1="190.67768" y1="156.49299" x2="205.13718" y2="222.70594" gradientUnits="userSpaceOnUse" id="color-2"><stop offset="0" stop-color="#ff3ef1"/><stop offset="1" stop-color="#ff79ed"/></linearGradient><linearGradient x1="239.08335" y1="102.32736" x2="239.08335" y2="208.96005" gradientUnits="userSpaceOnUse" id="color-3"><stop offset="0" stop-color="#ff3ef1"/><stop offset="1" stop-color="#ff79ed"/></linearGradient></defs><g transform="translate(-167.52681,-99.8141)"><g data-paper-data="{&quot;isPaintingLayer&quot;:true}" fill-rule="nonzero" stroke-linejoin="miter" stroke-miterlimit="10" stroke-dasharray="" stroke-dashoffset="0" style="mix-blend-mode: normal"><path d="M228.18966,175.69017l44.00506,-43.46484l15.87271,1.69919l-1.69919,15.87272l-45.3643,41.72686z" fill="url(#color-1)" stroke="#b51272" stroke-width="5" stroke-linecap="round"/><path d="M274.91085,139.45015l6.36021,0.0463l-0.39648,6.32494" fill="none" stroke="#ff6aee" stroke-width="2.5" stroke-linecap="round"/><path d="M265.10954,146.65122l-29.43793,27.49467" fill="none" stroke="#ff43f0" stroke-width="2.5" stroke-linecap="round"/><path d="M271.9399,154.14179l-28.91594,26.79477" fill="none" stroke="#ff43f0" stroke-width="2.5" stroke-linecap="round"/><path d="M204.74069,222.79253l-29.22073,-50.11224l5.24559,-14.0227l14.0227,5.2456l27.32489,50.94164z" fill="url(#color-2)" stroke="#b51272" stroke-width="5" stroke-linecap="round"/><path d="M182.7166,171.89797l1.52547,-5.76691l5.65319,1.83535" fill="none" stroke="#ff6aee" stroke-width="2.5" stroke-linecap="round"/><path d="M186.97218,182.48114l18.11069,33.15449" fill="none" stroke="#ff43f0" stroke-width="2.5" stroke-linecap="round"/><path d="M195.36979,178.02338l17.59665,32.51707" fill="none" stroke="#ff43f0" stroke-width="2.5" stroke-linecap="round"/><path d="M195.33335,208.96005l8.82559,-24.7122l4.03542,-26.88908l14.00032,-29.32679l10.13867,-25.57194l16.10073,-0.13269l9.15794,19.94372l7.9904,40.07823l5.42598,10.93503l4.14123,20.07555l7.68372,15.10017z" fill="url(#color-3)" stroke="#b51272" stroke-width="5" stroke-linecap="butt"/><path d="M222.58259,256.47181c-3.91316,1.78291 -21.09244,2.39391 -18.83673,-6.62891c1.69256,-6.77024 9.26743,-4.24274 13.97468,-3.93199c0.39218,0.02589 1.87977,-0.02235 3.31411,0.10473c0,-5.05864 0,-10.27602 0,-15.13193c0,0 0,-2.5 2.5,-2.5c2.5,0 2.5,2.5 2.5,2.5c0,6.74826 0,13.49651 0,20.24477v0.6981c0,0 0,1.64983 -1.34026,2.26897c-0.18749,0.92147 -0.7141,1.73945 -2.1118,2.37627z" fill="#000000" stroke="none" stroke-width="0.5" stroke-linecap="butt"/><path d="M252.38672,254.21682c-1.34026,-0.61914 -1.34027,-2.26897 -1.34027,-2.26897v-0.6981c0,-6.74825 0,-13.49651 0,-20.24476c0,0 0,-2.5 2.5,-2.5c2.5,0 2.5,2.5 2.5,2.5c0,4.85591 0,10.07329 0,15.13193c1.43434,-0.12707 2.92194,-0.07883 3.31412,-0.10473c4.70725,-0.31076 12.28211,-2.83826 13.97467,3.93199c2.2557,9.02283 -14.92356,8.41182 -18.83673,6.62892c-1.39769,-0.63682 -1.92431,-1.4548 -2.1118,-2.37627z" data-paper-data="{&quot;index&quot;:null}" fill="#000000" stroke="none" stroke-width="0.5" stroke-linecap="butt"/><path d="M174.16669,227.71005l-3.91317,-6.8624l3.91317,-11.6376l61.01809,-2.4902l50.63802,-2.0538l20.01056,4.54399v18.5l-47.88081,-0.4536l-36.99748,4.01103z" fill="#ff78ee" stroke="#b51272" stroke-width="5" stroke-linecap="butt"/><path d="M271.83333,184.54339l-66.66666,0.33333l4.33333,-13.33333h59.66667z" fill="#ffa1e5" stroke="#b51272" stroke-width="5" stroke-linecap="round"/><path d="M261.35694,145.73361l-44.1169,-1.33334l5.1169,-10.33333l36,0.66667z" fill="#ffa1e5" stroke="#b51272" stroke-width="5" stroke-linecap="round"/><path d="M229.13941,159.57472c-0.44584,1.78337 -0.22847,3.59546 -0.49061,5.39662c-0.55938,3.84351 -5.41548,2.95458 -6.14473,-0.32707c-0.42333,-1.90498 -0.10577,-8.40251 0.8031,-9.91729c2.23662,-3.7277 5.19069,-0.00793 5.83224,2.55827z" fill="#000000" stroke="none" stroke-width="0.5" stroke-linecap="butt"/><path d="M255.16245,159.39585c-0.46875,1.87503 0.04937,4.28046 -1.48584,5.81304c-4.86702,4.8587 -6.9538,-6.11596 -5.17334,-9.28116c0.79151,-1.40709 1.18018,-3.40132 3.31309,-3.23725c0.97383,0.07491 4.30501,1.97969 3.34608,3.41808z" fill="#000000" stroke="none" stroke-width="0.5" stroke-linecap="butt"/><path d="M245.7763,181.65649c0.05665,-0.04474 0.11327,-0.08968 0.16987,-0.13477zM245.54147,181.84075c0.05759,-0.10003 1.27111,-2.14856 3.40012,-0.95778c2.1819,1.22036 0.96155,3.40227 0.96155,3.40227l-0.88878,1.18443c-4.79666,3.65317 -9.60518,5.98865 -15.907,4.14085c-1.08644,-0.31856 -4.63786,-4.09133 -5.28251,-4.73896c0,0 -1.7627,-1.77282 0.01012,-3.53552c1.77282,-1.7627 3.53552,0.01012 3.53552,0.01012c1.20257,1.2109 1.95966,3.19986 3.61141,3.62904c4.23152,1.09952 7.44864,-0.71056 10.55957,-3.13446z" fill="#000000" stroke="none" stroke-width="0.5" stroke-linecap="butt"/></g></g></svg>