<svg version="1.1" xmlns="http://www.w3.org/2000/svg" xmlns:xlink="http://www.w3.org/1999/xlink" width="562.05706" height="404.71502" viewBox="0,0,562.05706,404.71502"><g transform="translate(34.27174,22.88652)"><g data-paper-data="{&quot;isPaintingLayer&quot;:true}" fill-rule="nonzero" stroke-linecap="butt" stroke-linejoin="miter" stroke-miterlimit="10" stroke-dasharray="" stroke-dashoffset="0" style="mix-blend-mode: normal"><path d="M-9.99996,304.77312v-313.81381h503.003v313.81381z" fill="#13202c" stroke="#666666" stroke-width="0"/><path d="M-15.95537,-22.88651l520.74095,5.23192l-13.43981,324.27773l-90.80101,2.26658c0,0 -3.26228,-173.03272 -1.24626,-258.14138c0.52341,-22.0965 5.90506,-20.83527 -7.05113,-22.08946c-12.95619,-1.25419 -410.56306,-2.25348 -410.56306,-2.25348z" fill="#0d151f" stroke="none" stroke-width="0"/><path d="M525.28531,320.39045c0,18.73396 -17.08654,41.56414 -56.95113,49.0202c-60.71767,11.3563 -163.71787,1.56539 -256.5774,1.56539c-103.99551,0 -164.67917,21.48677 -212.51891,-4.46514c-22.92338,-12.43538 -31.00961,-30.80833 -31.00961,-46.12045c0,-28.00412 43.77117,-52.86685 111.43778,-68.48082c46.54654,-10.74054 104.39992,-17.10476 167.09075,-17.10476c153.82706,0 278.52853,38.31797 278.52853,85.58558z" fill="#99a49a" stroke="#666666" stroke-width="5"/><path d="M398.45199,374.8285l2,-123.33333c0,0 19.67308,3.77665 41.79301,10.66471c5.97507,1.86061 13.71224,4.32313 19.68207,6.63608c7.45972,2.89019 13.09558,5.73397 19.85825,9.03254c30.47707,14.86553 7.66667,97 7.66667,97z" fill="#89968c" stroke="none" stroke-width="0"/><path d="M117.62766,330.29864c0,8.02191 -19.49511,14.52494 -43.54355,14.52494c-24.04843,0 -43.54354,-6.50304 -43.54354,-14.52494c0,-8.02191 19.4951,-14.52494 43.54354,-14.52494c24.04844,0 43.54355,6.50304 43.54355,14.52494z" fill="#79827d" stroke="#454545" stroke-width="5"/><path d="M235.24028,281.24458c0,8.02191 -19.49511,14.52494 -43.54354,14.52494c-24.04844,0 -43.54354,-6.50304 -43.54354,-14.52494c0,-8.02191 19.4951,-14.52494 43.54354,-14.52494c24.04844,0 43.54354,6.50304 43.54354,14.52494z" fill="#79827d" stroke="#454545" stroke-width="5"/><path d="M468.4685,319.27762c0,8.02191 -19.49511,14.52494 -43.54354,14.52494c-24.04843,0 -43.54354,-6.50304 -43.54354,-14.52494c0,-8.02191 19.49511,-14.52494 43.54354,-14.52494c24.04843,0 43.54354,6.50303 43.54354,14.52494z" fill="#79827d" stroke="#454545" stroke-width="5"/><path d="M315.31535,331.28963c0,8.02191 -19.49511,14.52494 -43.54355,14.52494c-24.04844,0 -43.54354,-6.50303 -43.54354,-14.52494c0,-8.02191 19.4951,-14.52494 43.54354,-14.52494c24.04843,0 43.54355,6.50304 43.54355,14.52494z" fill="#79827d" stroke="#454545" stroke-width="5"/></g></g></svg>