<svg version="1.1" xmlns="http://www.w3.org/2000/svg" xmlns:xlink="http://www.w3.org/1999/xlink" width="431.42643" height="314.30931" viewBox="0,0,431.42643,314.30931"><defs><linearGradient x1="211.46053" y1="146.23428" x2="146.91363" y2="178.72374" gradientUnits="userSpaceOnUse" id="color-1"><stop offset="0" stop-color="#ff3ef1"/><stop offset="1" stop-color="#ff79ed"/></linearGradient><linearGradient x1="109.20709" y1="159.14005" x2="123.6666" y2="225.353" gradientUnits="userSpaceOnUse" id="color-2"><stop offset="0" stop-color="#ff3ef1"/><stop offset="1" stop-color="#ff79ed"/></linearGradient><linearGradient x1="157.61277" y1="104.97442" x2="157.61277" y2="211.60711" gradientUnits="userSpaceOnUse" id="color-3"><stop offset="0" stop-color="#ff3ef1"/><stop offset="1" stop-color="#ff79ed"/></linearGradient></defs><g transform="translate(-24.28682,-22.84537)"><g data-paper-data="{&quot;isPaintingLayer&quot;:true}" fill-rule="nonzero" stroke-linejoin="miter" stroke-miterlimit="10" stroke-dasharray="" stroke-dashoffset="0" style="mix-blend-mode: normal"><path d="M26.78682,334.65468v-309.30931h426.42643v309.30931z" fill="#ff9625" stroke="#b3691b" stroke-width="5" stroke-linecap="butt"/><path d="M284.00005,99.50005v-51h159v51z" fill="#da8021" stroke="#8f5415" stroke-width="5" stroke-linecap="butt"/><path d="M283.00005,262.50005v-151h159v151z" fill="#da8021" stroke="#8f5415" stroke-width="5" stroke-linecap="butt"/><path d="M283.00005,324.50005v-52h159v52z" fill="#da8021" stroke="#8f5415" stroke-width="5" stroke-linecap="butt"/><path d="M64.00002,283.50005v-202h183v202z" fill="#da8021" stroke="#8f5415" stroke-width="5" stroke-linecap="butt"/><text transform="translate(290.00005,81.29203) scale(0.54977,0.54977)" font-size="40" xml:space="preserve" fill="#ffffff" fill-rule="nonzero" stroke="none" stroke-width="1" stroke-linecap="butt" stroke-linejoin="miter" stroke-miterlimit="10" stroke-dasharray="" stroke-dashoffset="0" font-family="Pixel" font-weight="normal" text-anchor="start" style="mix-blend-mode: normal"><tspan x="0" dy="0">Crystal Cone</tspan></text><text transform="translate(336.0001,136.75001) scale(0.60834,0.60834)" font-size="40" xml:space="preserve" fill="#ffffff" fill-rule="nonzero" stroke="none" stroke-width="1" stroke-linecap="butt" stroke-linejoin="miter" stroke-miterlimit="10" stroke-dasharray="" stroke-dashoffset="0" font-family="Pixel" font-weight="normal" text-anchor="start" style="mix-blend-mode: normal"><tspan x="0" dy="0">Hint:</tspan></text><path d="M311.48086,317.00005v-33.5h36.07692v33.5z" fill="#faff00" stroke="none" stroke-width="0" stroke-linecap="butt"/><text transform="translate(355.51932,306.50005) scale(0.5,0.5)" font-size="40" xml:space="preserve" fill="#ffffff" fill-rule="nonzero" stroke="none" stroke-width="1" stroke-linecap="butt" stroke-linejoin="miter" stroke-miterlimit="10" stroke-dasharray="" stroke-dashoffset="0" font-family="Pixel" font-weight="normal" text-anchor="start" style="mix-blend-mode: normal"><tspan x="0" dy="0">medium</tspan></text><text transform="translate(326.34013,165.19589) scale(0.3947,0.3947)" font-size="40" xml:space="preserve" fill="#ffffff" fill-rule="nonzero" stroke="none" stroke-width="1" stroke-linecap="butt" stroke-linejoin="miter" stroke-miterlimit="10" stroke-dasharray="" stroke-dashoffset="0" font-family="Pixel" font-weight="normal" text-anchor="start" style="mix-blend-mode: normal"><tspan x="0" dy="0">the cave</tspan></text><path d="M146.71907,178.33723l44.00506,-43.46484l15.87271,1.69919l-1.69919,15.87272l-45.3643,41.72686z" fill="url(#color-1)" stroke="#b51272" stroke-width="5" stroke-linecap="round"/><path d="M193.44027,142.09721l6.36021,0.0463l-0.39648,6.32494" fill="none" stroke="#ff6aee" stroke-width="2.5" stroke-linecap="round"/><path d="M154.20102,176.79295l29.43793,-27.49467" fill="none" stroke="#ff43f0" stroke-width="2.5" stroke-linecap="round"/><path d="M161.55337,183.58362l28.91594,-26.79477" fill="none" stroke="#ff43f0" stroke-width="2.5" stroke-linecap="round"/><path d="M123.27011,225.43959l-29.22073,-50.11224l5.24559,-14.0227l14.0227,5.2456l27.32489,50.94164z" fill="url(#color-2)" stroke="#b51272" stroke-width="5" stroke-linecap="round"/><path d="M101.24602,174.54503l1.52547,-5.76691l5.65319,1.83535" fill="none" stroke="#ff6aee" stroke-width="2.5" stroke-linecap="round"/><path d="M123.61228,218.28269l-18.11069,-33.15449" fill="none" stroke="#ff43f0" stroke-width="2.5" stroke-linecap="round"/><path d="M113.89921,180.67044l17.59665,32.51707" fill="none" stroke="#ff43f0" stroke-width="2.5" stroke-linecap="round"/><path d="M113.86277,211.60711l8.82559,-24.7122l4.03542,-26.88908l14.00032,-29.32679l10.13867,-25.57194l16.10073,-0.13269l9.15794,19.94372l7.9904,40.07823l5.42598,10.93503l4.14123,20.07555l7.68372,15.10017z" fill="url(#color-3)" stroke="#b51272" stroke-width="5" stroke-linecap="butt"/><path d="M141.112,259.11887c-3.91316,1.78291 -21.09244,2.39391 -18.83673,-6.62891c1.69256,-6.77024 9.26743,-4.24274 13.97468,-3.93199c0.39218,0.02589 1.87977,-0.02235 3.31411,0.10473c0,-5.05864 0,-10.27602 0,-15.13193c0,0 0,-2.5 2.5,-2.5c2.5,0 2.5,2.5 2.5,2.5c0,6.74826 0,13.49651 0,20.24477v0.6981c0,0 0,1.64983 -1.34026,2.26897c-0.18749,0.92147 -0.7141,1.73945 -2.1118,2.37627z" fill="#000000" stroke="none" stroke-width="0.5" stroke-linecap="butt"/><path d="M170.91614,256.86388c-1.34026,-0.61914 -1.34027,-2.26897 -1.34027,-2.26897v-0.6981c0,-6.74825 0,-13.49651 0,-20.24476c0,0 0,-2.5 2.5,-2.5c2.5,0 2.5,2.5 2.5,2.5c0,4.85591 0,10.07329 0,15.13193c1.43434,-0.12707 2.92194,-0.07883 3.31412,-0.10473c4.70725,-0.31076 12.28211,-2.83826 13.97467,3.93199c2.2557,9.02283 -14.92356,8.41182 -18.83673,6.62892c-1.39769,-0.63682 -1.92431,-1.4548 -2.1118,-2.37627z" data-paper-data="{&quot;index&quot;:null}" fill="#000000" stroke="none" stroke-width="0.5" stroke-linecap="butt"/><path d="M92.6961,230.35711l-3.91317,-6.8624l3.91317,-11.6376l61.01809,-2.4902l50.63802,-2.0538l20.01056,4.54399v18.5l-47.88081,-0.4536l-36.99748,4.01103z" fill="#ff78ee" stroke="#b51272" stroke-width="5" stroke-linecap="butt"/><path d="M190.36275,187.19045l-66.66666,0.33333l4.33333,-13.33333h59.66667z" fill="#ffa1e5" stroke="#b51272" stroke-width="5" stroke-linecap="round"/><path d="M179.88635,148.38067l-44.1169,-1.33334l5.1169,-10.33333l36,0.66667z" fill="#ffa1e5" stroke="#b51272" stroke-width="5" stroke-linecap="round"/><path d="M147.66883,162.22178c-0.44584,1.78337 -0.22847,3.59546 -0.49061,5.39662c-0.55938,3.84351 -5.41548,2.95458 -6.14473,-0.32707c-0.42333,-1.90498 -0.10577,-8.40251 0.8031,-9.91729c2.23662,-3.7277 5.19069,-0.00793 5.83224,2.55827z" fill="#000000" stroke="none" stroke-width="0.5" stroke-linecap="butt"/><path d="M173.69186,162.04291c-0.46875,1.87503 0.04937,4.28046 -1.48584,5.81304c-4.86702,4.8587 -6.9538,-6.11596 -5.17334,-9.28116c0.79151,-1.40709 1.18018,-3.40132 3.31309,-3.23725c0.97383,0.07491 4.30501,1.97969 3.34608,3.41808z" fill="#000000" stroke="none" stroke-width="0.5" stroke-linecap="butt"/><path d="M164.30572,184.30355c0.05665,-0.04474 0.11327,-0.08968 0.16987,-0.13477zM164.07088,184.48781c0.05759,-0.10003 1.27111,-2.14856 3.40012,-0.95778c2.1819,1.22036 0.96155,3.40227 0.96155,3.40227l-0.88878,1.18443c-4.79666,3.65317 -9.60518,5.98865 -15.907,4.14085c-1.08644,-0.31856 -4.63786,-4.09133 -5.28251,-4.73896c0,0 -1.7627,-1.77282 0.01012,-3.53552c1.77282,-1.7627 3.53552,0.01012 3.53552,0.01012c1.20257,1.2109 1.95966,3.19986 3.61141,3.62904c4.23152,1.09952 7.44864,-0.71056 10.55957,-3.13446z" fill="#000000" stroke="none" stroke-width="0.5" stroke-linecap="butt"/></g></g></svg>