<svg version="1.1" xmlns="http://www.w3.org/2000/svg" xmlns:xlink="http://www.w3.org/1999/xlink" width="431.42643" height="314.30931" viewBox="0,0,431.42643,314.30931"><g transform="translate(-24.2868,-22.84535)"><g data-paper-data="{&quot;isPaintingLayer&quot;:true}" fill-rule="nonzero" stroke-linejoin="miter" stroke-miterlimit="10" stroke-dasharray="" stroke-dashoffset="0" style="mix-blend-mode: normal"><path d="M26.7868,334.65466v-309.30931h426.42643v309.30931z" fill="#ff9625" stroke="#b3691b" stroke-width="5" stroke-linecap="butt"/><path d="M284.00001,99.50001v-51h159v51z" fill="#da8021" stroke="#8f5415" stroke-width="5" stroke-linecap="butt"/><path d="M283.00001,262.50001v-151h159v151z" fill="#da8021" stroke="#8f5415" stroke-width="5" stroke-linecap="butt"/><path d="M283.00001,324.50001v-52h159v52z" fill="#da8021" stroke="#8f5415" stroke-width="5" stroke-linecap="butt"/><path d="M64.00001,283.50001v-202h183v202z" fill="#da8021" stroke="#8f5415" stroke-width="5" stroke-linecap="butt"/><text transform="translate(293.00001,85.12501) scale(0.65625,0.65625)" font-size="40" xml:space="preserve" fill="#ffffff" fill-rule="nonzero" stroke="none" stroke-width="1" stroke-linecap="butt" stroke-linejoin="miter" stroke-miterlimit="10" stroke-dasharray="" stroke-dashoffset="0" font-family="Pixel" font-weight="normal" text-anchor="start" style="mix-blend-mode: normal"><tspan x="0" dy="0">Leaf Cone</tspan></text><text transform="translate(336.00001,136.75) scale(0.60834,0.60834)" font-size="40" xml:space="preserve" fill="#ffffff" fill-rule="nonzero" stroke="none" stroke-width="1" stroke-linecap="butt" stroke-linejoin="miter" stroke-miterlimit="10" stroke-dasharray="" stroke-dashoffset="0" font-family="Pixel" font-weight="normal" text-anchor="start" style="mix-blend-mode: normal"><tspan x="0" dy="0">Hint:</tspan></text><text transform="translate(306.00001,166.12501) scale(0.40249,0.40249)" font-size="40" xml:space="preserve" fill="#ffffff" fill-rule="nonzero" stroke="none" stroke-width="1" stroke-linecap="butt" stroke-linejoin="miter" stroke-miterlimit="10" stroke-dasharray="" stroke-dashoffset="0" font-family="Pixel" font-weight="normal" text-anchor="start" style="mix-blend-mode: normal"><tspan x="0" dy="0">at the start</tspan></text><path d="M310.98078,316.75001v-33.5h36.07692v33.5z" fill="#5aff00" stroke="none" stroke-width="0" stroke-linecap="butt"/><text transform="translate(355.01924,306.25001) scale(0.5,0.5)" font-size="40" xml:space="preserve" fill="#ffffff" fill-rule="nonzero" stroke="none" stroke-width="1" stroke-linecap="butt" stroke-linejoin="miter" stroke-miterlimit="10" stroke-dasharray="" stroke-dashoffset="0" font-family="Pixel" font-weight="normal" text-anchor="start" style="mix-blend-mode: normal"><tspan x="0" dy="0">easy</tspan></text><path d="M93.83335,229.9557v-18.5h131.66667v18.5z" fill="#60f726" stroke="#41ad1b" stroke-width="5" stroke-linecap="butt"/><path d="M115.00001,211.2057l37,-106.5l16.10073,-0.13269l34.39927,106.1327z" fill="#60f726" stroke="#41ad19" stroke-width="5" stroke-linecap="butt"/><path d="M191.5,186.78904l-66.66666,0.33333l4.33333,-13.33333h59.66667z" fill="#82ff58" stroke="#41ad19" stroke-width="5" stroke-linecap="round"/><path d="M180.5,147.4557l-41.33334,-1.33334l2.33334,-10.33333l36,0.66667z" fill="#82ff58" stroke="#41ad19" stroke-width="5" stroke-linecap="round"/><path d="M141.5,165.5807c0,-1.38071 1.11929,-2.5 2.5,-2.5c1.38071,0 2.5,1.11929 2.5,2.5c0,1.38071 -1.11929,2.5 -2.5,2.5c-1.38071,0 -2.5,-1.11929 -2.5,-2.5z" fill="#1e520c" stroke="none" stroke-width="0.5" stroke-linecap="butt"/><path d="M162.5,165.0807c0,-1.38071 1.11929,-2.5 2.5,-2.5c1.38071,0 2.5,1.11929 2.5,2.5c0,1.38071 -1.11929,2.5 -2.5,2.5c-1.38071,0 -2.5,-1.11929 -2.5,-2.5z" fill="#1e520c" stroke="none" stroke-width="0.5" stroke-linecap="butt"/><path d="M180.70969,191.13349c0.44722,2.45968 -2.01246,2.90689 -2.01246,2.90689l-2.87732,0.51978c-4.92614,0.34683 -9.62318,2.28605 -14.5532,3.06189c-9.14093,1.43853 -18.60895,2.48565 -27.82496,3.20129c0,0 -2.49264,0.19174 -2.68438,-2.30089c-0.19174,-2.49264 2.30089,-2.68437 2.30089,-2.68437c9.0829,-0.69161 18.42263,-1.74187 27.43228,-3.15541c5.00544,-0.78531 9.68109,-2.66743 14.68956,-3.0814l2.62268,-0.48022c0,0 2.45968,-0.44721 2.90689,2.01246z" fill="#1e520c" stroke="none" stroke-width="0.5" stroke-linecap="butt"/><path d="M138.45002,254.9807c-2.17317,0 -7.57909,0.70177 -9.36803,-0.26393c-5.08484,-2.74486 -3.5529,-8.99301 1.24093,-10.65614c1.15941,-0.40223 2.87017,-0.51639 4.68048,-0.45925c2.61161,0.08244 5.43037,0.52137 7.09974,0.96614c0.53079,0.14142 1.33387,0.36031 2.03426,0.64232c-0.09474,-0.48687 -0.13054,-0.99212 -0.17521,-1.4828c-0.33981,-3.73294 0.48783,-7.70537 0.48783,-11.49635c0,0 0,-2.5 2.5,-2.5c2.5,0 2.5,2.5 2.5,2.5c0,3.08056 0.39582,5.96242 0.05926,8.99635c-0.16666,1.50243 0.0234,2.99863 -0.07143,4.50731c-0.10616,1.68891 0.36902,3.94883 -0.97035,4.98311c-0.1823,0.14077 -5.80367,4.1495 -10.01749,4.26323z" fill="#1e520c" stroke="none" stroke-width="0.5" stroke-linecap="butt"/><path d="M168.90348,250.91747c-1.33937,-1.03428 -0.86419,-3.2942 -0.97035,-4.98311c-0.09482,-1.50868 0.09524,-3.00488 -0.07143,-4.50731c-0.33656,-3.03393 0.05926,-5.91579 0.05926,-8.99634c0,0 0,-2.5 2.5,-2.5c2.5,0 2.5,2.5 2.5,2.5c0,3.79098 0.82764,7.7634 0.48783,11.49634c-0.04467,0.49068 -0.08046,0.99592 -0.17521,1.4828c0.70039,-0.28202 1.50347,-0.5009 2.03426,-0.64232c2.82653,-0.75308 8.94819,-1.48941 11.78022,-0.50689c4.79383,1.66313 6.32577,7.91128 1.24093,10.65614c-1.78895,0.9657 -7.19486,0.26393 -9.36803,0.26393c-4.21382,-0.11373 -9.83519,-4.12247 -10.01749,-4.26324z" data-paper-data="{&quot;index&quot;:null}" fill="#1e520c" stroke="none" stroke-width="0.5" stroke-linecap="butt"/><path d="M185.6957,109.27728c4.94835,14.13814 -2.86602,29.7384 -2.86602,29.7384c0,0 -15.83722,-7.3222 -20.78557,-21.46034c-4.94835,-14.13814 2.86602,-29.7384 2.86602,-29.7384c0,0 15.83722,7.3222 20.78557,21.46034z" fill="#56dd21" stroke="#41ad19" stroke-width="5" stroke-linecap="butt"/><path d="M181.18652,108.90609c3.47927,9.94078 -2.01516,20.90959 -2.01516,20.90959c0,0 -11.13543,-5.14837 -14.6147,-15.08914c-3.47927,-9.94078 2.01514,-20.90959 2.01514,-20.90959c0,0 11.13544,5.14837 14.61471,15.08915z" fill="#60f726" stroke="#41ad19" stroke-width="0" stroke-linecap="butt"/><path d="M177.19826,125.47433c-2.5,0 -2.5,-2.5 -2.5,-2.5l0.04032,-0.6912c-1.03244,-5.76538 -3.01587,-12.96938 -7.27699,-17.12175c0,0 -1.76776,-1.76777 0,-3.53554c1.76776,-1.76776 3.53554,0 3.53554,0c4.98441,5.08294 7.38593,12.84189 8.66081,19.76287l0.04032,1.58562c0,0 0,2.5 -2.5,2.5z" fill="#96f72b" stroke="none" stroke-width="0.5" stroke-linecap="butt"/><path d="M164.70001,109.30894c0,-1.01252 0.82081,-1.83334 1.83333,-1.83334c1.01252,0 1.83334,0.82082 1.83334,1.83334c0,1.01252 -0.82082,1.83333 -1.83334,1.83333c-1.01252,0 -1.83333,-0.82081 -1.83333,-1.83333z" fill="#1e520c" stroke="none" stroke-width="0.5" stroke-linecap="butt"/><path d="M180.91667,118.8756c0,1.25 -1.25,1.25 -1.25,1.25l0.1434,-0.0481c-3.3297,0.93694 -6.58729,1.99456 -10.11369,2.04617c-0.17703,1.1383 -0.396,2.34085 -0.37971,3.55192v0.8c0,0 0,1.25 -1.25,1.25c-1.25,0 -1.25,-1.25 -1.25,-1.25v-0.8c0.02772,-2.74776 2.24006,-6.38787 -0.94529,-7.41415c0,0 -1.18586,-0.39528 -0.79057,-1.58114c0.39529,-1.18586 1.58114,-0.79057 1.58114,-0.79057c2.4359,0.83294 3.15639,2.14903 3.24154,3.73108c3.2069,-0.07731 6.19196,-1.07086 9.21977,-1.94714l0.5434,-0.04809c0,0 1.25,0 1.25,1.25z" fill="#1e520c" stroke="none" stroke-width="0.5" stroke-linecap="butt"/><path d="M173.70001,110.14227c0,-1.01252 0.82081,-1.83333 1.83333,-1.83333c1.01252,0 1.83334,0.82081 1.83334,1.83333c0,1.01252 -0.82082,1.83333 -1.83334,1.83333c-1.01252,0 -1.83333,-0.82081 -1.83333,-1.83333z" fill="#1e520c" stroke="none" stroke-width="0.5" stroke-linecap="butt"/></g></g></svg>