<svg version="1.1" xmlns="http://www.w3.org/2000/svg" xmlns:xlink="http://www.w3.org/1999/xlink" width="431.42643" height="314.30931" viewBox="0,0,431.42643,314.30931"><defs><radialGradient cx="159.0791" cy="182.11864" r="95.31838" gradientUnits="userSpaceOnUse" id="color-1"><stop offset="0" stop-color="#fffa84"/><stop offset="1" stop-color="#fffa84" stop-opacity="0"/></radialGradient></defs><g transform="translate(-24.28679,-22.84534)"><g data-paper-data="{&quot;isPaintingLayer&quot;:true}" fill-rule="nonzero" stroke-linejoin="miter" stroke-miterlimit="10" stroke-dasharray="" stroke-dashoffset="0" style="mix-blend-mode: normal"><path d="M26.7868,334.65465v-309.30931h426.42643v309.30931z" fill="#ff9625" stroke="#b3691b" stroke-width="5" stroke-linecap="butt"/><path d="M284.00001,99.5v-51h159v51z" fill="#da8021" stroke="#8f5415" stroke-width="5" stroke-linecap="butt"/><path d="M283.00001,262.5v-151h159v151z" fill="#da8021" stroke="#8f5415" stroke-width="5" stroke-linecap="butt"/><path d="M283.00001,324.5v-52h159v52z" fill="#da8021" stroke="#8f5415" stroke-width="5" stroke-linecap="butt"/><path d="M64,284.5v-202h183v202z" fill="#da8021" stroke="#8f5415" stroke-width="5" stroke-linecap="butt"/><text transform="translate(300.00001,85.125) scale(0.65625,0.65625)" font-size="40" xml:space="preserve" fill="#ffffff" fill-rule="nonzero" stroke="none" stroke-width="1" stroke-linecap="butt" stroke-linejoin="miter" stroke-miterlimit="10" stroke-dasharray="" stroke-dashoffset="0" font-family="Pixel" font-weight="normal" text-anchor="start" style="mix-blend-mode: normal"><tspan x="0" dy="0">Sun Cone</tspan></text><text transform="translate(336.00001,136.75) scale(0.60834,0.60834)" font-size="40" xml:space="preserve" fill="#ffffff" fill-rule="nonzero" stroke="none" stroke-width="1" stroke-linecap="butt" stroke-linejoin="miter" stroke-miterlimit="10" stroke-dasharray="" stroke-dashoffset="0" font-family="Pixel" font-weight="normal" text-anchor="start" style="mix-blend-mode: normal"><tspan x="0" dy="0">Hint:</tspan></text><text transform="translate(306.00001,166.125) scale(0.40249,0.40249)" font-size="40" xml:space="preserve" fill="#ffffff" fill-rule="nonzero" stroke="none" stroke-width="1" stroke-linecap="butt" stroke-linejoin="miter" stroke-miterlimit="10" stroke-dasharray="" stroke-dashoffset="0" font-family="Pixel" font-weight="normal" text-anchor="start" style="mix-blend-mode: normal"><tspan x="0" dy="0">at the start</tspan></text><path d="M310.98078,316.75v-33.5h36.07692v33.5z" fill="#5aff00" stroke="none" stroke-width="0" stroke-linecap="butt"/><text transform="translate(355.01924,306.25) scale(0.5,0.5)" font-size="40" xml:space="preserve" fill="#ffffff" fill-rule="nonzero" stroke="none" stroke-width="1" stroke-linecap="butt" stroke-linejoin="miter" stroke-miterlimit="10" stroke-dasharray="" stroke-dashoffset="0" font-family="Pixel" font-weight="normal" text-anchor="start" style="mix-blend-mode: normal"><tspan x="0" dy="0">easy</tspan></text><text transform="translate(288.00001,255.025) scale(0.30249,0.30249)" font-size="40" xml:space="preserve" fill="#ffffff" fill-rule="nonzero" stroke="none" stroke-width="1" stroke-linecap="butt" stroke-linejoin="miter" stroke-miterlimit="10" stroke-dasharray="" stroke-dashoffset="0" font-family="Pixel" font-weight="normal" text-anchor="start" style="mix-blend-mode: normal"><tspan x="0" dy="0">my eyes hurt</tspan></text><path d="M140.66168,258.59045c-3.91316,1.78291 -21.09244,2.39391 -18.83673,-6.62891c1.69256,-6.77024 9.26743,-4.24274 13.97468,-3.93199c0.39218,0.02589 1.87977,-0.02235 3.31411,0.10473c0,-5.05864 0,-10.27602 0,-15.13193c0,0 0,-2.5 2.5,-2.5c2.5,0 2.5,2.5 2.5,2.5c0,6.74826 0,13.49651 0,20.24477v0.6981c0,0 0,1.64983 -1.34026,2.26897c-0.18749,0.92147 -0.7141,1.73945 -2.1118,2.37627z" fill="#000000" stroke="none" stroke-width="0.5" stroke-linecap="butt"/><path d="M170.46581,256.33546c-1.34026,-0.61914 -1.34027,-2.26897 -1.34027,-2.26897v-0.6981c0,-6.74825 0,-13.49651 0,-20.24476c0,0 0,-2.5 2.5,-2.5c2.5,0 2.5,2.5 2.5,2.5c0,4.85591 0,10.07329 0,15.13193c1.43434,-0.12707 2.92194,-0.07883 3.31412,-0.10473c4.70725,-0.31076 12.28211,-2.83826 13.97467,3.93199c2.2557,9.02283 -14.92356,8.41182 -18.83673,6.62892c-1.39769,-0.63682 -1.92431,-1.4548 -2.1118,-2.37627z" data-paper-data="{&quot;index&quot;:null}" fill="#000000" stroke="none" stroke-width="0.5" stroke-linecap="butt"/><path d="M92.24577,232.07436v-18.5h131.66667v18.5z" fill="#fff721" stroke="#ada817" stroke-width="5" stroke-linecap="butt"/><path d="M113.41244,213.32436l37,-106.5l16.10073,-0.13269l34.39927,106.1327z" fill="#fff721" stroke="#ada817" stroke-width="5" stroke-linecap="butt"/><path d="M189.91243,188.9077l-66.66666,0.33333l4.33333,-13.33333h59.66667z" fill="#ffffff" stroke="#ada817" stroke-width="5" stroke-linecap="round"/><path d="M178.91243,149.57436l-41.33334,-1.33334l2.33334,-10.33333l36,0.66667z" fill="#ffffff" stroke="#ada817" stroke-width="5" stroke-linecap="round"/><path d="M147.2185,161.69336c-0.44584,1.78337 -0.22847,3.59546 -0.49061,5.39662c-0.55938,3.84351 -5.41548,2.95458 -6.14473,-0.32707c-0.42333,-1.90498 -0.10577,-8.40251 0.8031,-9.91729c2.23662,-3.7277 5.19069,-0.00793 5.83224,2.55827z" fill="#000000" stroke="none" stroke-width="0.5" stroke-linecap="butt"/><path d="M173.24154,161.51449c-0.46875,1.87503 0.04937,4.28046 -1.48584,5.81304c-4.86702,4.8587 -6.9538,-6.11596 -5.17334,-9.28116c0.79151,-1.40709 1.18018,-3.40132 3.31309,-3.23725c0.97383,0.07491 4.30501,1.97969 3.34608,3.41808z" fill="#000000" stroke="none" stroke-width="0.5" stroke-linecap="butt"/><path d="M163.85539,183.77513c0.05665,-0.04474 0.11327,-0.08968 0.16987,-0.13477zM163.62056,183.95939c0.05759,-0.10003 1.27111,-2.14856 3.40012,-0.95778c2.1819,1.22036 0.96155,3.40227 0.96155,3.40227l-0.88878,1.18443c-4.79666,3.65317 -9.60518,5.98865 -15.907,4.14085c-1.08644,-0.31856 -4.63786,-4.09133 -5.28251,-4.73896c0,0 -1.7627,-1.77282 0.01012,-3.53552c1.77282,-1.7627 3.53552,0.01012 3.53552,0.01012c1.20257,1.2109 1.95966,3.19986 3.61141,3.62904c4.23152,1.09952 7.44864,-0.71056 10.55957,-3.13446z" fill="#000000" stroke="none" stroke-width="0.5" stroke-linecap="butt"/><path d="M260.06323,182.7853c0,56.71989 -51.47136,102.03379 -100.98413,102.03379c-49.51277,0 -102.98413,-45.98056 -102.98413,-102.70046c0,-23.70789 12.34581,-52.20619 24.12425,-69.58807c16.40087,-24.20336 50.04255,-33.11238 78.85988,-33.11238c49.51277,0 99.6508,25.98056 99.6508,82.70045z" fill="url(#color-1)" stroke="none" stroke-width="0" stroke-linecap="butt"/></g></g></svg>