<svg version="1.1" xmlns="http://www.w3.org/2000/svg" xmlns:xlink="http://www.w3.org/1999/xlink" width="136.66667" height="153.369" viewBox="0,0,136.66667,153.369"><g transform="translate(-170.84358,-102.05799)"><g data-paper-data="{&quot;isPaintingLayer&quot;:true}" fill-rule="nonzero" stroke-linejoin="miter" stroke-miterlimit="10" stroke-dasharray="" stroke-dashoffset="0" style="mix-blend-mode: normal"><path d="M193.3597,196.22646c-1.33935,-1.29684 -1.03653,-35.71458 0,-52.66667c0.40019,-6.54509 25.66667,0 25.66667,0v52.66667c0,0 -17.83603,7.58213 -25.66667,0z" fill="#ff2121" stroke="none" stroke-width="0" stroke-linecap="butt"/><path d="M214.88261,147.4177c0,0 -10.46036,-3.12739 -12.58929,-0.86694c-1.9608,2.08193 -1.47619,7.44272 -1.76205,11.25884c-0.50716,6.77032 0.55665,13.66434 0.55548,20.43444c-0.00004,0.22263 -0.13773,5.75153 0.09593,6.41624c0.34324,0.9764 -1.84513,8.87848 -2.705,10.47404c-0.9811,1.82052 -2.24484,2.49231 -2.68189,2.85939c-2.99821,-3.1115 -2.03409,-37.5156 -2.20646,-41.38638c-0.13875,-3.11567 -0.56931,-11.47411 -0.06226,-12.57c1.44671,-3.12678 22.18138,-2.3832 22.90448,-1.24738c0.78401,1.23147 -1.54895,4.62775 -1.54895,4.62775z" fill="#dc0042" stroke="none" stroke-width="0.5" stroke-linecap="butt"/><path d="M193.69304,195.89312c-1.33935,-1.29684 -1.03653,-35.71458 0,-52.66667c0.40019,-6.54509 25.66667,0 25.66667,0v52.66667c0,0 -17.83604,7.58213 -25.66667,0z" fill="none" stroke="#560b0b" stroke-width="5" stroke-linecap="butt"/><path d="M195.51024,213.53905l37,-106.5l16.10073,-0.13269l34.39927,106.1327z" fill="#ff2121" stroke="none" stroke-width="0" stroke-linecap="butt"/><path d="M274.67691,187.00001c0.83654,0 3.25807,16.23594 8.37982,21.1089c7.64049,7.26935 21.90652,3.21707 21.1068,5.23932c-1.52997,3.86882 4.49596,11.89039 1.77947,14.23246c-9.2407,7.96702 -44.42966,2.82127 -57.12938,1.66675c-6.85459,-0.00355 -15.02883,-0.5781 -21.81822,0.87171c-2.67237,0.57066 -19.68931,0.017 -34.66383,-0.23936c-8.13149,-0.13921 -13.2761,1.61693 -14.84918,0.5157c-2.23019,-1.89432 -3.85002,-17.00886 -3.25055,-17.65256c3.56709,-3.83022 8.7517,-1.59577 13.57871,-1.98493c0.93424,-0.07532 5.91746,0.01377 7.67909,-2.38471c2.56431,-3.49134 2.72214,-13.55473 4.78548,-13.38252c1.9956,-1.19028 0.81522,-2.21085 0.81522,-2.21085c6.21495,9.34315 15.91651,13.27674 27.33504,14.90887c1.09617,0.15669 16.11404,1.18063 25.41352,-0.3482c10.30076,-1.69344 14.94704,-6.12186 15.5557,-9.67659c0.26419,-1.54291 2.78228,-10.664 5.28228,-10.664z" fill="#dc0042" stroke="none" stroke-width="0.5" stroke-linecap="butt"/><path d="M173.34358,229.95571v-18.5h131.66667v18.5z" fill="none" stroke="#560b0b" stroke-width="5" stroke-linecap="butt"/><path d="M194.51024,211.20571l37,-106.5l16.10073,-0.13269l34.39927,106.1327z" fill="none" stroke="#560b0b" stroke-width="5" stroke-linecap="butt"/><path d="M271.01022,186.78905l-66.66666,0.33333l4.33333,-13.33333h59.66667z" fill="#ffffff" stroke="#560b0b" stroke-width="5" stroke-linecap="round"/><path d="M260.01024,147.45571l-41.33334,-1.33334l2.33334,-10.33333l36,0.66667z" fill="#ffffff" stroke="#560b0b" stroke-width="5" stroke-linecap="round"/><path d="M219.76023,160.83071c0,-5.50748 -2.6972,-10.5246 3.60225,-13.45314c4.75533,-2.21069 43.37745,-2.84059 48.83216,-0.85479c10.00705,3.64309 11.55016,10.90978 11.55016,17.16507c0,9.66497 -7.75412,9.07142 -25.77799,9.07142c-18.02386,0 -38.20657,-2.2636 -38.20657,-11.92857z" fill="#81b1e2" stroke="none" stroke-width="0" stroke-linecap="butt"/><path d="M251.17691,182.38047c-7.46254,-0.06116 -30.24831,-5.56401 -32.42857,-6.92857c-2.90634,-1.81899 1.46562,-27.99468 1.6372,-27.95746c0.302,0.04726 9.44811,-1.49637 9.85089,-1.3729c0.23629,0.07244 -5.60815,2.84018 -6.29566,6.48828c-1.0329,5.48086 1.56773,7.63521 1.76906,7.78343c0.20133,0.14822 4.23168,4.8499 13.43164,7.33473c12.08005,3.26272 30.04001,3.17383 34.58408,0.91643c5.06525,-2.51631 8.74458,-7.0391 8.74458,-7.0391c0,0 -1.29379,17.54795 -7.59301,19.33094c-8.27179,2.34133 -22.94193,1.45045 -23.7002,1.44423z" fill="#5288bf" stroke="none" stroke-width="0.5" stroke-linecap="butt"/><path d="M218.47451,152.33071c0,-9.66497 11.89699,-7.5 29.92086,-7.5c4.62448,0 23.07335,-0.51743 27.42738,2.41384c12.61572,8.49331 8.32216,27.97962 2.61201,31.92748c-15.61935,10.79887 -51.11634,0.42031 -58.22034,-2.24713c-6.64731,-2.49597 -1.7399,-20.10845 -1.7399,-24.59419z" fill="none" stroke="#22324a" stroke-width="6" stroke-linecap="butt"/><path d="M217.96022,254.98071c-2.17317,0 -7.57909,0.70177 -9.36803,-0.26393c-5.08484,-2.74486 -3.5529,-8.99301 1.24093,-10.65614c1.15941,-0.40223 2.87017,-0.51639 4.68048,-0.45925c2.61161,0.08244 5.43037,0.52137 7.09974,0.96614c0.53079,0.14142 1.33387,0.36031 2.03426,0.64232c-0.09474,-0.48687 -0.13054,-0.99212 -0.17521,-1.4828c-0.33981,-3.73294 0.48783,-7.70537 0.48783,-11.49635c0,0 0,-2.5 2.5,-2.5c2.5,0 2.5,2.5 2.5,2.5c0,3.08056 0.39582,5.96242 0.05926,8.99635c-0.16666,1.50243 0.0234,2.99863 -0.07143,4.50731c-0.10616,1.68891 0.36902,3.94883 -0.97035,4.98311c-0.1823,0.14077 -5.80367,4.1495 -10.01749,4.26323z" fill="#560b0b" stroke="none" stroke-width="0.5" stroke-linecap="butt"/><path d="M248.4137,250.91748c-1.33937,-1.03428 -0.86419,-3.2942 -0.97035,-4.98311c-0.09482,-1.50868 0.09524,-3.00488 -0.07143,-4.50731c-0.33656,-3.03393 0.05926,-5.91579 0.05926,-8.99634c0,0 0,-2.5 2.5,-2.5c2.5,0 2.5,2.5 2.5,2.5c0,3.79098 0.82764,7.7634 0.48783,11.49634c-0.04467,0.49068 -0.08046,0.99592 -0.17521,1.4828c0.70039,-0.28202 1.50347,-0.5009 2.03426,-0.64232c2.82653,-0.75308 8.94819,-1.48941 11.78022,-0.50689c4.79383,1.66313 6.32577,7.91128 1.24093,10.65614c-1.78895,0.9657 -7.19486,0.26393 -9.36803,0.26393c-4.21382,-0.11373 -9.83519,-4.12247 -10.01749,-4.26324z" data-paper-data="{&quot;index&quot;:null}" fill="#560b0b" stroke="none" stroke-width="0.5" stroke-linecap="butt"/><path d="M272.69328,153.11998c1.48897,1.75102 2.86093,5.67115 0.35946,7.84887c-2.50147,2.17772 -2.0636,-0.73223 -8.45537,-3.13956c-6.39177,-2.40733 -7.69173,0.75254 -9.99303,-3.53026c-2.3013,-4.2828 1.60262,-3.81554 4.69579,-4.01715c3.09317,-0.20162 9.38434,-1.87626 13.39315,2.83809c0,0 -1.48897,-1.75101 0,0.00001z" fill="#e8fbff" stroke="none" stroke-width="0.5" stroke-linecap="butt"/></g></g></svg>