<svg version="1.1" xmlns="http://www.w3.org/2000/svg" xmlns:xlink="http://www.w3.org/1999/xlink" width="665.50463" height="422.21349" viewBox="0,0,665.50463,422.21349"><g transform="translate(37.75232,27.10675)"><g data-paper-data="{&quot;isPaintingLayer&quot;:true}" fill-rule="nonzero" stroke-linecap="butt" stroke-linejoin="miter" stroke-miterlimit="10" stroke-dasharray="" stroke-dashoffset="0" style="mix-blend-mode: normal"><path d="M-4.47455,360.86219v-370.87087h490.99099v370.87087z" fill="#75ffda" stroke="none" stroke-width="0"/><path d="M-13.93443,-27.10675l519.23945,3.73042l-24.43981,293.27773l-80.80101,-6.73342c0,0 -2.26228,-133.03272 -0.24626,-218.14138c0.52341,-22.0965 5.90506,-31.34578 -7.05113,-32.59997c-12.95619,-1.25419 -406.05855,2.25102 -406.05855,2.25102z" fill="#6be8c7" stroke="none" stroke-width="0"/><path d="M625.13747,257.55328c0.84066,18.71509 -15.2042,42.289 -54.69405,51.52642c-60.14691,14.06947 -163.48271,8.91041 -256.2487,13.07734c-103.89075,4.66664 -163.5491,28.85486 -212.5052,5.07582c-23.45831,-11.3942 -32.36085,-29.38579 -33.04796,-44.68248c-2.12106,-47.22 120.73533,-91.09516 274.40744,-97.99792c153.67211,-6.90276 279.96742,25.78082 282.08849,73.00082z" fill="#46ce61" stroke="#287638" stroke-width="5"/><path d="M521.80473,333.66869c0,18.73396 -17.08654,41.56414 -56.95113,49.0202c-60.71767,11.3563 -163.71787,1.56539 -256.5774,1.56539c-103.99551,0 -164.67917,21.48677 -212.51891,-4.46514c-22.92338,-12.43538 -31.00961,-30.80833 -31.00961,-46.12045c0,-47.26761 124.70147,-85.58558 278.52853,-85.58558c153.82706,0 278.52853,38.31797 278.52853,85.58558z" fill="#57ff78" stroke="#3eb555" stroke-width="5"/><path d="M-6.75232,362.10673v-51h492v51z" fill="#c8fff0" stroke="#98c3b8" stroke-width="5"/><text transform="translate(82.13356,347.9564) scale(0.71568,0.71568)" font-size="40" xml:space="preserve" fill="#000000" fill-rule="nonzero" stroke="none" stroke-width="1" stroke-linecap="butt" stroke-linejoin="miter" stroke-miterlimit="10" stroke-dasharray="" stroke-dashoffset="0" font-family="Pixel" font-weight="normal" text-anchor="start" style="mix-blend-mode: normal"><tspan x="0" dy="0">Welcome to WinCone Xp</tspan></text></g></g></svg>