<svg version="1.1" xmlns="http://www.w3.org/2000/svg" xmlns:xlink="http://www.w3.org/1999/xlink" width="431.42643" height="314.30931" viewBox="0,0,431.42643,314.30931"><g transform="translate(-24.28681,-22.84537)"><g data-paper-data="{&quot;isPaintingLayer&quot;:true}" fill-rule="nonzero" stroke-linejoin="miter" stroke-miterlimit="10" stroke-dasharray="" stroke-dashoffset="0" style="mix-blend-mode: normal"><path d="M26.78681,334.65468v-309.30931h426.42643v309.30931z" fill="#ff9625" stroke="#b3691b" stroke-width="5" stroke-linecap="butt"/><path d="M284.00003,99.50005v-51h159v51z" fill="#da8021" stroke="#8f5415" stroke-width="5" stroke-linecap="butt"/><path d="M283.00003,262.50005v-151h159v151z" fill="#da8021" stroke="#8f5415" stroke-width="5" stroke-linecap="butt"/><path d="M283.00003,324.50005v-52h159v52z" fill="#da8021" stroke="#8f5415" stroke-width="5" stroke-linecap="butt"/><path d="M64.00003,283.50005v-202h183v202z" fill="#da8021" stroke="#8f5415" stroke-width="5" stroke-linecap="butt"/><text transform="translate(287.50003,82.0495) scale(0.62638,0.62638)" font-size="40" xml:space="preserve" fill="#ffffff" fill-rule="nonzero" stroke="none" stroke-width="1" stroke-linecap="butt" stroke-linejoin="miter" stroke-miterlimit="10" stroke-dasharray="" stroke-dashoffset="0" font-family="Pixel" font-weight="normal" text-anchor="start" style="mix-blend-mode: normal"><tspan x="0" dy="0">Yellow Cone</tspan></text><text transform="translate(336.00003,136.75002) scale(0.60834,0.60834)" font-size="40" xml:space="preserve" fill="#ffffff" fill-rule="nonzero" stroke="none" stroke-width="1" stroke-linecap="butt" stroke-linejoin="miter" stroke-miterlimit="10" stroke-dasharray="" stroke-dashoffset="0" font-family="Pixel" font-weight="normal" text-anchor="start" style="mix-blend-mode: normal"><tspan x="0" dy="0">Hint:</tspan></text><text transform="translate(305.58334,165.84453) scale(0.3947,0.3947)" font-size="40" xml:space="preserve" fill="#ffffff" fill-rule="nonzero" stroke="none" stroke-width="1" stroke-linecap="butt" stroke-linejoin="miter" stroke-miterlimit="10" stroke-dasharray="" stroke-dashoffset="0" font-family="Pixel" font-weight="normal" text-anchor="start" style="mix-blend-mode: normal"><tspan x="0" dy="0">Click something</tspan><tspan x="0" dy="48px">light yellow.</tspan></text><path d="M311.33078,317.15002v-33.5h36.07692v33.5z" fill="#ff0000" stroke="none" stroke-width="0" stroke-linecap="butt"/><text transform="translate(355.36926,306.65002) scale(0.5,0.5)" font-size="40" xml:space="preserve" fill="#ffffff" fill-rule="nonzero" stroke="none" stroke-width="1" stroke-linecap="butt" stroke-linejoin="miter" stroke-miterlimit="10" stroke-dasharray="" stroke-dashoffset="0" font-family="Pixel" font-weight="normal" text-anchor="start" style="mix-blend-mode: normal"><tspan x="0" dy="0">Hard</tspan></text><path d="" data-paper-data="{&quot;index&quot;:null}" fill="#fff600" stroke="#ada700" stroke-width="5" stroke-linecap="butt"/><path d="" data-paper-data="{&quot;index&quot;:null}" fill="#fff600" stroke="#ada700" stroke-width="5" stroke-linecap="butt"/><path d="" data-paper-data="{&quot;index&quot;:null}" fill="#ffffff" stroke="#ada700" stroke-width="5" stroke-linecap="round"/><path d="" data-paper-data="{&quot;index&quot;:null}" fill="#ffffff" stroke="#ada700" stroke-width="5" stroke-linecap="round"/><path d="" fill="#68650e" stroke="none" stroke-width="0.5" stroke-linecap="butt"/><path d="" fill="#68650e" stroke="none" stroke-width="0.5" stroke-linecap="butt"/><path d="" fill="#68650e" stroke="none" stroke-width="0.5" stroke-linecap="butt"/><path d="" fill="#68650e" stroke="none" stroke-width="0.5" stroke-linecap="butt"/><path d="" data-paper-data="{&quot;index&quot;:null}" fill="#68650e" stroke="none" stroke-width="0.5" stroke-linecap="butt"/><path d="M94.16669,230.70572v-18.5h131.66667v18.5z" fill="#ffea00" stroke="#ad9e00" stroke-width="5" stroke-linecap="butt"/><path d="M115.33335,211.95572l37,-106.5l16.10073,-0.13269l34.39927,106.1327z" fill="#ffea00" stroke="#ad9e00" stroke-width="5" stroke-linecap="butt"/><path d="M191.83334,187.53906l-66.66666,0.33333l4.33333,-13.33333h59.66667z" fill="#ffffff" stroke="#ad9e00" stroke-width="5" stroke-linecap="round"/><path d="M180.83335,148.20572l-41.33334,-1.33334l2.33334,-10.33333l36,0.66667z" fill="#ffffff" stroke="#ad9e00" stroke-width="5" stroke-linecap="round"/><path d="M141.83335,166.33072c0,-1.38071 1.11929,-2.5 2.5,-2.5c1.38071,0 2.5,1.11929 2.5,2.5c0,1.38071 -1.11929,2.5 -2.5,2.5c-1.38071,0 -2.5,-1.11929 -2.5,-2.5z" fill="#605800" stroke="none" stroke-width="0.5" stroke-linecap="butt"/><path d="M162.83334,165.83072c0,-1.38071 1.11929,-2.5 2.5,-2.5c1.38071,0 2.5,1.11929 2.5,2.5c0,1.38071 -1.11929,2.5 -2.5,2.5c-1.38071,0 -2.5,-1.11929 -2.5,-2.5z" fill="#605800" stroke="none" stroke-width="0.5" stroke-linecap="butt"/><path d="M131.13453,199.53253c-0.44722,-2.45968 2.01246,-2.90689 2.01246,-2.90689l2.87732,-0.51978c4.92614,-0.34683 9.62318,-2.28605 14.5532,-3.06189c9.14093,-1.43853 18.60895,-2.48565 27.82496,-3.20129c0,0 2.49264,-0.19174 2.68438,2.30089c0.19174,2.49264 -2.30089,2.68437 -2.30089,2.68437c-9.0829,0.69161 -18.42263,1.74187 -27.43228,3.15541c-5.00544,0.78531 -9.68109,2.66743 -14.68956,3.0814l-2.62268,0.48022c0,0 -2.45968,0.44721 -2.90689,-2.01246z" data-paper-data="{&quot;index&quot;:null}" fill="#605800" stroke="none" stroke-width="0.5" stroke-linecap="butt"/><path d="M138.78334,255.73072c-2.17317,0 -7.57909,0.70177 -9.36803,-0.26393c-5.08484,-2.74486 -3.5529,-8.99301 1.24093,-10.65614c1.15941,-0.40223 2.87017,-0.51639 4.68048,-0.45925c2.61161,0.08244 5.43037,0.52137 7.09974,0.96614c0.53079,0.14142 1.33387,0.36031 2.03426,0.64232c-0.09474,-0.48687 -0.13054,-0.99212 -0.17521,-1.4828c-0.33981,-3.73294 0.48783,-7.70537 0.48783,-11.49635c0,0 0,-2.5 2.5,-2.5c2.5,0 2.5,2.5 2.5,2.5c0,3.08056 0.39582,5.96242 0.05926,8.99635c-0.16666,1.50243 0.0234,2.99863 -0.07143,4.50731c-0.10616,1.68891 0.36902,3.94883 -0.97035,4.98311c-0.1823,0.14077 -5.80367,4.1495 -10.01749,4.26323z" fill="#605800" stroke="none" stroke-width="0.5" stroke-linecap="butt"/><path d="M169.23682,251.66749c-1.33937,-1.03428 -0.86419,-3.2942 -0.97035,-4.98311c-0.09482,-1.50868 0.09524,-3.00488 -0.07143,-4.50731c-0.33656,-3.03393 0.05926,-5.91579 0.05926,-8.99634c0,0 0,-2.5 2.5,-2.5c2.5,0 2.5,2.5 2.5,2.5c0,3.79098 0.82764,7.7634 0.48783,11.49634c-0.04467,0.49068 -0.08046,0.99592 -0.17521,1.4828c0.70039,-0.28202 1.50347,-0.5009 2.03426,-0.64232c2.82653,-0.75308 8.94819,-1.48941 11.78022,-0.50689c4.79383,1.66313 6.32577,7.91128 1.24093,10.65614c-1.78895,0.9657 -7.19486,0.26393 -9.36803,0.26393c-4.21382,-0.11373 -9.83519,-4.12247 -10.01749,-4.26324z" data-paper-data="{&quot;index&quot;:null}" fill="#605800" stroke="none" stroke-width="0.5" stroke-linecap="butt"/><path d="M152.66331,158.27043c0.64218,0.08096 2.23671,0.483 2.23671,2.47958c0,2.5 -2.5,2.5 -2.5,2.5l-0.99057,-0.12829c-4.29258,-1.43849 -8.90846,-2.58553 -13.33325,-3.52721c0,0 -2.4445,-0.52383 -1.92068,-2.96833c0.52382,-2.4445 2.96833,-1.92068 2.96833,-1.92068c4.49498,0.9692 9.15832,2.13001 13.53946,3.56492z" fill="#605800" stroke="none" stroke-width="0.5" stroke-linecap="butt"/><path d="M179.63436,153.89693c1.4531,2.03433 -0.58124,3.48743 -0.58124,3.48743l-1.98883,1.31153c-4.96834,1.83036 -9.65113,3.72301 -14.89341,4.52648c0,0 -2.47234,0.37085 -2.84319,-2.10149c-0.37085,-2.47234 2.10149,-2.84319 2.10149,-2.84319c4.88408,-0.71446 9.27811,-2.56821 13.90659,-4.27352l0.81117,-0.68848c0,0 2.03433,-1.45309 3.48743,0.58124z" fill="#605800" stroke="none" stroke-width="0.5" stroke-linecap="butt"/><text transform="translate(286.83333,258.18667) scale(0.23333,0.23333)" font-size="40" xml:space="preserve" fill="#ffffff" fill-rule="nonzero" stroke="none" stroke-width="1" stroke-linecap="butt" stroke-linejoin="miter" stroke-miterlimit="10" stroke-dasharray="" stroke-dashoffset="0" font-family="Pixel" font-weight="normal" text-anchor="start" style="mix-blend-mode: normal"><tspan x="0" dy="0">he angy &gt;:(</tspan></text></g></g></svg>