<svg version="1.1" xmlns="http://www.w3.org/2000/svg" xmlns:xlink="http://www.w3.org/1999/xlink" width="431.42643" height="316.90284" viewBox="0,0,431.42643,316.90284"><g transform="translate(-24.28681,-20.25184)"><g data-paper-data="{&quot;isPaintingLayer&quot;:true}" fill-rule="nonzero" stroke-linejoin="miter" stroke-miterlimit="10" stroke-dasharray="" stroke-dashoffset="0" style="mix-blend-mode: normal"><path d="M26.78682,334.65468v-309.30931h426.42643v309.30931z" fill="#ff9625" stroke="#b3691b" stroke-width="5" stroke-linecap="butt"/><path d="M284.00003,99.50005v-51h159v51z" fill="#da8021" stroke="#8f5415" stroke-width="5" stroke-linecap="butt"/><path d="M283.00003,262.50005v-151h159v151z" fill="#da8021" stroke="#8f5415" stroke-width="5" stroke-linecap="butt"/><path d="M283.00003,324.50005v-52h159v52z" fill="#da8021" stroke="#8f5415" stroke-width="5" stroke-linecap="butt"/><path d="M64.00002,283.50005v-202h183v202z" fill="#da8021" stroke="#8f5415" stroke-width="5" stroke-linecap="butt"/><text transform="translate(290.00003,85.23831) scale(0.65939,0.65939)" font-size="40" xml:space="preserve" fill="#ffffff" fill-rule="nonzero" stroke="none" stroke-width="1" stroke-linecap="butt" stroke-linejoin="miter" stroke-miterlimit="10" stroke-dasharray="" stroke-dashoffset="0" font-family="Pixel" font-weight="normal" text-anchor="start" style="mix-blend-mode: normal"><tspan x="0" dy="0">Apple Cone</tspan></text><text transform="translate(336.00003,136.75001) scale(0.60834,0.60834)" font-size="40" xml:space="preserve" fill="#ffffff" fill-rule="nonzero" stroke="none" stroke-width="1" stroke-linecap="butt" stroke-linejoin="miter" stroke-miterlimit="10" stroke-dasharray="" stroke-dashoffset="0" font-family="Pixel" font-weight="normal" text-anchor="start" style="mix-blend-mode: normal"><tspan x="0" dy="0">Hint:</tspan></text><path d="M311.4808,317.00005v-33.5h36.07692v33.5z" fill="#faff00" stroke="none" stroke-width="0" stroke-linecap="butt"/><text transform="translate(355.51926,306.50005) scale(0.5,0.5)" font-size="40" xml:space="preserve" fill="#ffffff" fill-rule="nonzero" stroke="none" stroke-width="1" stroke-linecap="butt" stroke-linejoin="miter" stroke-miterlimit="10" stroke-dasharray="" stroke-dashoffset="0" font-family="Pixel" font-weight="normal" text-anchor="start" style="mix-blend-mode: normal"><tspan x="0" dy="0">medium</tspan></text><text transform="translate(294.58333,163.84454) scale(0.3947,0.3947)" font-size="40" xml:space="preserve" fill="#ffffff" fill-rule="nonzero" stroke="none" stroke-width="1" stroke-linecap="butt" stroke-linejoin="miter" stroke-miterlimit="10" stroke-dasharray="" stroke-dashoffset="0" font-family="Pixel" font-weight="normal" text-anchor="start" style="mix-blend-mode: normal"><tspan x="0" dy="0">In a tree at the</tspan><tspan x="0" dy="48px">start</tspan></text><path d="M92.1667,236.45572v-18.5h131.66667v18.5z" fill="#ec1c2c" stroke="#b41623" stroke-width="5" stroke-linecap="butt"/><path d="M113.33335,217.70572l37,-106.5l16.10073,-0.13269l34.39927,106.1327z" fill="#ec1c2c" stroke="#b41623" stroke-width="5" stroke-linecap="butt"/><path d="M189.83333,193.28906l-66.66666,0.33333l4.33333,-13.33333h59.66667z" fill="#ffaebb" stroke="#b41623" stroke-width="5" stroke-linecap="round"/><path d="M178.83338,153.95572l-41.33334,-1.33334l2.33334,-10.33333l36,0.66667z" fill="#ffffff" stroke="#b41623" stroke-width="5" stroke-linecap="round"/><path d="M139.83335,172.08072c0,-1.38071 1.11929,-2.5 2.5,-2.5c1.38071,0 2.5,1.11929 2.5,2.5c0,1.38071 -1.11929,2.5 -2.5,2.5c-1.38071,0 -2.5,-1.11929 -2.5,-2.5z" fill="#660000" stroke="none" stroke-width="0.5" stroke-linecap="butt"/><path d="M160.83334,171.58072c0,-1.38071 1.11929,-2.5 2.5,-2.5c1.38071,0 2.5,1.11929 2.5,2.5c0,1.38071 -1.11929,2.5 -2.5,2.5c-1.38071,0 -2.5,-1.11929 -2.5,-2.5z" fill="#660000" stroke="none" stroke-width="0.5" stroke-linecap="butt"/><path d="M179.04304,197.63351c0.44722,2.45968 -2.01246,2.90689 -2.01246,2.90689l-2.87732,0.51978c-4.92614,0.34683 -9.62318,2.28605 -14.5532,3.06189c-9.14093,1.43853 -18.60895,2.48565 -27.82496,3.20129c0,0 -2.49264,0.19174 -2.68438,-2.30089c-0.19174,-2.49264 2.30089,-2.68437 2.30089,-2.68437c9.0829,-0.69161 18.42263,-1.74187 27.43228,-3.15541c5.00544,-0.78531 9.68109,-2.66743 14.68956,-3.0814l2.62268,-0.48022c0,0 2.45968,-0.44721 2.90689,2.01246z" fill="#660000" stroke="none" stroke-width="0.5" stroke-linecap="butt"/><path d="M136.78336,261.48071c-2.17317,0 -7.57909,0.70177 -9.36803,-0.26393c-5.08484,-2.74486 -3.5529,-8.99301 1.24093,-10.65614c1.15941,-0.40223 2.87017,-0.51639 4.68048,-0.45925c2.61161,0.08244 5.43037,0.52137 7.09974,0.96614c0.53079,0.14142 1.33387,0.36031 2.03426,0.64232c-0.09474,-0.48687 -0.13054,-0.99212 -0.17521,-1.4828c-0.33981,-3.73294 0.48783,-7.70537 0.48783,-11.49635c0,0 0,-2.5 2.5,-2.5c2.5,0 2.5,2.5 2.5,2.5c0,3.08056 0.39582,5.96242 0.05926,8.99635c-0.16666,1.50243 0.0234,2.99863 -0.07143,4.50731c-0.10616,1.68891 0.36902,3.94883 -0.97035,4.98311c-0.1823,0.14077 -5.80367,4.1495 -10.01749,4.26323z" fill="#660000" stroke="none" stroke-width="0.5" stroke-linecap="butt"/><path d="M167.23681,257.41748c-1.33937,-1.03428 -0.86419,-3.2942 -0.97035,-4.98311c-0.09482,-1.50868 0.09524,-3.00488 -0.07143,-4.50731c-0.33656,-3.03393 0.05926,-5.91579 0.05926,-8.99634c0,0 0,-2.5 2.5,-2.5c2.5,0 2.5,2.5 2.5,2.5c0,3.79098 0.82764,7.7634 0.48783,11.49634c-0.04467,0.49068 -0.08046,0.99592 -0.17521,1.4828c0.70039,-0.28202 1.50347,-0.5009 2.03426,-0.64232c2.82653,-0.75308 8.94819,-1.48941 11.78022,-0.50689c4.79383,1.66313 6.32577,7.91128 1.24093,10.65614c-1.78895,0.9657 -7.19486,0.26393 -9.36803,0.26393c-4.21382,-0.11373 -9.83519,-4.12247 -10.01749,-4.26324z" data-paper-data="{&quot;index&quot;:null}" fill="#660000" stroke="none" stroke-width="0.5" stroke-linecap="butt"/><path d="M185.58302,127.90201c0,14.527 -12.525,26.307 -27.978,26.307c-15.453,0 -27.977,-11.775 -27.977,-26.307c0,-14.527 12.523,-21.275 27.977,-21.275c15.452,-0.001 27.978,6.749 27.978,21.275z" fill="#ec1c2c" stroke="none" stroke-width="1" stroke-linecap="butt"/><g fill="#b41623" stroke="none" stroke-width="1" stroke-linecap="butt"><path d="M188.71602,127.62101c0,16.156 -13.927,29.254 -31.109,29.254c-17.179,0 -31.107,-13.098 -31.107,-29.254c0,-14.238 10.821,-20.648 25.149,-21.972c0,0 4.528,-0.58 9.136,-0.189c15.684,0.73 27.931,7.017 27.931,22.161zM183.97002,128.05002c0,-12.602 -10.007,-18.984 -22.949,-19.92c0,0 -8.207,0.115 -8.456,0.144c-12.145,1.341 -21.314,7.71 -21.314,19.774c0,13.686 11.798,24.785 26.357,24.785c14.558,0 26.356,-11.097 26.362,-24.783z"/><path d="M166.56002,114.56501c-3.568,0.181 -6.986,0.271 -10.561,0.672c-2.387,0.268 -4.687,0.289 -6.455,-1.514c-0.384,-0.395 0.118,-1.076 0.598,-0.773c1.182,0.741 2.373,1.041 3.571,1.099c0.078,0.064 4.274,-0.49 6.19,-1.098c2.312,-0.63 4.626,-1.15 6.929,-0.389c1.101,0.364 0.888,1.942 -0.272,2.003z"/></g><path d="M140.36587,122.71236c-1.72721,2.96454 -1.52872,6.29877 -3.19978,5.32517c-1.67106,-0.9736 -1.62417,-4.16486 0.10304,-7.1294c1.72671,-2.96368 4.47979,-4.57825 6.15086,-3.60465c1.67106,0.9736 -1.32791,2.44606 -3.05411,5.40887z" fill="#ffaebb" stroke="none" stroke-width="1" stroke-linecap="butt"/><path d="M150.61602,98.18602c1.021,-0.61 2.039,-1.222 3.059,-1.833c0.734,1.128 1.472,2.229 2.064,3.482c2.162,4.564 1.686,9.385 1.624,14.212c-0.375,0.089 -0.977,0.153 -1.348,0.219c0.258,-6.148 -1.205,-11.784 -5.399,-16.08z" fill="#99661d" stroke="none" stroke-width="1" stroke-linecap="butt"/><path d="M159.79701,111.93801c0,0 -0.23,1.876 -0.251,2.23c0,0 -3.771,1.124 -5.25,0.562l-0.046,-1.609c0.03,-3.215 -0.97,-6.668 -1.562,-7.749c-0.283,-0.516 -1.423,-3.466 -4.9,-6.557c-0.596,-0.527 -0.395,-1.515 0.242,-1.898c1.807,-1.084 3.609,-2.168 5.414,-3.252c0.58,-0.347 1.265,-0.088 1.658,0.435c5.528,7.358 4.864,17.077 4.695,17.838zM157.26101,112.65201c0.112,-4.442 0.49,-8.57 -1.522,-12.817c-0.592,-1.253 -1.33,-2.354 -2.064,-3.482c-1.02,0.611 -2.038,1.223 -3.059,1.833c3.962,4.058 5.58,8.969 5.53,14.683v1.152l1.109,-0.141z" fill="#5f3f12" stroke="none" stroke-width="1" stroke-linecap="butt"/><path d="M149.03661,144.61501c4.82987,2.23734 9.86442,2.50258 8.69391,4.12111c-1.17051,1.61852 -6.03316,1.11561 -10.86304,-1.12173c-4.82847,-2.23668 -7.79554,-5.36071 -6.62503,-6.97924c1.17051,-1.61853 3.9671,1.74383 8.79416,3.97986z" fill="#ff7188" stroke="none" stroke-width="1" stroke-linecap="butt"/><text transform="translate(30.74999,47.23683) scale(0.24626,0.53436)" font-size="40" xml:space="preserve" fill="#ff0000" fill-rule="nonzero" stroke="none" stroke-width="1" stroke-linecap="butt" stroke-linejoin="miter" stroke-miterlimit="10" stroke-dasharray="" stroke-dashoffset="0" font-family="Pixel" font-weight="normal" text-anchor="start" style="mix-blend-mode: normal"><tspan x="0" dy="0">go play find the apples</tspan><tspan x="0" dy="48px">https://scratch.mit.edu/projects/884832239/</tspan></text></g></g></svg>