<svg version="1.1" xmlns="http://www.w3.org/2000/svg" xmlns:xlink="http://www.w3.org/1999/xlink" width="431.42643" height="314.30931" viewBox="0,0,431.42643,314.30931"><g transform="translate(-24.28679,-22.84535)"><g data-paper-data="{&quot;isPaintingLayer&quot;:true}" fill-rule="nonzero" stroke-linejoin="miter" stroke-miterlimit="10" stroke-dasharray="" stroke-dashoffset="0" style="mix-blend-mode: normal"><path d="M26.78679,334.65466v-309.30931h426.42643v309.30931z" fill="#ff9625" stroke="#b3691b" stroke-width="5" stroke-linecap="butt"/><path d="M284,99.50001v-51h159v51z" fill="#da8021" stroke="#8f5415" stroke-width="5" stroke-linecap="butt"/><path d="M283,262.50001v-151h159v151z" fill="#da8021" stroke="#8f5415" stroke-width="5" stroke-linecap="butt"/><path d="M283,324.50001v-52h159v52z" fill="#da8021" stroke="#8f5415" stroke-width="5" stroke-linecap="butt"/><path d="M64,283.50001v-202h183v202z" fill="#da8021" stroke="#8f5415" stroke-width="5" stroke-linecap="butt"/><text transform="translate(299.5,83.00716) scale(0.65298,0.65298)" font-size="40" xml:space="preserve" fill="#ffffff" fill-rule="nonzero" stroke="none" stroke-width="1" stroke-linecap="butt" stroke-linejoin="miter" stroke-miterlimit="10" stroke-dasharray="" stroke-dashoffset="0" font-family="Pixel" font-weight="normal" text-anchor="start" style="mix-blend-mode: normal"><tspan x="0" dy="0">Fish Cone</tspan></text><text transform="translate(336,136.75001) scale(0.60834,0.60834)" font-size="40" xml:space="preserve" fill="#ffffff" fill-rule="nonzero" stroke="none" stroke-width="1" stroke-linecap="butt" stroke-linejoin="miter" stroke-miterlimit="10" stroke-dasharray="" stroke-dashoffset="0" font-family="Pixel" font-weight="normal" text-anchor="start" style="mix-blend-mode: normal"><tspan x="0" dy="0">Hint:</tspan></text><path d="M311.48077,317v-33.5h36.07692v33.5z" fill="#faff00" stroke="none" stroke-width="0" stroke-linecap="butt"/><text transform="translate(355.51923,306.5) scale(0.5,0.5)" font-size="40" xml:space="preserve" fill="#ffffff" fill-rule="nonzero" stroke="none" stroke-width="1" stroke-linecap="butt" stroke-linejoin="miter" stroke-miterlimit="10" stroke-dasharray="" stroke-dashoffset="0" font-family="Pixel" font-weight="normal" text-anchor="start" style="mix-blend-mode: normal"><tspan x="0" dy="0">medium</tspan></text><text transform="translate(298.00001,166.125) scale(0.40249,0.40249)" font-size="40" xml:space="preserve" fill="#ffffff" fill-rule="nonzero" stroke="none" stroke-width="1" stroke-linecap="butt" stroke-linejoin="miter" stroke-miterlimit="10" stroke-dasharray="" stroke-dashoffset="0" font-family="Pixel" font-weight="normal" text-anchor="start" style="mix-blend-mode: normal"><tspan x="0" dy="0">okay ¿where do</tspan><tspan x="0" dy="48px">you think a</tspan><tspan x="0" dy="48px">fish would be?</tspan></text><path d="M157.35171,249.03045c0.1791,5.0517 -19.1621,2.8163 -18.5,0c0.2796,-7.21445 -1.8163,-80.11522 0,-131.66667c-0.1907,-5.68608 19.31314,-2.74384 18.5,0c-0.539,22.55422 -1.76758,81.81234 0,131.66667z" fill="#ffac21" stroke="#ad5816" stroke-width="5" stroke-linecap="butt"/><path d="M184.26838,228.19712l-106.5,-37l-0.13269,-16.10073l106.1327,-34.39927c0,0 0.74086,-0.69338 0.74704,0.38754c0.03706,6.486 1.24625,71.54186 1.19449,86.05655c-0.00676,1.89745 -1.44153,1.05591 -1.44153,1.05591z" fill="#ff8221" stroke="#ad5816" stroke-width="5" stroke-linecap="butt"/><path d="M159.85172,151.69713l0.33333,66.66666l-13.33333,-4.33333v-59.66667z" fill="#ffffff" stroke="#ad5816" stroke-width="5" stroke-linecap="round"/><path d="M120.51838,162.69712l-1.33334,41.33334l-10.33333,-2.33334l0.66667,-36z" fill="#ffffff" stroke="#ad5816" stroke-width="5" stroke-linecap="round"/><path d="M97.57498,180.13053c-0.44584,1.78337 -0.22847,3.59546 -0.49061,5.39662c-0.55938,3.84351 -5.41548,2.95458 -6.14473,-0.32707c-0.42333,-1.90498 -0.10577,-8.40251 0.8031,-9.91729c2.23662,-3.7277 5.19069,-0.00793 5.83224,2.55827z" fill="#000000" stroke="none" stroke-width="0.5" stroke-linecap="butt"/><path d="M187.49841,165.19712c0,0 38.74604,-20.78844 39.59996,-19c1.44727,3.03112 -20.3146,20.36869 -20.70278,36.86439c-0.38818,16.4957 19.01035,28.6062 19.06884,32.56968c0.04653,3.15354 -38.17604,-11.60073 -38.17604,-11.60073z" fill="#ffa121" stroke="#ad5816" stroke-width="5" stroke-linecap="butt"/><path d="M113.02166,179.95166c-0.46875,1.87503 0.04937,4.28046 -1.48584,5.81304c-4.86702,4.8587 -6.9538,-6.11596 -5.17334,-9.28116c0.79151,-1.40709 1.18018,-3.40132 3.31309,-3.23725c0.97383,0.07491 4.30501,1.97969 3.34608,3.41808z" fill="#000000" stroke="none" stroke-width="0.5" stroke-linecap="butt"/><path d="M126.07803,191.37798c0.05665,-0.04474 0.11327,-0.08968 0.16987,-0.13477zM125.8432,191.56224c0.05759,-0.10003 1.27111,-2.14856 3.40012,-0.95778c2.1819,1.22036 0.96155,3.40227 0.96155,3.40227l-0.88878,1.18443c-4.79666,3.65317 -9.60518,5.98865 -15.907,4.14085c-1.08644,-0.31856 -4.63786,-4.09133 -5.28251,-4.73896c0,0 -1.7627,-1.77282 0.01012,-3.53552c1.77282,-1.7627 3.53552,0.01012 3.53552,0.01012c1.20257,1.2109 1.95966,3.19986 3.61141,3.62904c4.23152,1.09952 7.44864,-0.71056 10.55957,-3.13446z" fill="#000000" stroke="none" stroke-width="0.5" stroke-linecap="butt"/></g></g></svg>