<svg version="1.1" xmlns="http://www.w3.org/2000/svg" xmlns:xlink="http://www.w3.org/1999/xlink" width="137.36948" height="164.74335" viewBox="0,0,137.36948,164.74335"><g transform="translate(-171.31358,-98.17831)"><g data-paper-data="{&quot;isPaintingLayer&quot;:true}" fill-rule="nonzero" stroke-linejoin="miter" stroke-miterlimit="10" stroke-dasharray="" stroke-dashoffset="0" style="mix-blend-mode: normal"><path d="M232.78352,261.08652c-3.91316,1.78291 -21.09244,2.39391 -18.83673,-6.62891c1.69256,-6.77024 9.26743,-4.24274 13.97468,-3.93199c0.39218,0.02589 1.87977,-0.02235 3.31411,0.10473c0,-5.05864 0,-10.27602 0,-15.13193c0,0 0,-2.5 2.5,-2.5c2.5,0 2.5,2.5 2.5,2.5c0,6.74826 0,13.49651 0,20.24477v0.6981c0,0 0,1.64983 -1.34026,2.26897c-0.18749,0.92147 -0.7141,1.73945 -2.1118,2.37627z" fill="#000000" stroke="none" stroke-width="0.5" stroke-linecap="butt"/><path d="M246.03442,259.46582c-1.34026,-0.61914 -1.34027,-2.26897 -1.34027,-2.26897v-0.6981c0,-6.74825 0,-13.49651 0,-20.24476c0,0 0,-2.5 2.5,-2.5c2.5,0 2.5,2.5 2.5,2.5c0,4.85591 0,10.07329 0,15.13193c1.43434,-0.12707 2.92194,-0.07883 3.31412,-0.10473c4.70725,-0.31076 12.28211,-2.83826 13.97467,3.93199c2.2557,9.02283 -14.92356,8.41182 -18.83673,6.62892c-1.39769,-0.63682 -1.92431,-1.4548 -2.1118,-2.37627z" data-paper-data="{&quot;index&quot;:null}" fill="#000000" stroke="none" stroke-width="0.5" stroke-linecap="butt"/><path d="M283.33333,130.98164l-11.92026,33.83704l4.35538,15.51492l-13.94957,21.51685l-12.88482,35.26389l-16.10073,-0.13269l-15.24285,-21.10444l2.42132,-17.19818l-23.02896,-20.01123l-1.14951,-48.18614z" data-paper-data="{&quot;index&quot;:null}" fill="#fff600" stroke="#ada700" stroke-width="5" stroke-linecap="butt"/><path d="M305.83333,112.86436l-4.5,32l-17.86269,-12.76618l-81.9394,-2.68896l-23.86457,9.95514l-3.5,-26.5l39.44087,0.12534l25.39245,-12.12534l29.02072,9.42891z" data-paper-data="{&quot;index&quot;:null}" fill="#fff600" stroke="#ada700" stroke-width="5" stroke-linecap="butt"/><path d="M268.90215,169.03103l-38.79622,-1.75345l-31.64242,1.52233l0.09026,-13.10221l73.27955,0.33333z" data-paper-data="{&quot;index&quot;:null}" fill="#ffffff" stroke="#ada700" stroke-width="5" stroke-linecap="round"/><path d="M258.33333,207.19769l-36,0.66667l-2.33334,-10.33333l20.29867,0.94065l21.03467,-2.27399z" data-paper-data="{&quot;index&quot;:null}" fill="#ffffff" stroke="#ada700" stroke-width="5" stroke-linecap="round"/><path d="M229.13941,159.57472c-0.44584,1.78337 -0.22847,3.59546 -0.49061,5.39662c-0.55938,3.84351 -5.41548,2.95458 -6.14473,-0.32707c-0.42333,-1.90498 -0.10577,-8.40251 0.8031,-9.91729c2.23662,-3.7277 5.19069,-0.00793 5.83224,2.55827z" fill="#000000" stroke="none" stroke-width="0.5" stroke-linecap="butt"/><path d="M255.16245,159.39585c-0.46875,1.87503 0.04937,4.28046 -1.48584,5.81304c-4.86702,4.8587 -6.9538,-6.11596 -5.17334,-9.28116c0.79151,-1.40709 1.18018,-3.40132 3.31309,-3.23725c0.97383,0.07491 4.30501,1.97969 3.34608,3.41808z" fill="#000000" stroke="none" stroke-width="0.5" stroke-linecap="butt"/><path d="M245.93628,179.09673c0.05665,-0.04474 0.11327,-0.08968 0.16987,-0.13477zM245.70145,179.28099c0.05759,-0.10003 1.27111,-2.14856 3.40012,-0.95778c2.1819,1.22036 0.96155,3.40227 0.96155,3.40227l-0.88878,1.18443c-4.79666,3.65317 -9.60518,5.98865 -15.907,4.14085c-1.08644,-0.31856 -4.63786,-4.09133 -5.28251,-4.73896c0,0 -1.7627,-1.77282 0.01012,-3.53552c1.77282,-1.7627 3.53552,0.01012 3.53552,0.01012c1.20257,1.2109 1.95966,3.19986 3.61141,3.62904c4.23152,1.09952 7.44864,-0.71056 10.55957,-3.13446z" fill="#000000" stroke="none" stroke-width="0.5" stroke-linecap="butt"/></g></g></svg>