<svg version="1.1" xmlns="http://www.w3.org/2000/svg" xmlns:xlink="http://www.w3.org/1999/xlink" width="136.66667" height="121.91054" viewBox="0,0,136.66667,121.91054"><g transform="translate(-171.66668,-117.575)"><g data-paper-data="{&quot;isPaintingLayer&quot;:true}" fill-rule="nonzero" stroke-linecap="butt" stroke-linejoin="miter" stroke-miterlimit="10" stroke-dasharray="" stroke-dashoffset="0" style="mix-blend-mode: normal"><path d="M223.8619,238.28468c-3.91316,1.78291 -21.09244,2.39391 -18.83673,-6.62891c1.69256,-6.77024 9.26743,-4.24274 13.97468,-3.93199c0.39218,0.02589 1.87977,-0.02235 3.31411,0.10473c0,-5.05864 0,-10.27602 0,-15.13193c0,0 0,-2.5 2.5,-2.5c2.5,0 2.5,2.5 2.5,2.5c0,6.74826 0,13.49651 0,20.24477v0.6981c0,0 0,1.64983 -1.34026,2.26897c-0.18749,0.92147 -0.7141,1.73945 -2.1118,2.37627z" fill="#000000" stroke="none" stroke-width="0.5"/><path d="M253.66605,236.02969c-1.34026,-0.61914 -1.34027,-2.26897 -1.34027,-2.26897v-0.6981c0,-6.74825 0,-13.49651 0,-20.24476c0,0 0,-2.5 2.5,-2.5c2.5,0 2.5,2.5 2.5,2.5c0,4.85591 0,10.07329 0,15.13193c1.43434,-0.12707 2.92194,-0.07883 3.31412,-0.10473c4.70725,-0.31076 12.28211,-2.83826 13.97467,3.93199c2.2557,9.02283 -14.92356,8.41182 -18.83673,6.62892c-1.39769,-0.63682 -1.92431,-1.4548 -2.1118,-2.37627z" data-paper-data="{&quot;index&quot;:null}" fill="#000000" stroke="none" stroke-width="0.5"/><path d="M187.82563,200.09973v-75.50543h110.28596v75.50543z" fill="#ff2121" stroke="#ad1717" stroke-width="5"/><path d="M174.16669,214.12357v-18.5h131.66667v18.5z" fill="#ff2121" stroke="#ad1717" stroke-width="5"/><path d="M221.83333,149.74857c0,-1.38071 1.11929,-2.5 2.5,-2.5c1.38071,0 2.5,1.11929 2.5,2.5c0,1.38071 -1.11929,2.5 -2.5,2.5c-1.38071,0 -2.5,-1.11929 -2.5,-2.5z" fill="#520b0b" stroke="none" stroke-width="0.5"/><path d="M228.01434,150.60726c-0.44584,1.78337 -0.22847,3.59546 -0.49061,5.39662c-0.55938,3.84351 -5.41548,2.95458 -6.14473,-0.32707c-0.42333,-1.90498 -0.10577,-8.40251 0.8031,-9.91729c2.23662,-3.7277 5.19069,-0.00793 5.83224,2.55827z" fill="#000000" stroke="none" stroke-width="0.5"/><path d="M258.2206,119.57621c0.49029,2.45145 -1.96116,2.94174 -1.96116,2.94174l0.0702,-0.29904c-4.63817,3.57484 -7.13318,10.8183 -9.73695,15.98343c-0.91118,1.80751 -1.66348,4.03193 -3.11786,5.59953c0.00001,-0.00104 0.00001,-0.00208 0.00001,-0.00313c0,-0.25 -0.25,-0.25 -0.25,-0.25c-0.6397,0.03593 -0.84164,0.55891 -1.3356,0.9261l-0.04625,-0.03495c0,0 -0.24919,0.02015 -0.22904,0.26933c0.00454,0.05615 0.02071,0.09863 0.04304,0.13074c-0.60413,0.38124 -1.15396,0.72671 -1.18649,0.73446c-1.92549,0.45862 -7.52952,-3.76374 -9.18586,-4.72301c-6.4803,-3.75307 -13.08266,-7.0405 -18.65632,-12.13359c0,0 -1.84288,-1.68931 -0.15357,-3.5322c1.68931,-1.84288 3.5322,-0.15358 3.5322,-0.15358c5.27676,4.85393 11.63595,7.93286 17.78896,11.49577c1.71201,0.99134 3.52491,1.8246 5.14031,2.96663c0.39012,0.2758 0.42908,1.2365 0.89274,1.1213c0.5796,-0.14401 0.61462,-1.02573 0.87864,-1.56143c0.49934,-1.01314 0.9081,-2.06934 1.40962,-3.0814c2.98028,-6.01415 5.84636,-13.35288 11.08893,-17.65836l2.07269,-0.69953c0,0 2.45146,-0.49029 2.94174,1.96116z" fill="#000000" stroke="none" stroke-width="0.5"/><path d="M256.89554,142.7837c0.04578,-0.01614 0.09046,-0.02302 0.13349,-0.01815c0,0 0.00352,0 0.00972,-0.00042c-0.03181,0.03102 -0.06394,0.06172 -0.0964,0.09211c-0.04279,0.00372 -0.08448,0.00828 -0.12522,0.01381c0.02784,-0.03035 0.05402,-0.0595 0.0784,-0.08737z" fill="#000000" stroke="none" stroke-width="0.5"/><path d="M254.71917,146.79972l0.00001,3.28729c-0.46875,1.87503 0.04937,4.28046 -1.48584,5.81304c-4.86702,4.8587 -6.9538,-6.11596 -5.17334,-9.28116c0.2054,-0.36515 1.34675,-1.39793 2.28613,-2.28378l0.3541,-0.07932c0.17664,-0.21935 0.34344,-0.32794 0.53466,-0.38163c0.00419,0.00022 0.00651,0.00022 0.00651,0.00022c0.44889,0 0.8052,-0.01851 1.20262,-0.12817c1.30246,0.63523 2.99391,1.97537 2.27516,3.0535z" fill="#000000" stroke="none" stroke-width="0.5"/><path d="M233.88342,180.99454c-0.05209,0.04998 -0.10413,0.10016 -0.15613,0.15048zM234.09944,180.78855c-0.04771,0.10511 -1.05863,2.26083 -3.29227,1.28028c-2.28913,-1.0049 -1.28424,-3.29405 -1.28424,-3.29405l0.77077,-1.2644c4.42316,-4.09747 8.98483,-6.8845 15.43512,-5.65122c1.11203,0.21261 5.00978,3.62642 5.71372,4.20906c0,0 1.92499,1.59511 0.32988,3.52011c-1.59511,1.925 -3.52011,0.32989 -3.52011,0.32989c-1.31343,-1.08965 -2.25826,-2.99661 -3.94363,-3.26497c-4.31764,-0.68754 -7.3458,1.4235 -10.20924,4.13531z" fill="#000000" stroke="none" stroke-width="0.5"/></g></g></svg>