<svg version="1.1" xmlns="http://www.w3.org/2000/svg" xmlns:xlink="http://www.w3.org/1999/xlink" width="431.42643" height="314.30931" viewBox="0,0,431.42643,314.30931"><g transform="translate(-24.28682,-22.84537)"><g data-paper-data="{&quot;isPaintingLayer&quot;:true}" fill-rule="nonzero" stroke-linejoin="miter" stroke-miterlimit="10" stroke-dasharray="" stroke-dashoffset="0" style="mix-blend-mode: normal"><path d="M26.78682,334.65468v-309.30931h426.42643v309.30931z" fill="#ff9625" stroke="#b3691b" stroke-width="5" stroke-linecap="butt"/><path d="M284.00005,99.50007v-51h159v51z" fill="#da8021" stroke="#8f5415" stroke-width="5" stroke-linecap="butt"/><path d="M283.00005,262.50005v-151h159v151z" fill="#da8021" stroke="#8f5415" stroke-width="5" stroke-linecap="butt"/><path d="M283.00005,324.50005v-52h159v52z" fill="#da8021" stroke="#8f5415" stroke-width="5" stroke-linecap="butt"/><path d="M64.00002,283.50005v-202h183v202z" fill="#da8021" stroke="#8f5415" stroke-width="5" stroke-linecap="butt"/><text transform="translate(288.50005,84.43404) scale(0.63706,0.63706)" font-size="40" xml:space="preserve" fill="#ffffff" fill-rule="nonzero" stroke="none" stroke-width="1" stroke-linecap="butt" stroke-linejoin="miter" stroke-miterlimit="10" stroke-dasharray="" stroke-dashoffset="0" font-family="Pixel" font-weight="normal" text-anchor="start" style="mix-blend-mode: normal"><tspan x="0" dy="0">David Cone</tspan></text><text transform="translate(336.00006,136.75001) scale(0.60834,0.60834)" font-size="40" xml:space="preserve" fill="#ffffff" fill-rule="nonzero" stroke="none" stroke-width="1" stroke-linecap="butt" stroke-linejoin="miter" stroke-miterlimit="10" stroke-dasharray="" stroke-dashoffset="0" font-family="Pixel" font-weight="normal" text-anchor="start" style="mix-blend-mode: normal"><tspan x="0" dy="0">Hint:</tspan></text><text transform="translate(295.58334,161.84454) scale(0.3947,0.3947)" font-size="40" xml:space="preserve" fill="#ffffff" fill-rule="nonzero" stroke="none" stroke-width="1" stroke-linecap="butt" stroke-linejoin="miter" stroke-miterlimit="10" stroke-dasharray="" stroke-dashoffset="0" font-family="Pixel" font-weight="normal" text-anchor="start" style="mix-blend-mode: normal"><tspan x="0" dy="0">1 in 10 chance of</tspan><tspan x="0" dy="48px">a button </tspan><tspan x="0" dy="48px">appearing in the</tspan><tspan x="0" dy="48px">room where</tspan><tspan x="0" dy="48px">noob cone is in</tspan></text><path d="" data-paper-data="{&quot;index&quot;:null}" fill="#fff600" stroke="#ada700" stroke-width="5" stroke-linecap="butt"/><path d="" data-paper-data="{&quot;index&quot;:null}" fill="#fff600" stroke="#ada700" stroke-width="5" stroke-linecap="butt"/><path d="" data-paper-data="{&quot;index&quot;:null}" fill="#ffffff" stroke="#ada700" stroke-width="5" stroke-linecap="round"/><path d="" data-paper-data="{&quot;index&quot;:null}" fill="#ffffff" stroke="#ada700" stroke-width="5" stroke-linecap="round"/><path d="" fill="#68650e" stroke="none" stroke-width="0.5" stroke-linecap="butt"/><path d="" fill="#68650e" stroke="none" stroke-width="0.5" stroke-linecap="butt"/><path d="" fill="#68650e" stroke="none" stroke-width="0.5" stroke-linecap="butt"/><path d="" fill="#68650e" stroke="none" stroke-width="0.5" stroke-linecap="butt"/><path d="" data-paper-data="{&quot;index&quot;:null}" fill="#68650e" stroke="none" stroke-width="0.5" stroke-linecap="butt"/><path d="M311.38756,317.18334v-33.5h36.07692v33.5z" fill="#313131" stroke="none" stroke-width="0" stroke-linecap="butt"/><text transform="translate(354.61248,306.68334) scale(0.5,0.5)" font-size="40" xml:space="preserve" fill="#ffffff" fill-rule="nonzero" stroke="none" stroke-width="1" stroke-linecap="butt" stroke-linejoin="miter" stroke-miterlimit="10" stroke-dasharray="" stroke-dashoffset="0" font-family="Pixel" font-weight="normal" text-anchor="start" style="mix-blend-mode: normal"><tspan x="0" dy="0">intense</tspan></text><path d="M94.05002,230.28905v-18.5h131.66667v18.5z" fill="#ffffff" stroke="#eaeaea" stroke-width="5" stroke-linecap="butt"/><path d="M115.21667,211.53905l37,-106.5l16.10073,-0.13269l34.39927,106.1327z" fill="#ffffff" stroke="#eaeaea" stroke-width="5" stroke-linecap="butt"/><path d="M191.71665,187.12237l-66.66666,0.33333l4.33333,-13.33333h59.66667z" fill="#ffffff" stroke="#eaeaea" stroke-width="5" stroke-linecap="round"/><path d="M180.7167,147.78903l-41.33334,-1.33334l2.33334,-10.33333l36,0.66667z" fill="#ffffff" stroke="#eaeaea" stroke-width="5" stroke-linecap="round"/><path d="M180.70635,200.34692c-0.43242,2.46233 -2.89474,2.0299 -2.89474,2.0299l-2.87925,-0.50901c-4.74134,-1.3809 -9.81931,-1.18862 -14.71288,-2.1684c-9.07336,-1.81664 -18.31798,-4.11375 -27.21138,-6.63453c0,0 -2.40476,-0.6835 -1.72126,-3.08825c0.6835,-2.40476 3.08824,-1.72125 3.08824,-1.72125c8.76021,2.49722 17.88557,4.74696 26.82712,6.54157c4.96761,0.99703 10.00574,0.8509 14.84756,2.19732l2.62667,0.45792c0,0 2.46232,0.43242 2.0299,2.89473z" fill="#b6b6b6" stroke="none" stroke-width="0.5" stroke-linecap="butt"/><path d="M138.66667,255.31405c-2.17317,0 -7.57909,0.70177 -9.36803,-0.26393c-5.08484,-2.74486 -3.5529,-8.99301 1.24093,-10.65614c1.15941,-0.40223 2.87017,-0.51639 4.68048,-0.45925c2.61161,0.08244 5.43037,0.52137 7.09974,0.96614c0.53079,0.14142 1.33387,0.36031 2.03426,0.64232c-0.09474,-0.48687 -0.13054,-0.99212 -0.17521,-1.4828c-0.33981,-3.73294 0.48783,-7.70537 0.48783,-11.49635c0,0 0,-2.5 2.5,-2.5c2.5,0 2.5,2.5 2.5,2.5c0,3.08056 0.39582,5.96242 0.05926,8.99635c-0.16666,1.50243 0.0234,2.99863 -0.07143,4.50731c-0.10616,1.68891 0.36902,3.94883 -0.97035,4.98311c-0.1823,0.14077 -5.80367,4.1495 -10.01749,4.26323z" fill="#b6b6b6" stroke="none" stroke-width="0.5" stroke-linecap="butt"/><path d="M169.12013,251.25082c-1.33937,-1.03428 -0.86419,-3.2942 -0.97035,-4.98311c-0.09482,-1.50868 0.09524,-3.00488 -0.07143,-4.50731c-0.33656,-3.03393 0.05926,-5.91579 0.05926,-8.99634c0,0 0,-2.5 2.5,-2.5c2.5,0 2.5,2.5 2.5,2.5c0,3.79098 0.82764,7.7634 0.48783,11.49634c-0.04467,0.49068 -0.08046,0.99592 -0.17521,1.4828c0.70039,-0.28202 1.50347,-0.5009 2.03426,-0.64232c2.82653,-0.75308 8.94819,-1.48941 11.78022,-0.50689c4.79383,1.66313 6.32577,7.91128 1.24093,10.65614c-1.78895,0.9657 -7.19486,0.26393 -9.36803,0.26393c-4.21382,-0.11373 -9.83519,-4.12247 -10.01749,-4.26324z" data-paper-data="{&quot;index&quot;:null}" fill="#b6b6b6" stroke="none" stroke-width="0.5" stroke-linecap="butt"/><path d="M144.67143,172.05789c0.22304,-1.6683 0.51893,-3.33022 0.69527,-5.00377c0.13818,-1.3114 -0.23603,-5.49634 0.09875,-6.51826c0.44947,-1.37203 1.54174,-2.44153 2.3126,-3.66229c0,0 1.38675,-2.08013 3.46688,-0.69338c2.08013,1.38675 0.69338,3.46688 0.69338,3.46688c-2.32979,3.22767 -1.19672,3.97749 -1.58864,7.81945c-0.2818,2.76243 -0.86019,5.49441 -1.0364,8.26558l-0.22501,0.27157l0.14164,0.04721l-0.98177,2.94531c-0.31417,1.02156 -1.26534,1.76412 -2.38994,1.76412c-1.38071,0 -2.5,-1.11929 -2.5,-2.5c0,-0.18573 0.02025,-0.36673 0.05867,-0.54091l0.98988,-4.94938c0,0 0.06472,-0.3236 0.2647,-0.71214z" fill="#b6b6b6" stroke="none" stroke-width="0.5" stroke-linecap="butt"/><path d="M163.74013,182.49639c-2.23607,-1.11803 -1.11803,-3.3541 -1.11803,-3.3541l0.81071,-1.48831c0.69369,-2.76962 2.96015,-7.41364 2.9272,-10.29772c-0.01091,-0.95479 -0.8523,-1.74786 -0.96956,-2.69549c-0.22108,-1.78656 -0.02152,-3.6003 -0.03228,-5.40046c0,0 0,-2.5 2.5,-2.5c2.5,0 2.5,2.5 2.5,2.5c-0.01076,1.53318 -0.22438,3.07841 -0.03228,4.59954c0.14456,1.14472 1.04004,2.15074 1.03044,3.30451c-0.02957,3.55255 -2.20692,8.23199 -3.0728,11.70228l-1.18929,2.51169c0,0 -1.11803,2.23607 -3.3541,1.11803z" fill="#b6b6b6" stroke="none" stroke-width="0.5" stroke-linecap="butt"/><text transform="translate(102.25002,73.25002) scale(0.5,0.5)" font-size="40" xml:space="preserve" fill="#ffffff" fill-rule="nonzero" stroke="none" stroke-width="1" stroke-linecap="butt" stroke-linejoin="miter" stroke-miterlimit="10" stroke-dasharray="" stroke-dashoffset="0" font-family="Pixel" font-weight="normal" text-anchor="start" style="mix-blend-mode: normal"><tspan x="0" dy="0">@kth11211</tspan></text></g></g></svg>