<svg version="1.1" xmlns="http://www.w3.org/2000/svg" xmlns:xlink="http://www.w3.org/1999/xlink" width="431.42643" height="314.30931" viewBox="0,0,431.42643,314.30931"><g transform="translate(-24.28681,-22.84535)"><g data-paper-data="{&quot;isPaintingLayer&quot;:true}" fill-rule="nonzero" stroke-linejoin="miter" stroke-miterlimit="10" stroke-dasharray="" stroke-dashoffset="0" style="mix-blend-mode: normal"><path d="M26.78681,334.65466v-309.30931h426.42643v309.30931z" fill="#ff9625" stroke="#b3691b" stroke-width="5" stroke-linecap="butt"/><path d="M284.00001,99.50002v-51h159v51z" fill="#da8021" stroke="#8f5415" stroke-width="5" stroke-linecap="butt"/><path d="M283.00001,262.50001v-151h159v151z" fill="#da8021" stroke="#8f5415" stroke-width="5" stroke-linecap="butt"/><path d="M283.00001,324.50001v-52h159v52z" fill="#da8021" stroke="#8f5415" stroke-width="5" stroke-linecap="butt"/><path d="M64.00002,283.50001v-202h183v202z" fill="#da8021" stroke="#8f5415" stroke-width="5" stroke-linecap="butt"/><text transform="translate(291.71155,80.22437) scale(0.47846,0.47846)" font-size="40" xml:space="preserve" fill="#ffffff" fill-rule="nonzero" stroke="none" stroke-width="1" stroke-linecap="butt" stroke-linejoin="miter" stroke-miterlimit="10" stroke-dasharray="" stroke-dashoffset="0" font-family="Pixel" font-weight="normal" text-anchor="start" style="mix-blend-mode: normal"><tspan x="0" dy="0">Dinosaur Cone</tspan></text><text transform="translate(336.00001,136.75001) scale(0.60834,0.60834)" font-size="40" xml:space="preserve" fill="#ffffff" fill-rule="nonzero" stroke="none" stroke-width="1" stroke-linecap="butt" stroke-linejoin="miter" stroke-miterlimit="10" stroke-dasharray="" stroke-dashoffset="0" font-family="Pixel" font-weight="normal" text-anchor="start" style="mix-blend-mode: normal"><tspan x="0" dy="0">Hint:</tspan></text><text transform="translate(328.6802,162.43497) scale(0.40249,0.40249)" font-size="40" xml:space="preserve" fill="#ffffff" fill-rule="nonzero" stroke="none" stroke-width="1" stroke-linecap="butt" stroke-linejoin="miter" stroke-miterlimit="10" stroke-dasharray="" stroke-dashoffset="0" font-family="Pixel" font-weight="normal" text-anchor="start" style="mix-blend-mode: normal"><tspan x="0" dy="0">desert</tspan></text><path d="M310.98078,316.75001v-33.5h36.07692v33.5z" fill="#5aff00" stroke="none" stroke-width="0" stroke-linecap="butt"/><text transform="translate(355.01925,306.25001) scale(0.5,0.5)" font-size="40" xml:space="preserve" fill="#ffffff" fill-rule="nonzero" stroke="none" stroke-width="1" stroke-linecap="butt" stroke-linejoin="miter" stroke-miterlimit="10" stroke-dasharray="" stroke-dashoffset="0" font-family="Pixel" font-weight="normal" text-anchor="start" style="mix-blend-mode: normal"><tspan x="0" dy="0">easy</tspan></text><path d="M136.43164,268.07918c-3.91316,1.78291 -21.09244,2.39391 -18.83673,-6.62891c1.69256,-6.77024 9.26743,-4.24274 13.97468,-3.93199c0.39218,0.02589 1.87977,-0.02235 3.31411,0.10473c0,-5.05864 0,-10.27602 0,-15.13193c0,0 0,-2.5 2.5,-2.5c2.5,0 2.5,2.5 2.5,2.5c0,6.74826 0,13.49651 0,20.24477v0.6981c0,0 0,1.64983 -1.34026,2.26897c-0.18749,0.92147 -0.7141,1.73945 -2.1118,2.37627z" fill="#000000" stroke="none" stroke-width="0.5" stroke-linecap="butt"/><path d="M166.23576,265.82419c-1.34026,-0.61914 -1.34027,-2.26897 -1.34027,-2.26897v-0.6981c0,-6.74825 0,-13.49651 0,-20.24476c0,0 0,-2.5 2.5,-2.5c2.5,0 2.5,2.5 2.5,2.5c0,4.85591 0,10.07329 0,15.13193c1.43434,-0.12707 2.92194,-0.07883 3.31412,-0.10473c4.70725,-0.31076 12.28211,-2.83826 13.97467,3.93199c2.2557,9.02283 -14.92356,8.41182 -18.83673,6.62892c-1.39769,-0.63682 -1.92431,-1.4548 -2.1118,-2.37627z" data-paper-data="{&quot;index&quot;:null}" fill="#000000" stroke="none" stroke-width="0.5" stroke-linecap="butt"/><path d="M88.13923,239.19646v-18.5h131.66667v18.5z" fill="#27d362" stroke="#289e54" stroke-width="5" stroke-linecap="butt"/><path d="M109.68113,220.0712l37,-106.5l16.10073,-0.13269l34.39927,106.1327z" fill="#27d362" stroke="#289e54" stroke-width="5" stroke-linecap="butt"/><path d="M185.80586,196.0298l-66.66666,0.33333l4.33333,-13.33333h59.66667z" fill="#a1ffc8" stroke="#289e54" stroke-width="5" stroke-linecap="round"/><path d="M174.80592,156.69646l-41.33334,-1.33334l2.33334,-10.33333l36,0.66667z" fill="#a1ffc8" stroke="#289e54" stroke-width="5" stroke-linecap="round"/><path d="M193.37023,200.93457c1.46836,4.04861 2.85845,8.12562 4.22825,12.21327c3.94621,-1.09133 7.71016,-2.4835 11.64933,-3.75093c9.23217,-2.97047 18.55942,-7.58971 21.76973,-17.67638c0.6709,-2.10794 1.45249,-5.716 1.18131,-8.00115c-0.08308,-0.70015 -0.31498,-1.59199 -0.57722,-2.55608c-0.69977,1.43104 -1.53607,2.78549 -2.58387,3.98675c-2.46409,2.82496 -6.37617,5.14489 -9.62318,6.95856c-8.40443,4.69443 -17.08697,6.87938 -26.55203,7.47194zM189.89583,202.03101l-0.70218,-3.50488c0,0 -0.61709,0.76956 0.19388,-0.26776c-0.13428,-0.29122 -0.42594,-0.33992 -0.44138,-0.77222c-0.08923,-2.4984 1.49076,-2.0774 1.49076,-2.0774c9.55171,-0.3356 18.17338,-2.99608 26.54014,-7.66573c2.80978,-1.5682 6.20974,-3.52111 8.35255,-5.94699c2.05662,-2.32831 3.03895,-5.675 3.92852,-8.57349l0.61588,-2.87408c0.22253,-1.15274 1.2369,-2.02335 2.45461,-2.02335c1.20128,0 2.20466,0.84726 2.44517,1.97681l0.84587,3.59491l-0.02008,0.00472c0.01366,0.03033 0.02721,0.06071 0.04066,0.09114c0.07475,0.16917 0.84194,5.69379 0.86747,5.84268c1.80289,10.51335 -2.43669,20.03552 -10.38599,27.08785c-4.37782,3.88385 -9.90562,5.48741 -15.3016,7.22004c-4.97503,1.59746 -9.6891,3.38487 -14.80126,4.56461l2.41256,-1.58746c0,0 -2.03197,2.64874 -3.15001,0.41267c-1.11804,-2.23607 -1.63723,-3.3541 -1.63723,-3.3541l-0.159,-0.21808c-0.40031,-1.19829 -0.59856,-1.78385 -1.00452,-2.98036c-0.9699,-2.85867 -1.14402,-6.11795 -2.17661,-8.94955z" fill="#289e54" stroke="none" stroke-width="0.5" stroke-linecap="butt"/><path d="M192.81293,199.58665c9.46505,-0.59256 18.23749,-2.81325 26.64192,-7.50769c3.24701,-1.81367 7.07841,-4.07452 9.5425,-6.89948c1.0478,-1.20127 1.96283,-2.61729 2.66259,-4.04833c0.26224,0.96409 0.4971,1.85984 0.58018,2.55999c0.27118,2.28515 -0.50371,5.90732 -1.17461,8.01526c-3.21031,10.08667 -12.59859,14.76829 -21.83076,17.73877c-3.93917,1.26744 -7.72422,2.64785 -11.67043,3.73918c-1.3698,-4.08765 -2.7748,-8.19152 -4.24316,-12.24013z" data-paper-data="{&quot;noHover&quot;:false,&quot;origItem&quot;:[&quot;Path&quot;,{&quot;applyMatrix&quot;:true,&quot;segments&quot;:[[[557.29395,384.40123],[0,0],[2.93672,8.09721]],[[565.75046,408.82777],[-2.7396,-8.17529],[7.89241,-2.18266]],[[589.04911,401.3259],[-7.87834,2.53488],[18.46434,-5.94095]],[[632.58858,365.97314],[-6.42063,20.17333],[1.3418,-4.21588]],[[634.95121,349.97084],[0.54235,4.5703],[-0.16617,-1.40031]],[[633.79676,344.85867],[0.52448,1.92819],[-1.39953,2.86207]],[[628.62902,352.83218],[2.09561,-2.40253],[-4.92817,5.64992]],[[609.38266,366.7493],[6.49403,-3.62735],[-16.80885,9.38886]],[[556.27861,381.69317],[18.9301,-1.18512],[0,0]]],&quot;closed&quot;:true}]}" fill="#27d362" stroke="none" stroke-width="0.5" stroke-linecap="butt"/><path d="M152.09786,160.05407c-1.11803,2.23607 -3.35411,1.11804 -3.35411,1.11804l-1.23739,-0.76213c-4.62159,-0.69892 -7.86463,-2.50547 -11.89709,-4.80848c0,0 -2.1706,-1.24034 -0.93026,-3.41096c1.24034,-2.17061 3.41096,-0.93026 3.41096,-0.93026c3.465,1.98111 6.14477,3.67326 10.1235,4.19995l2.76636,1.23974c0,0 2.23607,1.11803 1.11803,3.3541z" fill="#000000" stroke="none" stroke-width="0.5" stroke-linecap="butt"/><path d="M171.48254,147.41716c0.12283,-0.70953 0.60042,-2.089 2.45747,-2.089c2.5,0 2.5,2.5 2.5,2.5l-1.17482,3.12082c-4.82309,3.01173 -10.07376,6.12087 -14.07098,10.15771c0,0 -1.76777,1.76776 -3.53554,0c-1.76776,-1.76776 0,-3.53553 0,-3.53553c4.01322,-3.97964 8.99722,-7.13597 13.82387,-10.154z" fill="#000000" stroke="none" stroke-width="0.5" stroke-linecap="butt"/><path d="M201.82387,205.3856c0,1.24345 -0.48781,4.27731 -1.92255,4.27731c-1.43475,0 -2.14765,-3.03386 -2.14765,-4.27731c0,-1.24345 0.03762,-4.7275 1.47236,-4.7275c1.43475,0 2.59784,3.48405 2.59784,4.7275z" fill="#ffad00" stroke="none" stroke-width="0" stroke-linecap="butt"/><path d="M215.7309,201.59436c0,0.7652 -0.85293,2.96118 -1.90508,2.96118c-1.05215,0 -1.90508,-2.19598 -1.90508,-2.96118c0,-0.7652 0.40274,-4.76193 1.45489,-4.76193c1.05215,0 2.35527,3.99674 2.35527,4.76193z" fill="#ffad00" stroke="none" stroke-width="0" stroke-linecap="butt"/><path d="M226.98821,195.68701c0,0.95975 -1.1122,3.78708 -1.87951,4.42943c-0.19266,0.16129 -0.69042,0.69184 -0.73719,0.55124c-0.07376,-0.22174 -0.28726,-0.26374 -0.45327,-0.7953c-0.40991,-1.31248 -1.24279,-3.31686 -1.24279,-4.41046c0,-0.93297 0.48712,-2.22066 0.64107,-3.05043c0.14593,-0.78656 -0.06381,-1.14054 0.72748,-1.14054c0.50133,0 0.6959,0.52452 1.10909,0.91951c0.92697,0.88615 1.83512,2.23952 1.83512,3.49656z" fill="#ffad00" stroke="none" stroke-width="0" stroke-linecap="butt"/><path d="M142.98845,171.18209c-0.44584,1.78337 -0.22847,3.59546 -0.49061,5.39662c-0.55938,3.84351 -5.41548,2.95458 -6.14473,-0.32707c-0.42333,-1.90498 -0.10577,-8.40251 0.8031,-9.91729c2.23662,-3.7277 5.19069,-0.00793 5.83224,2.55827z" fill="#000000" stroke="none" stroke-width="0.5" stroke-linecap="butt"/><path d="M169.0115,171.00322c-0.46875,1.87503 0.04937,4.28046 -1.48584,5.81304c-4.86702,4.8587 -6.9538,-6.11596 -5.17334,-9.28116c0.79151,-1.40709 1.18018,-3.40132 3.31309,-3.23725c0.97383,0.07491 4.30501,1.97969 3.34608,3.41808z" fill="#000000" stroke="none" stroke-width="0.5" stroke-linecap="butt"/><path d="M145.28947,200.58146c-0.05751,0.04363 -0.11499,0.08746 -0.17245,0.13145zM145.52784,200.40179c-0.05952,0.09889 -1.31258,2.12348 -3.41807,0.89159c-2.1578,-1.26249 -0.89532,-3.4203 -0.89532,-3.4203l0.91161,-1.16695c4.86668,-3.55936 9.71963,-5.80105 15.98439,-3.83126c1.08005,0.33959 4.55756,4.1806 5.18952,4.84062c0,0 1.72795,1.80671 -0.07875,3.53466c-1.80671,1.72795 -3.53466,-0.07875 -3.53466,-0.07875c-1.17884,-1.23402 -1.89717,-3.2373 -3.54028,-3.69847c-4.20938,-1.18146 -7.46103,0.56582 -10.61843,2.92887z" fill="#000000" stroke="none" stroke-width="0.5" stroke-linecap="butt"/></g></g></svg>