<svg version="1.1" xmlns="http://www.w3.org/2000/svg" xmlns:xlink="http://www.w3.org/1999/xlink" width="136.66667" height="157.51242" viewBox="0,0,136.66667,157.51242"><g transform="translate(-171.66668,-97.91457)"><g data-paper-data="{&quot;isPaintingLayer&quot;:true}" fill-rule="nonzero" stroke-linejoin="miter" stroke-miterlimit="10" stroke-dasharray="" stroke-dashoffset="0" style="mix-blend-mode: normal"><path d="M174.16669,229.9557v-18.5h131.66667v18.5z" fill="#ffffff" stroke="#eaeaea" stroke-width="5" stroke-linecap="butt"/><path d="M195.33334,211.2057l37,-106.5l16.10073,-0.13269l34.39927,106.1327z" fill="#ffffff" stroke="#eaeaea" stroke-width="5" stroke-linecap="butt"/><path d="M271.83333,186.78904l-66.66666,0.33333l4.33333,-13.33333h59.66667z" fill="#ffffff" stroke="#eaeaea" stroke-width="5" stroke-linecap="round"/><path d="M260.83336,147.4557l-41.33334,-1.33334l2.33334,-10.33333l36,0.66667z" fill="#ffffff" stroke="#eaeaea" stroke-width="5" stroke-linecap="round"/><path d="M260.823,200.01357c-0.43242,2.46233 -2.89474,2.0299 -2.89474,2.0299l-2.87925,-0.50901c-4.74134,-1.3809 -9.81931,-1.18862 -14.71288,-2.1684c-9.07336,-1.81664 -18.31798,-4.11375 -27.21138,-6.63453c0,0 -2.40476,-0.6835 -1.72126,-3.08825c0.6835,-2.40476 3.08824,-1.72125 3.08824,-1.72125c8.76021,2.49722 17.88557,4.74696 26.82712,6.54157c4.96761,0.99703 10.00574,0.8509 14.84756,2.19732l2.62667,0.45792c0,0 2.46232,0.43242 2.0299,2.89473z" fill="#b6b6b6" stroke="none" stroke-width="0.5" stroke-linecap="butt"/><path d="M218.78333,254.9807c-2.17317,0 -7.57909,0.70177 -9.36803,-0.26393c-5.08484,-2.74486 -3.5529,-8.99301 1.24093,-10.65614c1.15941,-0.40223 2.87017,-0.51639 4.68048,-0.45925c2.61161,0.08244 5.43037,0.52137 7.09974,0.96614c0.53079,0.14142 1.33387,0.36031 2.03426,0.64232c-0.09474,-0.48687 -0.13054,-0.99212 -0.17521,-1.4828c-0.33981,-3.73294 0.48783,-7.70537 0.48783,-11.49635c0,0 0,-2.5 2.5,-2.5c2.5,0 2.5,2.5 2.5,2.5c0,3.08056 0.39582,5.96242 0.05926,8.99635c-0.16666,1.50243 0.0234,2.99863 -0.07143,4.50731c-0.10616,1.68891 0.36902,3.94883 -0.97035,4.98311c-0.1823,0.14077 -5.80367,4.1495 -10.01749,4.26323z" fill="#b6b6b6" stroke="none" stroke-width="0.5" stroke-linecap="butt"/><path d="M249.2368,250.91747c-1.33937,-1.03428 -0.86419,-3.2942 -0.97035,-4.98311c-0.09482,-1.50868 0.09524,-3.00488 -0.07143,-4.50731c-0.33656,-3.03393 0.05926,-5.91579 0.05926,-8.99634c0,0 0,-2.5 2.5,-2.5c2.5,0 2.5,2.5 2.5,2.5c0,3.79098 0.82764,7.7634 0.48783,11.49634c-0.04467,0.49068 -0.08046,0.99592 -0.17521,1.4828c0.70039,-0.28202 1.50347,-0.5009 2.03426,-0.64232c2.82653,-0.75308 8.94819,-1.48941 11.78022,-0.50689c4.79383,1.66313 6.32577,7.91128 1.24093,10.65614c-1.78895,0.9657 -7.19486,0.26393 -9.36803,0.26393c-4.21382,-0.11373 -9.83519,-4.12247 -10.01749,-4.26324z" data-paper-data="{&quot;index&quot;:null}" fill="#b6b6b6" stroke="none" stroke-width="0.5" stroke-linecap="butt"/><path d="M224.7881,171.72456c0.22304,-1.6683 0.51893,-3.33022 0.69527,-5.00377c0.13818,-1.3114 -0.23603,-5.49634 0.09875,-6.51826c0.44947,-1.37203 1.54174,-2.44153 2.3126,-3.66229c0,0 1.38675,-2.08013 3.46688,-0.69338c2.08013,1.38675 0.69338,3.46688 0.69338,3.46688c-2.32979,3.22767 -1.19672,3.97749 -1.58864,7.81945c-0.2818,2.76243 -0.86019,5.49441 -1.0364,8.26558l-0.22501,0.27157l0.14164,0.04721l-0.98177,2.94531c-0.31417,1.02156 -1.26534,1.76412 -2.38994,1.76412c-1.38071,0 -2.5,-1.11929 -2.5,-2.5c0,-0.18573 0.02025,-0.36673 0.05867,-0.54091l0.98988,-4.94938c0,0 0.06472,-0.3236 0.2647,-0.71214z" fill="#b6b6b6" stroke="none" stroke-width="0.5" stroke-linecap="butt"/><path d="M243.8568,182.16306c-2.23607,-1.11803 -1.11803,-3.3541 -1.11803,-3.3541l0.81071,-1.48831c0.69369,-2.76962 2.96015,-7.41364 2.9272,-10.29772c-0.01091,-0.95479 -0.8523,-1.74786 -0.96956,-2.69549c-0.22108,-1.78656 -0.02152,-3.6003 -0.03228,-5.40046c0,0 0,-2.5 2.5,-2.5c2.5,0 2.5,2.5 2.5,2.5c-0.01076,1.53318 -0.22438,3.07841 -0.03228,4.59954c0.14456,1.14472 1.04004,2.15074 1.03044,3.30451c-0.02957,3.55255 -2.20692,8.23199 -3.0728,11.70228l-1.18929,2.51169c0,0 -1.11803,2.23607 -3.3541,1.11803z" fill="#b6b6b6" stroke="none" stroke-width="0.5" stroke-linecap="butt"/><path d="M227.9339,138.00242c-9.07134,5.82622 -18.78024,9.15617 -28.97666,12.3241c-0.51211,0.1591 -3.86661,-0.32755 -3.72194,-4.80699c0.19323,-5.98265 4.11308,-16.55556 5.15965,-17.83946c0.56999,-1.47555 13.08963,-20.54012 16.79935,-22.39808c6.18203,-3.09619 19.41789,-4.49958 25.44394,-3.01439c2.17361,0.53571 17.97241,4.07172 20.42452,6.39889c2.74179,2.60208 6.58307,8.59489 7.40281,10.32348c2.11149,4.45255 7.84793,19.81835 8.53454,21.24792c1.40454,2.92439 7.03211,18.57363 6.66593,18.94933c-0.71682,0.73544 -5.99057,7.27733 -6.33617,7.9025c-1.06937,-2.88787 -3.48652,-4.39204 -6.0305,-5.78092c-1.53441,-1.6001 -3.4401,-2.75685 -5.14204,-4.15934c-7.90794,-6.51661 -14.81937,-13.51735 -24.63323,-17.06369c-1.69201,-0.61143 -3.01081,-6.23609 -4.75067,-6.51123c-2.31481,-0.36605 -10.83952,4.42788 -10.83952,4.42788z" data-paper-data="{&quot;noHover&quot;:false,&quot;origItem&quot;:[&quot;Path&quot;,{&quot;applyMatrix&quot;:true,&quot;segments&quot;:[[[458.73312,240.12375],[-5.06778,0.40804],[3.80906,-0.30669]],[[472.02029,250.70175],[-3.88287,-0.38798],[22.52109,2.25031]],[[532.70811,272.68935],[-20.04759,-9.11538],[4.3146,1.96179]],[[545.70246,278.46229],[-4.06423,-2.43854],[6.08186,1.52047]],[[561.41189,287.03295],[-3.75309,-5.23723],[0.40357,-1.41759]],[[563.26193,282.99732],[-0.63516,1.33467],[0.92032,-1.93389]],[[566.13533,277.2505],[-1.12852,1.82027],[0.5765,-0.92987]],[[568.33508,274.81446],[-0.02656,1.09376],[0.02146,-0.88376]],[[566.23379,273.19644],[0.42523,0.77503],[-3.58209,-6.52874]],[[556.2486,253.2115],[3.68084,6.47358],[-3.3716,-5.92971]],[[543.93511,236.86707],[4.47833,5.14526],[-2.18922,-2.51524]],[[538.42388,228.51851],[2.38043,2.3351],[-2.14657,-2.1057]],[[531.36408,222.90294],[2.12044,2.13201],[-7.27961,-7.31933]],[[510.99121,198.19544],[6.76161,7.84723],[-4.97273,-5.77112]],[[497.85873,185.68432],[6.76924,1.03924],[-3.60739,-1.77923]],[[487.12685,180.16737],[3.94051,0.80699],[-2.25962,-0.46276]],[[480.20753,180.22397],[2.26184,0.45177],[-2.52901,-0.50513]],[[473.024,177.35056],[2.53405,0.4792],[-4.77373,-0.90274]],[[458.44945,177.46784],[4.85834,0],[-21.55173,0]],[[401.50598,198.29959],[15.83422,-15.44111],[-1.56253,1.52373]],[[396.45357,207.4293],[0.58777,-0.93989],[-1.22217,1.95433]],[[392.28069,212.94338],[1.13014,-2.00895],[-2.12398,3.77559]],[[386.70645,228.4184],[1.67362,-3.35134],[-1.45734,2.91824]],[[381.19251,236.50271],[1.16911,-3.04518],[-1.16636,3.03802]],[[379.88822,246.17786],[0.43476,-3.22505],[-2.69043,5.38086]],[[374.42071,263.37771],[0.37693,-6.00416],[-0.5552,8.84382]],[[374.38836,290.85683],[-0.7555,-8.83294],[0.11421,1.33526]],[[375.31811,294.76824],[-0.48963,-1.24748],[0.45176,1.15099]],[[376.96119,298.09393],[-1.1205,0.52284],[2.42907,-1.13344]],[[383.3517,293.21263],[-2.32733,1.3299],[19.84025,-11.33728]],[[435.1761,251.13722],[-16.08896,16.08896],[0,0]]],&quot;closed&quot;:true}]}" fill="#261400" stroke="none" stroke-width="0.5" stroke-linecap="butt"/><path d="M227.50865,141.40175c-6.80403,4.04338 -13.75629,7.84786 -21.37124,10.20174c-2.0522,0.63436 -7.45176,2.59329 -9.34802,2.00912c-3.77189,-1.16198 -4.68607,-6.34165 -4.31977,-9.53258c0.8282,-7.21449 3.17292,-15.34765 7.8667,-20.86081c0.5918,-1.43626 0.88632,-3.03497 1.77542,-4.30878c0.92108,-1.31965 2.48666,-2.06821 3.53051,-3.29305c3.43483,-4.03041 5.98152,-9.49741 10.70123,-12.41099c9.66649,-5.96735 20.48368,-6.38367 31.20996,-3.74004c0.91872,0.22643 6.94826,1.69953 7.28878,1.84974c1.0417,0.45953 1.7452,1.50638 2.77566,1.99059c0.99197,0.46614 2.21083,0.31171 3.18648,0.81108c0.46879,0.23995 3.91855,3.24959 4.62186,3.85664c0.95573,0.57199 2.12691,0.88375 2.8672,1.71595c0.70324,0.79056 0.80782,1.9566 1.2534,2.91629c1.47698,3.1811 3.21516,6.2346 4.77338,9.3767c4.79117,9.66127 10.32452,18.6714 12.74033,29.35971c0.34774,1.53851 0.45739,3.12257 0.7618,4.67023c0.2242,1.13989 1.09399,2.25697 0.8229,3.38663c-0.33403,1.39196 -1.61008,2.36897 -2.47735,3.5078c-1.90004,2.49497 -4.83382,7.05177 -8.77745,6.00181c-1.51717,-0.40393 -2.25335,-2.18693 -3.36882,-3.29179c-1.34463,-1.33184 -2.83871,-2.56199 -4.5116,-3.44704c-1.47008,-1.46032 -3.28425,-2.52769 -4.91078,-3.81145c-7.19118,-5.67576 -13.38116,-11.93204 -22.25476,-15.08504c-1.61959,-0.57548 -2.01446,-4.83041 -3.66238,-5.05706c-1.95076,-0.26832 -9.99428,4.13154 -11.17344,3.18457zM239.68227,131.92625c1.66516,0.27095 2.95462,5.36148 4.57802,5.938c9.41593,3.34386 16.06053,9.81117 23.69093,15.83643c1.6422,1.29674 3.47563,2.37272 4.96014,3.84737c2.44636,1.29428 4.77293,2.69202 5.82839,5.33346c0.32275,-0.56502 0.8061,-1.02941 1.21937,-1.53442c0.59881,-0.73174 1.16276,-1.49877 1.83882,-2.15981c0.34535,-0.33768 1.07334,-0.34578 1.20028,-0.81181c0.10257,-0.37655 -0.62939,-0.53842 -0.72978,-0.91556c-0.84572,-3.17698 -1.27494,-6.45767 -2.16882,-9.62144c-0.81879,-2.89796 -2.17539,-5.62828 -3.55145,-8.30691c-0.67268,-1.30944 -0.70672,-2.90843 -1.48039,-4.16085c-0.69767,-1.12939 -1.74923,-2.01505 -2.43292,-3.15295c-2.34715,-3.90649 -4.05324,-8.66513 -6.12258,-12.74318c-1.52186,-2.99914 -1.51564,-5.58967 -4.30749,-6.75029c-1.35834,-1.14377 -2.41353,-2.73641 -4.01738,-3.49863c-0.9197,-0.43708 -2.05014,-0.27413 -2.97194,-0.70674c-1.03069,-0.4837 -1.74006,-1.51748 -2.77565,-1.9906c-1.95089,-0.89129 -4.17724,-0.97621 -6.25977,-1.48948c-9.23815,-2.27687 -18.19098,-2.03234 -26.60962,2.91367c-0.83076,0.48807 -2.77899,3.03889 -3.13023,3.37968c-0.73035,0.70861 -1.67458,1.18102 -2.37125,1.92276c-1.30932,1.39401 -2.95283,4.78473 -4.02428,6.04447c-0.93299,1.09694 -2.39477,1.70101 -3.21763,2.88282c-0.82092,1.17903 -1.05416,2.67297 -1.58123,4.00946c-1.72173,2.02227 -3.36486,4.26124 -4.16075,6.79509c-1.1723,3.73225 -2.30761,7.90945 -2.91693,11.77551c-0.09211,0.58442 -0.09277,1.18839 -0.01469,1.77485c0.07205,0.5411 -0.18258,1.70488 0.35296,1.59914c1.16096,-0.22923 2.11687,-1.09305 3.25499,-1.41723c9.70226,-2.76367 18.06337,-7.36377 26.65964,-12.56058c0,0 9.04584,-2.5927 11.26125,-2.23222z" fill="#472300" stroke="none" stroke-width="0.5" stroke-linecap="butt"/></g></g></svg>