<svg version="1.1" xmlns="http://www.w3.org/2000/svg" xmlns:xlink="http://www.w3.org/1999/xlink" width="431.42643" height="314.30931" viewBox="0,0,431.42643,314.30931"><g transform="translate(-24.28679,-22.84535)"><g data-paper-data="{&quot;isPaintingLayer&quot;:true}" fill-rule="nonzero" stroke-linejoin="miter" stroke-miterlimit="10" stroke-dasharray="" stroke-dashoffset="0" style="mix-blend-mode: normal"><path d="M26.78679,334.65466v-309.30931h426.42643v309.30931z" fill="#ff9625" stroke="#b3691b" stroke-width="5" stroke-linecap="butt"/><path d="M284,99.50001v-51h159v51z" fill="#da8021" stroke="#8f5415" stroke-width="5" stroke-linecap="butt"/><path d="M283,262.50001v-151h159v151z" fill="#da8021" stroke="#8f5415" stroke-width="5" stroke-linecap="butt"/><path d="M283,324.50001v-52h159v52z" fill="#da8021" stroke="#8f5415" stroke-width="5" stroke-linecap="butt"/><path d="M64,283.50001v-202h183v202z" fill="#da8021" stroke="#8f5415" stroke-width="5" stroke-linecap="butt"/><text transform="translate(294.5,82.89947) scale(0.62221,0.62221)" font-size="40" xml:space="preserve" fill="#ffffff" fill-rule="nonzero" stroke="none" stroke-width="1" stroke-linecap="butt" stroke-linejoin="miter" stroke-miterlimit="10" stroke-dasharray="" stroke-dashoffset="0" font-family="Pixel" font-weight="normal" text-anchor="start" style="mix-blend-mode: normal"><tspan x="0" dy="0">Cloud Cone</tspan></text><text transform="translate(336,136.75001) scale(0.60834,0.60834)" font-size="40" xml:space="preserve" fill="#ffffff" fill-rule="nonzero" stroke="none" stroke-width="1" stroke-linecap="butt" stroke-linejoin="miter" stroke-miterlimit="10" stroke-dasharray="" stroke-dashoffset="0" font-family="Pixel" font-weight="normal" text-anchor="start" style="mix-blend-mode: normal"><tspan x="0" dy="0">Hint:</tspan></text><path d="M311.48077,317.00001v-33.5h36.07692v33.5z" fill="#faff00" stroke="none" stroke-width="0" stroke-linecap="butt"/><text transform="translate(355.51923,306.50001) scale(0.5,0.5)" font-size="40" xml:space="preserve" fill="#ffffff" fill-rule="nonzero" stroke="none" stroke-width="1" stroke-linecap="butt" stroke-linejoin="miter" stroke-miterlimit="10" stroke-dasharray="" stroke-dashoffset="0" font-family="Pixel" font-weight="normal" text-anchor="start" style="mix-blend-mode: normal"><tspan x="0" dy="0">medium</tspan></text><text transform="translate(286.58333,165.84449) scale(0.3947,0.3947)" font-size="40" xml:space="preserve" fill="#ffffff" fill-rule="nonzero" stroke="none" stroke-width="1" stroke-linecap="butt" stroke-linejoin="miter" stroke-miterlimit="10" stroke-dasharray="" stroke-dashoffset="0" font-family="Pixel" font-weight="normal" text-anchor="start" style="mix-blend-mode: normal"><tspan x="0" dy="0">in the clouds biome</tspan></text><path d="M134.1733,258.28654c-2.3668,0 -5.35012,-1.95845 -7.29845,-3.0102c-3.12832,-1.68871 -1.96039,-4.05038 -1.1482,-6.58623c0.62559,-1.95323 0.22802,-4.23125 2.4997,-5.01937c0.71233,-0.24713 1.61576,1.23924 2.62194,1.16897c0.77742,-0.05429 1.61619,-1.69627 2.47556,-1.66914c2.8443,0.08979 5.91422,0.56782 7.73233,1.05222c0.57808,0.15402 1.45271,0.39241 2.21551,0.69955c-0.10318,-0.53025 -0.14217,-1.08052 -0.19082,-1.61492c-0.37008,-4.06554 0.5313,-8.39191 0.5313,-12.52067c0,0 0,-2.72275 2.72275,-2.72275c2.72275,0 2.72275,2.72275 2.72275,2.72275c0,3.35503 0.43108,6.49367 0.06454,9.79792c-0.18151,1.63629 0.02549,3.26581 -0.0778,4.90891c-0.11562,1.83939 0.4019,4.30067 -1.0568,5.4271c-0.09517,0.07349 -1.39915,3.65601 -3.04762,4.7341c-1.79075,1.17114 -4.02072,-0.15552 -6.41029,-0.09102c-2.16955,0.05856 -1.46185,0.30722 -1.70237,0.93598c-0.26826,0.70126 -1.40611,1.78679 -2.65401,1.78679z" fill="#789c94" stroke="none" stroke-width="0.5" stroke-linecap="butt"/><path d="M178.73588,256.3569c-0.24052,-0.62876 0.46718,-0.87742 -1.70237,-0.93598c-2.38957,-0.06449 -4.61954,1.26217 -6.41029,0.09102c-1.64847,-1.07809 -2.95245,-4.66062 -3.04762,-4.7341c-1.45871,-1.12643 -0.94118,-3.58772 -1.0568,-5.42711c-0.10328,-1.6431 0.10371,-3.27261 -0.0778,-4.9089c-0.36655,-3.30425 0.06454,-6.44289 0.06454,-9.79792c0,0 0,-2.72275 2.72275,-2.72275c2.72275,0 2.72275,2.72275 2.72275,2.72275c0,4.12876 0.90138,8.45513 0.5313,12.52067c-0.04865,0.5344 -0.08764,1.08467 -0.19082,1.61492c0.7628,-0.30713 1.63743,-0.54553 2.21551,-0.69955c1.81811,-0.4844 4.88802,-0.96244 7.73233,-1.05223c0.85937,-0.02713 1.69814,1.61485 2.47556,1.66914c1.00619,0.07027 1.90961,-1.4161 2.62194,-1.16897c2.27168,0.78812 1.87411,3.06614 2.4997,5.01937c0.81219,2.53584 1.98012,4.89752 -1.1482,6.58623c-1.94833,1.05174 -4.93165,3.0102 -7.29845,3.0102c-1.24791,0 -2.38576,-1.08553 -2.65401,-1.78679z" data-paper-data="{&quot;index&quot;:null}" fill="#789c94" stroke="none" stroke-width="0.5" stroke-linecap="butt"/><path d="M92.1667,229.9557c-6.67548,-0.93795 -4.4177,-1.66139 -5.24165,-2.97276c-1.34989,-2.14845 -2.55097,-5.0329 -2.46386,-6.7846c0.26502,-5.32927 5.99518,-8.65546 7.70551,-8.74264c2.61565,-0.13332 80.78189,-7.14963 131.66667,0c6.12205,0.86019 4.93935,0.10373 5.55577,0.82004c1.04513,1.21449 0.70067,3.8507 2.22096,5.34439c3.27857,3.22122 0.09903,6.68883 -3.02911,9.22958c-1.67667,1.36183 -0.13137,2.45738 -4.74762,3.10599c-11.85677,1.66595 -39.98111,2.43636 -70.83444,2.3799c-20.09154,-0.03677 -40.76439,0.43976 -60.83223,-2.3799z" fill="#e6fff8" stroke="#9bada8" stroke-width="5" stroke-linecap="butt"/><path d="M113.33334,211.2057c0,0 -0.16706,-31.72636 5.89561,-49.17702c2.31955,-6.67652 10.18619,-16.26845 15.39556,-25.70121c4.21399,-7.6304 -3.35992,-15.82332 -0.5761,-21.61796c3.06847,-6.38715 16.28493,-10.00381 16.28493,-10.00381c0,0 13.3981,-5.80553 16.10073,-0.13269c0.71211,1.49473 9.43715,8.90346 13.06493,19.98792c4.45355,13.60756 24.68331,28.0304 20.26603,44.09205c-5.78564,21.03714 1.06831,42.05273 1.06831,42.05273z" fill="#e7fff8" stroke="#9bada8" stroke-width="5" stroke-linecap="butt"/><path d="M195.16667,186.4557h-78.66666l0.99999,-12.66666c0,0 5.4918,-2.70119 15.81955,-2.43025c8.56546,0.22471 25.01379,3.43025 25.01379,3.43025l39.50001,-1.33334z" fill="#ffffff" stroke="#9bada8" stroke-width="5" stroke-linecap="round"/><path d="M194.50003,149.12236l-65,-3.66667l5.66667,-9.33333c0,0 15.80587,-0.76065 24.1487,-0.64636c2.25725,0.03092 8.57718,-0.51402 11.68698,-0.35628c7.70411,0.39079 12.83099,1.66931 12.83099,1.66931z" fill="#ffffff" stroke="#9bada8" stroke-width="5" stroke-linecap="round"/><path d="M139.83335,165.5807c0,-1.38071 1.11929,-2.5 2.5,-2.5c1.38071,0 2.5,1.11929 2.5,2.5c0,1.38071 -1.11929,2.5 -2.5,2.5c-1.38071,0 -2.5,-1.11929 -2.5,-2.5z" fill="#545d5b" stroke="none" stroke-width="0.5" stroke-linecap="butt"/><path d="M160.83334,165.0807c0,-1.38071 1.11929,-2.5 2.5,-2.5c1.38071,0 2.5,1.11929 2.5,2.5c0,1.38071 -1.11929,2.5 -2.5,2.5c-1.38071,0 -2.5,-1.11929 -2.5,-2.5z" fill="#545d5b" stroke="none" stroke-width="0.5" stroke-linecap="butt"/><path d="M179.04302,191.13349c0.44722,2.45968 -2.01246,2.90689 -2.01246,2.90689l-2.87732,0.51978c-4.92614,0.34683 -9.62318,2.28605 -14.5532,3.06189c-9.14093,1.43853 -18.60895,2.48565 -27.82496,3.20129c0,0 -2.49264,0.19174 -2.68438,-2.30089c-0.19174,-2.49264 2.30089,-2.68437 2.30089,-2.68437c9.0829,-0.69161 18.42263,-1.74187 27.43228,-3.15541c5.00544,-0.78531 9.68109,-2.66743 14.68956,-3.0814l2.62268,-0.48022c0,0 2.45968,-0.44721 2.90689,2.01246z" fill="#545d5b" stroke="none" stroke-width="0.5" stroke-linecap="butt"/><path d="M134.11669,257.4807c-2.17317,0 -4.91243,-1.79823 -6.70137,-2.76393c-2.87239,-1.55056 -1.80001,-3.71902 -1.05426,-6.0474c0.57441,-1.79343 0.20936,-3.8851 2.29519,-4.60874c0.65405,-0.22691 1.48357,1.13786 2.40744,1.07334c0.71383,-0.04986 1.48398,-1.55749 2.27304,-1.53259c2.61161,0.08244 5.43037,0.52137 7.09974,0.96614c0.53079,0.14142 1.33387,0.36031 2.03426,0.64232c-0.09474,-0.48687 -0.13054,-0.99212 -0.17521,-1.4828c-0.33981,-3.73294 0.48783,-7.70537 0.48783,-11.49635c0,0 0,-2.5 2.5,-2.5c2.5,0 2.5,2.5 2.5,2.5c0,3.08056 0.39582,5.96242 0.05926,8.99635c-0.16666,1.50243 0.0234,2.99863 -0.07143,4.50731c-0.10616,1.68891 0.36902,3.94883 -0.97035,4.98311c-0.08738,0.06748 -1.28468,3.35691 -2.79829,4.3468c-1.64425,1.07533 -3.69179,-0.1428 -5.88586,-0.08357c-1.99206,0.05376 -1.34225,0.28209 -1.5631,0.85941c-0.24631,0.64389 -1.29108,1.64061 -2.43689,1.64061z" fill="#545d5b" stroke="none" stroke-width="0.5" stroke-linecap="butt"/><path d="M178.83105,255.84009c-0.22084,-0.57732 0.42896,-0.80564 -1.5631,-0.85941c-2.19407,-0.05922 -4.24161,1.15891 -5.88586,0.08357c-1.51361,-0.98989 -2.71091,-4.27933 -2.79829,-4.3468c-1.33937,-1.03428 -0.86419,-3.2942 -0.97035,-4.98311c-0.09483,-1.50868 0.09523,-3.00488 -0.07143,-4.50731c-0.33656,-3.03393 0.05926,-5.91579 0.05926,-8.99635c0,0 0,-2.5 2.5,-2.5c2.5,0 2.5,2.5 2.5,2.5c0,3.79098 0.82764,7.76341 0.48783,11.49635c-0.04467,0.49068 -0.08047,0.99593 -0.17521,1.4828c0.70039,-0.28201 1.50347,-0.5009 2.03426,-0.64232c1.66937,-0.44477 4.48813,-0.8837 7.09974,-0.96614c0.78906,-0.0249 1.55921,1.48273 2.27304,1.53259c0.92387,0.06452 1.75338,-1.30025 2.40744,-1.07334c2.08583,0.72364 1.72079,2.81531 2.2952,4.60874c0.74574,2.32838 1.81812,4.49685 -1.05427,6.0474c-1.78894,0.9657 -4.52819,2.76393 -6.70136,2.76393c-1.14582,0 -2.19058,-0.99671 -2.43689,-1.64061z" data-paper-data="{&quot;index&quot;:null}" fill="#545d5b" stroke="none" stroke-width="0.5" stroke-linecap="butt"/></g></g></svg>