<svg version="1.1" xmlns="http://www.w3.org/2000/svg" xmlns:xlink="http://www.w3.org/1999/xlink" width="431.42643" height="314.30931" viewBox="0,0,431.42643,314.30931"><defs><linearGradient x1="130.2172" y1="229.52658" x2="130.2172" y2="258.69425" gradientUnits="userSpaceOnUse" id="color-1"><stop offset="0" stop-color="#88eeff"/><stop offset="1" stop-color="#88eeff" stop-opacity="0"/></linearGradient><linearGradient x1="177.72105" y1="229.64786" x2="177.72105" y2="258.81554" gradientUnits="userSpaceOnUse" id="color-2"><stop offset="0" stop-color="#88eeff"/><stop offset="1" stop-color="#88eeff" stop-opacity="0"/></linearGradient><linearGradient x1="155.42859" y1="212.59857" x2="155.42859" y2="231.09857" gradientUnits="userSpaceOnUse" id="color-3"><stop offset="0" stop-color="#88eeff"/><stop offset="1" stop-color="#88eeff" stop-opacity="0"/></linearGradient><linearGradient x1="155.42859" y1="212.59857" x2="155.42859" y2="231.09857" gradientUnits="userSpaceOnUse" id="color-4"><stop offset="0" stop-color="#78bfe3"/><stop offset="1" stop-color="#78bfe3" stop-opacity="0"/></linearGradient><linearGradient x1="154.51193" y1="105.71588" x2="154.51193" y2="212.34857" gradientUnits="userSpaceOnUse" id="color-5"><stop offset="0" stop-color="#88eeff"/><stop offset="1" stop-color="#88eeff" stop-opacity="0"/></linearGradient><linearGradient x1="154.51193" y1="105.71588" x2="154.51193" y2="212.34857" gradientUnits="userSpaceOnUse" id="color-6"><stop offset="0" stop-color="#78bfe3"/><stop offset="1" stop-color="#78bfe3" stop-opacity="0"/></linearGradient><linearGradient x1="153.92859" y1="174.93191" x2="153.92859" y2="188.26524" gradientUnits="userSpaceOnUse" id="color-7"><stop offset="0" stop-color="#ffffff"/><stop offset="1" stop-color="#ffffff" stop-opacity="0"/></linearGradient><linearGradient x1="153.92859" y1="174.93191" x2="153.92859" y2="188.26524" gradientUnits="userSpaceOnUse" id="color-8"><stop offset="0" stop-color="#78bfe3"/><stop offset="1" stop-color="#78bfe3" stop-opacity="0"/></linearGradient><linearGradient x1="155.59526" y1="136.9319" x2="155.59526" y2="148.59857" gradientUnits="userSpaceOnUse" id="color-9"><stop offset="0" stop-color="#ffffff"/><stop offset="1" stop-color="#ffffff" stop-opacity="0"/></linearGradient><linearGradient x1="155.59526" y1="136.9319" x2="155.59526" y2="148.59857" gradientUnits="userSpaceOnUse" id="color-10"><stop offset="0" stop-color="#78bfe3"/><stop offset="1" stop-color="#78bfe3" stop-opacity="0"/></linearGradient><linearGradient x1="141.15779" y1="154.29333" x2="141.15779" y2="168.64188" gradientUnits="userSpaceOnUse" id="color-11"><stop offset="0" stop-color="#88eeff"/><stop offset="1" stop-color="#88eeff" stop-opacity="0"/></linearGradient><linearGradient x1="167.03282" y1="153.82383" x2="167.03282" y2="167.5747" gradientUnits="userSpaceOnUse" id="color-12"><stop offset="0" stop-color="#88eeff"/><stop offset="1" stop-color="#88eeff" stop-opacity="0"/></linearGradient><linearGradient x1="154.07246" y1="181.65493" x2="154.07246" y2="191.40055" gradientUnits="userSpaceOnUse" id="color-13"><stop offset="0" stop-color="#88eeff"/><stop offset="1" stop-color="#88eeff" stop-opacity="0"/></linearGradient></defs><g transform="translate(-24.2868,-22.84535)"><g data-paper-data="{&quot;isPaintingLayer&quot;:true}" fill-rule="nonzero" stroke-linejoin="miter" stroke-miterlimit="10" stroke-dasharray="" stroke-dashoffset="0" style="mix-blend-mode: normal"><path d="M26.78681,334.65467v-309.30931h426.42643v309.30931z" fill="#ff9625" stroke="#b3691b" stroke-width="5" stroke-linecap="butt"/><path d="M284.00002,99.50002v-51h159v51z" fill="#da8021" stroke="#8f5415" stroke-width="5" stroke-linecap="butt"/><path d="M283.00002,262.50002v-151h159v151z" fill="#da8021" stroke="#8f5415" stroke-width="5" stroke-linecap="butt"/><path d="M283.00002,324.50002v-52h159v52z" fill="#da8021" stroke="#8f5415" stroke-width="5" stroke-linecap="butt"/><path d="M64.00002,283.50002v-202h183v202z" fill="#da8021" stroke="#8f5415" stroke-width="5" stroke-linecap="butt"/><text transform="translate(289.50002,82.53301) scale(0.58425,0.58425)" font-size="40" xml:space="preserve" fill="#ffffff" fill-rule="nonzero" stroke="none" stroke-width="1" stroke-linecap="butt" stroke-linejoin="miter" stroke-miterlimit="10" stroke-dasharray="" stroke-dashoffset="0" font-family="Pixel" font-weight="normal" text-anchor="start" style="mix-blend-mode: normal"><tspan x="0" dy="0">Bubble Cone</tspan></text><text transform="translate(336.00002,136.75) scale(0.60834,0.60834)" font-size="40" xml:space="preserve" fill="#ffffff" fill-rule="nonzero" stroke="none" stroke-width="1" stroke-linecap="butt" stroke-linejoin="miter" stroke-miterlimit="10" stroke-dasharray="" stroke-dashoffset="0" font-family="Pixel" font-weight="normal" text-anchor="start" style="mix-blend-mode: normal"><tspan x="0" dy="0">Hint:</tspan></text><text transform="translate(306.00002,166.125) scale(0.40249,0.40249)" font-size="40" xml:space="preserve" fill="#ffffff" fill-rule="nonzero" stroke="none" stroke-width="1" stroke-linecap="butt" stroke-linejoin="miter" stroke-miterlimit="10" stroke-dasharray="" stroke-dashoffset="0" font-family="Pixel" font-weight="normal" text-anchor="start" style="mix-blend-mode: normal"><tspan x="0" dy="0">in the ocean</tspan></text><path d="M310.98079,316.75002v-33.5h36.07692v33.5z" fill="#5aff00" stroke="none" stroke-width="0" stroke-linecap="butt"/><text transform="translate(355.01925,306.25002) scale(0.5,0.5)" font-size="40" xml:space="preserve" fill="#ffffff" fill-rule="nonzero" stroke="none" stroke-width="1" stroke-linecap="butt" stroke-linejoin="miter" stroke-miterlimit="10" stroke-dasharray="" stroke-dashoffset="0" font-family="Pixel" font-weight="normal" text-anchor="start" style="mix-blend-mode: normal"><tspan x="0" dy="0">easy</tspan></text><path d="M138.01117,257.61468c-3.91316,1.78291 -21.09244,2.39391 -18.83673,-6.62891c1.69256,-6.77024 9.26743,-4.24274 13.97468,-3.93199c0.39218,0.02589 1.87977,-0.02235 3.31411,0.10473c0,-5.05864 0,-10.27602 0,-15.13193c0,0 0,-2.5 2.5,-2.5c2.5,0 2.5,2.5 2.5,2.5c0,6.74826 0,13.49651 0,20.24477v0.6981c0,0 0,1.64983 -1.34026,2.26897c-0.18749,0.92147 -0.7141,1.73945 -2.1118,2.37627z" fill="url(#color-1)" stroke="none" stroke-width="0.5" stroke-linecap="butt"/><path d="M167.8153,255.35969c-1.34026,-0.61914 -1.34027,-2.26897 -1.34027,-2.26897v-0.6981c0,-6.74825 0,-13.49651 0,-20.24476c0,0 0,-2.5 2.5,-2.5c2.5,0 2.5,2.5 2.5,2.5c0,4.85591 0,10.07329 0,15.13193c1.43434,-0.12707 2.92194,-0.07883 3.31412,-0.10473c4.70725,-0.31076 12.28211,-2.83826 13.97467,3.93199c2.2557,9.02283 -14.92356,8.41182 -18.83673,6.62892c-1.39769,-0.63682 -1.92431,-1.4548 -2.1118,-2.37627z" data-paper-data="{&quot;index&quot;:null}" fill="url(#color-2)" stroke="none" stroke-width="0.5" stroke-linecap="butt"/><path d="M89.59526,231.09857v-18.5h131.66667v18.5z" fill="url(#color-3)" stroke="url(#color-4)" stroke-width="5" stroke-linecap="butt"/><path d="M110.76193,212.34857l37,-106.5l16.10073,-0.13269l34.39927,106.1327z" fill="url(#color-5)" stroke="url(#color-6)" stroke-width="5" stroke-linecap="butt"/><path d="M187.26191,187.93191l-66.66666,0.33333l4.33333,-13.33333h59.66667z" fill="url(#color-7)" stroke="url(#color-8)" stroke-width="5" stroke-linecap="round"/><path d="M176.26191,148.59857l-41.33334,-1.33334l2.33334,-10.33333l36,0.66667z" fill="url(#color-9)" stroke="url(#color-10)" stroke-width="5" stroke-linecap="round"/><path d="M144.56799,160.71759c-0.44584,1.78337 -0.22847,3.59546 -0.49061,5.39662c-0.55938,3.84351 -5.41548,2.95458 -6.14473,-0.32707c-0.42333,-1.90498 -0.10577,-8.40251 0.8031,-9.91729c2.23662,-3.7277 5.19069,-0.00793 5.83224,2.55827z" fill="url(#color-11)" stroke="none" stroke-width="0.5" stroke-linecap="butt"/><path d="M167.30358,134.76163c-2.28746,1.00873 -3.29619,-1.27873 -3.29619,-1.27873l-0.94148,-2.13496c-1.68758,-3.8469 -3.01147,-6.35905 -7.42443,-6.74005c0,0 -2.48654,-0.25908 -2.22746,-2.74562c0.25908,-2.48654 2.74562,-2.22746 2.74562,-2.22746c6.29954,0.73721 9.01646,4.13229 11.48119,9.69568l0.94148,2.13496c0,0 1.00873,2.28746 -1.27873,3.29619z" fill="#ffffff" stroke="none" stroke-width="0.5" stroke-linecap="butt"/><path d="M170.59103,160.53872c-0.46875,1.87503 0.04937,4.28046 -1.48584,5.81304c-4.86702,4.8587 -6.9538,-6.11596 -5.17334,-9.28116c0.79151,-1.40709 1.18018,-3.40132 3.31309,-3.23725c0.97383,0.07491 4.30501,1.97969 3.34608,3.41808z" fill="url(#color-12)" stroke="none" stroke-width="0.5" stroke-linecap="butt"/><path d="M161.20488,182.79936c0.05665,-0.04474 0.11327,-0.08968 0.16987,-0.13477zM160.97005,182.98362c0.05759,-0.10003 1.27111,-2.14856 3.40012,-0.95778c2.1819,1.22036 0.96155,3.40227 0.96155,3.40227l-0.88878,1.18443c-4.79666,3.65317 -9.60518,5.98865 -15.907,4.14085c-1.08644,-0.31856 -4.63786,-4.09133 -5.28251,-4.73896c0,0 -1.7627,-1.77282 0.01012,-3.53552c1.77282,-1.7627 3.53552,0.01012 3.53552,0.01012c1.20257,1.2109 1.95966,3.19986 3.61141,3.62904c4.23152,1.09952 7.44864,-0.71056 10.55957,-3.13446z" fill="url(#color-13)" stroke="none" stroke-width="0.5" stroke-linecap="butt"/></g></g></svg>