<svg version="1.1" xmlns="http://www.w3.org/2000/svg" xmlns:xlink="http://www.w3.org/1999/xlink" width="431.42643" height="314.30931" viewBox="0,0,431.42643,314.30931"><g transform="translate(-24.28682,-22.84537)"><g data-paper-data="{&quot;isPaintingLayer&quot;:true}" fill-rule="nonzero" stroke-linejoin="miter" stroke-miterlimit="10" stroke-dasharray="" stroke-dashoffset="0" style="mix-blend-mode: normal"><path d="M26.78682,334.65468v-309.30931h426.42643v309.30931z" fill="#ff9625" stroke="#b3691b" stroke-width="5" stroke-linecap="butt"/><path d="M284.00005,99.50007v-51h159v51z" fill="#da8021" stroke="#8f5415" stroke-width="5" stroke-linecap="butt"/><path d="M283.00005,262.50005v-151h159v151z" fill="#da8021" stroke="#8f5415" stroke-width="5" stroke-linecap="butt"/><path d="M283.00005,324.50005v-52h159v52z" fill="#da8021" stroke="#8f5415" stroke-width="5" stroke-linecap="butt"/><path d="M64.00002,283.50005v-202h183v202z" fill="#da8021" stroke="#8f5415" stroke-width="5" stroke-linecap="butt"/><text transform="translate(299.50005,70.45027) scale(0.41529,0.41529)" font-size="40" xml:space="preserve" fill="#ffffff" fill-rule="nonzero" stroke="none" stroke-width="1" stroke-linecap="butt" stroke-linejoin="miter" stroke-miterlimit="10" stroke-dasharray="" stroke-dashoffset="0" font-family="Pixel" font-weight="normal" text-anchor="start" style="mix-blend-mode: normal"><tspan x="0" dy="0">The World's</tspan><tspan x="0" dy="48px">Smallest Cone</tspan></text><text transform="translate(336.00005,136.75001) scale(0.60834,0.60834)" font-size="40" xml:space="preserve" fill="#ffffff" fill-rule="nonzero" stroke="none" stroke-width="1" stroke-linecap="butt" stroke-linejoin="miter" stroke-miterlimit="10" stroke-dasharray="" stroke-dashoffset="0" font-family="Pixel" font-weight="normal" text-anchor="start" style="mix-blend-mode: normal"><tspan x="0" dy="0">Hint:</tspan></text><path d="M311.33079,317.15004v-33.5h36.07692v33.5z" fill="#ff0000" stroke="none" stroke-width="0" stroke-linecap="butt"/><text transform="translate(355.36927,306.65004) scale(0.5,0.5)" font-size="40" xml:space="preserve" fill="#ffffff" fill-rule="nonzero" stroke="none" stroke-width="1" stroke-linecap="butt" stroke-linejoin="miter" stroke-miterlimit="10" stroke-dasharray="" stroke-dashoffset="0" font-family="Pixel" font-weight="normal" text-anchor="start" style="mix-blend-mode: normal"><tspan x="0" dy="0">Hard</tspan></text><path d="" data-paper-data="{&quot;index&quot;:null}" fill="#fff600" stroke="#ada700" stroke-width="5" stroke-linecap="butt"/><path d="" data-paper-data="{&quot;index&quot;:null}" fill="#fff600" stroke="#ada700" stroke-width="5" stroke-linecap="butt"/><path d="" data-paper-data="{&quot;index&quot;:null}" fill="#ffffff" stroke="#ada700" stroke-width="5" stroke-linecap="round"/><path d="" data-paper-data="{&quot;index&quot;:null}" fill="#ffffff" stroke="#ada700" stroke-width="5" stroke-linecap="round"/><path d="" fill="#68650e" stroke="none" stroke-width="0.5" stroke-linecap="butt"/><path d="" fill="#68650e" stroke="none" stroke-width="0.5" stroke-linecap="butt"/><path d="" fill="#68650e" stroke="none" stroke-width="0.5" stroke-linecap="butt"/><path d="" fill="#68650e" stroke="none" stroke-width="0.5" stroke-linecap="butt"/><path d="" data-paper-data="{&quot;index&quot;:null}" fill="#68650e" stroke="none" stroke-width="0.5" stroke-linecap="butt"/><text transform="translate(298.58333,165.84454) scale(0.3947,0.3947)" font-size="40" xml:space="preserve" fill="#ffffff" fill-rule="nonzero" stroke="none" stroke-width="1" stroke-linecap="butt" stroke-linejoin="miter" stroke-miterlimit="10" stroke-dasharray="" stroke-dashoffset="0" font-family="Pixel" font-weight="normal" text-anchor="start" style="mix-blend-mode: normal"><tspan x="0" dy="0">he is just very</tspan><tspan x="0" dy="48px">tiny.</tspan></text><path d="M147.16433,186.39015l5.54408,-15.95797l2.41253,-0.01988l5.15439,15.90293z" fill="#ff8221" stroke="#ad5816" stroke-width="0.75" stroke-linecap="butt"/><path d="M143.99271,189.19965v-2.77204h19.72895v2.77204z" fill="#ff8221" stroke="#ad5816" stroke-width="0.75" stroke-linecap="butt"/><path d="M158.6271,182.73155l-9.98935,0.04995l0.64931,-1.99787h8.94046z" fill="#ffffff" stroke="#ad5816" stroke-width="0.75" stroke-linecap="round"/><path d="M156.97886,176.83784l-6.19339,-0.19979l0.34963,-1.54834l5.39424,0.09989z" fill="#ffffff" stroke="#ad5816" stroke-width="0.75" stroke-linecap="round"/><text transform="translate(154.07592,187.52786) scale(0.00093,0.00097)" font-size="40" xml:space="preserve" fill="#522a0b" fill-rule="nonzero" stroke="none" stroke-width="1" stroke-linecap="butt" stroke-linejoin="miter" stroke-miterlimit="10" stroke-dasharray="" stroke-dashoffset="0" font-family="Sans Serif" font-weight="normal" text-anchor="start" style="mix-blend-mode: normal"><tspan x="0" dy="0">World's smallest text and circle</tspan></text><path d="M154.35809,187.57102c0,0.00521 -0.00371,0.00943 -0.00829,0.00943c-0.00458,0 -0.00829,-0.00422 -0.00829,-0.00943c0,-0.00521 0.00371,-0.00943 0.00829,-0.00943c0.00458,0 0.00829,0.00422 0.00829,0.00943z" fill="#522a0b" stroke="none" stroke-width="0" stroke-linecap="butt"/><path d="M152.21898,180.02158c-0.07751,0.53257 -0.75038,0.40939 -0.85143,-0.04532c-0.05866,-0.26396 -0.01466,-1.16428 0.11128,-1.37417c0.30991,-0.51652 0.71923,-0.00109 0.80813,0.35449c0,0 -0.03166,0.81543 -0.06798,1.065z" fill="#000000" stroke="none" stroke-width="0.5" stroke-linecap="butt"/><path d="M155.8476,179.24902c-0.06495,0.25981 0.00685,0.59311 -0.20588,0.80547c-0.67439,0.67324 -0.96354,-0.84745 -0.71684,-1.28603c0.10968,-0.19497 0.16353,-0.47129 0.45907,-0.44856c0.13494,0.01038 0.46365,0.92912 0.46365,0.92912z" fill="#000000" stroke="none" stroke-width="0.5" stroke-linecap="butt"/><path d="M154.61575,182.31484c0,0 -0.00785,0.00625 0,0zM155.0308,182.22634c0.30233,0.16909 -1.32084,1.46534 -2.19404,1.2093c-0.15054,-0.04414 -0.64263,-0.5669 -0.73195,-0.65664c0,0 -0.24424,-0.24565 0.0014,-0.4899c0.24564,-0.24425 0.48989,0.00141 0.48989,0.00141c0.16663,0.16779 0.27154,0.44338 0.50041,0.50285c0.58633,0.15236 1.0321,-0.09846 1.46316,-0.43432c0,0 0.17613,-0.2977 0.47113,-0.1327z" fill="#000000" stroke="none" stroke-width="0.5" stroke-linecap="butt"/><path d="M149.27371,194.33497c-0.26517,-0.26517 1.12425,-3.48298 1.57126,-5.05073c0,0 0.10302,-0.36057 0.46359,-0.25755c0.36057,0.10302 0.25755,0.46359 0.25755,0.46359c-0.45669,1.59532 -0.95464,3.11495 -1.60251,4.64627l-0.15956,0.19842c0,0 -0.26517,0.26517 -0.53033,0z" fill="#000000" stroke="none" stroke-width="0.5" stroke-linecap="butt"/><path d="M156.84556,193.87848l-0.44841,-1.38495c-0.35187,-1.0594 -0.24915,-2.1618 -0.24915,-3.265c0,0 0,-0.375 0.375,-0.375c0.375,0 0.375,0.375 0.375,0.375c0,1.04129 -0.10699,2.08577 0.22704,3.08421l0.08532,0.50494z" fill="#000000" stroke="none" stroke-width="0.5" stroke-linecap="butt"/></g></g></svg>