<svg version="1.1" xmlns="http://www.w3.org/2000/svg" xmlns:xlink="http://www.w3.org/1999/xlink" width="136.66667" height="156.21402" viewBox="0,0,136.66667,156.21402"><g transform="translate(-171.66669,-102.05798)"><g data-paper-data="{&quot;isPaintingLayer&quot;:true}" fill-rule="nonzero" stroke-linejoin="miter" stroke-miterlimit="10" stroke-dasharray="" stroke-dashoffset="0" style="mix-blend-mode: normal"><path d="M221.98328,257.07115c-3.91316,1.78291 -21.09244,2.39391 -18.83673,-6.62891c1.69256,-6.77024 9.26743,-4.24274 13.97468,-3.93199c0.39218,0.02589 1.87977,-0.02235 3.31411,0.10473c0,-5.05864 0,-10.27602 0,-15.13193c0,0 0,-2.5 2.5,-2.5c2.5,0 2.5,2.5 2.5,2.5c0,6.74826 0,13.49651 0,20.24477v0.6981c0,0 0,1.64983 -1.34026,2.26897c-0.18749,0.92147 -0.7141,1.73945 -2.1118,2.37627z" fill="#000000" stroke="none" stroke-width="0.5" stroke-linecap="butt"/><path d="M251.78739,254.81616c-1.34026,-0.61914 -1.34027,-2.26897 -1.34027,-2.26897v-0.6981c0,-6.74825 0,-13.49651 0,-20.24476c0,0 0,-2.5 2.5,-2.5c2.5,0 2.5,2.5 2.5,2.5c0,4.85591 0,10.07329 0,15.13193c1.43434,-0.12707 2.92194,-0.07883 3.31412,-0.10473c4.70725,-0.31076 12.28211,-2.83826 13.97467,3.93199c2.2557,9.02283 -14.92356,8.41182 -18.83673,6.62892c-1.39769,-0.63682 -1.92431,-1.4548 -2.1118,-2.37627z" data-paper-data="{&quot;index&quot;:null}" fill="#000000" stroke="none" stroke-width="0.5" stroke-linecap="butt"/><path d="M195.33333,211.2057l37,-106.5l16.10073,-0.13269l34.39927,106.1327z" fill="#25b8b2" stroke="#1c7875" stroke-width="5" stroke-linecap="butt"/><path d="M174.16669,229.9557v-18.5h131.66667v18.5z" fill="#ffffff" stroke="#9992a2" stroke-width="5" stroke-linecap="butt"/><path d="M220.54509,156.69485c-0.37578,-1.86063 -0.31823,-3.71178 0.2807,-4.93105c0.09019,-0.18361 0.18788,-0.36235 0.29204,-0.53689l-0.06907,-0.03719l1.72565,-3.20478c0.41446,-0.80748 1.25547,-1.35997 2.22553,-1.35997c1.05134,0 1.9511,0.64897 2.32056,1.56816l1.0787,2.51698c1.06593,0.28587 1.85074,1.25872 1.85074,2.41486v2.78056c0.92592,-0.0075 1.9616,-0.05986 2.96359,0.03116c0.73961,-1.1243 1.47122,-2.2634 2.69582,-2.49096c5.45147,-1.01298 8.05472,4.04302 6.26272,8.41693c-0.5897,1.43934 -2.63936,1.64684 -3.9691,2.45383c-2.35429,1.42875 -5.2425,3.43952 -8.27104,2.67087c-1.55198,-0.3939 -2.51786,-2.16023 -3.17179,-3.88166c-0.32958,0.08194 -0.65009,0.11609 -0.96067,0.10747c-1.3549,0.5669 -2.88466,0.4601 -4.31729,-1.07043c-1.15303,-1.23183 -1.25076,-3.28783 -0.93708,-5.44789z" fill="#f60300" stroke="none" stroke-width="0.5" stroke-linecap="butt"/><path d="M219.0801,185.01174c-0.59222,0.86486 -0.90422,2.0136 -1.77667,2.59459c-0.12265,0.08168 -0.24716,0.15993 -0.37331,0.23511l0.04028,0.05539l-2.7276,1.98371c-0.41659,0.3106 -0.93324,0.49445 -1.49283,0.49445c-1.38071,0 -2.5,-1.11929 -2.5,-2.5c0,-0.08694 0.00444,-0.17284 0.0131,-0.25749l0.24717,-2.71884l0.12209,0.0111l-0.06331,-0.36829c0.22118,-0.52551 0.48003,-1.10127 0.77912,-1.68401c0.00703,-2.0374 0.4595,-4.26174 0.72647,-5.33881c0,0 0.50028,-2.00113 2.4097,-1.91354c0.45224,-0.45117 1.07637,-0.73012 1.76566,-0.73012c1.24305,0 2.27422,0.90723 2.46747,2.09567l0.35971,1.97838c0.08548,0.04624 0.16963,0.09436 0.25254,0.14421l0.02464,-0.06775l2.69522,0.98008c0.98859,0.33349 1.70042,1.26832 1.70042,2.3694c0,1.38071 -1.11929,2.5 -2.5,2.5c-0.27016,0 -0.53031,-0.04285 -0.77403,-0.12213l-1.09254,-0.32776z" fill="#09ff42" stroke="none" stroke-width="0.5" stroke-linecap="butt"/><path d="M271.86794,189.86105c-2.23607,1.11803 -3.3541,-1.11803 -3.3541,-1.11803l-0.50152,-1.36927c0.18669,-0.29838 0.88927,-0.77057 0.56008,-0.89513c-0.44082,-0.16679 -0.81772,0.48529 -1.26703,0.62764c-1.57436,0.49876 -4.61594,1.67647 -7.10045,1.64278c-1.55286,1.1375 -3.28881,0.78322 -5.35747,-3.18254c-0.6398,-1.22654 0.3645,-2.7609 0.81188,-4.06995c0.43877,-1.28386 0.72356,-2.84406 1.82282,-3.63932c0.53326,-0.38578 1.12421,-0.73536 1.73616,-1.02201c0.42023,-0.46815 1.08437,-0.85509 2.10541,-0.69278c0.01784,-0.0032 0.03567,-0.00633 0.05348,-0.00937c0.27471,-0.08496 0.55686,-0.11593 0.84548,-0.08237c1.65141,-0.02858 2.99005,0.79861 3.18003,3.08987c0.06632,0.12479 0.13277,0.25389 0.19934,0.38736c0.44921,0.90071 0.06431,1.86351 -0.5444,2.80876c2.48786,-0.63924 5.31154,-0.73717 6.86979,0.43467c1.12945,0.84937 0.70672,2.73658 1.06008,4.10487l-0.00152,-0.36927c0,0 1.11803,2.23607 -1.11803,3.3541z" fill="#ff047f" stroke="none" stroke-width="0.5" stroke-linecap="butt"/><text transform="translate(215.66669,195.49998) scale(0.81781,0.81781)" font-size="40" xml:space="preserve" fill="#ffffff" fill-rule="nonzero" stroke="none" stroke-width="1" stroke-linecap="butt" stroke-linejoin="miter" stroke-miterlimit="10" stroke-dasharray="" stroke-dashoffset="0" font-family="Marker" font-weight="normal" text-anchor="start" style="mix-blend-mode: normal"><tspan x="0" dy="0">64</tspan></text><path d="M250.69552,143.50316c0.09858,-0.06565 0.1623,-0.1006 0.1845,-0.09912c0.53323,0.03544 1.00824,0.08394 1.43006,0.14385c0.4584,-0.56317 1.15714,-0.92291 1.93989,-0.92291c1.16178,0 2.13847,0.79247 2.41899,1.86634l0.98482,3.44686l-0.15561,0.04446l0.2408,0.40814c-0.26089,3.0215 -0.67378,4.66941 -1.667,6.31301l0.24919,0.09968l-0.97837,2.44593c-0.35452,0.94948 -1.26971,1.62559 -2.34282,1.62559c-1.22888,0 -2.25067,-0.88665 -2.46053,-2.05512l-0.45939,-2.29694c-0.36829,-0.96458 -0.77129,-1.93581 -1.24936,-2.86211c-0.97065,0.82469 -2.02643,1.41983 -2.06747,1.45417l-0.11462,0.03025l0.02439,0.03524l-3.22414,2.2321c-0.40873,0.29117 -0.90881,0.46242 -1.44888,0.46242c-1.38071,0 -2.5,-1.11929 -2.5,-2.5c0,-0.77141 0.34939,-1.46122 0.89855,-1.91981l2.19929,-1.86094c-0.80087,-0.41664 -1.34784,-1.25407 -1.34784,-2.21926c0,-1.10109 0.71184,-2.03592 1.70042,-2.3694l2.69522,-0.98008l0.06855,0.18852l0.35205,-0.30112c0.14459,0.03784 0.28917,0.07568 0.43376,0.11352v-0.15144h1.68248l0.55217,-0.28453c0,0 0.99319,-0.44142 1.96089,-0.08729z" fill="#03f8f9" stroke="none" stroke-width="0.5" stroke-linecap="butt"/><path d="M252.49996,210.21665v-12.33333h26.66667v12.33333z" fill="#ffca05" stroke="#c73409" stroke-width="2.5" stroke-linecap="butt"/><path d="M278.77772,205.43887v-8.77778h3.30556v8.77778z" fill="#b7e7d7" stroke="none" stroke-width="0" stroke-linecap="butt"/><path d="M278.74227,210.99443v-6h3.24373v6z" fill="#74b0a8" stroke="none" stroke-width="0" stroke-linecap="butt"/><path d="M281.98605,210.93887v-13.93333c0,0 4.79804,-2.62903 4.77778,0c-0.01541,1.99962 -0.37698,8.80077 0,13.93333c0.15067,2.05139 -4.77778,0 -4.77778,0z" fill="#f66ba2" stroke="none" stroke-width="0" stroke-linecap="butt"/><path d="M253.68102,209.08179v-5.125h24.2158v5.125z" fill="#ed8721" stroke="none" stroke-width="0" stroke-linecap="butt"/><path d="M251.54133,211.51306l-15.71816,-9.01735l16.2169,-5.87514z" fill="#fac462" stroke="#000000" stroke-width="0" stroke-linecap="butt"/><path d="M251.76913,203.22039l-0.07901,8.36142c0,0 -10.04454,-5.75297 -12.83976,-7.35392c-1.35538,-0.77629 -3.01888,-1.72905 -3.01888,-1.72905z" fill="#c18e35" stroke="#000000" stroke-width="0" stroke-linecap="round"/><path d="M235.49674,202.63031l3.68941,-1.36125c0,0 -0.00552,1.58221 0.01239,1.99166c0.00979,0.22391 -0.10447,0.93792 -0.10447,0.93792z" fill="#2d0000" stroke="none" stroke-width="0" stroke-linecap="butt"/><path d="M176.31246,227.50034v-5.41667h126.75v5.41667z" fill="#e2dcdb" stroke="#1c7875" stroke-width="0" stroke-linecap="butt"/><path d="M260.72945,227.50752c0,0 -1.43897,-1.33267 -2.15846,-1.85614c-0.71949,-0.52347 -5.11817,-4.10867 -8.12783,-5.34171c-7.86149,-3.22082 -19.96546,-3.97389 -27.66998,0.09787c-4.2591,2.25089 -4.92864,4.06142 -8.5202,7.328l-5.93479,0.01459c3.96202,-3.60008 7.3922,-9.22523 12.10837,-11.75772c3.97367,-2.13378 8.97692,-1.68518 14.10503,-1.85105c6.31562,-0.20427 12.82061,-0.5654 17.82498,1.54892c0.26197,0.11068 0.53195,0.22894 0.80865,0.35454c3.27063,1.48458 7.48093,3.99462 10.50507,7.13332c1.33158,1.38202 1.50128,4.45984 1.50128,4.45984z" fill="#089584" stroke="none" stroke-width="0.5" stroke-linecap="butt"/><path d="M243.49894,227.60106c-2.60711,-2.43582 -5.56696,-2.98726 -8.39294,-2.98958c-3.32247,-0.00273 -6.5145,0.91738 -9.53532,2.8405l-6.82724,0.21026c2.82669,-1.7981 3.17893,-3.71359 6.85775,-4.92084c6.49175,-2.13034 16.69847,-2.35725 21.67114,2.00033l1.95616,2.67252z" fill="#089584" stroke="none" stroke-width="0.5" stroke-linecap="butt"/><path d="M229.13943,159.57473c-0.44584,1.78337 -0.22847,3.59546 -0.49061,5.39662c-0.55938,3.84351 -5.41548,2.95458 -6.14473,-0.32707c-0.42333,-1.90498 -0.10577,-8.40251 0.8031,-9.91729c2.23662,-3.7277 5.19069,-0.00793 5.83224,2.55827z" fill="#000000" stroke="none" stroke-width="0.5" stroke-linecap="butt"/><path d="M255.16247,159.39586c-0.46875,1.87503 0.04937,4.28046 -1.48584,5.81304c-4.86702,4.8587 -6.9538,-6.11596 -5.17334,-9.28116c0.79151,-1.40709 1.18018,-3.40132 3.31309,-3.23725c0.97383,0.07491 4.30501,1.97969 3.34608,3.41808z" fill="#000000" stroke="none" stroke-width="0.5" stroke-linecap="butt"/><path d="M245.7763,181.6565c0.05665,-0.04474 0.11327,-0.08968 0.16987,-0.13477zM245.54149,181.84076c0.05759,-0.10003 1.27111,-2.14856 3.40012,-0.95778c2.1819,1.22036 0.96155,3.40227 0.96155,3.40227l-0.88878,1.18443c-4.79666,3.65317 -9.60518,5.98865 -15.907,4.14085c-1.08644,-0.31856 -4.63786,-4.09133 -5.28251,-4.73896c0,0 -1.7627,-1.77282 0.01012,-3.53552c1.77282,-1.7627 3.53552,0.01012 3.53552,0.01012c1.20257,1.2109 1.95966,3.19986 3.61141,3.62904c4.23152,1.09952 7.44864,-0.71056 10.55957,-3.13446z" fill="#000000" stroke="none" stroke-width="0.5" stroke-linecap="butt"/></g></g></svg>